<svg width="818" height="1206" viewBox="0 0 818 1206" fill="none" xmlns="http://www.w3.org/2000/svg">
<path fill-rule="evenodd" clip-rule="evenodd" d="M800.879 1121.38C799.284 1091.75 797.324 1062.14 794.978 1032.55C790.303 973.621 784.182 914.645 773.996 856.392C763.947 798.916 749.883 743.027 729.621 688.258C720.221 662.848 710.041 641.171 695.273 618.329C681.309 596.732 663.49 582.098 641.29 569.061C621.288 557.315 598.051 536.935 578.867 523.781C570.858 518.29 554.38 518.656 548.888 510.533C541.696 499.896 546.359 483.615 539.109 473.013C530.822 460.891 519.212 451.474 506.12 444.633C491.831 434.957 475.001 430.577 458.126 431.18C433.242 429.671 408.18 437.593 392.204 457.847C384.232 467.955 379.577 479.617 378.933 492.53C378.765 495.889 379.844 498.537 381.62 500.449C380.567 501.857 379.519 503.266 378.478 504.683C375.21 499.843 367.572 497.271 362.482 500.924C345.83 512.877 327.833 522.381 308.838 529.348C304.394 527.245 299.014 528.219 295.207 531.652C293.662 533.044 292.023 534.235 290.31 535.246C283.267 537.155 276.115 538.75 268.857 539.983C266.585 540.368 264.66 541.658 263.2 543.397C261.037 541.375 258.064 540.404 254.744 541.67C216.409 556.283 180.207 578.984 152.69 609.74C122.204 643.813 106.192 686.198 94.0022 729.622C80.8062 776.629 72.3732 824.806 65.2902 873.064C58.1132 921.961 51.0442 971.049 46.1062 1020.23C43.3272 1047.9 42.2672 1075.83 43.5252 1103.63C44.1522 1117.52 45.4212 1131.37 47.4422 1145.13C47.9132 1148.35 48.4062 1152.06 49.2002 1155.76C46.7872 1155.29 43.9132 1157.33 44.4022 1160.59C47.8082 1183.33 75.3022 1189.96 94.2642 1192.58C125.281 1196.86 156.459 1199.23 187.774 1199.42C218.547 1199.6 249.315 1197.62 280.024 1195.85C311.508 1194.04 342.991 1192.22 374.474 1190.37C500.613 1182.98 626.759 1175.66 752.899 1168.26C764.423 1167.59 777.582 1166.67 787.453 1159.99C800.984 1150.82 801.68 1136.26 800.879 1121.38V1121.38Z" fill="white"/>
<path fill-rule="evenodd" clip-rule="evenodd" d="M185.956 867.025C185.518 866.205 186.534 865.468 187.208 866.059C202.521 879.497 210.538 901.078 212.219 921.026C214 942.179 211.475 964.08 210.51 985.224C209.436 1008.78 208.471 1032.34 207.16 1055.88C205.829 1079.76 204.395 1103.64 203.166 1127.53L200.401 1181.26V1181.26C200.107 1186.99 200.744 1194.03 198.546 1199.38C195.14 1207.67 185.022 1206.38 182.896 1199.46L182.83 1199.23L182.636 1199.38C180.76 1193.14 182.164 1185.73 182.482 1179.27L185.379 1120.56V1120.56C187.425 1079.06 189.251 1037.56 191.449 996.068L192.197 982.238C193.224 963.619 194.012 945.048 194.645 926.436L194.851 920.23C195.452 901.542 194.975 883.899 185.956 867.025ZM557.165 522.511C565.696 521.701 572.138 524.53 579.883 527.51C583.257 528.807 586.452 530.306 589.689 531.858C593.742 533.801 596.348 537.236 598.843 540.869L600.177 542.826C610.568 558.05 617.558 575.614 625.445 592.189C634.671 611.578 643.989 630.925 653.018 650.406L657.474 660.004C659.702 664.803 661.923 669.605 664.11 674.422L667.891 682.806C671.688 691.309 675.093 700.304 669.68 709.076C664.647 717.234 655.724 723.546 648.659 729.852C642.765 735.114 636.87 740.375 630.973 745.635C643.162 757.841 651.345 773.21 656.155 789.692C662.989 786.845 671.33 786.299 678.396 785.067C688.287 783.343 689.499 798.317 680.164 798.134C673.27 797.999 665.182 798.703 658.11 797.251C659.339 802.667 660.231 808.165 660.798 813.678C663.77 842.573 657.276 871.636 650.504 899.593L649.946 901.889C642.591 932.149 635.617 962.488 629.378 992.999C623.125 1023.57 617.5 1054.28 612.507 1085.09C607.425 1116.44 603.829 1147.97 599.964 1179.5C599.379 1184.27 596.377 1188.36 591.105 1188.36C586.713 1188.36 581.693 1184.26 582.245 1179.5C586.233 1145.17 591.889 1111.02 597.508 1076.93C607.187 1018.21 619.368 960.013 633.381 902.193L635.829 892.124C642.134 866.009 647.854 839.101 644.691 812.164C642.115 790.229 632.944 766.842 614.818 753.219L614.266 752.809C610.032 749.704 608.403 743.766 612.573 739.677C615.227 737.075 617.884 734.475 620.542 731.878L636.498 716.3L639.715 713.154C642.398 710.535 645.093 707.932 647.868 705.409C649.548 703.883 654.103 700.973 654.436 698.463C654.653 696.824 652.713 693.947 651.927 692.438L648.325 685.169V685.169C646.28 681.024 644.298 676.849 642.301 672.68C638.163 664.044 633.965 655.434 629.917 646.755L605.596 594.643V594.643C598.735 579.941 592.623 564.42 583.653 550.828L581.885 548.179C580.409 545.948 579.105 543.8 578.171 541.072C577.274 538.447 576.148 535.565 574.49 533.325C570.605 528.068 563.179 525.086 556.966 523.985C556.068 523.825 556.394 522.585 557.165 522.511ZM370.112 508.824C370.652 508.824 370.734 509.595 370.236 509.745C362.74 511.999 355.577 515.636 349.733 520.886C346.937 523.398 344.122 526.249 342.396 529.631C341.735 530.925 341.37 532.292 341.102 533.709L341.016 534.184C340.571 536.744 339.933 538.17 338.632 540.22L338.409 540.568C330.982 552.037 325.777 564.776 321.018 577.531L310.654 605.342V605.342L300.297 633.157C296.96 642.119 293.621 651.082 290.283 660.044C288.439 664.992 286.543 669.919 284.648 674.847C283.828 676.982 282.946 679.101 282.196 681.262C282.093 681.557 281.765 683.336 281.519 683.768L281.603 683.915V683.915C283.692 687.429 289.263 690.365 292.421 692.918L303.295 701.709V701.709C311.048 707.978 319 714.071 326.52 720.62C331.244 724.732 328.305 732.096 323.037 733.813C314.209 736.689 305.56 740.131 296.864 743.385C293.351 744.699 289.694 745.842 286.222 747.292L284.108 748.205C283.283 748.576 283.68 748.573 283.713 750.096C283.746 751.694 284.199 753.359 284.459 754.929C287.388 772.639 290.493 790.319 293.77 807.968C305.362 870.379 319.211 932.334 335.006 993.813C342.984 1024.86 351.54 1055.75 359.693 1086.75C367.826 1117.67 378.527 1148.15 388.745 1178.43C391.628 1186.97 378.087 1190.64 375.275 1182.14C363.499 1146.53 352.726 1110.6 341.601 1074.79C321.835 1011.15 306.259 946.125 292.483 880.946C285.655 848.642 279.41 816.214 273.754 783.684C272.683 777.525 271.633 771.363 270.604 765.197L269.105 756.128C268.077 749.664 267.492 742.93 272.517 737.815C277.423 732.821 285.846 731.052 292.302 728.71L292.771 728.538C296.879 727.005 301.017 725.528 305.139 724.005C299.067 719.225 293.07 714.339 287.013 709.562C282.127 705.708 277.164 701.932 272.348 697.99C268.377 694.738 265.139 690.563 264.725 685.275C264.303 679.87 266.619 674.855 268.487 669.898L268.666 669.419C270.5 664.47 272.339 659.524 274.225 654.594L285.895 624.075V624.075C293.311 604.682 300.414 585.132 308.214 565.89C311.3 558.275 314.663 550.78 318.637 543.582C320.553 540.111 322.608 536.714 324.841 533.438C327.343 529.764 329.614 527.973 333.491 525.946C339.69 522.705 344.555 517.271 350.78 513.93C356.89 510.65 363.176 508.9 370.112 508.824ZM390.236 474.225C390.473 473.818 391.101 473.999 391.109 474.462C391.271 484.1 388.981 493.949 387.572 503.479C386.157 513.043 385.703 523.138 383.656 532.6C383.614 533.041 383.529 533.475 383.408 533.902L383.31 534.226V534.226C382.446 536.877 380.199 539.124 377.442 539.826C378.309 544.63 379.126 549.442 379.813 554.28C380.993 562.596 382.07 570.924 383.129 579.254L384.397 589.252C385.594 598.674 386.758 608.1 387.909 617.527C390.836 618.751 393.823 619.761 396.882 620.636C403.927 622.652 411.143 623.472 418.413 624.185C433.219 625.637 448.138 626.31 462.995 627.135L466.178 627.314C482.882 628.271 499.677 628.441 516.339 626.727C524.601 625.877 532.798 624.451 540.855 622.43C544.949 621.403 548.928 619.869 553.014 618.865C554.369 618.532 555.58 617.764 556.938 616.944C557.541 616.182 558.387 615.605 559.489 615.382L559.788 615.33V615.33L560.083 615.287L560.185 615.241L560.177 615.273C561.013 615.16 561.807 615.161 562.556 615.263C562.854 607.913 563.177 600.563 563.582 593.215C564.669 573.479 567.67 552.891 563.664 533.327C563.53 532.669 564.425 532.437 564.658 533.053C572.519 553.764 571.636 576.411 572.032 598.209C572.419 619.526 572.185 640.858 572.079 662.18C573.606 662.83 574.968 663.711 576.047 664.947C578.202 667.417 578.822 671.711 576.047 674.095C574.817 675.152 573.456 675.886 572.012 676.395C571.935 694.918 571.804 713.443 571.618 731.967C575.141 734.688 575.47 741.149 571.485 743.834C570.822 803.822 569.732 863.812 568.828 923.791L566.934 1049.63V1049.63C566.682 1066.4 566.264 1083.16 566.114 1099.92L566.233 1099.97V1099.97L566.653 1100.17C567.358 1100.5 568.409 1101.03 568.626 1101.58C568.683 1101.73 568.698 1101.82 568.691 1101.9C569.847 1102.06 570.992 1102.61 571.983 1103.55C574.429 1105.87 573.932 1109.37 571.983 1111.74L571.462 1112.37V1112.37C570.247 1113.85 567.94 1114.42 566.056 1114.12C566.075 1124.58 566.142 1135.04 566.109 1145.51C566.099 1148.7 566.05 1151.9 565.995 1155.09L565.863 1162.76C565.776 1167.13 565.388 1172.69 560.909 1174.65C555.856 1176.87 551.325 1175.05 549.279 1169.92C548.725 1168.53 548.844 1167.24 549.046 1165.86C548.983 1163.8 548.66 1161.4 548.7 1159.49L548.867 1151.5V1151.5C548.893 1150.27 548.943 1149.04 548.978 1147.8L548.832 1147.82V1147.82C530.878 1148.69 512.798 1148.26 494.814 1148.25L486.815 1148.27C480.142 1148.27 473.454 1148.24 466.79 1147.98L464.292 1147.87C459.303 1147.64 454.056 1147.57 448.884 1147.12C449.543 1152.43 450.159 1157.74 450.708 1163.06C451.228 1168.1 446.023 1172.39 441.38 1172.39C435.866 1172.39 432.712 1168.05 432.052 1163.06C428.936 1139.5 427.661 1115.73 424.684 1092.16C422.018 1071.04 419.706 1049.88 417.356 1028.73L416.57 1021.68C407.97 944.705 399.62 867.699 391.633 790.657L387.915 754.642C384.159 718.342 380.381 682.04 377.195 645.687C375.373 624.903 373.694 604.115 372.114 583.311C370.955 568.027 370.227 552.828 369.753 537.574C367.884 535.651 366.947 532.843 367.775 529.943C368.259 528.251 368.822 526.568 369.416 524.888C369.379 523.237 369.34 521.587 369.308 519.934C369.278 518.37 370.866 517.565 372.137 517.824C374.447 512.231 376.991 506.686 379.114 501.147C382.55 492.181 385.382 482.52 390.236 474.225ZM198.341 571.126C234.26 548.616 277.016 532.418 319.839 534.162C320.813 534.202 321.087 535.686 320.076 535.911C297.234 541.011 274.141 547.223 252.516 556.264C230.828 565.332 210.206 577.542 191.839 592.215C157.951 619.287 131.611 654.5 114.267 694.193C104.108 717.445 96.9872 741.993 90.7692 766.55C84.1892 792.539 78.7662 818.808 74.2572 845.235C65.3512 897.436 60.1662 950.212 57.4072 1003.08C54.6002 1056.86 55.7572 1110.67 53.7552 1164.46C53.4092 1173.78 40.0892 1173.6 39.4122 1164.46C34.8762 1103.31 37.3892 1041.18 41.5842 980.073C45.3562 925.139 51.9432 870.32 62.5502 816.27L63.4742 811.586C73.39 761.579 85.3503 710.361 109.322 665.074C129.788 626.411 161.384 594.288 198.341 571.126ZM697.131 810.124C697.318 809.588 698.026 809.595 698.215 810.124C702.31 821.586 702.457 834.519 703.545 846.602L703.631 847.53C704.674 858.55 705.46 869.584 706.191 880.627L706.463 884.769C709.396 929.819 713.061 974.819 718.587 1019.63C724.092 1064.28 731.535 1108.61 739.583 1152.85C740.48 1157.78 738.298 1162.8 733.132 1164.22C728.578 1165.47 722.733 1162.66 721.77 1157.77C716.773 1132.37 712.732 1106.94 709.127 1081.32C702.781 1036.22 698.045 990.902 695 945.452C693.472 922.625 692.531 899.807 692.157 876.931C691.984 866.317 692.259 855.678 692.825 845.075L692.961 842.629C693.585 831.792 693.521 820.459 697.131 810.124ZM309.004 1097.07C309.484 1096.81 310.078 1097.34 309.774 1097.84C302.819 1109.14 293.41 1118.89 284.316 1128.49C274.809 1138.53 265.537 1148.88 255.838 1158.72C248.83 1165.83 237.557 1154.36 244.953 1147.84C255.352 1138.66 266.221 1129.95 276.805 1120.98L281.433 1117.06C290.111 1109.72 299.047 1102.46 309.004 1097.07ZM639.345 1091.41C638.826 1090.42 640.012 1089.61 640.818 1090.27C646.428 1094.83 651.456 1100.27 656.873 1105.09C662.238 1109.86 667.803 1114.3 673.52 1118.64C679.261 1123 685.127 1127.18 691.151 1131.14C696.148 1134.42 701.298 1137.05 706.531 1139.77C708.954 1140.09 711.198 1141.27 712.994 1143.53C715.834 1147.1 716.136 1153.82 712.197 1156.92L711.49 1157.47V1157.47C706.893 1161.08 701.436 1161.52 696.911 1157.47C691.858 1152.95 687.082 1147.97 682.23 1143.18L680.772 1141.76C675.558 1136.69 670.471 1131.46 665.675 1125.99L661.333 1121.05C653.279 1111.87 644.895 1101.97 639.345 1091.41ZM613.503 561.871C612.57 561.253 613.145 559.589 614.297 559.986L616.41 560.717C625.237 563.784 634.324 567.186 642.339 571.909C650.952 576.984 658.905 583.03 666.503 589.516C682.23 602.941 695.61 619.45 706.981 636.657C729.797 671.186 743.907 710.73 755.299 750.297C767.446 792.485 776.798 835.581 784.434 878.799C792.193 922.72 798.179 967.037 802.113 1011.47C804.051 1033.35 805.352 1055.25 806.006 1077.21C806.343 1088.51 806.332 1099.8 806.238 1111.1C806.214 1114.01 806.233 1116.91 806.266 1119.82L806.377 1128.54C806.436 1134.05 807.096 1139.84 805.786 1145.22C803.678 1153.89 789.348 1152.27 789.819 1143.41C789.387 1140.47 789.37 1137.42 789.482 1134.37C789.414 1133.98 789.34 1133.58 789.258 1133.17C789.023 1132 789.223 1130.91 789.683 1129.98C789.757 1128.52 789.824 1127.06 789.848 1125.63C789.942 1119.81 789.936 1114.02 789.775 1108.2C789.436 1095.93 788.948 1083.67 788.455 1071.41C787.47 1046.91 786.1 1022.4 784.114 997.955C777.204 912.885 762.613 827.33 738.104 745.487C726.721 707.481 711.028 670.172 688.523 637.33C678.533 622.75 667.262 609.283 654.767 596.784C642.193 584.207 628.337 571.695 613.503 561.871ZM443.915 1110.27L445.614 1122.56C446.463 1128.7 447.303 1134.84 448.101 1140.99C453.522 1140.25 459.068 1139.94 464.292 1139.48C473.437 1138.67 482.645 1138.28 491.817 1137.9C510.784 1137.12 529.846 1135.76 548.832 1135.85C549.027 1135.85 549.211 1135.87 549.395 1135.88L550.337 1111.64V1111.64L536.997 1111.62V1111.62C525.695 1111.6 514.395 1111.51 503.093 1111.41C492.914 1111.32 482.732 1111.31 472.555 1111.1L468.193 1110.99C460.475 1110.79 451.953 1111.22 443.915 1110.27ZM551.456 1075.09C550.912 1075.15 550.358 1075.21 549.769 1075.23C547.127 1075.34 544.464 1075.27 541.82 1075.29C536.19 1075.34 530.561 1075.37 524.93 1075.37C513.67 1075.37 502.411 1075.44 491.153 1075.58C479.563 1075.72 467.981 1075.92 456.39 1075.94C450.774 1075.95 445.176 1075.8 439.562 1075.64C440.47 1083.62 441.419 1091.59 442.467 1099.55C451.185 1098.37 460.562 1098.96 469.082 1098.88L470.188 1098.87C481.817 1098.67 493.456 1098.82 505.088 1098.83C517.054 1098.84 529.019 1098.88 540.986 1098.98L550.817 1099.06V1099.06L550.836 1098.57V1098.57C551.124 1090.75 551.31 1082.92 551.456 1075.09ZM435.237 1036.92C436.327 1046.34 437.35 1055.77 438.393 1065.2C439.086 1065.1 439.788 1065 440.503 1064.93C446.127 1064.34 451.739 1063.84 457.383 1063.49C468.634 1062.79 479.884 1062.42 491.153 1062.12C502.741 1061.81 514.331 1061.57 525.923 1061.41C531.555 1061.33 537.182 1061.34 542.814 1061.37C545.456 1061.39 548.125 1061.31 550.762 1061.49C551.076 1061.51 551.377 1061.54 551.675 1061.57L551.873 1047.42C551.907 1045.06 551.943 1042.7 551.981 1040.34C543.277 1040.88 534.428 1040.67 525.73 1040.67L523.725 1040.68C512.796 1040.73 501.863 1040.58 490.936 1040.35C479.663 1040.12 468.413 1039.75 457.16 1039.03C452.601 1038.73 448.075 1038.35 443.541 1037.85L441.273 1037.59C439.3 1037.35 437.268 1037.17 435.237 1036.92ZM552.879 996.968C531.916 998.632 511.065 999.327 490.046 999.534L486.892 999.561C468.318 999.702 449.591 1000.47 430.973 999.976C432.086 1009.63 433.196 1019.28 434.315 1028.93C436.981 1028.8 439.66 1028.8 442.266 1028.71C447.567 1028.52 452.85 1028.47 458.154 1028.46C469.081 1028.43 480.008 1028.53 490.936 1028.51C502.198 1028.48 513.458 1028.29 524.718 1028.08C533.847 1027.91 543.073 1027.22 552.227 1027.25L552.879 996.968V996.968ZM553.766 955.794C551.337 956.601 548.469 956.653 545.325 956.797L537.21 957.201C533.449 957.385 529.687 957.559 525.923 957.696C513.382 958.155 500.841 958.584 488.298 958.983C475.445 959.391 462.53 959.628 449.675 959.223C443.378 959.024 437.134 958.694 430.856 958.169C429.304 958.039 427.722 957.954 426.137 957.842C427.598 970.629 429.065 983.414 430.537 996.199C449.066 993.925 467.738 992.509 486.244 990.157L502.978 988.02C519.703 985.886 536.415 983.792 553.201 982.026L553.766 955.794V955.794ZM554.659 914.165C551.095 915.045 547.033 915.001 543.61 915.217L542.976 915.261C536.491 915.753 529.989 915.999 523.489 916.159C510.749 916.473 498.001 916.63 485.257 916.708L477.594 916.756C467.378 916.816 457.168 916.841 446.948 916.603C440.393 916.451 433.853 916.13 427.303 915.802C425.341 915.703 423.335 915.638 421.323 915.537C422.692 927.643 424.075 939.746 425.455 951.85C427.607 951.508 429.769 951.248 431.83 950.9C437.109 950.008 442.378 949.296 447.695 948.659C459.211 947.279 470.787 946.286 482.357 945.448C494.235 944.587 506.123 943.859 518.003 943.026L526.417 942.433C529.222 942.238 532.026 942.05 534.832 941.878C539.624 941.584 545.194 941.916 549.947 940.873C551.234 940.337 552.663 940.214 554.094 940.52L554.659 914.165V914.165ZM555.738 865.438C554.505 867.004 552.663 867.825 550.467 868.109C539.028 869.593 527.295 869.831 515.759 870.531L513.725 870.659C501.814 871.444 489.896 872.06 477.976 872.693C465.731 873.343 453.488 873.873 441.233 874.3C436.031 874.481 430.802 874.502 425.591 874.436L423.359 874.402C421.219 874.366 418.978 874.371 416.732 874.298C417.975 885.618 419.23 896.937 420.503 908.253C422.793 908.004 425.082 907.814 427.303 907.579C433.849 906.887 440.387 906.203 446.948 905.686C459.38 904.706 471.821 904.117 484.276 903.501C497.019 902.87 509.769 902.45 522.514 901.855C528.693 901.566 534.87 901.207 541.031 900.639C545.349 900.242 550.478 898.772 554.983 899.312C555.229 888.02 555.485 876.729 555.738 865.438ZM556.743 821.788C556.548 822.09 556.32 822.382 556.043 822.654C551.007 827.63 544.8 827.246 538.127 827.768L537.717 827.801C531.176 828.351 524.632 828.874 518.084 829.346C504.995 830.291 491.88 830.952 478.772 831.541C465.357 832.144 451.856 832.559 438.428 832.285C429.829 832.109 420.823 832.14 412.052 831.302C413.399 843.769 414.754 856.235 416.119 868.7C418.585 868.235 421.067 867.879 423.418 867.509C429.343 866.577 435.274 865.64 441.233 864.954C453.141 863.583 465.052 862.301 476.983 861.144C487.187 860.155 497.387 859.15 507.597 858.246L513.725 857.717C525.908 856.692 538.245 855.002 550.467 854.752C552.481 854.711 554.759 855.807 555.913 857.537C556.183 845.62 556.463 833.704 556.743 821.788ZM557.589 786.451C554.478 786.829 551.126 786.614 548.255 786.708C540.996 786.945 533.736 787.165 526.476 787.379L482.915 788.665V788.665C468.084 789.102 453.201 789.43 438.364 789.22C431.838 789.128 425.282 789.117 418.758 788.763L416.584 788.631C413.899 788.452 410.604 788.427 407.386 788.1L411.185 823.287V823.287C419.914 822.026 428.909 821.554 437.563 820.815L439.412 820.652C452.176 819.489 465.001 818.72 477.788 817.854C490.905 816.966 504.003 815.888 517.102 814.785C523.649 814.235 530.195 813.686 536.737 813.084L537.545 813.004C543.725 812.359 549.536 810.986 555.009 814.63C555.81 815.162 556.437 815.874 556.866 816.671C557.105 806.598 557.339 796.524 557.589 786.451ZM558.604 745.386C532.075 746.454 505.542 747.264 478.993 747.62C464.049 747.82 449.124 747.679 434.182 747.367C427.703 747.231 421.17 746.921 414.696 746.425L412.271 746.23C409.193 745.971 405.959 745.783 402.739 745.473C404.07 757.571 405.39 769.671 406.7 781.773C409.868 781.184 413.178 780.913 415.954 780.558L416.584 780.474C423.481 779.525 430.443 778.972 437.374 778.362C450.87 777.173 464.433 776.407 477.965 775.756C491.822 775.089 505.686 774.524 519.545 773.908L533.406 773.288C535.715 773.185 538.025 773.085 540.335 772.987C543.636 772.848 546.936 772.715 550.236 772.578C551.864 772.511 553.556 772.29 555.186 772.374L555.65 772.312C555.864 772.284 556.053 772.263 556.226 772.244C556.67 771.907 557.147 771.627 557.653 771.414L557.959 771.295L558.604 745.386ZM398.389 706.47C399.621 717.361 400.839 728.255 402.041 739.15C405.825 738.718 409.654 738.479 413.267 738.154C420.552 737.501 427.871 736.929 435.178 736.593L449.782 735.915C459.517 735.465 469.251 735.029 478.993 734.674C505.655 733.701 532.316 732.586 558.962 731.225C559.15 723.836 559.344 716.447 559.542 709.058C558.263 710.428 556.415 711.329 553.987 711.323C526.013 711.248 498.017 711.41 470.046 710.95C456.045 710.719 442.06 710.38 428.075 709.662C421.232 709.311 414.351 708.595 407.56 707.654C404.664 707.253 401.495 706.967 398.389 706.47ZM393.912 667.661C395.227 678.817 396.517 689.977 397.786 701.139C401.26 700.519 404.849 700.189 408.09 699.748C415.054 698.801 422.061 698.047 429.075 697.651C442.723 696.879 456.379 696.49 470.046 696.2C498.015 695.606 526.012 695.61 553.987 695.389C556.615 695.368 558.566 696.408 559.847 697.96C560.041 690.993 560.246 684.026 560.457 677.058C557.755 676.773 555.076 676.369 552.597 676.196C544.978 675.664 537.356 675.178 529.731 674.741C513.819 673.828 497.892 673.049 481.969 672.356C466.042 671.663 450.11 670.986 434.178 670.396L427.211 670.142C416.131 669.729 404.864 669.209 393.912 667.661ZM388.902 625.644C390.271 636.943 391.619 648.244 392.964 659.547L393.373 663.045V663.045C406.698 660.455 420.741 659.696 434.178 659.125C450.113 658.447 466.02 658.098 481.969 658.147C497.902 658.195 513.811 658.572 529.731 659.23C537.686 659.558 545.64 659.938 553.59 660.37C555.776 660.488 558.339 660.425 560.977 660.463C561.034 658.687 561.083 656.911 561.144 655.136C561.386 647.942 561.623 640.748 561.87 633.555C556.493 636.317 549.502 637.431 544.098 638.608L543.481 638.744C534.558 640.748 525.447 642.047 516.339 642.841C498.453 644.401 480.381 643.818 462.512 642.307L459.382 642.039C443.691 640.679 427.423 638.954 412.211 635.071C404.965 633.222 397.474 630.634 390.981 626.883C390.306 626.493 389.609 626.08 388.902 625.644ZM539.99 491.368C540.145 490.757 541.06 490.618 541.361 491.189C543.474 495.203 544.26 500.021 545.727 504.322C547.306 508.946 548.779 513.604 550.521 518.172C554.16 527.716 558.453 536.887 563.571 545.728C568.64 554.482 554.447 560.731 550.717 551.147C546.866 541.257 543.701 531.031 541.786 520.58C540.851 515.481 540.018 510.312 539.748 505.131C539.515 500.681 538.889 495.709 539.99 491.368Z" fill="black"/>
<path fill-rule="evenodd" clip-rule="evenodd" d="M631.263 225.319C642.641 217.147 625.675 190.26 619.911 182.26C614.897 171.824 609.883 161.387 604.868 150.95C605.478 142.391 597.12 134.776 588.861 137.38C581.676 132.227 569.642 134.694 565.99 142.762C486.543 108.16 349.077 122.555 341.968 229.327C326.6 259.727 311.368 290.387 297.733 321.608C278.815 322.624 269.645 345.607 280.908 360.46C282.407 384.579 297.698 386.488 318.112 385.415C326.31 387.574 334.808 388.744 340.956 395.075C345.629 399.85 348.805 405.905 351.87 411.78C366.015 438.886 383.986 462.334 408.346 481.085C446.229 509.436 497.511 529.791 544.749 515.99C646.306 476.108 666.25 316.722 631.263 225.319V225.319Z" fill="white"/>
<path fill-rule="evenodd" clip-rule="evenodd" d="M419.319 69.9931C485.669 54.5831 560.209 75.2631 606.259 126.213C609.499 129.793 609.149 134.453 606.299 137.473C607.629 138.553 608.929 139.663 610.249 140.773C611.629 141.943 611.429 144.293 610.249 145.483C609.079 146.653 606.649 146.893 605.539 145.483L603.896 143.415C603.078 142.382 602.27 141.345 601.49 140.283C600.54 140.633 599.61 141.003 598.68 141.363C612.75 150.713 624.48 163.133 632.52 178.083C641.22 194.253 646.769 211.513 650.379 229.473C656.815 261.511 657.748 294.369 656.887 326.948L656.839 328.693C655.729 367.963 651.899 407.883 635.339 443.993C622.059 472.933 598.46 499.543 568.87 512.213C551.83 519.503 533.509 522.613 514.999 521.313C505.239 520.633 495.509 519.093 486.009 516.743L483.727 516.176C475.073 514.009 466.098 511.496 458.709 506.543C451.129 501.453 456.239 491.343 464.599 492.573C474.669 494.063 484.259 498.263 494.249 500.443C504.019 502.583 513.909 503.703 523.919 503.413C541.629 502.913 557.76 497.473 572.4 487.593C628.37 449.803 635.169 373.823 636.629 312.423C637.339 282.423 636.239 252.033 629.339 222.723C622.709 194.543 611.3 166.793 595.15 142.723C591.59 144.053 588.03 145.163 584.24 145.513C577.484 149.574 569.45 149.682 561.638 149.683L560.549 149.683C552.419 149.673 544.289 149.193 536.199 148.463C507.569 145.923 478.109 139.483 449.329 143.583L448.154 143.755C436.304 145.537 421.619 149.277 412.919 157.803C403.519 167.003 409.819 184.413 417.259 189.943C422.069 193.523 423.569 201.583 417.259 204.833C404.799 211.263 374.639 207.693 371.249 211.253C367.18 215.509 367.465 221.994 367.348 227.516L367.339 227.883C366.919 243.603 367.309 259.273 368.639 274.953C369.919 290.113 372.829 305.303 373.479 320.503C373.699 325.513 367.649 327.033 364.339 324.283C363.689 323.743 363.019 323.233 362.349 322.773C356.339 318.513 349.509 316.713 342.179 315.573C341.794 315.512 341.494 315.32 341.277 315.066L341.189 314.953L340.409 315.593C341.929 317.483 343.229 319.623 344.259 322.023C344.469 322.503 344.019 323.113 343.489 322.793C333.349 316.763 322.309 314.203 310.639 316.643C300.139 318.833 290.639 325.493 287.559 336.153C284.729 345.963 286.809 357.273 293.159 365.343C302.549 377.303 317.799 376.223 331.479 376.773C334.159 376.883 337.149 378.183 338.399 380.743C339.869 383.763 339.769 385.823 338.399 388.833C338.209 389.263 337.959 389.653 337.669 390.003C338.828 390.961 339.924 392.01 340.992 393.079L344.564 396.677C347.007 399.144 349.437 401.633 351.779 404.183C358.659 411.683 365.129 419.663 371.219 427.813L371.782 428.574C378.915 438.332 386.315 452.424 398.679 455.503C402.919 456.563 406.859 458.653 408.119 463.243C409.379 467.833 406.409 472.283 402.419 474.203C395.499 477.533 386.719 473.573 381.009 469.373C368.696 460.302 360.65 445.504 353.087 432.477L351.016 428.917C347.121 422.195 343.316 415.394 340.069 408.333C338.219 404.303 336.229 400.303 334.509 396.213C334.009 395.023 333.509 393.813 333.119 392.573C332.569 392.693 332.009 392.773 331.479 392.803C314.969 393.883 295.959 391.263 284.029 378.733C267.579 361.463 265.649 330.583 284.339 314.103C286.309 312.363 288.529 310.833 290.929 309.523C287.589 303.873 285.379 297.323 283.749 291.173C281.369 282.193 280.039 273.043 279.379 263.783C278.049 244.893 280.259 225.663 284.799 207.313C301.259 140.803 351.799 85.6731 419.319 69.9931ZM299.75 345.983C296.483 327.034 334.399 341.046 342.668 342.367L342.91 342.403C352.394 343.719 347.108 360.355 337.774 355.4L337.49 355.243C332.44 352.349 326.886 350.275 321.59 347.824L320.46 347.293C316.25 345.273 302.34 336.203 300.83 345.983C300.75 346.523 299.84 346.513 299.75 345.983Z" fill="black"/>
<path fill-rule="evenodd" clip-rule="evenodd" d="M541.884 408.932C549.443 407.88 557.571 403.599 564.791 407.078C568.166 408.704 569.768 414.265 567.486 417.356C564.001 422.077 560.403 422.858 554.746 423.312C550.505 423.652 546.241 423.677 542.011 423.188L540.935 423.056C533.387 422.082 525.542 419.975 519.695 414.903C518.499 413.865 519.112 411.623 520.647 411.299C527.591 409.838 534.855 409.911 541.884 408.932ZM532.987 391.526C532.984 391.465 533.077 391.465 533.08 391.526C533.263 395.846 534.477 399.851 536.721 403.547C536.752 403.6 536.671 403.647 536.64 403.595C534.395 399.896 533.17 395.85 532.987 391.526ZM556.814 302.367C564.366 306.957 575.872 317.66 567.748 329.04C558.186 339.073 544.419 327.569 537.634 322.366C531.343 318.334 524.275 328.705 530.112 333.413C579.136 369.708 599.031 303.568 560.634 296.971C556.406 296.244 554.836 300.947 556.814 302.367ZM595.464 251C597.237 251 598.933 251.602 600.478 252.716C601.998 253.812 603.374 255.412 604.52 257.407C606.689 261.183 608.045 266.396 608.045 272.16C608.045 277.925 606.689 283.138 604.52 286.914C603.374 288.909 601.998 290.509 600.478 291.605C598.933 292.719 597.237 293.32 595.464 293.32C593.691 293.32 591.995 292.719 590.45 291.605C588.93 290.509 587.554 288.909 586.408 286.914C584.239 283.138 582.883 277.925 582.883 272.16C582.883 266.396 584.239 261.183 586.408 257.407C587.554 255.412 588.93 253.812 590.45 252.716C591.995 251.602 593.691 251 595.464 251ZM513.347 256.88L514.014 256.753C517.909 256.045 519.877 256.283 523.269 258.938C525.818 260.933 525.088 264.862 523.269 266.96C520.1 270.616 517.005 269.968 512.665 270.108L512.36 270.119C508.743 270.266 505.123 270.369 501.503 270.424C500.513 270.44 499.522 270.436 498.532 270.442C498.637 279.603 493.355 286.578 486.399 291.881C481.903 295.31 476.216 291.354 474.612 287.086C473.285 283.554 473 279.211 473.688 275.344C473.943 273.919 474.474 272.371 475.286 271.052L475.515 270.698L475.478 270.192C475.469 270.067 475.478 269.946 475.474 269.821C469.016 269.429 462.596 268.781 456.178 267.967L454.039 267.69C448.561 266.965 440.516 266.732 436.083 263.169C435.943 263.055 435.993 262.806 436.141 262.727C438.578 261.414 441.05 261.489 443.776 261.368L444.167 261.349C447.131 261.196 450.088 261.068 453.05 260.967L456.015 260.874C463.597 260.657 471.186 260.289 478.761 259.886C480.078 259.816 481.395 259.733 482.714 259.652C484.093 259.074 485.559 258.728 487.007 258.664C488.207 258.61 489.361 258.776 490.446 259.121C493.212 258.907 495.978 258.674 498.74 258.424L501.503 258.168C505.401 257.797 509.499 257.635 513.347 256.88ZM561.215 188.22C569.548 184.125 579.68 184.025 588.262 187.414L588.831 187.644C597.499 191.241 607.943 199.549 605.681 209.898C603.612 219.37 588.755 217.765 588.002 208.812C583.205 202.166 572.448 200.708 565.686 204.934C561.585 207.498 558.77 211.815 556.846 216.169C555.206 219.877 554.897 224.456 552.378 227.686C552.296 227.791 552.132 227.81 552.013 227.782C544.501 226.044 544.327 214.107 545.608 208.317C547.469 199.899 553.442 192.042 561.215 188.22Z" fill="black"/>
<path fill-rule="evenodd" clip-rule="evenodd" d="M472.475 421.021C479.935 401.889 496.217 387.827 514.964 382.687C528.73 378.921 543.177 379.041 557.21 380.536C564.563 381.313 572.449 381.951 579.378 384.94C585.295 387.493 590.117 392.32 593.742 397.986C598.058 404.7 600.994 412.384 603.055 420.26C603.348 421.38 603.623 422.508 603.879 423.642C602.983 429.585 601.08 434.643 596.052 438.379C591.146 442.027 585.291 443.52 579.455 444.05C578.883 443.749 578.33 443.44 577.823 443.123C568.728 437.424 562.328 423.955 550.849 425.778C540.605 427.406 533.862 441.515 527.77 449.789C508.216 452.283 488.676 445.851 472.766 433.611C471.958 429.421 471.911 425.196 472.475 421.021M617.17 406.507C615.606 401.702 613.635 397.048 611.3 392.663C603.579 378.164 591.727 366.611 577.657 360.007C544.373 344.406 501.308 355.404 474.429 380.99C465.247 389.737 455.963 402.59 453.155 416.416C452.317 416.598 451.526 417.076 450.874 417.748C431.454 404.364 411.455 391.486 395.806 372.932C384.442 359.452 376.537 343.498 371.697 325.968C371.301 324.525 369.175 324.736 369.24 326.332C369.258 326.706 369.277 327.078 369.295 327.452C369.093 326.765 368.136 327.119 368.062 327.785C365.458 349.081 362.2 371.66 365.2 393.067C366.995 405.841 372.295 415.192 379.38 425.29C386.972 436.114 395.567 446.181 404.355 455.836C409.931 461.964 415.756 469.033 422.584 473.526C430.526 478.747 439.534 482.716 448.009 486.744C456.632 490.854 465.383 494.651 474.3 497.942C492.124 504.546 510.547 509.11 529.291 511.11C544.3 512.705 561.452 514.443 575.835 508.262C586.859 503.526 595.758 494.965 602.816 484.664C610.499 473.445 616.574 460.667 619.932 447.191C623.421 433.194 617.905 408.764 617.17 406.507" fill="black" fill-opacity="0.15"/>
</svg>
