<svg width="818" height="1193" viewBox="0 0 818 1193" fill="none" xmlns="http://www.w3.org/2000/svg">
<path fill-rule="evenodd" clip-rule="evenodd" d="M394.207 463.173C418.892 444.376 480.865 435.923 507.211 454.022C533.233 472.197 536.069 501.588 548.195 528.626C559.636 523.231 578.53 530.958 581.847 541.574C585.961 546.581 586.146 560.648 588.983 567.379C712.425 587.028 731.166 683.267 746.024 792.525C765.68 903.394 810.301 1014.02 790.93 1128.11C793.454 1131.76 795.444 1135.31 797.284 1139.52C801.693 1147.03 796.014 1157.65 787.121 1157.23C775.61 1156.22 764.213 1154.84 752.648 1154.41C720.588 1153.3 688.499 1153.43 656.427 1153.84L652.054 1153.9C490.421 1155.91 328.797 1159.87 167.157 1160.93C161.293 1160.93 158.422 1155.67 159.205 1150.49C160.782 1140.04 162.245 1129.59 163.772 1119.14C125.54 1129.24 84.8956 1131.78 46.7716 1120.2C44.1046 1117.49 52.9856 1118.96 54.3946 1118.55C19.3086 1094.57 29.7866 1044.06 32.8946 1007.69C52.2206 883.036 59.0336 745.118 133.703 638.751C166.006 595.343 213.365 560.975 267.784 553.242L269.293 553.035C285.205 550.914 302.939 550.23 316.852 541.574C332.499 529.083 339.167 506.002 355.628 505.786C361.064 505.715 368.458 512.591 376.416 517.26C377.01 506.989 382.545 498.322 383.767 490.358L383.866 489.677C385.141 480.393 383.394 472.04 394.207 463.173ZM659.495 795.818C624.804 771.719 535.191 783.828 533.14 785.177C528.623 788.148 526.678 788.411 524.235 792.269C521.823 792.589 519.413 792.921 517.005 793.263C512.174 794.841 515.754 800.783 521.334 798.663C517.977 813.137 527.854 823.431 531.787 837.74C533.063 842.386 531.833 850.743 531.787 855.49C532.168 861.543 538.86 868.693 537.745 874.765C533.779 896.354 512.261 917.414 521.334 938.351C527.344 950.176 545.42 956.206 557.438 960.226C582.337 969.782 625.721 959.866 640.188 938.351C647.904 926.875 656.844 897.928 661.445 888.949L662.465 874.705C664.98 839.298 667.217 801.183 659.495 795.818Z" fill="white"/>
<path fill-rule="evenodd" clip-rule="evenodd" d="M349.585 503.698C351.98 501.577 355.524 504.242 354.002 507.107C350.582 513.546 347.074 519.647 342.484 525.339C339.701 528.79 336.72 532.054 333.699 535.282C341.452 541.989 348.101 550.316 354.38 558.12C362.409 568.101 370 578.505 379.013 587.638C387.901 596.645 397.73 602.941 409.614 607.14L412.014 607.974C423.952 612.165 436.711 617.825 443.441 629.128C444.768 631.357 442.096 634.111 439.85 632.72C428.157 625.48 414.418 624.024 401.69 619.24C389.395 614.619 378.677 607.507 369.207 598.43C359.753 589.368 351.815 579.058 343.535 568.966C335.347 558.987 326.531 550.464 316.846 542.021C301.9 552.075 284.84 556.45 267.493 560.747L265.6 561.216C248.232 565.516 230.957 570.51 214.663 577.998C200.297 584.599 186.167 592.482 174.465 603.224C162.043 614.624 152.375 629.184 143.526 643.423C123.732 675.279 109.816 710.179 97.5645 745.503C84.8225 782.245 74.1645 819.723 65.5605 857.646C61.1845 876.936 57.6305 896.363 54.7095 915.926C53.3035 925.348 52.0545 934.79 50.9575 944.253C49.7865 954.358 49.5175 964.754 46.4175 974.47C45.0885 978.634 41.9505 980.362 38.8095 980.215L38.1715 988.194C37.3256 998.832 36.5369 1009.47 36.2705 1020.18C35.8286 1037.97 36.029 1055.72 37.3092 1073.48L37.4905 1075.9C38.4965 1088.87 40.7445 1103.43 50.4915 1112.92C60.5855 1122.75 76.1085 1125.84 89.7135 1126.02C121.401 1126.43 151.903 1111.46 179.943 1098.32C208.821 1084.8 236.91 1069.78 264.326 1053.5C278.288 1045.21 292.099 1036.64 305.734 1027.82C312.425 1023.49 319.069 1019.09 325.663 1014.61C329.44 1012.05 333.019 1009.24 336.864 1006.97C334.98 1005.22 334.139 1002.46 335.717 1000.05C324.602 990.402 319.976 973.185 319.435 959.254C318.998 948.009 320.653 936.796 321.959 925.657C322.618 920.04 323.432 914.433 324.277 908.841C324.611 906.632 324.866 904.269 325.256 901.937C295.243 918.43 264.389 933.118 232.718 946.167C216.484 952.856 200.042 958.87 183.373 964.381L179.994 965.493C164.2 970.662 148.028 975.546 131.701 978.502C130.828 978.66 130.119 977.371 131.051 976.96C146.963 969.939 163.426 964.017 179.577 957.551L182.231 956.47V956.47C181.926 956.453 181.61 956.411 181.28 956.332C171.808 954.046 162.41 950.523 153.12 947.557C144.498 944.804 134.811 943.075 126.752 938.919C126.132 938.599 126.479 937.737 127.083 937.696C136.141 937.068 145.974 939.708 154.855 941.261L158.191 941.845C163.78 942.831 169.493 943.89 175.055 945.272C175.256 943.409 176.297 941.538 177.778 940.441C194.075 928.372 192.42 903.996 194.163 886.021L195.455 872.676C197.728 849.321 200.134 825.969 203.788 802.788C203.983 801.55 205.898 801.905 205.906 803.074C206.094 831.809 203.925 860.411 202.838 889.101L202.669 893.807C202.068 911.51 201.597 929.892 190.448 943.514C192.007 942.603 194.115 942.603 195.378 944.105C196.93 945.952 197.826 948.026 197.798 950.061C207.873 945.837 217.904 941.503 227.886 937.081C259.979 922.863 291.399 906.952 321.988 889.736C325.28 887.883 328.409 889.339 330.037 891.782L330.271 891.748C330.311 891.743 330.351 891.739 330.392 891.738L330.625 891.728C330.634 891.728 330.643 891.729 330.651 891.729C334.957 889.363 340.823 891.048 344.518 894.499C344.627 894.603 344.72 894.715 344.817 894.825C349.495 892.725 353.863 889.89 357.827 886.297C365.939 878.945 372.81 869.854 378.8 860.738C389.831 843.948 399.201 825.277 414.102 811.456C426.209 800.227 441.219 793.236 456.966 788.847C456.9 788.387 457.076 787.897 457.394 787.571C458.203 786.742 458.78 786.455 459.825 786.958C459.908 786.999 459.958 787.055 459.992 787.115L461.528 784.489C462.367 783.065 463.228 781.63 463.527 781.253C465.315 779.002 467.155 776.768 469.023 774.581C472.19 770.878 475.799 767.224 479.978 764.656C489.128 759.035 498.747 762.216 508.154 765.288C513.838 767.145 519.503 769.062 525.177 770.947L525.762 771.138C529.993 772.497 534.944 773.686 536.836 778.169C537.585 779.943 537.701 781.784 537.352 783.57C577.535 773.351 622.167 778.046 661.38 790.042C662.885 790.502 664.389 791.74 664.706 793.366C669.199 816.407 671.2 840.036 669.167 863.47C667.413 883.698 662.93 903.521 654.484 922.04L654.004 923.086C646.067 940.248 633.486 961.405 614.273 966.784C602.672 970.032 589.842 968.117 578.01 967.522C566.511 966.943 554.757 966.859 543.367 965.051C533.223 963.441 524.335 958.894 518.066 950.646C512.658 943.53 509.81 934.93 507.477 926.375C506.409 926.715 505.348 927.076 504.304 927.485C499.897 929.206 496.163 931.984 492.787 935.253C485.658 942.157 480.128 950.542 472.669 957.13C465.917 963.094 458.223 967.732 449.97 971.298C432.868 978.687 414.522 981.64 396.433 985.556L395.172 985.831C381.554 988.819 367.654 992.488 355.634 999.578C355.399 1001.66 354.448 1003.63 352.924 1004.91C355.044 1006.91 355.942 1010.06 354.079 1013.02C348.875 1021.28 339.911 1025.97 331.864 1031.26L331.341 1031.6C323.425 1036.85 315.44 1041.99 307.39 1047.03C291.025 1057.28 274.318 1066.96 257.375 1076.22C230.124 1091.1 202.288 1105.15 173.948 1117.88C175.649 1126.25 175.027 1134.88 176.305 1143.31L176.502 1144.51C177.048 1147.63 176.31 1150.25 174.156 1152.29L173.929 1152.5L173.933 1152.47L173.731 1152.66L173.663 1152.72L173.686 1152.7C173.437 1152.93 173.181 1153.14 172.92 1153.32L172.588 1153.53V1153.53C170.513 1154.79 167.843 1154.78 165.719 1153.67L165.477 1153.53L165.069 1153.3C162.263 1151.68 160.328 1147.68 161.492 1144.51C164.353 1136.7 165.434 1128.37 168.076 1120.51L165.98 1121.44V1121.44L163.217 1122.65C133.339 1135.57 100.151 1146.45 67.5965 1137.64C53.2125 1133.75 39.7685 1125.51 32.5715 1112.09C25.4895 1098.89 24.4885 1083.55 24.1125 1068.86C23.6485 1050.73 24.6205 1032.32 27.0115 1014.35C28.6165 1002.28 30.5575 989.988 33.5515 978.047C32.0115 976.688 30.8795 974.739 30.5805 972.325C29.1675 960.92 31.6405 949.063 33.1545 937.717C34.6335 926.639 36.2675 915.583 38.1155 904.561C41.8465 882.302 46.1815 860.09 51.2285 838.092C60.2105 798.941 72.0715 760.486 86.3515 722.95L87.6021 719.68C100.798 685.372 116.076 651.794 137.351 621.654C147.528 607.234 158.286 594.16 172.666 583.769C186.138 574.033 201.334 567.023 217.016 561.665C232.715 556.303 248.851 552.71 265.272 550.475C281.949 548.205 299.552 546.813 315.109 539.973C313.141 536.445 314.83 531.682 318.142 529.494C329.288 522.13 339.595 512.55 349.585 503.698ZM706.39 823.919C706.857 823.21 707.966 823.658 707.761 824.497C702.34 846.706 697.251 868.96 693.928 891.593C687.93 932.443 689.033 973.826 689.523 1014.98L689.548 1017.11C689.8 1039.27 690.15 1061.44 690.883 1083.6C691.253 1094.8 691.985 1106.1 691.587 1117.31C691.37 1123.39 689.75 1129.13 689.176 1135.14C688.673 1140.39 689.121 1145.72 689.372 1150.98C689.54 1154.48 684.38 1154.33 684.029 1150.98L683.58 1146.65C682.997 1141.17 682.277 1135.73 680.481 1130.48C678.322 1124.18 677.286 1117.98 676.537 1111.36C675.39 1101.21 674.88 1090.96 674.437 1080.75L674.134 1073.68C672.285 1030.97 672.35 988.068 675.343 945.409L675.562 942.362C678.526 902.038 683.669 858.469 706.39 823.919ZM590.835 569.773C589.419 569.191 589.915 567.05 591.483 567.423L594.335 568.103C615.229 573.107 635.745 578.53 655.247 587.843C674.762 597.161 691.284 611.072 704.412 628.178C729.932 661.429 740.537 701.839 748.909 742.211C758.213 787.072 766.684 832.097 776.069 876.944L777.812 885.297C786.496 927.067 794.695 968.86 800.736 1011.12L801.17 1014.19C807.263 1057.65 810.927 1102.62 804.279 1146.19C802.964 1154.81 788.618 1152.67 789.179 1144.15C790.799 1119.53 791.959 1095.03 790.838 1070.35C789.716 1045.67 787.401 1021.1 783.95 996.63C781.046 976.039 776.717 955.705 772.886 935.279L772.285 932.053C769.077 914.679 765.77 897.323 762.47 879.965L757.539 853.977C750.148 815.064 742.612 776.117 734.097 737.449L733.592 735.173C725.259 697.971 712.974 659.002 687.979 629.46C662.614 599.479 626.303 584.38 590.835 569.773ZM498.668 964.37C499.278 963.011 501.412 963.16 502.068 964.37C504.639 969.113 504.924 975.166 505.41 980.52L505.461 981.071C506.079 987.604 506.626 994.159 506.961 1000.71C507.596 1013.15 507.9 1025.58 507.861 1038.03C507.821 1050.79 507.564 1063.54 506.876 1076.29L506.69 1079.7C506.062 1090.78 505.008 1103.13 499.745 1112.82C497.832 1116.34 492.629 1115.3 491.521 1111.74C487.891 1100.09 489.755 1086.27 490.686 1074.33L491.409 1065.01C492.125 1055.7 492.808 1046.38 493.349 1037.05C494.091 1024.29 494.703 1011.52 495.292 998.749C495.484 994.603 495.691 990.455 495.909 986.308L496.245 980.089C496.532 974.887 496.508 969.179 498.668 964.37ZM90.5205 980.89L92.1275 979.337C97.0605 974.51 103.294 967.075 110.587 967.536C113.495 967.72 115.348 970.134 114.745 972.995C113.457 979.111 107.218 982.285 102.727 986.019C97.8068 990.108 93.1698 994.479 88.5418 998.892C84.436 1002.81 80.4875 1006.83 76.6337 1010.98L75.1928 1012.54C73.8114 1014.05 63.9743 1022.95 65.0379 1025.25L65.0958 1025.36C65.3918 1025.8 64.8988 1026.41 64.4078 1026.25C60.1598 1024.91 60.4248 1021.27 62.0308 1017.58C65.1168 1010.49 70.5208 1003.94 75.2398 997.883C79.9461 991.845 85.0399 986.222 90.5205 980.89V980.89ZM514.062 803.137C510.777 795.373 498.676 795.536 491.806 796C474.506 797.169 455.788 801.546 440.395 809.632C424.436 818.015 413.686 831.447 404.068 846.3L403.618 846.997C394.243 861.57 385.214 878.821 370.534 888.841C363.057 893.946 354.326 898.607 345.254 900.626C344.631 901.721 343.622 902.588 342.299 902.903L341.684 903.044C339.1 903.614 335.086 904.245 331.619 903.868C331.642 905.564 331.624 907.247 331.667 908.854C331.789 913.459 331.841 918.084 331.841 922.692C331.843 932.347 331.324 942.021 331.727 951.675C332.084 960.214 333.29 969.136 337.39 976.769C340.397 982.369 344.366 986.075 349.157 989.613C360.943 982.43 374.27 978.052 387.796 974.76C404.154 970.779 420.903 968.122 436.889 962.724C444.583 960.125 451.98 956.724 458.682 952.105C465.795 947.2 471.228 940.564 476.818 934.073L477.691 933.064C483.396 926.522 489.621 920.261 497.684 916.714C504.627 913.658 513.778 913.114 519.849 908.386C523.023 905.912 523.289 902.322 523.623 898.646C519.735 899.202 515.619 898.311 511.744 897.857L509.736 897.621C506.072 897.186 502.492 896.707 498.885 895.775C498.215 895.602 498.215 894.592 498.885 894.419C503.148 893.318 507.373 892.849 511.744 892.337L512.77 892.209C516.724 891.69 520.881 890.908 524.76 891.778C525.456 889.13 526.461 886.602 527.871 884.07C529.85 880.513 533.595 876.48 534.101 872.325C534.252 871.084 533.963 869.621 533.378 868.524L533.176 868.15C532.93 867.708 532.639 867.264 532.213 866.989C532.166 867.044 532.066 867.107 531.849 867.175C528.864 868.115 526.26 866.654 524.878 864.402C519.011 865.13 512.608 864.885 507.106 865.128L501.543 865.397C495.598 865.67 489.384 865.789 483.799 864.588C483.019 864.421 482.783 863.123 483.564 862.789C490.431 859.852 498.761 858.915 506.113 857.787C510.219 857.156 514.355 856.676 518.473 856.121C521.215 855.751 524.125 855.14 526.966 854.993C534.089 846.126 530.251 832.138 520.338 828.32C516.727 829.907 513.48 828.984 509.535 828.645C505.597 828.307 501.649 828.078 497.695 828.095C489.772 828.13 481.376 830.214 473.53 829.317C472.254 829.17 471.068 827.472 472.337 826.436C478.342 821.535 486.95 819.937 494.573 818.892L496.154 818.681C498.71 818.346 501.818 817.857 505.042 817.566C505.771 816.144 507.079 815.069 509.044 814.802C509.628 814.722 510.215 814.675 510.801 814.625L510.792 814.567V814.567C515.584 814.337 515.376 806.243 514.062 803.137ZM185.993 954.562C185.908 954.693 185.815 954.817 185.717 954.937L185.565 955.113L186.353 954.793L185.993 954.562V954.562ZM597.684 785.788C577.514 783.621 557.315 784.078 537.085 784.66C535.467 789.952 529.835 794.462 524.378 794.632C528.652 801.137 529.093 809.941 526.096 816.84C532.459 819.373 537.941 823.923 541.269 830.403C545.884 839.386 545.28 849.382 540.719 857.684C544.612 861.208 546.909 866.931 546.679 872.325C546.422 878.34 542.837 883.478 539.858 888.458C536.639 893.844 536.531 898.586 535.542 904.618C534.095 913.446 528.141 918.8 520.48 922.144L520.887 923.746C522.862 931.434 525.319 939.546 530.965 945.168C538.226 952.4 549.492 952.333 559.087 952.791L559.55 952.814C568.335 953.253 577.117 953.768 585.899 954.265L592.487 954.634C602.599 955.19 612.31 955.257 620.565 948.572C634.042 937.66 643.281 919.601 649.129 903.614C661.403 870.058 661.55 833.233 655.916 798.285C637.021 792.195 617.416 787.908 597.684 785.788ZM429.945 841.46L430.093 841.47C434.246 841.944 437.099 845.307 438.115 849.296C439.591 855.094 438.867 860.336 442.418 865.57C446.071 870.952 448.317 875.261 448.848 881.91C449.066 884.646 448.966 887.375 449.575 890.053L450.017 891.929C450.486 893.93 450.869 895.857 450.636 898.005C450.423 899.964 449.469 901.49 447.504 902.118C441.101 904.166 436.157 899.448 434.503 893.481C433.074 888.327 434.982 882.185 432.966 877.345C431.849 874.662 429.789 872.418 428.625 869.717C427.472 867.04 426.893 864.243 426.708 861.333C426.357 855.829 431.225 849.216 428.509 844.229C427.931 843.165 428.586 841.427 429.945 841.46ZM344.892 784.661C349.228 783.78 354.147 781.761 358.423 783.439C360.621 784.303 361.707 786.983 359.85 788.846C356.626 792.078 351.94 792.258 347.597 793.02L347.215 793.089C342.08 794.039 336.936 794.94 331.785 795.794C322.094 797.399 312.38 798.818 302.632 800.024C292.62 801.263 282.58 802.366 272.526 803.196L268.634 803.516C260.141 804.195 251.304 804.707 242.971 803.406C241.76 803.217 241.955 801.454 242.971 801.145C252.1 798.382 262.114 797.641 271.552 796.472C281.586 795.227 291.603 793.912 301.594 792.352C311.569 790.794 321.531 789.122 331.456 787.274C335.942 786.44 340.421 785.569 344.892 784.661ZM501.347 775.79C497.542 774.443 493.356 772.447 489.233 773.115C482.123 774.267 475.795 781.194 470.167 785.756L472.992 785.207C487.452 782.428 506.6 779.434 518.738 788.627C518.769 788.574 518.793 788.521 518.828 788.468C519.808 786.98 520.943 785.819 522.182 784.546C522.3 784.434 522.414 784.319 522.527 784.202L523.196 783.49L521.667 782.96C518.392 781.803 514.512 780.308 513.899 780.09L513.857 780.075C509.682 778.661 505.502 777.263 501.347 775.79ZM382.545 472.716C381.95 465.063 393.861 465.126 394.451 472.716C395.738 489.286 392.009 505.699 383.983 520.226C383.924 520.332 383.859 520.426 383.797 520.526C388.817 523.138 393.894 525.644 399.084 527.884C405.723 530.75 412.487 533.36 419.372 535.574C425.6 537.578 433.273 538.369 438.509 542.539C449.55 551.331 445.402 569.577 443.278 581.404L442.946 583.271C441.889 589.357 441.124 595.601 443.69 601.442C446.43 607.681 451.971 612.309 456.914 616.773L457.912 617.678C462.291 621.667 467.295 626.515 470.507 631.923C473.439 625.861 477.436 620.907 481.662 615.33C484.677 611.35 482.531 610.038 480.365 606.15C478.28 602.408 477.262 598.419 477.914 594.15C479.117 586.266 485.418 580.571 491.69 576.292C499.097 571.241 507.364 567.499 515.021 562.8C530.755 553.146 546.078 542.108 559.883 529.849C560.264 529.51 560.924 529.954 560.619 530.417C549.714 547.004 536.927 561.337 521.212 573.503C514.84 578.436 508.146 582.528 501.407 586.829L499.47 588.072C496.764 589.825 493.389 592.168 492.166 595.152C490.935 598.153 493.56 600.419 494.973 602.905C499.46 610.799 497.295 618.165 491.976 624.86L491.728 625.169C486.442 631.683 482.436 637.741 480.52 646.063C476.403 663.939 482.137 682.561 488.14 699.343L488.377 700.005C491.624 709.051 495.075 718.031 497.896 727.222L498.672 729.763C501.228 738.219 503.321 746.56 500.454 755.254C499.479 758.211 495.446 758.91 493.771 756.127C487.862 746.313 486.389 734.503 482.685 723.713C479.075 713.197 474.93 702.871 471.443 692.312C466.953 678.717 463.948 664.083 465.579 649.823C465.531 649.74 465.478 649.662 465.438 649.574L464.295 647.074C461.178 640.304 458.168 634.392 452.5 628.996C446.588 623.367 440.171 618.384 435.519 611.57C425.414 596.768 431.663 580.303 432.884 564.12L433.024 562.135C433.245 558.775 433.367 554.208 431.172 551.883C428.703 549.265 422.913 548.597 419.637 547.438C411.171 544.442 402.828 540.951 394.882 536.759C387.318 532.769 379.991 528.361 373.169 523.197L369.711 520.595C364.255 516.479 358.598 511.984 354.942 506.381C354.52 505.736 355.237 504.695 356.001 505.004C362.105 507.481 367.682 511.421 373.393 514.849C373.482 514.64 373.585 514.429 373.702 514.217C380.768 501.429 383.674 487.261 382.545 472.716ZM577.528 560.331C579.96 553.662 591.044 554.177 590.602 562.101C590.263 568.188 587.679 573.683 585.315 579.21L585.063 579.803C582.623 585.562 579.805 590.969 576.433 596.247C569.99 606.337 562.443 615.701 554.382 624.538C547.074 632.55 537.482 637.449 526.429 636.635C521.772 636.292 517.071 635.107 512.99 632.781C508.143 630.017 502.879 621.718 496.695 623.728C496.097 623.922 495.539 623.046 496.056 622.631C503.195 616.882 511.298 625.796 518.133 627.944C528.432 631.179 539.001 627.602 545.63 619.276C552.551 610.583 558.921 600.85 564.738 591.385C567.692 586.579 570.387 581.591 572.715 576.45C575.064 571.261 575.598 565.622 577.528 560.331ZM560.927 519.288C560.627 518.367 561.771 517.491 562.58 518.017C567.271 521.071 571.336 525.106 575.663 528.643C580.464 532.567 585.3 536.411 590.211 540.196C597.37 545.715 589.067 555.875 582.765 549.846C574.141 541.599 564.696 530.815 560.927 519.288ZM535.172 487.009C537.078 479.66 548.349 482.691 546.707 489.954L546.653 490.175C543.542 502.172 547.973 514.385 557.432 522.162L557.78 522.445C563.764 527.234 555.286 535.606 549.361 530.863C536.426 520.511 531.045 502.926 535.172 487.009Z" fill="black"/>
<path fill-rule="evenodd" clip-rule="evenodd" d="M627.529 304.003C625.376 285.088 628.162 245.552 628.349 243.15C629.529 227.965 622.414 168.002 608.964 173.527C586.402 155.666 556.351 151.722 528.251 149.838C469.884 145.924 407.791 154.909 362.721 194.189C340.432 214.588 318.733 244.257 320.477 275.149C300.226 304.431 271.677 344.598 296.909 378.831C305.485 389.768 319.117 393.841 329.891 402.124C351.563 419.604 365.159 444.69 387.036 462.066C444.997 514.149 543.414 525.029 600.36 465.789C644.395 422.885 637.275 358.699 629.529 304.003C624.322 267.23 631.729 340.904 627.529 304.003Z" fill="white"/>
<path fill-rule="evenodd" clip-rule="evenodd" d="M450.28 69.6251C465.89 66.4751 481.919 64.5151 497.86 65.1051L499.089 65.1528C511.083 65.6322 526.273 66.6926 536.736 73.6671C537.338 73.0631 538.306 72.7531 539.184 73.1721C551.618 79.1071 565.294 83.3981 578.386 87.6621C591.418 91.9051 604.938 94.7061 618.597 95.8351C623.736 96.2601 628.134 101.809 624.88 106.786C624.106 107.972 623.352 109.17 622.601 110.371C623.857 110.24 625.113 110.105 626.369 109.978C630.502 109.562 634.631 113.973 634.386 117.997C634.233 120.528 633.96 123.029 633.556 125.5C635.13 125.467 636.695 125.703 638.207 126.342C645.863 129.575 645.33 138.694 644.757 145.632C643.963 155.26 640.362 165.458 633.676 172.664C638.668 177.849 642.202 184.041 644.31 191.395C645.839 196.765 646.69 202.485 646.27 208.075L646.136 209.749C645.617 215.815 644.584 222.531 640.22 226.895C637.98 229.145 635.22 229.965 632.589 229.705C634.18 243.685 635.2 257.745 636.16 271.755L636.61 278.451C638.752 310.831 640.361 343.422 639.94 375.855C639.549 406.165 633.56 435.585 614.97 460.195C598.039 482.605 573.73 499.125 546.23 505.405C531.41 508.795 516.28 509.035 501.28 506.875C494.009 505.825 486.69 504.215 479.789 501.675C472.15 498.855 466.66 494.705 461.52 488.485C459.089 485.535 460.259 479.255 465.1 479.845C472.421 480.733 479.105 481.803 486.124 483.968L487.129 484.285C494.12 486.525 501.36 488.195 508.669 488.905C523.64 490.355 538.839 488.895 553.18 484.355C576.53 476.955 596.64 460.465 609.53 439.745C624.83 415.185 626.56 387.305 626.339 359.065C626.102 328.077 625.094 297.07 623.449 266.114L623.169 260.955C622.299 245.025 621.459 229.085 620.72 213.145C620.49 208.145 620.14 203.105 619.509 198.115C613.74 194.735 608.57 190.075 605.2 184.325C598.43 187.125 591.31 189.145 584.759 190.755C569.585 194.487 553.831 195.393 538.386 193.056C534.22 194.777 529.971 196.29 525.657 197.592C524.491 198.109 523.325 198.617 522.16 199.115C511.759 203.565 501.209 207.335 490.23 210.095L487.533 210.768C481.755 212.192 475.479 213.595 469.33 214.035C468.32 214.425 467.23 214.755 466.039 215.045C460.44 216.405 454.629 216.835 448.89 216.355C443.299 215.885 439.259 210.235 442.339 204.945C444.589 201.085 446.86 197.235 449.15 193.395C441.18 196.715 432.95 199.475 424.65 201.815C416.27 204.175 407.77 206.165 399.259 207.995C394.709 208.965 390.14 209.825 385.6 210.795C382.35 211.485 377.36 211.845 374.709 213.985C371.78 216.335 370.95 221.815 369.839 225.195C368.379 229.585 367.009 233.995 365.759 238.455C363.27 247.355 361.23 256.385 359.65 265.505C358.07 274.635 357.009 283.855 356.419 293.105C355.83 302.345 356.089 311.645 355.14 320.845C354.629 325.725 349.39 328.235 345.52 324.825C345.066 324.425 344.608 324.021 344.155 323.612L343.48 322.995C340.169 319.995 336.959 316.815 334.31 313.235C333.83 312.575 333.37 311.885 332.94 311.185C332.87 311.185 332.81 311.165 332.74 311.115L332.005 310.562C323.918 304.543 310.406 296.694 302.52 306.695C300.007 309.881 298.72 313.938 297.653 317.851L295.779 324.856C294.567 329.428 293.426 334.026 292.759 338.705C291.249 349.185 292.009 361.265 299.22 369.665C302.1 373.025 306.07 375.425 310.499 376.055C312.97 376.395 315.41 375.975 317.86 375.665C320.35 375.355 322.749 375.855 325.24 375.615C329.2 375.225 330.93 379.965 329.45 382.945C328.65 384.545 327.709 385.925 326.64 387.095C327.499 387.835 328.32 388.635 329.11 389.475C331.45 390.225 333.549 391.835 335.12 393.965C336.39 395.685 337.049 397.555 337.16 399.525C337.299 400.015 337.419 400.515 337.53 401.025L339.675 404.507C340.147 405.271 340.617 406.025 341.089 406.765C346.549 415.365 352.61 422.645 360.14 429.505C367.39 436.105 375.259 442.015 382.07 449.095L382.872 449.936C389.222 456.627 395.915 464.726 393.43 474.455C392.79 476.955 389.299 478.755 387.02 477.065C379.69 471.625 375.999 463.005 369.78 456.405C363.379 449.605 356.289 443.495 349.87 436.715C343.799 430.315 339.009 423.065 335.4 415.085C333.959 416.675 331.86 417.805 328.95 418.245C323.95 418.995 319.289 416.065 317.11 411.735C315.709 412.355 314.28 412.915 312.839 413.355C305.259 415.675 300.49 407.245 303.35 401.015C304.879 397.675 306.789 394.775 309.16 392.335C301.749 391.315 294.209 387.485 289.339 382.705C277.12 370.695 275.44 352.645 278.19 336.595C279.65 328.085 282.169 319.475 285.44 311.485C286.009 310.095 286.62 308.695 287.289 307.315C286.919 307.305 286.539 307.145 286.299 306.835C284.089 303.815 281.4 301.345 279.759 297.965C278.249 294.865 276.57 291.725 275.379 288.495C272.93 281.885 271.73 274.425 270.93 267.435C269.28 253.125 269.919 238.905 272.11 224.685C275.839 200.465 284.847 177.287 298.118 156.949C297.395 156.569 296.703 156.111 296.058 155.569L295.739 155.291L295.221 154.823C291.434 151.396 291.761 144.973 295.221 141.502L296.314 140.407C297.697 139.032 298.891 137.943 301.126 136.446C301.456 136.225 301.793 136.017 302.134 135.823C300.964 133.661 300.558 131.133 301.373 128.344C304.213 118.628 318.193 118.972 327.054 123.209C336.857 114.46 347.727 106.865 359.509 100.715C387.57 86.0751 419.299 75.8651 450.28 69.6251ZM305.23 325.525C310.47 323.815 317.43 327.405 322.14 329.565C328.11 332.305 333.19 336.355 338.11 340.635C340.56 342.775 340.999 346.275 340.39 349.265C340.329 349.565 340.27 349.875 340.199 350.185C339.549 353.375 335.989 355.885 332.839 355.795C326.249 355.615 323.11 349.925 319.379 345.105C318.94 345.885 318.39 346.605 317.709 347.145L317.249 347.505C315.701 348.684 313.995 349.626 311.949 349.535C310.499 349.465 309.11 349.095 307.829 348.425C304.629 346.735 303.22 342.595 304.089 339.225C304.629 337.105 305.869 335.445 307.489 334.295L306.885 333.882C305.593 332.983 304.415 332.035 303.496 330.636L303.289 330.305H303.369C302.369 328.585 303.02 326.245 305.23 325.525Z" fill="black"/>
<path fill-rule="evenodd" clip-rule="evenodd" d="M520.587 435.927C513.864 433.184 507.866 428.61 503.481 422.766C501.957 420.735 501.561 418.59 501.881 416.628C502.241 414.422 503.546 412.422 505.326 411.081C507.112 409.736 509.345 409.072 511.504 409.41C513.381 409.704 515.248 410.732 516.727 412.862L517.035 413.288C519.642 416.815 523.04 419.709 526.91 421.574C530.641 423.372 534.814 424.211 539.132 423.723C547.356 422.794 553.024 418.347 559.049 412.307C559.796 411.544 560.543 410.758 561.294 409.959C561.768 409.235 562.426 408.769 563.157 408.525C563.968 408.253 564.886 408.269 565.726 408.562C566.537 408.845 567.262 409.381 567.747 410.095C568.209 410.773 568.471 411.611 568.386 412.574C567.835 418.834 564.562 424.42 559.914 428.806C554.752 433.677 547.909 437.047 541.466 438.229C534.368 439.531 527.136 438.598 520.587 435.927V435.927ZM544.814 339.367C552.366 343.957 563.872 354.661 555.748 366.04C546.186 376.073 532.418 364.569 525.634 359.366C519.343 355.334 512.275 365.705 518.112 370.413C567.136 406.708 587.031 340.568 548.634 333.971C544.406 333.244 542.836 337.947 544.814 339.367ZM456.963 297.147C457.798 286.79 473.57 284.439 475.139 294.687C476.544 303.867 474.89 312.3 470.755 320.565C466.804 328.461 456.874 324.777 456.123 317.587C455.116 307.949 456.444 303.589 456.963 297.147ZM577.027 292.562C579.226 289.682 582.401 287.716 586.205 288.827C598.09 292.3 594.587 309.173 590.413 317.386C588.145 321.846 580.814 322.977 577.501 319.05C572.101 312.646 569.515 299.857 576.38 293.549C576.566 293.223 576.773 292.894 577.027 292.562ZM470.588 251.831L472.465 251.502C478.273 250.498 485.494 249.533 489.603 254.202C491.782 256.678 492.532 261.28 489.603 263.65C484.451 267.82 478.755 266.204 472.581 266.557C467.493 266.849 462.603 267.691 457.702 269.092C446.95 272.165 438.189 277.775 429.006 283.935C427.801 284.743 426.571 283.202 427.146 282.075C432.447 271.692 442.72 263.163 453.01 257.964C458.502 255.189 464.512 252.887 470.588 251.831ZM566.193 247.18L567.63 247.474C583.267 250.742 603.583 257.272 610.988 272.631C611.271 274.803 610.972 275.268 610.73 275.573L610.649 275.674C610.45 275.933 610.29 276.291 609.349 276.587C609.087 276.525 608.824 276.459 608.557 276.389C605.163 275.499 602.477 274.274 599.877 273.002L597.058 271.614C593.788 270.01 590.488 268.465 586.992 267.324C579.53 264.89 571.854 263.176 564.06 262.26C562.37 262.062 560.744 261.492 559.46 260.514C558.242 259.587 557.311 258.303 556.887 256.596C556.337 254.387 556.495 252.714 557.68 250.721C558.572 249.225 559.847 248.187 561.311 247.592C562.804 246.984 564.503 246.841 566.193 247.18Z" fill="black"/>
<path fill-rule="evenodd" clip-rule="evenodd" d="M591.132 453.724C587.642 452.582 584.214 451.253 580.77 449.972C563.161 441.127 541.89 439.523 523.423 446.972C514.359 450.628 505.907 457.197 496.812 461.502C494.652 462.308 492.474 463.04 490.272 463.654C488.922 463.184 487.572 462.684 486.232 462.184C476.585 458.548 467.511 454.063 458.701 449.129C457.761 447.806 456.786 446.52 455.738 445.285C462.113 444.38 468.355 442.876 474.002 441.324C491.342 436.574 507.682 428.834 524.962 423.874C541.052 419.244 558.512 416.714 574.672 422.464C582.342 425.194 589.092 429.974 596.552 433.194C600.412 434.854 605.042 436.484 609.552 436.724C606.642 443.694 602.962 450.204 597.932 455.624C595.632 455.134 593.352 454.444 591.132 453.724ZM628.653 399.132C627.109 400.415 620.737 404.555 618.67 407.023C618.136 406.82 617.605 406.612 617.077 406.398C616.168 405.282 614.829 404.792 613.464 404.822C603.935 400.39 595.452 394.127 587.882 386.274C582.502 380.704 576.992 374.874 569.802 371.644C561.332 367.824 553.002 369.584 544.102 370.164C534.632 370.794 525.282 368.104 515.822 369.394C508.902 370.344 502.422 373.274 496.822 377.404C485.392 385.834 477.512 397.674 467.852 407.884C456.892 419.464 443.412 426.864 428.422 430.644C428.242 430.524 428.052 430.404 427.862 430.294C416.812 420.294 406.832 409.004 398.002 396.974C389.382 385.224 366.652 332.334 361.162 327.694C358.882 325.764 356.382 324.934 353.992 325.004C349.662 325.104 345.662 328.114 343.872 332.854C340.832 340.914 342.352 351.334 342.592 359.764C342.892 370.084 343.572 380.394 344.652 390.664C345.722 400.814 347.142 410.934 348.912 420.984C349.802 426.064 350.792 431.134 351.882 436.184C352.222 437.774 352.652 439.194 353.172 440.514C353.702 443.004 354.272 445.484 354.882 447.944C358.862 464.054 365.142 480.184 377.132 492.074C389.612 504.464 406.572 512.694 422.322 520.054C437.322 527.064 453.042 533.294 469.172 538.174C483.182 544.524 498.182 549.544 513.242 552.184C529.822 555.094 547.252 555.274 563.262 549.514C571.132 546.684 578.572 542.734 585.322 537.814C594.892 532.844 603.502 526.014 610.552 516.974C623.179 500.772 629.206 481.112 631.843 460.838C632.518 455.649 635.056 435.762 635.255 432.666C635.9 422.666 636.544 412.667 637.189 402.668C637.493 397.949 631.701 396.602 628.653 399.132Z" fill="black"/>
</svg>
