<svg width="818" height="1206" viewBox="0 0 818 1206" fill="none" xmlns="http://www.w3.org/2000/svg">
<path fill-rule="evenodd" clip-rule="evenodd" d="M77.6647 1187.45C208.31 1207.29 341.324 1208.29 473.055 1201.08C525.189 1197.18 577.482 1196.48 629.574 1201.47C660.356 1203.76 795.316 1214.07 806.343 1186.5C799.403 1039.7 785.347 891.642 742.227 750.452C724.494 700.319 709.264 658.71 674.653 617.224C663.745 605.897 640.221 582.141 626.743 574.393C615.065 567.682 610.184 570.076 603.478 558.74C596.815 546.217 591.9 525.303 582.439 516.467C572.806 507.47 558.53 510.689 540.835 513.586C544.086 469.656 523.807 458.467 495.871 450.113C446.767 431.372 398.271 440.787 385.911 500.564C362.995 500.564 350.123 510.426 336.207 519.902C330.518 523.775 334.476 533.644 327.681 536.688C315.109 541.164 292.893 540.068 280.789 545.576C225.745 570.626 176.72 606.952 144.524 660.003C72.3435 773.269 22.7613 1011.87 31.3413 1146.11C27.5821 1152.01 32.7804 1160.46 34.1017 1166.8C35.7696 1172.31 41.1706 1175.98 46.8074 1175.35C54.6732 1183.81 66.8396 1185.7 77.6647 1187.45Z" fill="white"/>
<path fill-rule="evenodd" clip-rule="evenodd" d="M618.424 571.072C617.622 570.625 618.328 569.479 619.134 569.858C657.879 588.034 687.602 619.923 708.516 656.768C730.172 694.919 742.515 738.235 753.156 780.572L753.54 782.102C764.887 827.392 774.535 873.15 783.221 919.02C792.018 965.471 799.079 1012.21 804.759 1059.14C807.569 1082.35 810.074 1105.59 812.028 1128.89C813.004 1140.53 813.891 1152.17 814.688 1163.83C815.007 1168.49 815.306 1173.15 815.564 1177.82L815.748 1181.31C815.907 1184.49 816.284 1187.67 815.5 1190.8C814.823 1193.5 813.394 1195.94 812.137 1198.42C809.651 1203.32 802.836 1202.51 800.157 1198.42L799.379 1197.23C797.603 1194.49 796.127 1191.93 795.569 1188.52C795.03 1185.21 795.01 1181.74 794.768 1178.4C794.323 1172.25 793.944 1166.09 793.512 1159.94C792.605 1147 791.586 1134.06 790.458 1121.13C788.227 1095.6 785.834 1070.1 782.895 1044.64C777.673 999.401 771.12 954.281 763.395 909.401C755.847 865.559 746.306 822.161 736.351 778.818L735.32 774.335C717.891 698.661 691.029 611.513 618.424 571.072ZM205.737 867.394C206.022 866.637 207.248 866.463 207.455 867.394C210.065 879.145 210.323 891.248 210.722 903.279C211.115 915.147 211.099 927.069 210.926 938.944C210.288 982.587 209.09 1026.19 208.054 1069.83C207.536 1091.66 207.05 1113.49 206.677 1135.32C206.536 1143.5 206.417 1151.69 206.319 1159.88L206.198 1170.68C206.138 1175.45 206.013 1180.17 205.431 1184.94C205.047 1188.08 204.229 1191.07 202.497 1193.76C201.268 1195.66 199.516 1196.63 197.808 1197.93L197.489 1198.18C195.311 1199.9 193.017 1199.91 190.86 1198.18L190.233 1197.68C188.173 1196.07 186.392 1194.81 185.077 1192.26C183.247 1188.72 182.954 1184.87 182.643 1180.97C182.171 1175.05 182.484 1169.04 182.545 1163.1C182.667 1151.19 182.832 1139.29 183.041 1127.38C183.808 1083.71 185.324 1040.03 188.087 996.434C189.388 975.901 191.153 955.3 193.521 934.85L193.972 931.017C194.69 925 195.345 918.876 196.083 912.732C185.066 904.983 175.382 895.581 167.124 884.915C166.516 884.13 167.517 883.029 168.251 883.789C176.689 892.526 186.364 899.491 197.075 904.968C198.83 892.107 201.243 879.315 205.737 867.394ZM389.789 478.108C389.94 477.991 390.176 477.94 390.32 478.108C392.688 480.869 392.208 485.09 392.284 488.588L392.293 488.914C392.463 494.029 392.495 499.128 392.478 504.246L392.425 520.537V520.537C392.418 522.777 392.236 525.109 392.351 527.362L392.411 528.234V528.234C393.655 529.508 394.233 531.349 393.811 533.198C393.735 535.57 392.495 537.549 390.686 538.793L394.563 544.294V544.294L398.444 549.791C406.443 561.136 414.53 572.38 422.958 583.413C431.552 594.662 440.72 605.487 450.314 615.895C455.001 620.981 459.768 625.996 464.646 630.899C466.629 632.892 468.66 634.835 470.669 636.8L472.668 638.775C473.849 639.956 475.335 641.124 476.119 642.621C476.58 643.504 476.685 645.68 476.85 646.04C478.33 649.293 475.805 654.48 471.609 652.857L471.8 652.731C472.564 652.199 472.074 652.191 470.33 652.708C469.23 652.705 468.199 652.451 467.235 651.95L466.948 651.792C465.591 651.103 464.38 649.768 463.278 648.701L463.004 648.44C460.483 646.078 458.08 643.573 455.664 641.104C450.621 635.953 445.692 630.692 440.92 625.29C431.4 614.512 422.375 603.297 413.828 591.734C405.122 579.957 397.03 567.575 390.071 554.685C387.43 549.793 385.009 544.807 382.688 539.763C378.17 538.313 377.121 533.508 377.436 528.095C375.769 524.213 374.267 520.251 373.379 516.203C373.258 515.648 373.971 515.125 374.398 515.61C375.843 517.252 377.181 519 378.467 520.793C379.243 516.998 380.225 513.505 380.687 511.278L382.69 501.45V501.45C371.403 500.862 359.035 505.499 351.254 513.617C350.836 515.731 349.209 517.244 347.623 519.22C345.811 521.479 344.23 524.014 343.051 526.665C340.436 532.541 341.912 541.2 336.837 545.511C336.308 545.96 335.717 546.272 335.107 546.465C337.515 558.273 336.423 571.284 336.37 583.263L336.368 584.317C336.38 597.724 335.932 611.142 335.414 624.538L334.887 637.796C334.204 655.478 333.761 673.168 335.479 690.753C343.324 683.805 351.436 677.174 359.827 670.857C365.345 666.703 370.973 662.696 376.703 658.839L381.359 655.728C386.938 651.987 392.653 648.137 398.761 645.458C406.751 641.955 414.349 643.159 422.063 646.752C429.745 650.331 437.198 654.488 444.733 658.367C452.397 662.311 460.077 666.222 467.752 670.143C472.836 672.741 480.286 675.086 484.015 679.868C484.253 678.81 484.53 677.755 484.854 676.704C484.484 675.101 484.627 673.369 485.526 671.718C498.056 648.695 509.649 625.122 521.161 601.578C526.988 589.663 532.528 577.607 538.366 565.699L544.042 554.101C544.99 552.169 545.941 550.239 546.897 548.311C548.329 545.425 549.82 542.567 551.268 539.688C551.88 538.472 552.647 537.264 553.243 536.036L553.525 535.42C553.539 535.388 554.914 531.064 553.852 531.476L553.76 531.52C553.218 531.827 552.784 531.145 553.135 530.71C554.637 528.853 556.729 530.498 557.586 532.217C559.948 536.948 555.621 544.374 553.957 548.904L553.865 549.157C548.7 563.776 542.852 578.121 536.86 592.416C525.371 619.823 513.029 646.809 500.714 673.842L500.568 674.307V674.307C503.194 672.294 505.998 670.467 508.399 668.689C514.456 664.202 520.69 659.936 526.914 655.684C538.328 647.886 550.052 640.602 561.969 633.606L564.355 632.21C570.308 628.742 576.205 625.93 583.271 626.971C589.836 627.939 595.939 631.465 601.869 634.329L602.482 634.623L620.807 643.335C618.848 635.523 616.727 627.749 614.514 620.004C610.198 604.897 605.449 589.917 600.299 575.071C595.489 561.2 590.29 547.481 584.79 533.87L583.134 529.785C580.891 524.181 578.662 518.071 572.252 516.345C565.847 514.62 558.5 517.178 552.646 513.527C552.114 513.195 552.18 512.318 552.825 512.156L556.437 511.246C563.22 509.559 571.171 507.861 577.584 509.502C584.563 511.29 590.337 517.147 593.723 523.236C597.488 530.01 600.142 537.59 602.999 544.813L603.452 545.95C606.731 554.124 609.885 562.347 612.903 570.622C618.937 587.162 624.43 603.901 629.402 620.791C631.798 628.931 634.071 637.11 636.256 645.309C636.884 647.667 637.92 650.526 638.77 653.508C639.744 654.458 640.666 655.518 641.531 656.727C642.966 658.733 641.936 661.085 640.152 662.286C640.083 664.338 639.627 666.268 638.537 667.922C634.282 674.381 623.033 672.717 623.49 664.034C623.559 662.705 624.077 661.436 624.861 660.364L624.839 660.19V660.19L624.75 659.872V659.872C622.797 658.936 620.836 657.893 618.769 656.872L599.537 647.369V647.369C593.967 644.616 587.793 640.363 581.599 639.314C575.825 638.336 569.732 642.639 564.77 645.234L564.448 645.401C552.453 651.549 540.547 657.901 528.688 664.305C522.899 667.432 517.185 670.689 511.418 673.853C506.596 676.499 501.392 680.297 495.972 681.79C493.657 683.59 490.907 683.349 488.697 681.988C489.707 688.243 489.645 694.662 489.955 701.057C490.372 709.607 490.436 718.18 490.573 726.74L490.629 729.95C490.993 748.876 491.188 767.807 491.26 786.737C491.516 854.145 490.771 921.573 490.597 988.981C490.509 1022.85 489.838 1056.75 488.958 1090.6C488.585 1104.95 487.805 1119.28 486.963 1133.6L486.499 1141.41C485.518 1157.9 484.939 1174.56 481.887 1190.83C481.489 1192.95 477.899 1193 477.547 1190.83C474.739 1173.4 474.582 1155.59 474.042 1137.96L473.928 1134.44C473.279 1115.51 472.971 1096.59 473.037 1077.65C473.277 1010.22 475.03 942.822 476.464 875.406C477.185 841.534 477.67 807.647 478.79 773.786C479.35 756.843 479.984 739.911 480.736 722.975C481.072 715.413 481.395 707.859 481.898 700.309L482.124 697.073C482.28 694.962 482.406 692.877 482.559 690.811C475.736 693.303 469.496 688.689 463.358 685.532C456.284 681.893 449.213 678.248 442.136 674.616L435.054 670.991V670.991L420.879 663.758C414.497 660.501 409.58 657.26 402.773 661.08C378.25 674.838 355.715 693.144 335.293 712.353C331.377 716.037 323.102 715.047 322.11 708.873C317.873 682.498 320.45 655.74 322.613 629.285L323.411 619.463C324.377 607.732 325.43 596.001 326.832 584.317C327.459 579.091 328.084 573.868 328.775 568.651L329.307 564.74C330.171 558.557 330.735 552.411 332.577 546.481C331.996 546.293 331.437 545.985 330.937 545.511C325.399 540.257 328.069 531.14 330.596 524.89C333.091 518.721 336.896 513.337 341.661 508.703C342.7 507.691 344.165 507.04 345.637 507.006C357.19 499.352 369.864 495.532 383.055 499.71C383.426 497.939 383.804 496.17 384.201 494.406L384.606 492.643C385.632 488.266 386.013 481.036 389.789 478.108ZM508.195 1169.33C511.78 1168.34 515.705 1169.38 518.332 1172.01C520.958 1174.63 521.998 1178.56 521.01 1182.14C520.516 1183.91 519.623 1185.44 518.332 1186.74C517.125 1187.94 515.717 1188.8 514.109 1189.31L513.734 1189.42L513.148 1189.66C511.351 1190.15 509.553 1190.15 507.757 1189.66C506.039 1189.18 504.548 1188.31 503.282 1187.06C502.025 1185.79 501.156 1184.3 500.674 1182.58C500.191 1180.78 500.191 1178.99 500.674 1177.19L500.919 1176.6V1176.6C501.413 1174.84 502.306 1173.31 503.597 1172.01C504.897 1170.72 506.43 1169.82 508.195 1169.33ZM721.064 812.088C721.653 811.412 722.608 812.278 722.242 812.997C716.658 823.944 710.434 834.813 704.317 845.482C704.807 848.439 705.293 851.372 705.852 854.231C708.235 866.417 711.154 878.383 713.057 890.685C719.897 934.904 723.448 979.603 726.495 1024.22C729.551 1069 729.942 1113.79 730.401 1158.66C730.441 1162.54 727.45 1167.06 723.442 1167.8C721.607 1168.13 720.234 1168.07 718.403 1167.8C714.232 1167.18 711.623 1162.4 711.444 1158.66C710.248 1133.58 708.639 1108.54 706.775 1083.5C703.471 1039.12 701.452 994.62 698.783 950.19L697.843 934.662C696.835 917.836 695.912 900.998 695.611 884.147C695.411 872.983 696.008 861.822 695.641 850.671C695.302 840.376 694.258 829.182 696.528 819.067C696.612 818.688 697.211 818.592 697.384 818.955C699.744 823.923 701.239 829.323 702.391 834.835C708.473 827.143 714.667 819.434 721.064 812.088ZM322.668 540.143C323.522 540.079 323.488 541.362 322.668 541.457C310.732 542.842 299.201 547.699 287.931 551.827L286.966 552.179C275.58 556.31 264.479 561.114 253.796 566.84C232.909 578.036 213.729 592.472 196.771 608.998C129.066 674.97 98.2107 770.104 75.6017 859.506C63.0397 909.177 54.1067 959.688 48.3167 1010.59C45.4537 1035.76 43.4297 1061.03 42.2497 1086.33C41.6457 1099.3 41.2647 1112.29 41.1057 1125.27C41.0237 1131.92 40.9997 1138.57 41.0077 1145.22C41.0117 1148.27 41.5557 1152.11 40.7407 1155.06C39.9847 1157.81 37.8527 1160.22 36.2757 1162.5C34.4067 1165.21 31.0477 1165.07 29.1527 1162.5L28.4539 1161.57C26.4329 1158.89 24.4554 1156.32 24.1667 1152.82C23.8577 1149.07 24.0757 1145.19 24.0617 1141.42C24.0297 1133.82 24.1237 1126.22 24.2757 1118.62C24.5687 1104.05 25.1427 1089.49 25.9957 1074.95C27.7277 1045.43 30.5787 1015.98 34.6607 986.695C41.9167 934.645 52.7927 883.092 67.0387 832.508C80.4787 784.789 96.4007 737.211 119.083 693.009C140.143 651.969 167.771 613.79 204.227 585.108C221.18 571.77 239.635 560.654 259.532 552.283C269.567 548.061 280.105 544.614 290.822 542.649C301.42 540.706 311.972 540.977 322.668 540.143ZM510.25 1084.98C512.143 1084.97 514.254 1085.38 515.878 1086.43L518.048 1088.11V1088.11C518.636 1088.86 519.221 1089.62 519.804 1090.38C521.161 1092.15 521.341 1095.01 521.058 1097.12C520.994 1098.52 520.576 1099.83 519.804 1101.04L518.152 1103.18V1103.18C516.564 1104.48 515.24 1105.4 513.317 1106.02C512.311 1106.35 511.343 1106.42 510.378 1106.37L510.057 1106.35L510.25 1106.37L509.912 1106.34V1106.34C509.598 1106.31 509.283 1106.27 508.967 1106.23C508.752 1106.2 508.536 1106.19 508.321 1106.16C508.114 1106.14 507.914 1106.13 507.705 1106.15C505.261 1106.38 502.804 1105 501.069 1103.4C499.506 1101.97 498.103 1098.93 498.321 1096.77L498.414 1095.87C498.578 1094.35 498.713 1093.75 499.358 1092.22C499.984 1090.74 500.859 1089.42 502.05 1088.32C504.33 1086.2 507.121 1085 510.25 1084.98ZM502.684 973.697C505.928 970.162 511.499 969.902 515.522 972.04C516.502 972.562 517.402 973.399 518.266 974.097C520.443 975.857 521.298 979.032 521.418 981.707C521.537 984.352 520.142 987.493 518.266 989.319L517.811 989.76V989.76C516.69 990.85 515.084 991.798 513.516 992.086C510.987 992.551 508.863 992.537 506.508 991.543C504.485 990.69 502.741 989.317 501.555 987.455L501.362 987.14C501.281 987.01 501.204 986.877 501.132 986.741L501.027 986.535C498.773 982.201 499.379 977.295 502.684 973.697ZM504.364 861.828C505.827 861.369 507.289 861.304 508.752 861.632C509.745 861.634 510.671 861.885 511.529 862.382C512.461 862.643 513.271 863.115 513.957 863.798C514.783 864.286 515.442 864.944 515.931 865.771C516.904 866.834 517.56 868.081 517.901 869.513L518.293 872.438L517.901 875.364L516.791 877.993V877.993C516.486 878.391 516.179 878.789 515.869 879.185C515.379 880.014 514.719 880.675 513.89 881.165C513.351 881.701 512.733 882.102 512.042 882.38C509.592 884.136 506.328 884.709 503.425 883.909C501.701 883.427 500.204 882.554 498.935 881.293C497.674 880.023 496.801 878.526 496.319 876.803L496.121 875.427C495.864 873.581 495.824 872.558 496.346 870.212C496.575 869.18 497.24 867.725 497.588 867.112C499.076 864.496 501.507 862.703 504.364 861.828ZM631.397 781.346C635.598 781.316 639.799 781.324 643.999 781.371L647.149 781.413C652.424 781.496 656.942 780.952 661.089 784.612C664.099 787.268 662.773 791.724 659.916 793.725C655.587 796.755 650.157 795.231 645.181 794.897C639.933 794.545 634.681 794.253 629.427 794.017C619.254 793.562 609.077 793.272 598.894 793.227C588.733 793.184 578.557 793.28 568.397 793.444C558.059 793.612 547.295 794.575 537.015 793.505C535.603 793.358 535.285 791.501 536.679 791.018C546.366 787.667 557.263 786.581 567.415 785.3C577.886 783.977 588.357 783.041 598.894 782.434C609.717 781.813 620.556 781.422 631.397 781.346ZM504.345 748.432L504.692 748.439C506.541 748.443 508.271 748.878 509.885 749.744L510.229 749.936L512.449 751.65C513.808 753.02 514.749 754.633 515.269 756.491L515.661 759.407V759.407C515.719 760.917 515.403 762.325 514.717 763.633C514.274 764.993 513.518 766.169 512.449 767.163C511.455 768.232 510.278 768.988 508.919 769.431C507.711 770.064 506.419 770.382 505.039 770.382L504.692 770.376C502.713 770.369 500.867 769.87 499.157 768.878L496.936 767.163V767.163C495.577 765.794 494.636 764.181 494.116 762.323L493.723 759.407V759.407C493.667 757.897 493.981 756.487 494.669 755.181C495.111 753.821 495.867 752.644 496.936 751.65C497.93 750.581 499.106 749.825 500.467 749.383C501.673 748.748 502.966 748.431 504.345 748.432V748.432ZM536.864 490.761C539.227 487.338 543.51 490.382 542.897 493.134C543.059 500.863 543.454 508.364 545.213 515.935C546.018 519.401 547.073 522.871 548.7 526.046L549.383 527.383C551.489 531.544 553.124 535.468 550.288 540.032C548.951 542.184 546.535 543.8 543.916 543.687C532.301 543.186 530.705 527.019 529.999 517.994C529.271 508.699 531.535 498.484 536.864 490.761Z" fill="black"/>
<path fill-rule="evenodd" clip-rule="evenodd" d="M626.417 166.809C619.339 141.313 620.351 138.555 609.802 114.202C574.822 43.4524 341.063 67.1414 317.206 137.765C304.264 176.079 307.304 230.038 303.935 263.261C302.904 280.876 301.892 298.492 300.843 316.105C300.48 322.188 300.114 328.27 299.74 334.352C299.013 346.192 298.306 358.032 297.646 369.876C293.251 406.362 311.587 410.073 343.038 408.993C351.353 429.054 364.82 445.8 381.455 459.425C377.44 470.347 392 476.001 399.854 480.368C442.587 504.228 495.078 518.783 542.411 505.366C556.319 501.424 613.753 487.771 631.412 445.505C640.084 424.749 657.713 317.264 634.465 220.576L626.417 166.809Z" fill="white"/>
<path fill-rule="evenodd" clip-rule="evenodd" d="M477.001 0.505999C483.61 -0.663001 491.001 -0.213001 494.79 6.277C495.61 7.676 496.13 9.087 496.38 10.477C514.44 6.417 533.19 5.977 551.64 8.637C557.14 9.426 559.07 16.756 556.65 20.947C556.4 21.377 556.15 21.796 555.88 22.207C561.66 22.676 567.43 23.676 573.15 25.217C577.22 26.317 581.02 31.587 579.211 35.907C579.05 36.287 578.88 36.667 578.711 37.046C587.7 38.557 596.29 42.087 603.8 47.787C604.7 48.457 605.53 49.327 606.22 50.317C623.01 48.426 640.3 51.897 655.29 59.997C659.49 62.266 661.52 68.807 658.67 72.887C657.78 74.157 656.85 75.367 655.85 76.537C662.37 78.947 668.14 82.846 672.03 89.197C676.26 96.087 677.56 104.957 675.29 112.537C680.03 117.367 682.51 124.766 680.82 132.186C679.28 138.957 675.13 143.256 669.81 145.837C670.89 149.137 670.02 152.887 667.57 155.436C663.81 159.346 659.31 162.346 654.41 164.317C654.4 165.587 654.08 166.897 653.44 168.117C649.02 176.596 639.49 182.227 629.8 183.077C633.06 196.766 635.74 210.627 638.34 224.407C642.961 248.917 646.54 273.667 648.72 298.516L648.985 301.589C652.536 343.637 653.362 387.688 644.81 429.167C639.36 455.577 622.84 477.837 600.8 492.917C578.39 508.256 551.01 515.887 524.07 517.096C510.33 517.707 496.461 516.546 483.001 513.727C476.61 512.387 470.44 510.487 464.37 508.067C457.84 505.457 452.461 501.607 446.94 497.277C444.07 495.027 445.711 489.717 449.11 489.046C451.54 488.557 453.94 488.027 456.36 487.587C458.58 487.176 461.001 489.397 460.54 491.447L465.223 492.653C466.783 493.055 468.343 493.461 469.899 493.879L472.23 494.516C478.86 496.367 485.64 497.926 492.44 499.037C506.28 501.287 520.68 501.337 534.59 499.587C557.98 496.657 581.87 488.317 600.06 472.947C608.98 465.407 616.41 456.477 621.8 446.107C628.65 432.936 630.72 418.266 632.44 403.697C637.41 361.567 635.88 319.377 632.02 277.237C630.1 256.277 627.48 235.357 624.7 214.487C623.27 203.787 621.73 193.067 620.461 182.327C617.63 181.567 614.93 180.307 612.51 178.477C610.87 177.237 609.91 175.796 609.49 174.327C607.047 173.866 604.705 172.525 603.017 170.258L602.8 169.957C598.37 163.546 590.711 159.877 583.62 157.207C579.32 155.587 574.94 154.176 570.58 152.737C566.04 151.227 561.24 148.997 556.47 148.417C551.06 147.777 545.61 149.407 540.15 148.827C535.19 148.287 530.82 146.506 527.251 142.947C526.001 141.707 524.92 140.277 524.06 138.737C507.41 142.296 489.92 137.807 472.62 138.887C461.24 139.607 451.2 146.647 439.7 146.457C436.56 146.407 433.52 145.307 431.31 143.377C420.461 145.447 409.43 149.426 399.23 152.846C389.15 156.227 379.45 160.777 369.49 164.467C369.48 164.477 369.48 164.477 369.48 164.487C368.18 168.697 364.3 170.516 360.17 169.777C346.66 167.367 335.28 158.846 322.13 155.727C318.51 168.917 314.62 181.936 311.961 195.387C309.27 208.957 307.38 222.707 306.13 236.487C304.87 250.317 304.27 264.287 304.24 278.167C304.23 285.247 304.41 292.346 304.65 299.426C304.845 305.358 305.975 312.857 303.832 318.562L303.64 319.046H303.63C303.37 319.877 302.2 320.377 301.54 319.607C297.51 314.926 296.55 307.477 295.43 301.596C294.07 294.457 293.2 287.247 292.501 280.016C291.1 265.506 290.79 251.057 291.53 236.487C292.98 207.807 297.58 177.516 307.4 150.407C304.38 150.686 303.03 146.237 302.83 143.727C302.448 138.683 303.238 133.33 304.094 128.271L304.99 123.033C305.838 118.09 306.737 113.275 308.42 108.467C312.461 96.926 318.27 86.087 325.51 76.237C340.28 56.147 360.751 40.936 384.06 32.167C385.52 31.617 386.9 31.627 388.12 32.046C409.33 20.617 432.13 11.817 455.29 5.557C462.45 3.627 469.7 1.807 477.001 0.505999ZM300.861 322.936C310.491 316.897 330.361 315.317 335.731 328.186C335.951 328.706 335.331 329.166 334.871 329.046L333.557 328.715C328.509 327.464 324.147 326.745 318.971 328.817C314.421 330.637 310.001 333.486 306.991 337.406C299.875 346.677 299.104 359.269 299.767 370.514L299.801 371.057C300.421 380.926 302.951 392.946 312.601 397.826C317.491 400.296 322.781 400.116 328.091 400.076C334.141 400.036 340.321 400.696 346.101 402.557C349.331 403.596 350.851 407.876 348.171 410.387C347.281 411.217 346.351 411.996 345.371 412.696C348.301 415.817 351.181 418.977 353.971 422.307C358.701 427.956 363.731 433.416 368.981 438.586C374.061 443.576 379.441 448.406 385.241 452.546C391.341 456.887 398.641 459.936 403.921 465.256C407.361 468.717 406.771 473.546 403.921 477.046C396.845 485.745 384.803 476.601 378.038 471.457L377.221 470.836C370.191 465.516 363.511 459.776 357.821 453.016C352.021 446.116 347.001 438.776 343.291 430.546C341.111 425.706 339.721 421.137 338.971 416.357C326.811 421.637 311.481 419.956 300.581 412.526C286.111 402.666 282.051 384.567 282 368.046L282.001 367.067C282.109 351.009 286.327 332.05 300.861 322.936ZM328.294 346.212L328.74 346.217C334.096 346.333 338.872 348.262 343.421 350.919L343.89 351.197C348.31 353.827 354.65 355.936 356.99 360.857C358.39 363.827 358.29 367.227 355.85 369.686C351.43 374.147 344.76 373.407 339.98 369.926C336.41 367.317 334.06 363.407 330.56 360.766C323.98 355.787 313.6 356.067 306.751 360.377C306.33 360.647 305.921 360.137 306.11 359.737C310.317 351.129 318.653 346.178 328.294 346.212V346.212Z" fill="black"/>
<path fill-rule="evenodd" clip-rule="evenodd" d="M528.944 373.352C530.478 370.685 534.01 368.214 537.242 368.593C551.721 370.291 551.696 387.845 546.105 398.093C541.148 407.18 530.889 412.514 520.621 411.735C509.834 410.916 500.643 404.574 496.598 394.483C493.923 387.808 492.687 375.485 499.803 371C499.935 370.916 500.153 370.937 500.258 371.058C503.67 375.027 503.804 380.986 506.791 385.405C509.569 389.515 513.885 392.909 518.941 393.433C522.717 393.825 526.537 392.463 528.014 389.073C528.813 387.239 528.722 386.244 528.422 384.982L528.149 383.885C527.203 380.044 526.778 377.119 528.944 373.352ZM532.814 296.367C540.366 300.957 551.872 311.66 543.748 323.04C534.186 333.073 520.419 321.569 513.634 316.366C507.343 312.334 500.275 322.705 506.112 327.413C555.136 363.708 575.031 297.568 536.634 290.971C532.406 290.244 530.836 294.947 532.814 296.367ZM453.072 264.893C457.707 257.939 468.287 258.963 470.84 267.215C472.223 271.685 470.313 275.703 470.412 280.167C470.495 283.938 470.248 288.14 469.092 291.792C466.456 300.12 458.966 306.002 450.105 305.758C441.273 305.515 433.494 299.925 429.795 292.052C426.083 284.149 426.869 275.97 429.579 267.934C429.709 267.548 430.215 267.361 430.52 267.686C433.723 271.09 436.068 274.684 438.494 278.496L440.981 282.403C442.881 285.345 445.643 289.103 449.191 288.867L449.724 288.815C450.71 288.73 450.559 288.926 451.32 287.582C451.672 286.96 451.608 285.804 451.778 285.07L451.837 284.822V284.822L451.804 284.688C451.729 284.333 451.655 283.663 451.594 282.5L451.582 282.244C451.325 276.807 449.788 269.82 453.072 264.893ZM570.563 269.522C569.732 260.628 582.236 258.653 586.393 265.234C588.561 268.666 589.193 272.977 589.672 277.062L589.896 279C590.388 283.195 590.583 287.559 588.762 291.472C585.894 297.635 579.657 300.893 572.929 300.377C566.504 299.883 560.642 296.158 557.552 290.503C554.797 285.457 552.058 275.605 555.404 270.342C555.606 270.023 556.01 269.982 556.287 270.228C559.449 273.035 559.964 278.155 561.844 281.812C563.783 285.584 566.724 289.26 571.181 289.833C575.445 290.381 577.074 288.052 575.986 283.987C574.583 278.739 571.091 275.169 570.563 269.522ZM456.449 212.016L458.494 211.233C465.5 208.586 475.119 205.527 480.815 211.224C484.329 214.737 484.998 219.912 482.49 224.199C479.451 229.392 474 229.52 468.736 230.285C462.749 231.155 456.66 232.809 451.086 235.167C444.807 237.824 438.98 241.136 433.271 244.835C427.845 248.35 422.438 254.095 415.943 255.178C415.678 255.222 415.377 255.108 415.308 254.817C413.833 248.467 417.932 242.218 421.59 237.264C426.016 231.266 431.379 226.343 437.373 221.929C443.158 217.668 449.768 214.589 456.449 212.016ZM583.716 234.593L584.341 234.483C588.589 233.776 592.439 233.939 595.641 237.304C598.085 239.871 599.027 243.198 597.862 246.592C596.787 249.723 594.383 252.904 590.894 253.56C579.115 255.776 566.068 255.41 554.23 253.732C548.814 252.963 543.349 252.024 538.074 250.542L535.647 249.838C531.242 248.58 526.2 247.266 523.001 244.027C521.851 242.863 522.514 241.197 523.89 240.658C529.472 238.472 537.123 239.635 543.075 239.464C549.999 239.266 556.934 238.747 563.825 238.032C570.559 237.332 577.075 235.811 583.716 234.593Z" fill="black"/>
</svg>
