<svg width="1021" height="1230" viewBox="0 0 1021 1230" fill="none" xmlns="http://www.w3.org/2000/svg">
<path fill-rule="evenodd" clip-rule="evenodd" d="M996.081 706.472C981.802 707.874 967.523 709.274 953.243 710.676C884.855 715.901 816.494 726.813 748.63 733.362C746.94 730.612 743.633 731.065 741.625 732.976C734.853 732.383 727.263 727.207 721.129 732.591C720.93 732.563 720.73 732.53 720.529 732.511C709.607 711.548 702.058 689.189 694.73 666.8C690.054 653.035 683.761 639.71 672.133 630.468C652.289 616.693 606.822 588.76 583.52 589.934C583.134 585.762 581.189 581.462 577.995 578.684C585.034 566.685 556.892 558.856 554.907 560.247C556.179 520.159 537.322 485.345 495.742 477.362C458.492 469.6 405.509 468.296 385.475 507.225C383.273 506.977 360.762 506.859 358.584 507.103C355.197 502.814 318.008 543.457 333.25 557.606C196.978 617.888 119.493 610.695 81.7747 780.164C76.6756 796.084 76.3042 813.505 70.9198 829.07C51.7635 873.801 36.2258 921.432 32.3589 970.104C23.0195 972.497 21.9454 988.964 32.7633 991.346C36.8955 992.257 40.3509 993.501 43.364 995.86C41.0086 1035.75 50.6553 1126.86 56.7335 1126.58C69.127 1166.02 124.409 1177.15 163.546 1163.29C156.799 1175.99 163.546 1183.97 163.546 1190.75C304.373 1196.08 458.353 1193.01 599.141 1200.31C617.15 1200.06 636.092 1204.74 653.855 1202.04C664.688 1199.45 664.706 1182.41 653.718 1180.31L701.731 1169.88C700.658 1169.48 721.522 1155.6 737.291 1129.66C751.969 1100.65 741.979 1065.64 748.63 1034.08C800.574 1029.83 853.377 1028.02 904.753 1019.22C911.758 1040.18 942.082 1015.11 951.721 1005.03C951.709 1005.01 951.697 1005 951.685 1004.98C956.349 1003.71 960.09 999.335 960.215 994.159C963.486 989.485 964.173 982.897 961.036 978.38C975.415 895.412 997.335 810.7 1005.26 726.952C1008.06 726.332 1010.7 725.104 1012.93 723.212L1012.75 723.031C1016.54 718.807 1017.28 711.516 1010.96 707.927C1005.87 705.029 1001.61 705.928 996.081 706.472Z" fill="white"/>
<path fill-rule="evenodd" clip-rule="evenodd" d="M388.072 498.184C392.315 487.521 406.658 491.666 405.059 502.868C404.102 509.578 400.427 516.665 397.126 522.546C394.438 527.333 391.372 532.005 387.215 535.593C394.615 542.497 402.296 549.149 410.172 555.465C418.766 562.356 427.803 568.708 437.144 574.546C445.335 579.666 453.896 584.202 461.617 590.044C468.796 595.475 475.336 602.007 478.664 610.534C482.209 619.614 480.668 628.991 478.058 638.066L477.758 639.092C475.091 648.082 470.474 658.919 476.876 667.389C480.135 671.701 484.873 674.755 488.964 678.202C492.6 681.266 496.013 684.598 499.143 688.177C505.968 695.979 511.519 704.758 515.022 714.54L515.335 715.428C518.338 724.088 520.532 734.696 516.475 743.198C515.311 745.635 511.557 744.843 510.905 742.47C509.431 737.094 509.508 731.464 508.272 726.012C506.986 720.342 504.846 714.96 502.051 709.868C496.643 700.017 489.319 691.602 480.666 684.488L478.076 682.382C471.326 676.842 465.124 670.966 463.754 661.798C462.288 651.989 466.218 642.645 468.745 633.361C470.506 626.891 471.081 620.689 469.178 614.842C466.853 618.637 463.681 622.239 461.172 625.452C456.175 631.853 451.131 638.215 446.1 644.589C440.942 651.125 435.911 657.764 431.12 664.575C428.977 667.622 426.857 670.687 424.744 673.755C423.155 676.061 420.939 678.365 419.207 680.717C419.628 681.975 419.596 683.425 418.833 684.455C409.648 696.865 396.581 670.971 393.173 664.429C386.233 651.106 381.068 636.952 374.105 623.632C366.89 609.824 358.674 596.384 349.517 583.778C343.978 576.153 337.77 568.991 332.703 561.124C320.766 571.948 305.058 579.204 290.63 585.784C274.777 593.012 258.308 598.917 242.055 605.188L237.254 607.053C209.249 617.982 180.56 629.989 157.283 649.403C129.93 672.216 113.748 704.012 101.701 736.938C87.8328 774.843 76.3598 813.771 65.6648 852.674C60.1918 872.579 54.9988 892.574 50.1168 912.633C45.8148 930.305 42.2488 948.153 37.2688 965.643C47.3688 965.286 58.8878 969.196 67.5108 970.325C106.81 975.469 145.58 983.669 182.683 997.866C187.266 999.62 188.592 1004.2 187.594 1007.91C190.237 1007.16 192.878 1006.4 195.521 1005.66C192.625 1001.23 194.007 993.293 194.235 988.376L194.249 988.038C194.483 981.485 195.194 974.925 195.655 968.384C196.533 955.915 197.675 943.537 199.195 931.139L199.583 928.04C201.305 914.552 202.578 900.985 204.457 887.52L204.679 885.979C203.778 882.534 202.729 879.131 201.628 875.743C198.694 866.718 194.553 858.223 190.924 849.482C190.496 848.453 191.962 847.862 192.647 848.479C198.793 854.008 203.675 861.022 207.597 868.358C207.665 868.012 207.725 867.665 207.796 867.319L208.243 865.116C209.347 859.744 210.689 854.092 213.985 849.735C214.336 849.272 215.03 849.175 215.362 849.735C218.516 855.072 218.869 861.831 219.354 867.904C219.903 874.774 219.972 881.731 219.875 888.62C219.686 902.083 218.737 915.584 217.981 929.025C217.239 942.233 215.783 955.273 213.906 968.352L213.549 970.805C212.631 977.03 211.88 983.332 210.67 989.515L210.328 991.198C209.681 994.264 209.283 998.587 207.995 1002.18C241.133 992.935 274.322 983.903 307.574 975.03C331.607 968.616 355.665 962.298 379.713 955.94C380.982 953.653 382.562 951.517 384.534 949.608C391.031 943.316 399.641 940.509 407.538 945.352C408.18 945.747 408.234 946.753 407.538 947.134C406.025 947.961 404.509 948.809 403.02 949.693L417.46 945.782C428.253 942.857 439.175 939.202 450.222 937.163C470.569 927.122 492.453 919.854 513.887 912.671L516.413 911.816C527.387 908.075 538.739 903.886 550.078 901.812C558.379 900.294 568.123 902.126 571.461 910.63C575.687 913.415 579.663 916.688 583.5 919.907C586.274 922.233 588.933 924.706 591.637 927.114L592.135 927.551C594.346 929.469 596.097 930.754 596.64 933.807C596.92 935.384 595.918 937.516 593.973 937.307C588.022 936.67 583.183 929.772 579.147 925.653C576.029 922.469 572.886 919.177 570.04 915.678C568.381 916.581 566.107 916.419 565.051 914.419C559.575 904.05 544.574 911.235 536.274 913.694L524.384 917.213C518.439 918.975 512.497 920.746 506.565 922.548C490.261 927.499 474.037 933.04 457.585 937.587C459.057 939.205 458.854 942.083 456.058 943.178C443.18 948.231 429.052 950.844 415.673 954.311C407.226 956.502 398.784 958.706 390.345 960.923C388.898 963.267 387.857 965.919 387.419 969.006C385.808 980.356 388.914 993.452 391.94 1004.43L392.396 1006.07C394.883 1014.89 398.542 1025.71 406.157 1031.29C408.016 1032.65 410.383 1033.59 412.769 1033.81C427.676 1026.13 442.582 1018.46 457.497 1010.8C460.26 1009.38 462.813 1011.31 463.433 1013.59C468.692 1012.73 473.939 1011.37 478.718 1009.74C486.748 1007.02 493.018 1001.82 500.546 998.22C515.112 991.261 529.987 999.808 543.028 1006.31L546.034 1007.78C551.882 1010.62 564.049 1016.07 566.856 1008.31C569.57 1000.8 560.989 992.78 555.447 989.401C548.841 985.372 541.149 983.216 533.683 981.42C529.42 980.394 525.105 979.557 520.764 978.946C515.84 978.253 510.754 978.357 506.013 976.76C503.657 975.968 503.295 972.226 506.013 971.608C513.311 969.947 522.021 971.758 529.637 973.61L533.618 974.591C541.291 976.474 549.038 978.837 556.027 982.593C561.109 985.325 566.473 989.475 569.977 994.555C573.02 991.728 576.807 991.823 580.752 992.872L582.893 993.467C586.429 994.447 589.295 995.121 592.736 994.443C593.196 991.94 593.662 989.436 594.161 986.932C599.064 962.318 604.441 937.798 610.374 913.409C620.608 871.341 632.45 829.735 645.8 788.555L647.14 784.439C650.219 775.02 652.697 764.758 657.661 756.105C662.356 747.923 669.878 743.21 678.815 740.714C688.957 737.882 699.614 736.4 709.96 734.487C712.268 734.061 714.582 733.656 716.892 733.237C714.94 729.712 713.483 725.711 712.17 722.64L711.94 722.109C709.12 715.68 706.587 709.135 704.141 702.556L702.312 697.61C697.895 685.699 693.336 673.984 687.127 662.844C680.591 651.12 671.92 641.535 661.111 633.602C639.073 617.426 612.51 609.175 591.135 591.888C590.259 591.18 591.382 589.969 592.271 590.417C606.704 597.669 622.285 602.6 637.297 608.504L640.258 609.672C652.124 614.376 664.174 619.496 674.444 627.112C685.894 635.604 694.912 646.15 701.69 658.691C708.37 671.053 712.643 684.89 717.356 698.094L718.616 701.612C720.517 706.888 722.481 712.147 724.731 717.282C726.517 721.358 729.85 726.011 731.365 730.667C735.51 729.948 739.654 729.227 743.803 728.534C833.67 713.53 924.541 704.714 1015.61 702.135C1019.18 702.034 1021.02 705.434 1020.49 708.542C1011.75 760.223 1003.99 812.081 995.466 863.801C991.746 886.374 987.952 908.93 984.069 931.475C982.102 942.897 979.828 954.275 977.965 965.714C976.461 974.952 975.369 984.262 972.787 993.286C970.471 1001.38 966.917 1009.18 961.08 1015.35C954.788 1022.01 946.006 1025.23 937.166 1026.75C914.725 1030.61 891.707 1032.19 869.084 1034.76L748.637 1048.46C750.397 1064.46 750.528 1080.21 749.721 1096.4L749.261 1105.23C748.884 1112.34 748.435 1119.46 747.414 1126.49C746.134 1135.31 742.098 1142.78 736.153 1149.37C730.694 1155.43 724.062 1160.59 717.611 1165.54C710.915 1170.68 703.996 1175.63 696.123 1178.81L695.101 1179.22C688.194 1181.91 675.238 1186.09 665.797 1184.56C667.031 1190.75 669.419 1197.39 667.302 1203.51C666.32 1206.35 662.605 1207.77 660.329 1205.35C655.82 1200.56 655.468 1194.23 654.4 1187.98C653.289 1181.48 652.331 1174.95 651.48 1168.41C649.834 1155.76 648.553 1142.99 648.162 1130.23C647.76 1117.13 647.915 1104.01 648.621 1090.92C648.984 1084.2 649.434 1077.49 650.287 1070.81C650.651 1067.96 651.023 1065.11 651.448 1062.27C651.603 1061.23 651.775 1060.2 651.96 1059.17L641.149 1060.39C624.572 1062.24 607.988 1063.91 591.294 1064.17C589.317 1064.2 587.796 1063.3 586.802 1061.99C585.743 1063.72 583.899 1064.95 581.258 1064.94C557.945 1064.86 536.235 1057.23 515.031 1048.25C504.343 1043.72 493.821 1038.81 483.117 1034.32C473.126 1030.13 462.445 1027.14 452.695 1022.42L427.075 1035.86C426.887 1036.52 426.646 1037.14 426.39 1037.67C424.722 1041.07 421.433 1042.92 418.074 1044.31C414.85 1045.65 411.511 1046.06 408.258 1045.72C388.828 1055.91 369.393 1066.08 349.945 1076.23L330.493 1086.37C291.737 1106.55 253.134 1127.06 214.134 1146.76L211.263 1148.21C197.792 1154.96 183.327 1161.81 168.378 1166.92C168.112 1170.7 168.28 1174.38 168.597 1178.39L168.673 1179.26C169.119 1183.99 170.075 1189.92 166.278 1193.29C164.303 1195.04 160.775 1195.05 159.432 1192.41C156.995 1187.62 159.183 1180.06 159.955 1174.86C160.229 1173.01 160.563 1171.11 161.057 1169.26C143.919 1174.36 126.262 1176.84 108.822 1173.97C91.8418 1171.18 78.6908 1160.49 68.0888 1147.4C56.8998 1133.6 48.9488 1117.5 44.6828 1100.26C39.8278 1080.63 39.5108 1060.36 39.6248 1040.25C39.7458 1018.84 40.5378 997.329 43.1418 976.064C40.2888 975.393 37.1248 974.813 34.2418 975.013C32.8138 977.298 30.0438 978.26 27.5408 977.963C22.0978 983.966 35.9038 990.101 40.3158 991.637C41.8478 992.171 41.6838 994.659 39.9168 994.584L38.8038 994.531C31.9864 994.168 24.9432 993.004 20.9348 986.669C17.7228 981.591 18.6878 975.575 22.5168 971.434C25.0458 947.522 31.0918 924.237 36.7188 900.911C42.2408 878.016 48.3818 855.268 54.8908 832.635L57.8088 822.504C68.0571 787.016 78.7692 751.241 92.9058 717.163C99.9648 700.147 108.097 683.444 119.12 668.607C129.395 654.776 141.526 642.941 155.47 632.833C181.465 613.987 211.967 602.6 241.937 591.751L243.279 591.266C258.81 585.648 274.303 579.963 289.657 573.876C303.236 568.493 316.245 561.668 329.76 556.204C329.321 555.407 328.897 554.601 328.489 553.786L328.239 553.996C328.196 554.03 328.152 554.063 328.107 554.094C326.748 555.036 324.747 554.573 323.627 553.516C320.464 550.532 321.535 547.219 323.646 544.124L323.921 543.731C326.503 540.114 328.806 536.29 331.189 532.542L332.681 530.198C336.681 523.936 340.884 517.633 346.218 512.458C348.688 510.06 351.392 508.266 354.257 506.929C354.012 506.411 356.16 505.352 356.769 505.885C365.846 502.563 376.289 503.259 386.185 504.175M742.809 1049.13L730.189 1050.56C716.305 1052.14 702.415 1053.67 688.524 1055.18L658.352 1058.46C658.275 1060.18 658.066 1061.86 658.028 1063.16C657.831 1069.86 657.684 1076.56 657.545 1083.26C657.266 1096.68 657.572 1110.13 658.456 1123.53C659.313 1136.51 660.441 1149.5 662.195 1162.4L662.554 1164.98L662.762 1166.33C664.193 1166.47 665.599 1167.15 666.768 1168.55C669.32 1171.6 678.561 1168.63 682.17 1167.35C688.105 1165.24 693.694 1161.67 698.851 1158.09C703.887 1154.6 708.422 1150.53 712.78 1146.23L716.345 1142.71C719.892 1139.18 723.443 1135.43 725.616 1130.99C728.563 1124.98 728.944 1117.6 729.808 1111.05C730.872 1103 732.139 1094.95 733.478 1086.93M376.454 964.584L375.145 964.928C327.594 977.563 280.114 990.571 232.417 1002.65C208.813 1008.63 185.097 1014.17 161.464 1020.03L157.638 1020.99C138.994 1025.7 120.126 1031.37 105.849 1044.89C105.322 1045.39 104.557 1044.63 105.053 1044.1C120.44 1027.72 142.324 1020.78 163.336 1014.77C167.22 1013.66 171.109 1012.58 174.994 1011.47C146.418 1001.29 117.391 992.423 87.6938 986.102C80.0468 984.474 72.3108 983.279 64.6698 981.645C59.3409 980.504 54.1367 978.856 48.8641 977.489L44.7168 976.446L44.6617 989.553C44.5927 1008.12 44.6257 1026.67 45.5728 1045.23L45.7521 1048.67C46.8572 1069.33 48.5821 1090.41 55.9128 1109.89C61.8698 1125.72 71.3648 1140.63 83.7818 1152.16C90.0648 1157.99 96.8198 1162.53 105.17 1164.77C112.923 1166.86 121.046 1167.1 129.016 1166.54C167.245 1163.88 201.275 1143.11 234.483 1125.92C288.8 1097.79 343.123 1069.68 397.495 1041.67C396.025 1040.66 394.641 1039.51 393.382 1038.21C386.091 1030.68 382.245 1020.37 379.719 1010.38C377.03 999.759 375.422 988.37 375.235 977.4M445.637 1052.53C446.117 1052.27 446.673 1052.59 446.695 1053.13C446.863 1057.29 444.568 1061.38 442.853 1065.12L442.672 1065.52C440.589 1070.16 438.308 1074.73 435.949 1079.23C431.234 1088.22 426.334 1097.11 421.22 1105.88C410.936 1123.52 399.508 1140.42 386 1155.78C382.949 1159.25 377.931 1154.8 379.889 1151.07C389.329 1133.06 400.334 1116.05 411.662 1099.19C417.333 1090.75 423 1082.31 428.727 1073.9C431.116 1070.4 433.536 1066.91 436.021 1063.47L437.52 1061.41M1009.59 712.45C961.875 713.891 914.214 717.003 866.724 721.88C822.558 726.415 778.554 732.452 734.798 739.978C725.659 741.549 716.531 743.185 707.414 744.886L701.946 745.915C692.828 747.643 681.689 748.356 673.571 753.227C665.012 758.362 662.699 769.094 659.851 777.944C656.503 788.352 653.24 798.79 650.065 809.253C637.457 850.796 625.94 892.699 615.666 934.879C610.566 955.816 606.041 976.87 601.273 997.883C597.037 1016.55 592.363 1035.01 587.48 1053.49C588.082 1053.03 588.82 1052.67 589.711 1052.48C613.959 1047.32 638.71 1045.08 663.321 1042.23L665.702 1041.95C691.161 1038.96 716.62 1035.99 742.094 1033.12L910.753 1014.15C920.7 1013.04 931.356 1012.88 941.036 1010.22C957.494 1005.68 961.351 987.276 964.112 972.622L964.196 972.18C972.521 927.907 979.148 883.249 986.912 838.864M591.405 1002.03C584.857 1001.6 575.895 995.6 570.927 996.03C573.535 1000.41 574.712 1005.4 573.209 1010.73C569.026 1025.56 550.109 1017.88 540.997 1013.35C533.526 1009.64 526.312 1005.09 518.041 1003.35C508.671 1001.38 502.323 1005.1 494.407 1009.4C487.905 1012.93 480.824 1015.46 473.542 1016.77C469.67 1017.47 465.992 1017.54 462.321 1017.27C462.1 1017.45 461.851 1017.62 461.567 1017.77L459.625 1018.78C468.406 1019.19 477.35 1021.9 485.522 1024.38C493.99 1026.95 502.303 1030.05 510.572 1033.21L518.706 1036.34C538.772 1044.02 559.542 1051.32 581.258 1051.26C582.819 1051.25 584.098 1051.68 585.105 1052.39M554.769 955.555C561.238 954.764 567.209 955.612 572.378 959.823C578.612 964.901 582.8 973.323 591.762 973.876C594.375 974.037 594.982 977.711 592.385 978.479C585.714 980.454 580.313 976.845 575.768 972.159L572.712 968.966C568.221 964.315 564.078 960.72 556.457 960.998C548.295 961.296 540.119 963.182 532.01 964.141C522.824 965.227 513.64 966.153 504.425 966.952C503.997 966.989 503.924 966.315 504.325 966.216L514.646 963.647M548.525 929.108L549.592 929.002C558.985 928.089 567.576 928.054 575.966 933.107L577.575 934.08C585.139 938.678 593.372 944.094 598.102 951.537C598.876 952.756 597.597 954.189 596.302 953.879C587.211 951.697 580.565 945.027 572.92 940.035C564.34 934.433 555.477 935.357 545.694 936.227C536.222 937.07 526.755 938.228 517.376 939.807C508.563 941.289 499.722 943.629 490.82 944.375L490.822 944.357C489.805 944.355 489.225 942.828 490.262 942.31C499.296 937.799 509.759 935.664 519.586 933.603M833.89 836.264C832.982 831.921 838.324 829.907 840.8 833.352L841.326 834.078C846.675 841.406 854.411 850.602 854.018 859.923C858.72 860.026 863.595 862.883 865.427 867.126C866.274 869.089 866.561 871.415 866.374 873.823C870.648 874.155 875.309 876.961 877.922 879.693C882.253 884.222 882.595 890.622 879.488 895.914C872.713 907.449 857.914 911.646 845.421 912.582L844.976 912.615C832.072 913.507 813.478 913.266 804.63 902.195C796.095 891.516 805.528 882.87 815.201 878.175C812.683 875.876 811.379 872.579 812.605 869.102C814.758 862.991 822.359 860.63 826.654 856.382C831.889 851.202 835.349 844.097 833.97 836.669M840.981 845.655C839.558 851.839 836.062 857.495 831.193 861.977C829.331 863.691 827.294 865.217 825.13 866.528L824.87 866.679C822.95 867.757 818.229 869.777 818.592 872.196C818.966 874.682 826.657 878.573 828.753 878.575C829.23 878.575 829.5 879.32 829.013 879.536C825.214 881.214 821.896 881.933 818.181 880.16C815.699 882.694 813.288 885.316 810.9 887.915C806.677 892.514 808.122 897.37 813.112 900.794C821.13 906.296 833.318 906.162 842.673 905.762C852.089 905.36 862.154 903.26 869.509 896.988L869.83 896.708C873.827 893.153 877.478 887.129 871.356 883.706C868.959 882.365 866.369 882.444 864.093 881.792C861.963 885.967 858.508 889.311 854.292 889.956C850.885 890.477 848.539 886.194 851.638 884.146L852.334 883.713C856.226 881.229 859.547 877.403 859.459 872.421C859.399 868.962 854.569 864.593 851.423 867.843L851.278 867.999C848.645 870.967 844.008 867.226 845.739 863.938L845.822 863.789M226.862 673.675C226.851 672.932 227.896 672.654 228.261 673.297C234.373 684.05 237.568 697.231 240.824 709.078C244.234 721.488 246.986 734.024 249.459 746.652C254.468 772.223 257.137 797.647 257.319 823.709C257.343 827.43 251.281 828.42 250.688 824.607C246.751 799.256 242.979 773.879 239.012 748.535C237.016 735.788 234.694 723.09 232.47 710.381M287.371 692.405C286.921 690.922 289.079 690.426 289.631 691.782C301.897 721.891 306.051 756.013 298.176 787.778C296.971 792.637 289.854 790.532 290.763 785.734M445.588 665.651C445.526 664.541 446.967 664.366 447.51 665.13C453.322 673.319 455.733 684.286 465.93 688.518C471.021 690.631 476.75 690.263 481.248 693.832C484.255 696.219 486.561 699.987 484.304 703.602C483.576 704.77 481.538 705.355 480.55 704.086C479.108 702.237 478.345 700.023 476.386 698.637C473.623 696.682 469.897 696.561 466.729 695.642C462.631 694.454 459.019 692.375 456.061 689.286M542.686 529.067C543.285 528.762 543.86 528.957 544.243 529.475C544.79 530.213 544.723 530.931 544.053 531.437C544.948 533.266 546.005 537.848 546.156 538.515C546.768 541.219 547.419 543.907 548.1 546.593C549.474 552.01 550.678 557.469 552.053 562.888C553.511 568.632 555.248 574.315 557.181 579.916C557.306 580.279 557.443 580.649 557.587 581.025L557.807 581.592L557.861 581.506C558.254 580.885 559.072 581.319 558.975 581.975C558.885 582.573 558.764 583.168 558.662 583.766L558.865 584.302C560.129 587.705 560.995 591.289 558.675 594.292C557.807 595.415 556.852 596.08 555.662 596.278C553.754 602.568 551.36 608.741 548.797 614.669L548.046 616.4C544.276 625.05 540.255 633.587 534.252 640.951C527.698 648.991 518.683 654.481 512.974 663.291C510.318 667.389 508.47 671.698 506.97 676.326L506.406 678.083C505.341 681.356 504.113 684.529 501.042 686.449C500.062 687.061 498.594 686.866 497.804 686.031C491.507 679.37 498.099 666.932 501.896 660.483C507.174 651.515 514.813 645.778 522.462 639.012C530.707 631.719 535.966 621.963 541.053 612.352C544.169 606.464 547.177 600.449 550.344 594.535C547.035 591.611 545.976 585.802 544.855 581.764L544.753 581.402C542.9 574.936 541.428 568.302 540.498 561.639C539.603 555.232 539.23 548.918 539.467 542.475L539.535 540.834M554.988 559.559C554.257 558.557 555.467 557.422 556.47 557.631C562.569 558.892 568.531 562.583 574.004 565.568L574.588 565.885C578.957 568.241 583.353 571.127 585.647 575.704C588.142 580.678 587.937 586.408 587.597 591.814L587.564 592.32C587.147 598.803 587.08 605.539 585.708 611.905C585.006 615.163 582.055 616.081 579.532 615.311C576.53 624.79 568.097 631.774 561.937 639.254C554.083 648.79 555.561 661.665 556.382 673.15C556.714 677.8 550.93 679.122 547.951 676.641L541.086 670.939C539.943 669.987 538.801 669.033 537.662 668.076C536.687 667.255 535.721 666.428 534.762 665.591L533.33 664.327C532.695 663.759 529.894 660.63 529.075 660.5C527.092 660.184 522.379 665.412 520.766 667.052L520.561 667.257C517.525 670.234 514.782 673.437 512.227 676.834C511.757 677.458 510.838 676.94 511.174 676.219C513.464 671.315 516.126 666.626 519.287 662.237L519.925 661.364C522.028 658.53 524.851 653.526 528.563 652.689C533.096 651.667 537.622 656.213 540.92 658.736L541.128 658.894C542.697 660.071 544.248 661.269 545.796 662.475C545.634 653.924 546.714 645.284 551.129 637.915C554.242 632.718 558.906 628.869 562.897 624.403C567.34 619.43 569.66 613.318 573.682 608.139C574.2 607.473 574.914 607.114 575.687 607C575.842 602.836 576.455 598.631 576.929 594.513L577.066 593.28C577.545 588.805 578.677 583.339 576.486 579.148C574.417 575.189 569.668 572.395 566.152 569.709L563.28 567.482M357.074 512.241C355.238 513.303 353.522 514.624 351.965 516.275C347.064 521.474 343.56 527.944 340.15 534.168C338.314 537.52 336.544 540.909 334.693 544.253C333.888 545.708 333.06 547.147 332.223 548.584C331.836 549.246 330.686 550.562 330.116 551.373C330.749 552.26 331.404 553.134 332.072 553.998C332.327 554.328 349.908 573.479 356.036 580.975C365.42 592.456 373.808 604.583 380.979 617.563C388.001 630.274 393.347 643.732 399.852 656.689C403.108 663.176 406.744 669.617 411.379 675.231C411.558 675.45 411.747 675.657 411.93 675.873C413.699 671.094 418.232 665.977 420.458 663.039L420.666 662.762C425.715 655.956 431.047 649.355 436.495 642.866C441.471 636.94 446.573 631.143 451.799 625.441L453.765 623.308C457.406 619.375 462.031 613.49 467.361 610.68C466.79 609.662 466.129 608.655 465.369 607.661C460.375 601.135 453.315 596.399 446.35 592.126L441.832 589.378C424.804 579.001 408.042 568.143 393.259 554.661C385.438 547.527 377.725 540.054 371.151 531.733L368.826 528.79M385.486 507.104C377.512 507.773 368.901 507.614 361.532 510.212C368.083 516.405 374.31 523.092 380.707 529.389C381.276 525.13 382.44 520.923 383.426 516.77" fill="black"/>
<path fill-rule="evenodd" clip-rule="evenodd" d="M595.42 82.0239C541.951 66.3309 358.067 82.4169 353.52 85.8159C346.079 91.9989 309.884 111.617 304.252 116.096C253.327 170.07 301.875 250.223 298.139 315.335C298.377 338.431 288.535 359.519 284.011 381.738C282.101 393.382 282.522 405.426 288.591 415.88C299.261 434.56 321.794 438.347 340.12 445.879C349.239 449.805 357.759 455.372 365.569 461.463C418.153 507.98 447.423 539.834 524.15 529.34C524.542 533.003 527.787 536.602 531.81 534.965C541.23 531.129 550.583 527.06 560.085 523.424C562.116 528.318 567.95 529.715 571.902 525.393L571.925 525.424C589.514 511.156 600.7 491.647 609.008 470.762C614.822 458.713 619.583 446.141 623.221 433.195C623.632 431.73 623.578 430.421 623.206 429.294C639.992 371.451 646.204 310.487 641.785 250.43C640.89 238.039 638.55 225.484 639.125 213.041C639.645 201.799 644.488 191.165 648.18 180.695C667.218 136.186 638.116 96.0379 595.42 82.0239Z" fill="white"/>
<path fill-rule="evenodd" clip-rule="evenodd" d="M602.144 9.75628L602.714 9.3144C608.879 4.47796 614.692 -1.86059 623.384 0.516278C630.514 2.46628 634.114 8.36628 635.644 15.4963C637.814 13.2263 639.924 10.8763 641.984 8.44628C647.584 1.84628 660.094 5.26628 661.764 13.6763C665.144 30.6163 665.314 47.8563 662.024 64.8263C661.524 67.3963 660.934 69.9563 660.244 72.4863C663.994 67.8163 667.484 62.9463 670.614 57.8163C674.004 52.2463 681.664 55.0063 682.194 60.9563C682.334 62.4963 682.414 64.0563 682.434 65.6263C684.824 66.4663 686.474 68.9263 685.844 71.9463C682.364 88.5663 677.954 104.956 672.654 121.066C681.174 116.546 690.724 113.866 699.714 117.056C713.994 122.136 717.394 137.716 714.604 151.126C711.094 167.986 700.054 182.096 685.814 191.346C684.124 193.886 682.454 196.446 680.864 199.056C680.834 206.426 679.494 213.776 676.794 220.606C673.754 228.276 668.394 234.906 661.794 239.946C659.475 244.998 653.331 248.687 647.937 247.664L647.654 247.606L647.644 247.616C649.024 252.556 650.214 257.546 651.244 262.546C659.219 301.284 655.181 341.608 647.907 380.128L647.674 381.356C641.144 415.636 633.544 451.136 618.774 482.966C605.414 511.746 582.764 537.056 550.394 543.336C512.314 550.726 470.164 539.016 437.414 519.486C425.544 512.406 436.424 493.746 448.244 500.946C465.304 511.326 483.834 518.576 503.434 522.396C521.754 525.956 542.244 527.166 559.814 519.786C584.284 509.506 598.824 484.396 608.024 460.756C613.444 446.806 617.504 432.406 621.284 417.946C626.154 399.356 630.694 380.646 634.104 361.726C640.454 326.436 642.514 289.786 635.794 254.396C633.654 243.106 630.624 231.746 626.674 220.826C626.054 220.056 625.464 219.196 624.934 218.256C620.804 211.016 617.954 202.786 614.884 194.956C612.194 190.286 609.254 185.796 606.134 181.406C601.469 177.821 597.026 173.988 592.956 169.806C604.777 162.152 615.208 152.57 622.713 140.364C623.951 138.351 623.165 136.427 621.698 135.342C615.705 142.839 607.947 149.188 599.787 154.813C595.607 158.393 591.105 161.609 586.387 164.515C583.016 165.182 579.608 165.64 576.304 166.016C566.894 167.086 557.434 166.686 548.074 165.436C527.834 162.736 442.236 139.162 406.154 148.326C398.638 150.235 395.094 156.976 391.114 163.306C387.662 168.812 383.271 173.37 378.003 177.123L377.414 177.536C367.114 184.666 346.405 207.222 337.7 227.354C326.46 253.346 315.664 331.236 320.634 331.906C333.634 333.666 340.834 340.506 351.424 347.846C352.124 348.326 351.714 349.626 350.814 349.296C343.824 346.776 336.264 345.286 328.934 344.066C322.304 342.956 315.324 342.756 308.924 345.126C299.104 348.766 294.314 356.996 292.344 366.276C291.574 369.906 291.234 373.696 291.194 377.446L291.188 378.534C291.194 390.357 293.398 403.465 301.984 412.186C305.634 415.896 310.584 418.396 315.764 419.086C321.434 419.846 324.934 417.286 330.144 415.956C336.144 414.426 340.824 418.376 340.264 423.526C341.534 424.636 342.764 425.806 343.984 426.996L343.985 427.001L343.994 427.006C344.794 427.366 345.554 427.846 346.244 428.426C347.374 429.386 348.324 430.436 349.084 431.566C350.774 431.896 352.394 432.836 353.724 434.556C356.464 438.086 358.994 441.656 361.344 445.296C365.554 449.766 369.744 454.246 373.874 458.796C378.846 464.265 383.685 469.858 388.555 475.419L390.994 478.196C393.624 481.186 396.244 484.176 398.864 487.176L399.646 488.057C402.281 491.009 404.301 493.187 404.584 497.436C404.784 500.586 401.394 502.726 398.584 502.006C394.252 500.889 392.24 497.488 389.645 494.114L385.724 489.085V489.085L382.034 484.346C380.204 481.986 378.354 479.636 376.514 477.286C375.964 481.616 371.384 485.106 367.204 485.296L366.23 485.334C356.414 485.66 344.485 484.276 337.014 477.356C333.654 480.746 329.474 483.416 324.324 485.016C312.624 488.656 300.664 482.206 295.934 472.396C286.764 476.326 276.404 477.116 266.494 474.226C260.778 472.551 258.801 465.427 262.785 461.067L262.964 460.876L263.01 460.824C262.188 459.755 261.736 458.447 261.663 457.022C261.574 455.292 262.835 453.458 262.575 451.843C261.583 445.684 251.539 450.247 248.347 451.581C247.737 451.835 247.165 451.956 246.631 451.975C241.696 453.412 236.329 446.928 238.914 441.576C244.704 429.616 250.354 417.566 256.214 405.626C255.474 405.876 254.714 406.106 253.964 406.296C243.434 408.996 230.664 403.816 233.094 391.126C233.654 388.146 236.354 386.106 239.034 385.186C244.254 383.386 248.174 384.686 252.194 383.006C256.724 381.126 261.454 377.676 265.434 374.426C269.684 370.966 273.354 367.076 276.604 362.856C277.904 356.726 280.154 350.866 283.754 345.826C283.974 345.526 284.194 345.226 284.424 344.936C261.337 339.432 264.36 316.727 254.177 296.605L253.316 294.937C246.4 281.478 240.366 266.303 243.854 250.976C244.474 248.266 245.374 245.676 246.534 243.256C244.684 243.486 242.824 243.696 240.974 243.906C236.724 244.386 232.404 238.906 234.094 234.876C234.984 232.766 235.964 230.726 237.024 228.746C239.964 223.286 243.574 218.326 247.824 213.846C240.684 213.656 233.534 213.656 226.474 212.836C219.804 212.066 212.794 208.416 213 200.726C213.206 193.394 219.639 187.844 225.604 184.267C231.475 176.458 238.922 169.968 247.345 165.145C245.679 164.771 243.991 164.493 242.274 164.323L241.414 164.246C236.604 163.866 232.284 162.546 227.924 160.536C224.024 158.736 224.084 153.276 226.634 150.526C234.878 141.614 247.23 144.516 256.841 149.623C256.172 148.774 255.439 147.956 254.64 147.174L254.153 146.708C249.431 142.311 256.518 135.255 261.224 139.637C262.711 141.022 264.043 142.527 265.231 144.122L265.344 143.886V143.886C271.562 131.275 280.656 119.986 291.415 110.941L293.944 108.838C313.345 92.6315 319.332 84.9501 345.134 87.3363C344.034 82.6493 344.142 77.3768 344.39 73.0415L344.424 72.4563C345.414 56.1563 351.424 36.6463 367.324 29.3263C371.454 27.4363 376.134 30.5263 375.034 35.2563C374.264 38.6063 373.324 41.8663 372.154 45.0363C375.624 41.3863 379.344 37.9763 383.284 34.8363C399.344 22.0363 420.804 11.0263 441.914 14.6263C453.514 16.6163 462.614 23.8963 472.324 29.9763C482.084 36.0963 492.984 39.7263 504.414 41.0363C520.384 42.8763 536.414 41.0263 552.204 38.1063C563.054 33.3763 573.584 27.8363 583.864 21.8663C590.184 18.1963 596.334 14.1863 602.144 9.75628ZM318.605 363.786C321.985 362.916 325.775 362.926 329.165 363.776C337.915 365.976 346.055 373.296 346.565 382.526C346.795 386.696 343.435 390.686 339.535 391.756C335.115 392.976 331.315 390.816 328.735 387.356C325.965 383.656 325.275 379.646 321.885 376.286L321.103 375.525C318.221 372.769 313.864 369.207 309.865 369.846C309.275 369.936 308.835 369.136 309.435 368.816C312.695 367.036 314.835 364.746 318.605 363.786ZM364.054 320.316C365.597 319.056 367.637 320.534 366.911 322.346L366.854 322.476C365.024 326.336 367.174 330.866 369.394 334.096C371.304 336.886 367.694 339.536 365.154 338.336C358.014 334.946 358.384 324.916 364.054 320.316ZM390.154 204.346C390.024 203.406 391.274 203.016 391.594 203.946C396.924 219.416 398.454 233.116 397.584 249.476L397.502 250.928C396.561 266.686 393.801 283.364 384.264 296.306C382.054 299.296 377.534 297.536 378.264 293.776C381.194 278.726 386.824 264.436 389.014 249.206C391.304 233.286 392.334 220.276 390.154 204.346ZM340.374 260.576C341.154 256.446 347.504 252.196 350.714 256.346C351.794 257.756 350.524 259.486 349.224 260.006C348.004 260.486 346.914 259.826 345.714 260.066C344.744 260.262 344.034 260.868 343.562 261.695L343.464 261.876C342.524 263.676 340.044 262.336 340.374 260.576ZM337.775 227.676C340.055 223.456 345.305 220.766 349.795 223.396C351.275 224.266 350.695 226.796 348.895 226.716L347.828 226.673C344.627 226.556 341.426 226.621 338.735 228.646C338.135 229.096 337.475 228.246 337.775 227.676ZM345.791 112.428C333.002 106.678 320.283 111.869 309.84 119.965C308.976 120.635 308.557 121.417 308.465 122.203C315.437 119.488 322.86 117.708 329.956 116.239C335.758 115.037 341.615 114.226 347.479 113.906C347.151 113.317 346.612 112.797 345.791 112.428Z" fill="black"/>
<path fill-rule="evenodd" clip-rule="evenodd" d="M555.872 438.917C549.085 441.585 541.066 442.216 534.061 439.942C527.362 437.768 521.28 432.929 517.6 426.844C514.322 421.424 512.953 414.992 514.89 408.58C514.983 408.273 515.283 408.077 515.573 408C517.158 409.443 518.138 410.876 519.116 412.302C520.765 414.707 522.419 417.086 524.688 419.142C527.989 422.133 532.438 424.561 536.853 425.362C541.175 426.148 545.599 425.454 549.47 423.385C551.824 422.127 553.727 420.446 555.611 418.757C557.663 416.918 559.683 415.051 562.509 414.013C564.774 413.181 567.153 413.883 568.981 415.275C570.945 416.772 572.358 419.114 572.279 421.563C572.158 425.357 570.497 428.522 568.088 431.133C564.83 434.663 560.223 437.206 555.872 438.917ZM547.814 344.367C555.365 348.957 566.871 359.66 558.748 371.04C549.186 381.073 535.418 369.569 528.634 364.366C522.343 360.334 515.275 370.705 521.112 375.413C570.136 411.708 590.03 345.567 551.633 338.97C547.406 338.244 545.836 342.947 547.814 344.367ZM468.388 280.768C478.68 280.276 487.75 284.898 497.558 286.998C506.622 288.94 515.552 287.774 524.367 285.304C538.673 281.295 544.587 303.195 530.476 307.463C520.2 310.571 509.38 310.787 498.835 309.185C489.468 307.761 481.616 303.201 472.685 300.546C465.02 298.269 456.004 299.215 447.91 300.288L444.768 300.71C440.098 301.339 435.403 301.97 430.779 302.883C426.767 303.676 422.762 305.127 418.667 305.295C418.202 305.315 417.808 304.711 418.101 304.308C422.858 297.778 432.026 292.625 439.319 289.188L439.813 288.956C448.815 284.759 458.365 281.246 468.388 280.768ZM464.617 328.924L464.616 328.699C464.63 322.322 468.344 307.762 477.524 307.762C483.259 307.762 486.741 317.671 487.344 327.886L487.364 328.302C487.631 334.653 485.888 348.534 477.524 348.534C469.071 348.534 464.704 335.387 464.617 328.924V328.924ZM599.772 328.924L599.774 328.699C599.76 322.322 596.046 307.762 586.866 307.762C581.274 307.762 577.824 317.182 577.097 327.12L577.046 327.886C576.684 334.022 578.314 348.534 586.866 348.534C595.318 348.534 599.685 335.387 599.772 328.924V328.924ZM599.632 273.002L600.288 273.016C611.016 273.388 622.051 279.743 624.915 290.418C625.063 290.972 624.38 291.345 623.975 290.965C615.154 282.706 603.291 290.598 594.458 294.734L591.213 296.233C579.826 301.531 566.875 307.759 554.231 303.811C548.226 301.936 544.412 295.766 546.125 289.534C547.649 283.989 554.342 279.329 560.139 281.33L560.402 281.426C565.112 283.228 570.904 281.402 575.768 279.603L579.764 278.102C586.189 275.664 592.645 272.936 599.632 273.002V273.002Z" fill="black"/>
<path fill-rule="evenodd" clip-rule="evenodd" d="M467.373 442.054C474.688 423.912 490.655 410.578 509.038 405.703C522.537 402.132 536.705 402.246 550.466 403.663C557.676 404.401 565.409 405.005 572.204 407.839C578.006 410.261 582.735 414.838 586.29 420.211C590.522 426.577 593.401 433.864 595.422 441.333C595.709 442.395 595.979 443.465 596.231 444.54C595.352 450.175 593.486 454.971 588.555 458.514C583.744 461.974 578.003 463.389 572.28 463.892C571.719 463.607 571.176 463.314 570.679 463.013C561.761 457.609 555.484 444.837 544.228 446.565C534.183 448.109 527.57 461.489 521.596 469.335C502.421 471.7 483.26 465.6 467.658 453.993C466.866 450.02 466.82 446.014 467.373 442.054M609.264 428.291C607.73 423.734 605.798 419.321 603.507 415.163C595.936 401.414 584.314 390.459 570.517 384.196C537.878 369.402 495.647 379.831 469.288 404.094C460.285 412.389 451.181 424.577 448.427 437.688C447.605 437.86 446.829 438.313 446.19 438.951C427.147 426.259 407.535 414.047 392.19 396.453C381.045 383.67 373.294 368.542 368.548 351.918C368.16 350.549 366.075 350.749 366.138 352.263C366.156 352.618 366.174 352.971 366.192 353.325C365.994 352.674 365.055 353.009 364.983 353.641C362.43 373.836 359.235 395.247 362.177 415.546C363.936 427.659 369.134 436.527 376.082 446.103C383.527 456.367 391.955 465.913 400.573 475.068C406.041 480.88 411.753 487.583 418.449 491.844C426.236 496.794 435.07 500.558 443.381 504.378C451.837 508.275 460.418 511.875 469.162 514.997C486.641 521.259 504.707 525.588 523.088 527.483C537.806 528.996 554.626 530.644 568.73 524.783C579.54 520.292 588.266 512.173 595.187 502.405C602.722 491.767 608.679 479.649 611.972 466.871C615.393 453.597 609.985 430.432 609.264 428.291" fill="black" fill-opacity="0.3"/>
</svg>
