<svg width="831" height="1231" viewBox="0 0 831 1231" fill="none" xmlns="http://www.w3.org/2000/svg">
<path fill-rule="evenodd" clip-rule="evenodd" d="M254.813 584.704C304.598 573.739 334.126 573.739 350.834 556.751C367.542 539.764 370.574 510.606 377.505 488.092C381.324 475.687 418.74 464.419 455.035 466.183C484.613 467.621 514.421 480.11 516.724 488.092C521.852 505.869 530.098 581.966 557.216 593.657C584.333 605.348 642.226 594.689 658.779 622.609C675.331 650.529 729.69 764.341 729.69 790.861C729.69 817.38 198.244 809.271 198.244 809.271C198.244 809.271 205.028 595.669 254.813 584.704Z" fill="white"/>
<path fill-rule="evenodd" clip-rule="evenodd" d="M37.7854 1202.44C38.5454 1202.98 37.9454 1202.99 37.7854 1202.44ZM34.8354 1200.24C34.8854 1200.28 34.9454 1200.32 35.0054 1200.36C34.4054 1200.31 34.0354 1199.7 34.8354 1200.24M821.335 1129.93C817.995 1115.66 814.665 1101.38 811.325 1087.11C804.355 1057.27 797.375 1027.42 790.405 997.57C776.755 939.19 763.115 880.81 749.465 822.43C742.535 792.76 734.615 763.32 727.465 733.7C721.205 707.74 716.035 681.16 705.285 656.59C694.315 631.51 675.045 610.55 649.525 599.92C628.035 590.98 603.865 586.03 580.465 584.9C583.405 581.3 584.095 575.97 579.805 571.62C574.485 566.23 573.405 558.22 571.985 551.09C570.215 542.18 567.465 532.63 562.165 525.13C559.925 521.96 556.665 520.48 552.825 521.33C550.465 521.85 548.144 522.46 545.855 523.15C545.115 522.41 544.385 521.62 543.745 520.66C542.295 518.44 541.355 515.19 539.275 513.49C537.865 512.33 536.264 512.05 534.615 512.89C530.184 515.14 529.815 521.95 530.764 526.13C530.955 526.94 531.184 527.75 531.465 528.54C531.165 528.68 530.855 528.82 530.545 528.96H530.535C524.755 527.86 517.375 530.18 511.735 530.74C505.184 531.39 498.605 531.82 492.025 532.03C478.555 532.46 465.065 532.06 451.655 530.71C438.585 529.41 425.605 527.32 412.695 524.96C404.655 523.49 394.855 522.27 387.795 517.44C387.684 515.03 387.625 512.61 387.575 510.2C387.474 506.01 387.695 502.72 385.465 499.04C385.434 499 385.385 498.99 385.335 499.01C382.575 500.45 380.595 502.91 379.144 505.83C376.495 505.12 373.644 505.22 371.175 506.25C367.684 507.7 365.085 509.37 362.375 512.05C358.345 516.02 357.165 520.66 355.985 525.99C355.135 529.81 354.605 532.54 353.085 535.1C352.755 535.65 352.405 536.23 352.025 536.76C351.885 536.9 351.625 537.17 351.184 537.63C350.745 538.07 350.305 538.5 349.855 538.93C349.595 539.19 348.315 540.23 348.514 540.09C342.974 544.21 337.965 545.76 331.125 547.73C316.405 551.97 301.325 554.74 286.655 559.24C270.625 564.16 254.945 570.14 239.615 576.93C179.985 603.34 126.615 645.15 90.2254 699.6C47.8454 763.02 32.2454 840.05 24.5154 914.73C16.0554 996.58 16.6454 1079.36 14.7954 1161.55C14.5654 1171.83 14.3354 1182.11 14.1054 1192.39C13.8754 1202.44 13.2554 1213.26 22.1754 1220.03C30.1254 1226.05 39.8054 1224.16 48.6054 1221.45C58.0254 1218.56 67.6154 1216.26 77.3254 1214.61C95.6454 1211.52 114.545 1211.15 133.025 1212.95C142.955 1213.92 155.105 1217.6 163.265 1209.82C166.195 1207.02 167.885 1203.47 169.265 1199.74C170.985 1195.14 172.995 1190.63 174.995 1186.11C176.645 1182.39 178.285 1178.65 179.925 1174.92C182.585 1186.57 185.245 1198.22 187.905 1209.88C188.955 1214.47 193.745 1214.82 196.635 1212.59C201.355 1215.12 207.555 1215.07 212.915 1215.69C221.535 1216.68 230.224 1217.02 238.885 1217.32C255.855 1217.9 272.825 1218.22 289.805 1218.44C324.425 1218.88 359.045 1218.72 393.655 1218.57C462.224 1218.27 530.785 1216.87 599.325 1215.09C618.625 1214.59 637.925 1214.14 657.224 1213.67C666.865 1213.44 676.514 1213.21 686.165 1212.94C689.055 1212.86 691.974 1212.59 694.715 1211.95H694.724C695.945 1213.02 697.445 1213.84 699.235 1214.33C705.644 1216.09 712.014 1212.17 713.934 1205.98C714.825 1203.14 715.445 1200.54 715.224 1197.78C715.555 1195.7 715.885 1193.62 716.215 1191.54C726.915 1198.31 739.755 1200.15 752.425 1199.31C766.755 1198.36 781.085 1195.74 795.305 1193.79C808.655 1191.96 830.295 1192.55 830.935 1174.11C831.165 1167.36 828.314 1159.79 826.795 1153.29C824.974 1145.5 823.155 1137.72 821.335 1129.93" fill="black"/>
<path fill-rule="evenodd" clip-rule="evenodd" d="M608.417 166.809C601.339 141.313 602.351 138.555 591.802 114.202C556.822 43.4524 323.063 67.1414 299.206 137.765C286.264 176.079 289.304 230.038 285.935 263.261C284.904 280.876 283.892 298.492 282.843 316.105C282.48 322.188 282.114 328.27 281.74 334.352C281.013 346.192 280.306 358.032 279.646 369.876C275.251 406.362 293.587 410.073 325.038 408.993C333.353 429.054 346.82 445.8 363.455 459.425C359.44 470.347 374 476.001 381.854 480.368C424.587 504.228 477.078 518.783 524.411 505.366C538.319 501.424 595.753 487.771 613.412 445.505C622.084 424.749 639.713 317.264 616.465 220.576L608.417 166.809Z" fill="white"/>
<path fill-rule="evenodd" clip-rule="evenodd" d="M459.001 0.505999C465.61 -0.663001 473.001 -0.213001 476.79 6.277C477.61 7.676 478.13 9.087 478.38 10.477C496.44 6.417 515.19 5.977 533.64 8.637C539.14 9.426 541.07 16.756 538.65 20.947C538.4 21.377 538.15 21.796 537.88 22.207C543.66 22.676 549.43 23.676 555.15 25.217C559.22 26.317 563.02 31.587 561.211 35.907C561.05 36.287 560.88 36.667 560.711 37.046C569.7 38.557 578.29 42.087 585.8 47.787C586.7 48.457 587.53 49.327 588.22 50.317C605.01 48.426 622.3 51.897 637.29 59.997C641.49 62.266 643.52 68.807 640.67 72.887C639.78 74.157 638.85 75.367 637.85 76.537C644.37 78.947 650.14 82.846 654.03 89.197C658.26 96.087 659.56 104.957 657.29 112.537C662.03 117.367 664.51 124.766 662.82 132.186C661.28 138.957 657.13 143.256 651.81 145.837C652.89 149.137 652.02 152.887 649.57 155.436C645.81 159.346 641.31 162.346 636.41 164.317C636.4 165.587 636.08 166.897 635.44 168.117C631.02 176.596 621.49 182.227 611.8 183.077C615.06 196.766 617.74 210.627 620.34 224.407C624.961 248.917 628.54 273.667 630.72 298.516L630.985 301.589C634.536 343.637 635.362 387.688 626.81 429.167C621.36 455.577 604.84 477.837 582.8 492.917C560.39 508.256 533.01 515.887 506.07 517.096C492.33 517.707 478.461 516.546 465.001 513.727C458.61 512.387 452.44 510.487 446.37 508.067C439.84 505.457 434.461 501.607 428.94 497.277C426.07 495.027 427.711 489.717 431.11 489.046C433.54 488.557 435.94 488.027 438.36 487.587C440.58 487.176 443.001 489.397 442.54 491.447L447.223 492.653C448.783 493.055 450.343 493.461 451.899 493.879L454.23 494.516C460.86 496.367 467.64 497.926 474.44 499.037C488.28 501.287 502.68 501.337 516.59 499.587C539.98 496.657 563.87 488.317 582.06 472.947C590.98 465.407 598.41 456.477 603.8 446.107C610.65 432.936 612.72 418.266 614.44 403.697C619.41 361.567 617.88 319.377 614.02 277.237C612.1 256.277 609.48 235.357 606.7 214.487C605.27 203.787 603.73 193.067 602.461 182.327C599.63 181.567 596.93 180.307 594.51 178.477C592.87 177.237 591.91 175.796 591.49 174.327C589.047 173.866 586.705 172.525 585.017 170.258L584.8 169.957C580.37 163.546 572.711 159.877 565.62 157.207C561.32 155.587 556.94 154.176 552.58 152.737C548.04 151.227 543.24 148.997 538.47 148.417C533.06 147.777 527.61 149.407 522.15 148.827C517.19 148.287 512.82 146.506 509.251 142.947C508.001 141.707 506.92 140.277 506.06 138.737C489.41 142.296 471.92 137.807 454.62 138.887C443.24 139.607 433.2 146.647 421.7 146.457C418.56 146.407 415.52 145.307 413.31 143.377C402.461 145.447 391.43 149.426 381.23 152.846C371.15 156.227 361.45 160.777 351.49 164.467C351.48 164.477 351.48 164.477 351.48 164.487C350.18 168.697 346.3 170.516 342.17 169.777C328.66 167.367 317.28 158.846 304.13 155.727C300.51 168.917 296.62 181.936 293.961 195.387C291.27 208.957 289.38 222.707 288.13 236.487C286.87 250.317 286.27 264.287 286.24 278.167C286.23 285.247 286.41 292.346 286.65 299.426C286.845 305.358 287.975 312.857 285.832 318.562L285.64 319.046H285.63C285.37 319.877 284.2 320.377 283.54 319.607C279.51 314.926 278.55 307.477 277.43 301.596C276.07 294.457 275.2 287.247 274.501 280.016C273.1 265.506 272.79 251.057 273.53 236.487C274.98 207.807 279.58 177.516 289.4 150.407C286.38 150.686 285.03 146.237 284.83 143.727C284.448 138.683 285.238 133.33 286.094 128.271L286.99 123.033C287.838 118.09 288.737 113.275 290.42 108.467C294.461 96.926 300.27 86.087 307.51 76.237C322.28 56.147 342.751 40.936 366.06 32.167C367.52 31.617 368.9 31.627 370.12 32.046C391.33 20.617 414.13 11.817 437.29 5.557C444.45 3.627 451.7 1.807 459.001 0.505999ZM282.861 322.936C292.491 316.897 312.361 315.317 317.731 328.186C317.951 328.706 317.331 329.166 316.871 329.046L315.557 328.715C310.509 327.464 306.147 326.745 300.971 328.817C296.421 330.637 292.001 333.486 288.991 337.406C281.875 346.677 281.104 359.269 281.767 370.514L281.801 371.057C282.421 380.926 284.951 392.946 294.601 397.826C299.491 400.296 304.781 400.116 310.091 400.076C316.141 400.036 322.321 400.696 328.101 402.557C331.331 403.596 332.851 407.876 330.171 410.387C329.281 411.217 328.351 411.996 327.371 412.696C330.301 415.817 333.181 418.977 335.971 422.307C340.701 427.956 345.731 433.416 350.981 438.586C356.061 443.576 361.441 448.406 367.241 452.546C373.341 456.887 380.641 459.936 385.921 465.256C389.361 468.717 388.771 473.546 385.921 477.046C378.845 485.745 366.803 476.601 360.038 471.457L359.221 470.836C352.191 465.516 345.511 459.776 339.821 453.016C334.021 446.116 329.001 438.776 325.291 430.546C323.111 425.706 321.721 421.137 320.971 416.357C308.811 421.637 293.481 419.956 282.581 412.526C268.111 402.666 264.051 384.567 264 368.046L264.001 367.067C264.109 351.009 268.327 332.05 282.861 322.936ZM310.294 346.212L310.74 346.217C316.096 346.333 320.872 348.262 325.421 350.919L325.89 351.197C330.31 353.827 336.65 355.936 338.99 360.857C340.39 363.827 340.29 367.227 337.85 369.686C333.43 374.147 326.76 373.407 321.98 369.926C318.41 367.317 316.06 363.407 312.56 360.766C305.98 355.787 295.6 356.067 288.751 360.377C288.33 360.647 287.921 360.137 288.11 359.737C292.317 351.129 300.653 346.178 310.294 346.212V346.212Z" fill="black"/>
<path fill-rule="evenodd" clip-rule="evenodd" d="M535.735 386.811C536.429 386.623 537.04 387.555 536.465 388.065C534.111 390.154 532.616 394.046 530.898 396.699C529.264 399.223 527.689 401.721 526.252 404.363C524.641 407.324 523.085 410.274 521.831 413.407L521.583 414.039V414.039C521.959 414.932 522.252 415.814 522.469 416.392L522.531 416.557C524.673 422.027 520.177 428.106 515.106 429.635C506.432 432.25 498.99 425.127 498.783 416.656C498.62 409.992 503.137 404.054 507.727 399.649C511.742 395.796 516.238 392.516 521.267 390.113C523.486 389.054 525.791 388.168 528.2 387.654C530.664 387.129 533.322 387.463 535.735 386.811ZM519.387 410.961C520.023 411.261 520.566 411.994 521.023 412.85C520.795 412.124 520.324 411.402 519.387 410.961ZM524.814 318.367C532.366 322.957 543.872 333.66 535.748 345.04C526.186 355.073 512.418 343.569 505.634 338.366C499.343 334.334 492.275 344.705 498.112 349.413C547.136 385.708 567.031 319.568 528.634 312.971C524.406 312.244 522.836 316.947 524.814 318.367ZM462.741 274.292L464.075 274.181C469.862 273.67 475.722 272.893 481.429 274.202C489.096 275.962 488.534 287.116 481.429 289.167C475.167 290.974 468.228 290.192 461.764 290.254C460.747 290.264 459.732 290.29 458.716 290.307C458.516 292.724 457.723 294.808 456.509 296.89C455.639 298.384 454.529 299.803 453.437 301.13C450.841 304.284 444.718 304.213 442.098 301.13C440.16 298.848 438.617 296.223 438.592 293.134C438.586 292.343 438.682 291.503 438.871 290.677L435.343 290.739C426.708 290.871 418.007 290.812 409.528 289.44C406.512 290.064 404.044 284.622 408.207 282.993C419.524 278.567 432.167 277.264 444.176 275.935C450.347 275.251 456.552 274.78 462.741 274.292ZM559.153 269.719L559.46 269.688C566.949 268.921 575.204 267.593 582.708 268.357C593.912 269.496 593.893 284.642 582.708 285.775C578.602 286.191 574.276 285.989 569.962 285.591C572.167 290.269 569.551 295.856 564.238 296.57C559.301 297.233 554.184 292.435 555.804 287.289L555.879 287.062C556.195 286.169 556.479 285.171 556.816 284.186L555.03 284.035C549.689 283.563 542.276 282.599 540.31 278.382C539.717 277.111 539.854 275.931 540.767 274.845C544.511 270.389 553.74 270.242 559.153 269.719V269.719ZM479.517 235.041C484.937 233.072 490.57 237.68 491.273 242.873C492.082 248.857 487.766 252.797 482.295 253.512L482.021 253.545C469.945 254.875 457.96 257.307 445.868 258.682C440.376 259.305 434.843 259.716 429.314 259.863L425.363 259.952C420.522 260.074 415.329 260.185 410.859 258.518L410.876 258.488V258.488C409.689 258.144 409.143 256.432 410.464 255.496C415.223 252.131 421.638 250.859 427.178 249.26C432.748 247.651 438.359 246.168 443.985 244.775C455.799 241.853 468.071 239.199 479.517 235.041ZM529.503 236.44C530.939 228.869 541.664 228.057 545.603 233.566C548.149 234.44 551.882 235.352 554.195 236.038C558.225 237.233 562.258 238.421 566.3 239.572C574.67 241.956 582.838 244.978 591.067 247.795C591.915 248.086 591.682 249.162 590.867 249.269C579.382 250.763 568.089 251.459 556.534 250.98L554.165 250.873C543.983 250.476 526.698 251.233 529.503 236.44Z" fill="black"/>
<path fill-rule="evenodd" clip-rule="evenodd" d="M455.895 418.743C463.384 401.26 479.73 388.411 498.549 383.714C512.368 380.273 526.872 380.383 540.959 381.748C548.34 382.459 556.257 383.041 563.213 385.772C569.153 388.106 573.993 392.517 577.633 397.694C581.965 403.829 584.912 410.851 586.981 418.048C587.275 419.072 587.551 420.102 587.809 421.139C586.909 426.569 584.999 431.191 579.952 434.605C575.026 437.939 569.149 439.302 563.29 439.787C562.716 439.512 562.161 439.229 561.652 438.94C552.522 433.732 546.096 421.425 534.573 423.09C524.29 424.578 517.52 437.471 511.405 445.032C491.775 447.311 472.159 441.433 456.187 430.248C455.376 426.419 455.329 422.559 455.895 418.743M601.151 405.481C599.581 401.09 597.603 396.837 595.259 392.83C587.508 379.581 575.61 369.024 561.485 362.989C528.073 348.733 484.84 358.783 457.857 382.164C448.639 390.156 439.319 401.902 436.501 414.536C435.659 414.702 434.865 415.138 434.211 415.753C414.715 403.522 394.639 391.754 378.929 374.8C367.521 362.482 359.586 347.904 354.727 331.884C354.329 330.566 352.195 330.759 352.26 332.217C352.279 332.559 352.297 332.899 352.316 333.241C352.112 332.613 351.152 332.936 351.078 333.545C348.463 353.005 345.193 373.638 348.205 393.199C350.006 404.872 355.327 413.417 362.44 422.644C370.061 432.535 378.689 441.735 387.511 450.557C393.109 456.157 398.957 462.616 405.811 466.722C413.783 471.493 422.827 475.12 431.335 478.801C439.991 482.556 448.776 486.025 457.727 489.034C475.621 495.068 494.115 499.239 512.932 501.066C527.999 502.524 545.218 504.112 559.656 498.464C570.723 494.136 579.656 486.312 586.741 476.9C594.455 466.648 600.553 454.971 603.924 442.657C607.426 429.867 601.889 407.543 601.151 405.481" fill="black" fill-opacity="0.3"/>
</svg>
