<svg width="1280" height="784" viewBox="0 0 1280 784" fill="none" xmlns="http://www.w3.org/2000/svg">
<g clip-path="url(#clip0_1037_271)">
<rect width="1280" height="784" rx="10" fill="white"/>
<rect y="53" width="1280" height="731" fill="white"/>
<g filter="url(#filter0_di_1037_271)">
<path d="M0 10C0 4.47715 4.47715 0 10 0H1270C1275.52 0 1280 4.47715 1280 10V53H0V10Z" fill="white"/>
<g clip-path="url(#clip1_1037_271)">
<path d="M1128.5 34.4736C1133.13 34.4736 1136.97 30.6304 1136.97 26.0068C1136.97 21.375 1133.12 17.54 1128.49 17.54C1123.87 17.54 1120.03 21.375 1120.03 26.0068C1120.03 30.6304 1123.88 34.4736 1128.5 34.4736ZM1128.5 33.0625C1124.58 33.0625 1121.45 29.9248 1121.45 26.0068C1121.45 22.0889 1124.57 18.9512 1128.49 18.9512C1132.41 18.9512 1135.55 22.0889 1135.56 26.0068C1135.56 29.9248 1132.42 33.0625 1128.5 33.0625ZM1128.5 21.7817C1128.14 21.7817 1127.88 22.0391 1127.88 22.4043V26.5547L1127.94 28.3062L1127.11 27.3101L1126.13 26.314C1126.01 26.2061 1125.86 26.1313 1125.69 26.1313C1125.35 26.1313 1125.09 26.397 1125.09 26.729C1125.09 26.9033 1125.14 27.0527 1125.25 27.1606L1128.02 29.9248C1128.18 30.0908 1128.33 30.1572 1128.5 30.1572C1128.68 30.1572 1128.83 30.0825 1128.99 29.9248L1131.75 27.1606C1131.86 27.0527 1131.93 26.9033 1131.93 26.729C1131.93 26.397 1131.66 26.1313 1131.32 26.1313C1131.14 26.1313 1130.99 26.1978 1130.88 26.314L1129.9 27.3101L1129.06 28.3145L1129.12 26.5547V22.4043C1129.12 22.0391 1128.87 21.7817 1128.5 21.7817Z" fill="#737373"/>
<path d="M1169.5 28.2646C1169.86 28.2646 1170.16 27.9658 1170.16 27.6172V19.0923L1170.11 17.8472L1170.67 18.4365L1171.92 19.7812C1172.04 19.9141 1172.21 19.9805 1172.37 19.9805C1172.72 19.9805 1172.98 19.7314 1172.98 19.3911C1172.98 19.2168 1172.91 19.084 1172.79 18.9595L1169.98 16.2534C1169.82 16.0874 1169.67 16.0293 1169.5 16.0293C1169.33 16.0293 1169.18 16.0874 1169.02 16.2534L1166.21 18.9595C1166.09 19.084 1166.01 19.2168 1166.01 19.3911C1166.01 19.7314 1166.27 19.9805 1166.61 19.9805C1166.78 19.9805 1166.95 19.9141 1167.07 19.7812L1168.33 18.4365L1168.89 17.8472L1168.84 19.0923V27.6172C1168.84 27.9658 1169.14 28.2646 1169.5 28.2646ZM1164.74 34.7642H1174.26C1175.99 34.7642 1176.86 33.9009 1176.86 32.1909V23.9067C1176.86 22.1968 1175.99 21.3335 1174.26 21.3335H1171.94V22.6699H1174.23C1175.05 22.6699 1175.53 23.1182 1175.53 23.9814V32.1162C1175.53 32.9795 1175.05 33.4277 1174.23 33.4277H1164.75C1163.92 33.4277 1163.47 32.9795 1163.47 32.1162V23.9814C1163.47 23.1182 1163.92 22.6699 1164.75 22.6699H1167.05V21.3335H1164.74C1163 21.3335 1162.13 22.1968 1162.13 23.9067V32.1909C1162.13 33.9009 1163 34.7642 1164.74 34.7642Z" fill="#737373"/>
<path d="M1210.5 33.0044C1210.91 33.0044 1211.25 32.6807 1211.25 32.2822V26.7622H1216.61C1217.01 26.7622 1217.35 26.4219 1217.35 26.0151C1217.35 25.6084 1217.01 25.2764 1216.61 25.2764H1211.25V19.748C1211.25 19.3496 1210.91 19.0259 1210.5 19.0259C1210.09 19.0259 1209.76 19.3496 1209.76 19.748V25.2764H1204.39C1203.99 25.2764 1203.65 25.6084 1203.65 26.0151C1203.65 26.4219 1203.99 26.7622 1204.39 26.7622H1209.76V32.2822C1209.76 32.6807 1210.09 33.0044 1210.5 33.0044Z" fill="#737373"/>
<path d="M1245.32 30.8711H1246.74V32.1411C1246.74 33.8511 1247.61 34.7144 1249.35 34.7144H1257.68C1259.41 34.7144 1260.28 33.8511 1260.28 32.1411V23.7407C1260.28 22.0308 1259.41 21.1675 1257.68 21.1675H1256.26V19.8975C1256.26 18.1875 1255.38 17.3242 1253.66 17.3242H1245.32C1243.58 17.3242 1242.72 18.1875 1242.72 19.8975V28.2979C1242.72 30.0078 1243.58 30.8711 1245.32 30.8711ZM1245.34 29.5347C1244.51 29.5347 1244.05 29.0864 1244.05 28.2231V19.9722C1244.05 19.1089 1244.51 18.6606 1245.34 18.6606H1253.63C1254.46 18.6606 1254.92 19.1089 1254.92 19.9722V21.1675H1249.35C1247.61 21.1675 1246.74 22.0225 1246.74 23.7407V29.5347H1245.34ZM1249.37 33.3779C1248.54 33.3779 1248.08 32.9297 1248.08 32.0664V23.8154C1248.08 22.9521 1248.54 22.5039 1249.37 22.5039H1257.66C1258.48 22.5039 1258.95 22.9521 1258.95 23.8154V32.0664C1258.95 32.9297 1258.48 33.3779 1257.66 33.3779H1249.37Z" fill="#737373"/>
</g>
<g clip-path="url(#clip2_1037_271)">
<path d="M153.264 32.9878L146.682 26.563C146.524 26.4053 146.441 26.2144 146.441 26.0068C146.441 25.791 146.532 25.5835 146.69 25.4507L153.264 19.0176C153.405 18.8765 153.588 18.7935 153.804 18.7935C154.235 18.7935 154.559 19.1255 154.559 19.5571C154.559 19.7563 154.476 19.9556 154.343 20.0967L148.3 26.0068L154.343 31.917C154.476 32.0581 154.559 32.249 154.559 32.4565C154.559 32.8882 154.235 33.2119 153.804 33.2119C153.588 33.2119 153.405 33.1289 153.264 32.9878Z" fill="#737373"/>
<path d="M180.196 33.2202C180.412 33.2202 180.595 33.1372 180.736 32.9961L187.318 26.563C187.476 26.4053 187.559 26.2144 187.559 26.0068C187.559 25.791 187.476 25.5918 187.318 25.4507L180.744 19.0259C180.595 18.8765 180.412 18.7935 180.196 18.7935C179.765 18.7935 179.441 19.1255 179.441 19.5571C179.441 19.7563 179.524 19.9556 179.657 20.0967L185.7 26.0068L179.657 31.917C179.524 32.0581 179.441 32.249 179.441 32.4565C179.441 32.8882 179.765 33.2202 180.196 33.2202Z" fill="#BFBFBF"/>
</g>
<path d="M101.32 33.6602H115.68C117.423 33.6602 118.287 32.7969 118.287 31.0869V20.9517C118.287 19.2417 117.423 18.3784 115.68 18.3784H101.32C99.585 18.3784 98.7134 19.2334 98.7134 20.9517V31.0869C98.7134 32.8052 99.585 33.6602 101.32 33.6602ZM101.336 32.3237C100.506 32.3237 100.05 31.8838 100.05 31.0205V21.0181C100.05 20.1548 100.506 19.7148 101.336 19.7148H105.039V32.3237H101.336ZM115.664 19.7148C116.485 19.7148 116.95 20.1548 116.95 21.0181V31.0205C116.95 31.8838 116.485 32.3237 115.664 32.3237H106.342V19.7148H115.664ZM103.437 22.7944C103.694 22.7944 103.91 22.5703 103.91 22.3296C103.91 22.0806 103.694 21.8647 103.437 21.8647H101.66C101.411 21.8647 101.187 22.0806 101.187 22.3296C101.187 22.5703 101.411 22.7944 101.66 22.7944H103.437ZM103.437 24.9443C103.694 24.9443 103.91 24.7202 103.91 24.4712C103.91 24.2222 103.694 24.0146 103.437 24.0146H101.66C101.411 24.0146 101.187 24.2222 101.187 24.4712C101.187 24.7202 101.411 24.9443 101.66 24.9443H103.437ZM103.437 27.0859C103.694 27.0859 103.91 26.8784 103.91 26.6294C103.91 26.3804 103.694 26.1646 103.437 26.1646H101.66C101.411 26.1646 101.187 26.3804 101.187 26.6294C101.187 26.8784 101.411 27.0859 101.66 27.0859H103.437Z" fill="#737373"/>
<g filter="url(#filter1_i_1037_271)">
<path fill-rule="evenodd" clip-rule="evenodd" d="M27 32C30.3137 32 33 29.3137 33 26C33 22.6863 30.3137 20 27 20C23.6863 20 21 22.6863 21 26C21 29.3137 23.6863 32 27 32Z" fill="#EE6A5F"/>
</g>
<path d="M32.75 26C32.75 29.1756 30.1756 31.75 27 31.75C23.8244 31.75 21.25 29.1756 21.25 26C21.25 22.8244 23.8244 20.25 27 20.25C30.1756 20.25 32.75 22.8244 32.75 26Z" stroke="#CE5347" stroke-width="0.5"/>
<g filter="url(#filter2_i_1037_271)">
<path fill-rule="evenodd" clip-rule="evenodd" d="M47 32C50.3137 32 53 29.3137 53 26C53 22.6863 50.3137 20 47 20C43.6863 20 41 22.6863 41 26C41 29.3137 43.6863 32 47 32Z" fill="#F5BD4F"/>
</g>
<path d="M52.75 26C52.75 29.1756 50.1756 31.75 47 31.75C43.8244 31.75 41.25 29.1756 41.25 26C41.25 22.8244 43.8244 20.25 47 20.25C50.1756 20.25 52.75 22.8244 52.75 26Z" stroke="#D6A243" stroke-width="0.5"/>
<g filter="url(#filter3_i_1037_271)">
<path fill-rule="evenodd" clip-rule="evenodd" d="M67 32C70.3137 32 73 29.3137 73 26C73 22.6863 70.3137 20 67 20C63.6863 20 61 22.6863 61 26C61 29.3137 63.6863 32 67 32Z" fill="#61C454"/>
</g>
<path d="M72.75 26C72.75 29.1756 70.1756 31.75 67 31.75C63.8244 31.75 61.25 29.1756 61.25 26C61.25 22.8244 63.8244 20.25 67 20.25C70.1756 20.25 72.75 22.8244 72.75 26Z" stroke="#58A942" stroke-width="0.5"/>
<g clip-path="url(#clip3_1037_271)">
<path d="M356.5 34.6147C356.633 34.6147 356.849 34.5649 357.056 34.4487C361.779 31.8008 363.398 30.6802 363.398 27.6504V21.3003C363.398 20.4287 363.024 20.1548 362.319 19.856C361.339 19.4492 358.177 18.312 357.197 17.9717C356.973 17.897 356.732 17.8472 356.5 17.8472C356.268 17.8472 356.027 17.9136 355.811 17.9717C354.832 18.2539 351.661 19.4575 350.681 19.856C349.984 20.1465 349.602 20.4287 349.602 21.3003V27.6504C349.602 30.6802 351.229 31.7925 355.944 34.4487C356.16 34.5649 356.367 34.6147 356.5 34.6147ZM356.832 19.2583C358.085 19.7563 360.518 20.6362 361.804 21.0762C362.028 21.1592 362.078 21.2754 362.078 21.5576V27.3433C362.078 29.9082 360.85 30.5806 357.015 32.9131C356.774 33.0625 356.641 33.104 356.508 33.1123V19.1836C356.591 19.1836 356.699 19.2085 356.832 19.2583Z" fill="#737373"/>
<rect x="382" y="12" width="516" height="28" rx="6" fill="black" fill-opacity="0.05"/>
<g clip-path="url(#clip4_1037_271)">
<path d="M578.211 31.7158H583.789C584.545 31.7158 584.914 31.3408 584.914 30.5205V26.2197C584.914 25.4814 584.609 25.1006 583.982 25.0361V23.5596C583.982 21.3506 582.535 20.2842 581 20.2842C579.465 20.2842 578.018 21.3506 578.018 23.5596V25.0654C577.443 25.1533 577.086 25.5283 577.086 26.2197V30.5205C577.086 31.3408 577.455 31.7158 578.211 31.7158ZM578.961 23.4365C578.961 21.9658 579.904 21.1865 581 21.1865C582.096 21.1865 583.039 21.9658 583.039 23.4365V25.0303L578.961 25.0361V23.4365Z" fill="#9E9E9E"/>
<path d="M591.942 33.2852V24.1572H593.047V25.249H593.148C593.567 24.4873 594.329 24.0366 595.281 24.0366C597.014 24.0366 598.15 25.4395 598.15 27.5723V27.585C598.15 29.7305 597.021 31.1206 595.281 31.1206C594.342 31.1206 593.523 30.6509 593.148 29.9209H593.047V33.2852H591.942ZM595.027 30.1431C596.278 30.1431 597.021 29.1782 597.021 27.585V27.5723C597.021 25.979 596.278 25.0142 595.027 25.0142C593.783 25.0142 593.021 25.9917 593.021 27.5723V27.585C593.021 29.1655 593.783 30.1431 595.027 30.1431ZM602.116 31.1206C600.561 31.1206 599.761 30.2065 599.761 28.5879V24.1572H600.866V28.3213C600.866 29.5527 601.31 30.1431 602.402 30.1431C603.608 30.1431 604.249 29.4067 604.249 28.207V24.1572H605.354V31H604.249V29.978H604.148C603.811 30.708 603.119 31.1206 602.116 31.1206ZM607.428 31V21.4404H608.533V31H607.428ZM612.949 31.1206C611.426 31.1206 610.379 30.3843 610.252 29.2544H611.382C611.566 29.8257 612.112 30.2002 612.988 30.2002C613.908 30.2002 614.562 29.7622 614.562 29.1401V29.1274C614.562 28.6641 614.213 28.3403 613.368 28.1372L612.308 27.8833C611.026 27.5786 610.448 27.02 610.448 26.0361V26.0298C610.448 24.8936 611.54 24.0366 612.994 24.0366C614.428 24.0366 615.425 24.7539 615.577 25.8711H614.492C614.346 25.3315 613.813 24.957 612.988 24.957C612.175 24.957 611.578 25.376 611.578 25.979V25.9917C611.578 26.4551 611.921 26.7471 612.727 26.9438L613.781 27.1978C615.07 27.5088 615.692 28.0674 615.692 29.0449V29.0576C615.692 30.2764 614.505 31.1206 612.949 31.1206ZM620.146 31.1206C618.191 31.1206 617.011 29.7495 617.011 27.604V27.5977C617.011 25.4839 618.217 24.0366 620.077 24.0366C621.937 24.0366 623.066 25.4204 623.066 27.4644V27.896H618.141C618.172 29.3115 618.953 30.1367 620.172 30.1367C621.099 30.1367 621.67 29.6987 621.854 29.2861L621.879 29.229H622.984L622.971 29.2798C622.736 30.2065 621.759 31.1206 620.146 31.1206ZM620.07 25.0205C619.055 25.0205 618.28 25.7124 618.16 27.0137H621.943C621.829 25.6616 621.08 25.0205 620.07 25.0205ZM627.528 31.1206C625.611 31.1206 624.386 29.7305 624.386 27.5596V27.5469C624.386 25.4204 625.604 24.0366 627.521 24.0366C629.184 24.0366 630.181 24.9951 630.384 26.2139L630.39 26.252H629.292L629.286 26.2329C629.115 25.5601 628.505 25.0142 627.521 25.0142C626.29 25.0142 625.515 26.0044 625.515 27.5469V27.5596C625.515 29.1338 626.303 30.1431 627.521 30.1431C628.442 30.1431 629.026 29.7368 629.28 28.9751L629.292 28.937L630.384 28.9307L630.371 29.0005C630.092 30.2383 629.172 31.1206 627.528 31.1206ZM634.763 31.1206C632.814 31.1206 631.608 29.7749 631.608 27.585V27.5723C631.608 25.376 632.814 24.0366 634.763 24.0366C636.711 24.0366 637.917 25.376 637.917 27.5723V27.585C637.917 29.7749 636.711 31.1206 634.763 31.1206ZM634.763 30.1431C636.058 30.1431 636.788 29.1973 636.788 27.585V27.5723C636.788 25.9536 636.058 25.0142 634.763 25.0142C633.468 25.0142 632.738 25.9536 632.738 27.5723V27.585C632.738 29.1973 633.468 30.1431 634.763 30.1431ZM639.579 31V24.1572H640.684V25.1855H640.785C641.128 24.4619 641.769 24.0366 642.779 24.0366C644.315 24.0366 645.172 24.9443 645.172 26.5693V31H644.067V26.8359C644.067 25.6045 643.559 25.0142 642.468 25.0142C641.376 25.0142 640.684 25.7505 640.684 26.9502V31H639.579ZM647.119 31V24.1572H648.224V25.1855H648.325C648.668 24.4619 649.309 24.0366 650.318 24.0366C651.855 24.0366 652.711 24.9443 652.711 26.5693V31H651.607V26.8359C651.607 25.6045 651.099 25.0142 650.007 25.0142C648.916 25.0142 648.224 25.7505 648.224 26.9502V31H647.119ZM657.452 31.1206C655.497 31.1206 654.316 29.7495 654.316 27.604V27.5977C654.316 25.4839 655.522 24.0366 657.382 24.0366C659.242 24.0366 660.372 25.4204 660.372 27.4644V27.896H655.446C655.478 29.3115 656.259 30.1367 657.477 30.1367C658.404 30.1367 658.975 29.6987 659.159 29.2861L659.185 29.229H660.289L660.277 29.2798C660.042 30.2065 659.064 31.1206 657.452 31.1206ZM657.376 25.0205C656.36 25.0205 655.586 25.7124 655.465 27.0137H659.248C659.134 25.6616 658.385 25.0205 657.376 25.0205ZM664.833 31.1206C662.916 31.1206 661.691 29.7305 661.691 27.5596V27.5469C661.691 25.4204 662.91 24.0366 664.827 24.0366C666.49 24.0366 667.486 24.9951 667.689 26.2139L667.696 26.252H666.598L666.591 26.2329C666.42 25.5601 665.811 25.0142 664.827 25.0142C663.595 25.0142 662.821 26.0044 662.821 27.5469V27.5596C662.821 29.1338 663.608 30.1431 664.827 30.1431C665.747 30.1431 666.331 29.7368 666.585 28.9751L666.598 28.937L667.689 28.9307L667.677 29.0005C667.397 30.2383 666.477 31.1206 664.833 31.1206ZM671.814 31.0508C670.405 31.0508 669.815 30.5303 669.815 29.2227V25.0713H668.736V24.1572H669.815V22.3862H670.957V24.1572H672.455V25.0713H670.957V28.9434C670.957 29.7495 671.237 30.0732 671.948 30.0732C672.144 30.0732 672.252 30.0669 672.455 30.0479V30.9873C672.24 31.0254 672.03 31.0508 671.814 31.0508ZM674.955 31.0635C674.504 31.0635 674.13 30.689 674.13 30.2383C674.13 29.7812 674.504 29.4131 674.955 29.4131C675.412 29.4131 675.78 29.7812 675.78 30.2383C675.78 30.689 675.412 31.0635 674.955 31.0635ZM680.407 31.1206C678.49 31.1206 677.264 29.7305 677.264 27.5596V27.5469C677.264 25.4204 678.483 24.0366 680.4 24.0366C682.063 24.0366 683.06 24.9951 683.263 26.2139L683.269 26.252H682.171L682.165 26.2329C681.993 25.5601 681.384 25.0142 680.4 25.0142C679.169 25.0142 678.394 26.0044 678.394 27.5469V27.5596C678.394 29.1338 679.181 30.1431 680.4 30.1431C681.321 30.1431 681.905 29.7368 682.158 28.9751L682.171 28.937L683.263 28.9307L683.25 29.0005C682.971 30.2383 682.051 31.1206 680.407 31.1206ZM687.642 31.1206C685.693 31.1206 684.487 29.7749 684.487 27.585V27.5723C684.487 25.376 685.693 24.0366 687.642 24.0366C689.59 24.0366 690.796 25.376 690.796 27.5723V27.585C690.796 29.7749 689.59 31.1206 687.642 31.1206ZM687.642 30.1431C688.937 30.1431 689.667 29.1973 689.667 27.585V27.5723C689.667 25.9536 688.937 25.0142 687.642 25.0142C686.347 25.0142 685.617 25.9536 685.617 27.5723V27.585C685.617 29.1973 686.347 30.1431 687.642 30.1431ZM692.458 31V24.1572H693.563V25.1982H693.664C693.969 24.4619 694.616 24.0366 695.512 24.0366C696.438 24.0366 697.086 24.5254 697.403 25.2363H697.505C697.873 24.5127 698.654 24.0366 699.599 24.0366C700.996 24.0366 701.777 24.8364 701.777 26.271V31H700.672V26.5249C700.672 25.5156 700.209 25.0142 699.244 25.0142C698.292 25.0142 697.663 25.7314 697.663 26.6011V31H696.559V26.3535C696.559 25.541 696 25.0142 695.137 25.0142C694.242 25.0142 693.563 25.7949 693.563 26.7598V31H692.458Z" fill="#4C4C4C"/>
</g>
<path d="M886.283 25.6152C886.43 25.6152 886.541 25.5684 886.623 25.4805L889.037 23.0547C889.143 22.9551 889.184 22.8379 889.184 22.7031C889.184 22.5742 889.131 22.4453 889.037 22.3516L886.623 19.9023C886.541 19.8086 886.424 19.7617 886.283 19.7617C886.02 19.7617 885.82 19.9727 885.82 20.2422C885.82 20.3652 885.867 20.4824 885.949 20.5762L887.514 22.1113C887.18 22.0527 886.84 22.0176 886.5 22.0176C883.629 22.0176 881.32 24.3203 881.32 27.1914C881.32 30.0684 883.629 32.377 886.5 32.377C889.371 32.377 891.674 30.0684 891.674 27.1914C891.674 26.9102 891.475 26.7051 891.188 26.7051C890.912 26.7051 890.73 26.9102 890.73 27.1914C890.73 29.5469 888.85 31.4336 886.5 31.4336C884.15 31.4336 882.264 29.5469 882.264 27.1914C882.264 24.8418 884.15 22.9609 886.5 22.9609C886.945 22.9609 887.355 22.9961 887.707 23.0723L885.955 24.8125C885.867 24.9062 885.82 25.0234 885.82 25.1465C885.82 25.416 886.02 25.6152 886.283 25.6152Z" fill="#797979"/>
</g>
</g>
</g>
<defs>
<filter id="filter0_di_1037_271" x="0" y="0" width="1280" height="53.5" filterUnits="userSpaceOnUse" color-interpolation-filters="sRGB">
<feFlood flood-opacity="0" result="BackgroundImageFix"/>
<feColorMatrix in="SourceAlpha" type="matrix" values="0 0 0 0 0 0 0 0 0 0 0 0 0 0 0 0 0 0 127 0" result="hardAlpha"/>
<feOffset dy="0.5"/>
<feColorMatrix type="matrix" values="0 0 0 0 0 0 0 0 0 0 0 0 0 0 0 0 0 0 0.15 0"/>
<feBlend mode="normal" in2="BackgroundImageFix" result="effect1_dropShadow_1037_271"/>
<feBlend mode="normal" in="SourceGraphic" in2="effect1_dropShadow_1037_271" result="shape"/>
<feColorMatrix in="SourceAlpha" type="matrix" values="0 0 0 0 0 0 0 0 0 0 0 0 0 0 0 0 0 0 127 0" result="hardAlpha"/>
<feOffset dy="-0.5"/>
<feComposite in2="hardAlpha" operator="arithmetic" k2="-1" k3="1"/>
<feColorMatrix type="matrix" values="0 0 0 0 0 0 0 0 0 0 0 0 0 0 0 0 0 0 0.05 0"/>
<feBlend mode="normal" in2="shape" result="effect2_innerShadow_1037_271"/>
</filter>
<filter id="filter1_i_1037_271" x="21" y="20" width="12" height="12" filterUnits="userSpaceOnUse" color-interpolation-filters="sRGB">
<feFlood flood-opacity="0" result="BackgroundImageFix"/>
<feBlend mode="normal" in="SourceGraphic" in2="BackgroundImageFix" result="shape"/>
<feColorMatrix in="SourceAlpha" type="matrix" values="0 0 0 0 0 0 0 0 0 0 0 0 0 0 0 0 0 0 127 0" result="hardAlpha"/>
<feOffset/>
<feGaussianBlur stdDeviation="3"/>
<feComposite in2="hardAlpha" operator="arithmetic" k2="-1" k3="1"/>
<feColorMatrix type="matrix" values="0 0 0 0 0.92549 0 0 0 0 0.427451 0 0 0 0 0.384314 0 0 0 1 0"/>
<feBlend mode="normal" in2="shape" result="effect1_innerShadow_1037_271"/>
</filter>
<filter id="filter2_i_1037_271" x="41" y="20" width="12" height="12" filterUnits="userSpaceOnUse" color-interpolation-filters="sRGB">
<feFlood flood-opacity="0" result="BackgroundImageFix"/>
<feBlend mode="normal" in="SourceGraphic" in2="BackgroundImageFix" result="shape"/>
<feColorMatrix in="SourceAlpha" type="matrix" values="0 0 0 0 0 0 0 0 0 0 0 0 0 0 0 0 0 0 127 0" result="hardAlpha"/>
<feOffset/>
<feGaussianBlur stdDeviation="3"/>
<feComposite in2="hardAlpha" operator="arithmetic" k2="-1" k3="1"/>
<feColorMatrix type="matrix" values="0 0 0 0 0.960784 0 0 0 0 0.768627 0 0 0 0 0.317647 0 0 0 1 0"/>
<feBlend mode="normal" in2="shape" result="effect1_innerShadow_1037_271"/>
</filter>
<filter id="filter3_i_1037_271" x="61" y="20" width="12" height="12" filterUnits="userSpaceOnUse" color-interpolation-filters="sRGB">
<feFlood flood-opacity="0" result="BackgroundImageFix"/>
<feBlend mode="normal" in="SourceGraphic" in2="BackgroundImageFix" result="shape"/>
<feColorMatrix in="SourceAlpha" type="matrix" values="0 0 0 0 0 0 0 0 0 0 0 0 0 0 0 0 0 0 127 0" result="hardAlpha"/>
<feOffset/>
<feGaussianBlur stdDeviation="3"/>
<feComposite in2="hardAlpha" operator="arithmetic" k2="-1" k3="1"/>
<feColorMatrix type="matrix" values="0 0 0 0 0.407843 0 0 0 0 0.8 0 0 0 0 0.345098 0 0 0 1 0"/>
<feBlend mode="normal" in2="shape" result="effect1_innerShadow_1037_271"/>
</filter>
<clipPath id="clip0_1037_271">
<rect width="1280" height="784" rx="10" fill="white"/>
</clipPath>
<clipPath id="clip1_1037_271">
<rect width="156" height="28" fill="white" transform="translate(1112 12)"/>
</clipPath>
<clipPath id="clip2_1037_271">
<rect width="66" height="28" fill="white" transform="translate(134 12)"/>
</clipPath>
<clipPath id="clip3_1037_271">
<rect width="600" height="28" fill="white" transform="translate(340 12)"/>
</clipPath>
<clipPath id="clip4_1037_271">
<rect x="577.086" y="18" width="125.828" height="16" fill="white"/>
</clipPath>
</defs>
</svg>
