<svg width="2116" height="512" viewBox="0 0 2116 512" fill="none" xmlns="http://www.w3.org/2000/svg">
<path d="M255.87 0C396.698 0 510.865 114.62 510.865 256C510.865 335.9 474.4 407.253 417.266 454.201L512.875 512H255.87C115.045 512 0.875 397.383 0.875 256C0.875 114.617 115.045 0 255.87 0Z" fill="#EA580C"/>
<path d="M65.6648 260.778L152.676 247.941L175.741 187.136L239.69 310.508L306.76 127.629L357.516 249.548L448.155 260.778L337.579 275.215L308.574 211.045L245.129 384.3L180.833 258.37L174.431 273.611L65.6648 260.778Z" fill="white"/>
<path d="M751.625 169.469C751.625 178.552 750.208 186.594 747.375 193.594C744.542 200.594 740.417 206.51 735 211.344C729.583 216.094 722.917 219.719 715 222.219C707.167 224.719 697.917 225.969 687.25 225.969H673.75V277.594C673.75 278.427 673.458 279.177 672.875 279.844C672.375 280.51 671.5 281.052 670.25 281.469C669 281.885 667.333 282.219 665.25 282.469C663.167 282.719 660.5 282.844 657.25 282.844C654.083 282.844 651.417 282.719 649.25 282.469C647.167 282.219 645.5 281.885 644.25 281.469C643 281.052 642.125 280.51 641.625 279.844C641.125 279.177 640.875 278.427 640.875 277.594V132.094C640.875 128.177 641.875 125.26 643.875 123.344C645.958 121.344 648.667 120.344 652 120.344H690.125C693.958 120.344 697.583 120.51 701 120.844C704.5 121.094 708.667 121.719 713.5 122.719C718.333 123.635 723.208 125.385 728.125 127.969C733.125 130.552 737.375 133.844 740.875 137.844C744.375 141.76 747.042 146.385 748.875 151.719C750.708 156.969 751.625 162.885 751.625 169.469ZM717.25 171.844C717.25 166.177 716.25 161.51 714.25 157.844C712.25 154.177 709.792 151.469 706.875 149.719C703.958 147.969 700.875 146.885 697.625 146.469C694.458 145.969 691.167 145.719 687.75 145.719H673.75V200.594H688.5C693.75 200.594 698.125 199.885 701.625 198.469C705.208 197.052 708.125 195.094 710.375 192.594C712.625 190.01 714.333 186.969 715.5 183.469C716.667 179.885 717.25 176.01 717.25 171.844Z" fill="#EA580C"/>
<path d="M881 277.844C881 278.677 880.792 279.427 880.375 280.094C879.958 280.677 879.208 281.177 878.125 281.594C877.125 282.01 875.75 282.302 874 282.469C872.333 282.719 870.208 282.844 867.625 282.844C864.875 282.844 862.625 282.719 860.875 282.469C859.208 282.302 857.875 282.01 856.875 281.594C855.875 281.177 855.167 280.677 854.75 280.094C854.333 279.427 854.125 278.677 854.125 277.844V264.969C847.958 271.635 841.667 276.635 835.25 279.969C828.917 283.302 822.333 284.969 815.5 284.969C807.833 284.969 801.375 283.719 796.125 281.219C790.958 278.719 786.75 275.302 783.5 270.969C780.333 266.635 778.042 261.635 776.625 255.969C775.292 250.219 774.625 243.094 774.625 234.594V166.344C774.625 165.51 774.833 164.802 775.25 164.219C775.75 163.552 776.583 163.01 777.75 162.594C779 162.177 780.625 161.885 782.625 161.719C784.708 161.469 787.25 161.344 790.25 161.344C793.333 161.344 795.875 161.469 797.875 161.719C799.875 161.885 801.458 162.177 802.625 162.594C803.875 163.01 804.75 163.552 805.25 164.219C805.75 164.802 806 165.51 806 166.344V229.344C806 235.177 806.375 239.635 807.125 242.719C807.875 245.802 809 248.469 810.5 250.719C812.083 252.885 814.042 254.594 816.375 255.844C818.792 257.01 821.583 257.594 824.75 257.594C828.75 257.594 832.75 256.135 836.75 253.219C840.833 250.302 845.167 246.052 849.75 240.469V166.344C849.75 165.51 849.958 164.802 850.375 164.219C850.875 163.552 851.708 163.01 852.875 162.594C854.125 162.177 855.75 161.885 857.75 161.719C859.75 161.469 862.292 161.344 865.375 161.344C868.458 161.344 871 161.469 873 161.719C875 161.885 876.583 162.177 877.75 162.594C878.917 163.01 879.75 163.552 880.25 164.219C880.75 164.802 881 165.51 881 166.344V277.844Z" fill="#EA580C"/>
<path d="M944.25 277.844C944.25 278.677 944 279.427 943.5 280.094C943 280.677 942.125 281.177 940.875 281.594C939.708 282.01 938.125 282.302 936.125 282.469C934.125 282.719 931.583 282.844 928.5 282.844C925.417 282.844 922.875 282.719 920.875 282.469C918.875 282.302 917.25 282.01 916 281.594C914.833 281.177 914 280.677 913.5 280.094C913 279.427 912.75 278.677 912.75 277.844V113.469C912.75 112.635 913 111.885 913.5 111.219C914 110.552 914.833 110.01 916 109.594C917.25 109.094 918.875 108.719 920.875 108.469C922.875 108.219 925.417 108.094 928.5 108.094C931.583 108.094 934.125 108.219 936.125 108.469C938.125 108.719 939.708 109.094 940.875 109.594C942.125 110.01 943 110.552 943.5 111.219C944 111.885 944.25 112.635 944.25 113.469V277.844Z" fill="#EA580C"/>
<path d="M1054.25 246.344C1054.25 252.677 1053.04 258.26 1050.62 263.094C1048.29 267.927 1044.96 271.969 1040.62 275.219C1036.29 278.469 1031.17 280.885 1025.25 282.469C1019.33 284.135 1012.92 284.969 1006 284.969C1001.83 284.969 997.833 284.635 994 283.969C990.25 283.385 986.875 282.635 983.875 281.719C980.875 280.719 978.375 279.719 976.375 278.719C974.375 277.719 972.917 276.802 972 275.969C971.083 275.052 970.375 273.677 969.875 271.844C969.375 269.927 969.125 267.135 969.125 263.469C969.125 261.052 969.208 259.135 969.375 257.719C969.542 256.219 969.792 255.052 970.125 254.219C970.458 253.302 970.875 252.719 971.375 252.469C971.875 252.135 972.5 251.969 973.25 251.969C974.167 251.969 975.5 252.51 977.25 253.594C979.083 254.594 981.333 255.719 984 256.969C986.667 258.219 989.75 259.385 993.25 260.469C996.833 261.552 1000.88 262.094 1005.38 262.094C1008.21 262.094 1010.71 261.802 1012.88 261.219C1015.12 260.635 1017.04 259.802 1018.62 258.719C1020.29 257.635 1021.54 256.26 1022.38 254.594C1023.21 252.927 1023.62 251.01 1023.62 248.844C1023.62 246.344 1022.83 244.219 1021.25 242.469C1019.75 240.635 1017.71 239.052 1015.12 237.719C1012.62 236.385 1009.75 235.135 1006.5 233.969C1003.33 232.802 1000.04 231.51 996.625 230.094C993.292 228.677 990 227.052 986.75 225.219C983.583 223.385 980.708 221.135 978.125 218.469C975.625 215.802 973.583 212.594 972 208.844C970.5 205.094 969.75 200.594 969.75 195.344C969.75 190.01 970.792 185.135 972.875 180.719C974.958 176.219 977.958 172.385 981.875 169.219C985.792 166.052 990.542 163.594 996.125 161.844C1001.79 160.094 1008.12 159.219 1015.12 159.219C1018.62 159.219 1022 159.469 1025.25 159.969C1028.58 160.469 1031.58 161.094 1034.25 161.844C1036.92 162.594 1039.17 163.427 1041 164.344C1042.83 165.177 1044.12 165.927 1044.88 166.594C1045.71 167.177 1046.29 167.802 1046.62 168.469C1046.96 169.052 1047.21 169.802 1047.38 170.719C1047.54 171.552 1047.67 172.635 1047.75 173.969C1047.92 175.219 1048 176.802 1048 178.719C1048 180.969 1047.92 182.802 1047.75 184.219C1047.67 185.635 1047.46 186.76 1047.12 187.594C1046.88 188.427 1046.5 189.01 1046 189.344C1045.5 189.594 1044.92 189.719 1044.25 189.719C1043.5 189.719 1042.33 189.302 1040.75 188.469C1039.17 187.552 1037.17 186.594 1034.75 185.594C1032.42 184.594 1029.67 183.677 1026.5 182.844C1023.42 181.927 1019.88 181.469 1015.88 181.469C1013.04 181.469 1010.58 181.76 1008.5 182.344C1006.42 182.927 1004.71 183.76 1003.38 184.844C1002.04 185.927 1001.04 187.219 1000.38 188.719C999.708 190.135 999.375 191.677 999.375 193.344C999.375 195.927 1000.17 198.094 1001.75 199.844C1003.33 201.594 1005.42 203.135 1008 204.469C1010.58 205.802 1013.5 207.052 1016.75 208.219C1020.08 209.385 1023.42 210.677 1026.75 212.094C1030.17 213.427 1033.5 215.01 1036.75 216.844C1040.08 218.677 1043.04 220.927 1045.62 223.594C1048.21 226.26 1050.29 229.469 1051.88 233.219C1053.46 236.885 1054.25 241.26 1054.25 246.344Z" fill="#EA580C"/>
<path d="M1181 218.844C1181 222.677 1180.12 225.51 1178.38 227.344C1176.71 229.177 1174.38 230.094 1171.38 230.094H1103.5C1103.5 234.844 1104.04 239.177 1105.12 243.094C1106.29 246.927 1108.08 250.219 1110.5 252.969C1113 255.635 1116.17 257.677 1120 259.094C1123.92 260.51 1128.58 261.219 1134 261.219C1139.5 261.219 1144.33 260.844 1148.5 260.094C1152.67 259.26 1156.25 258.385 1159.25 257.469C1162.33 256.469 1164.88 255.594 1166.88 254.844C1168.88 254.01 1170.5 253.594 1171.75 253.594C1172.5 253.594 1173.12 253.76 1173.62 254.094C1174.12 254.344 1174.54 254.844 1174.88 255.594C1175.21 256.344 1175.42 257.427 1175.5 258.844C1175.67 260.177 1175.75 261.885 1175.75 263.969C1175.75 265.802 1175.71 267.385 1175.62 268.719C1175.54 269.969 1175.42 271.052 1175.25 271.969C1175.08 272.885 1174.83 273.677 1174.5 274.344C1174.17 274.927 1173.71 275.51 1173.12 276.094C1172.62 276.677 1171.17 277.469 1168.75 278.469C1166.33 279.469 1163.25 280.469 1159.5 281.469C1155.75 282.385 1151.46 283.177 1146.62 283.844C1141.79 284.594 1136.62 284.969 1131.12 284.969C1121.21 284.969 1112.5 283.719 1105 281.219C1097.58 278.719 1091.38 274.927 1086.38 269.844C1081.38 264.76 1077.62 258.344 1075.12 250.594C1072.71 242.844 1071.5 233.76 1071.5 223.344C1071.5 213.427 1072.79 204.51 1075.38 196.594C1077.96 188.594 1081.71 181.844 1086.62 176.344C1091.54 170.76 1097.5 166.51 1104.5 163.594C1111.58 160.677 1119.54 159.219 1128.38 159.219C1137.71 159.219 1145.67 160.594 1152.25 163.344C1158.92 166.094 1164.38 169.927 1168.62 174.844C1172.88 179.677 1176 185.427 1178 192.094C1180 198.76 1181 206.01 1181 213.844V218.844ZM1150.5 209.844C1150.75 201.01 1148.96 194.094 1145.12 189.094C1141.38 184.01 1135.54 181.469 1127.62 181.469C1123.62 181.469 1120.12 182.219 1117.12 183.719C1114.21 185.219 1111.75 187.26 1109.75 189.844C1107.83 192.344 1106.33 195.344 1105.25 198.844C1104.25 202.26 1103.67 205.927 1103.5 209.844H1150.5Z" fill="#EA580C"/>
<path d="M1378.75 257.594C1378.75 259.677 1378.67 261.469 1378.5 262.969C1378.42 264.385 1378.25 265.635 1378 266.719C1377.75 267.719 1377.42 268.594 1377 269.344C1376.58 270.094 1375.92 270.969 1375 271.969C1374.08 272.885 1372.29 274.094 1369.62 275.594C1367.04 277.094 1363.83 278.552 1360 279.969C1356.25 281.302 1351.92 282.427 1347 283.344C1342.17 284.26 1336.92 284.719 1331.25 284.719C1320.17 284.719 1310.17 283.01 1301.25 279.594C1292.33 276.177 1284.75 271.094 1278.5 264.344C1272.25 257.51 1267.46 249.01 1264.12 238.844C1260.79 228.677 1259.12 216.844 1259.12 203.344C1259.12 189.594 1260.96 177.385 1264.62 166.719C1268.29 156.052 1273.42 147.094 1280 139.844C1286.58 132.594 1294.46 127.094 1303.62 123.344C1312.88 119.594 1323.04 117.719 1334.12 117.719C1338.62 117.719 1342.96 118.094 1347.12 118.844C1351.29 119.594 1355.12 120.594 1358.62 121.844C1362.21 123.01 1365.42 124.385 1368.25 125.969C1371.08 127.552 1373.04 128.927 1374.12 130.094C1375.29 131.177 1376.08 132.094 1376.5 132.844C1376.92 133.594 1377.25 134.552 1377.5 135.719C1377.75 136.885 1377.92 138.26 1378 139.844C1378.17 141.427 1378.25 143.385 1378.25 145.719C1378.25 148.219 1378.17 150.344 1378 152.094C1377.83 153.844 1377.54 155.26 1377.12 156.344C1376.71 157.427 1376.21 158.219 1375.62 158.719C1375.04 159.219 1374.38 159.469 1373.62 159.469C1372.38 159.469 1370.79 158.76 1368.88 157.344C1366.96 155.844 1364.46 154.219 1361.38 152.469C1358.38 150.635 1354.75 149.01 1350.5 147.594C1346.33 146.094 1341.33 145.344 1335.5 145.344C1329.08 145.344 1323.33 146.677 1318.25 149.344C1313.25 151.927 1308.96 155.677 1305.38 160.594C1301.88 165.427 1299.21 171.302 1297.38 178.219C1295.54 185.135 1294.62 192.927 1294.62 201.594C1294.62 211.094 1295.58 219.344 1297.5 226.344C1299.5 233.26 1302.29 238.969 1305.88 243.469C1309.54 247.969 1313.92 251.344 1319 253.594C1324.17 255.76 1329.96 256.844 1336.38 256.844C1342.21 256.844 1347.25 256.177 1351.5 254.844C1355.75 253.427 1359.38 251.885 1362.38 250.219C1365.46 248.552 1367.96 247.052 1369.88 245.719C1371.88 244.385 1373.42 243.719 1374.5 243.719C1375.33 243.719 1376 243.885 1376.5 244.219C1377 244.552 1377.42 245.219 1377.75 246.219C1378.08 247.219 1378.33 248.635 1378.5 250.469C1378.67 252.219 1378.75 254.594 1378.75 257.594Z" fill="white"/>
<path d="M1513.25 220.969C1513.25 230.469 1512 239.135 1509.5 246.969C1507 254.802 1503.21 261.552 1498.12 267.219C1493.04 272.885 1486.67 277.26 1479 280.344C1471.33 283.427 1462.38 284.969 1452.12 284.969C1442.21 284.969 1433.58 283.594 1426.25 280.844C1418.92 278.094 1412.83 274.094 1408 268.844C1403.17 263.594 1399.58 257.135 1397.25 249.469C1394.92 241.802 1393.75 233.052 1393.75 223.219C1393.75 213.719 1395 205.052 1397.5 197.219C1400.08 189.302 1403.92 182.552 1409 176.969C1414.08 171.302 1420.42 166.927 1428 163.844C1435.67 160.76 1444.62 159.219 1454.88 159.219C1464.88 159.219 1473.54 160.594 1480.88 163.344C1488.21 166.01 1494.25 169.969 1499 175.219C1503.83 180.469 1507.42 186.927 1509.75 194.594C1512.08 202.26 1513.25 211.052 1513.25 220.969ZM1480.88 222.219C1480.88 216.719 1480.42 211.677 1479.5 207.094C1478.67 202.427 1477.21 198.385 1475.12 194.969C1473.04 191.552 1470.25 188.885 1466.75 186.969C1463.33 185.052 1459 184.094 1453.75 184.094C1449.08 184.094 1445 184.969 1441.5 186.719C1438 188.385 1435.12 190.885 1432.88 194.219C1430.62 197.469 1428.92 201.427 1427.75 206.094C1426.67 210.677 1426.12 215.927 1426.12 221.844C1426.12 227.344 1426.58 232.427 1427.5 237.094C1428.42 241.677 1429.88 245.677 1431.88 249.094C1433.96 252.51 1436.75 255.177 1440.25 257.094C1443.75 258.927 1448.08 259.844 1453.25 259.844C1458 259.844 1462.12 259.01 1465.62 257.344C1469.12 255.594 1472 253.094 1474.25 249.844C1476.5 246.594 1478.17 242.677 1479.25 238.094C1480.33 233.427 1480.88 228.135 1480.88 222.219Z" fill="white"/>
<path d="M1644.75 277.844C1644.75 278.677 1644.5 279.427 1644 280.094C1643.5 280.677 1642.67 281.177 1641.5 281.594C1640.33 282.01 1638.71 282.302 1636.62 282.469C1634.62 282.719 1632.12 282.844 1629.12 282.844C1626.04 282.844 1623.46 282.719 1621.38 282.469C1619.38 282.302 1617.79 282.01 1616.62 281.594C1615.46 281.177 1614.62 280.677 1614.12 280.094C1613.62 279.427 1613.38 278.677 1613.38 277.844V214.219C1613.38 208.802 1612.96 204.552 1612.12 201.469C1611.38 198.385 1610.25 195.76 1608.75 193.594C1607.25 191.344 1605.29 189.635 1602.88 188.469C1600.54 187.219 1597.79 186.594 1594.62 186.594C1590.62 186.594 1586.58 188.052 1582.5 190.969C1578.42 193.885 1574.17 198.135 1569.75 203.719V277.844C1569.75 278.677 1569.5 279.427 1569 280.094C1568.5 280.677 1567.62 281.177 1566.38 281.594C1565.21 282.01 1563.62 282.302 1561.62 282.469C1559.62 282.719 1557.08 282.844 1554 282.844C1550.92 282.844 1548.38 282.719 1546.38 282.469C1544.38 282.302 1542.75 282.01 1541.5 281.594C1540.33 281.177 1539.5 280.677 1539 280.094C1538.5 279.427 1538.25 278.677 1538.25 277.844V166.344C1538.25 165.51 1538.46 164.802 1538.88 164.219C1539.29 163.552 1540.04 163.01 1541.12 162.594C1542.21 162.177 1543.58 161.885 1545.25 161.719C1547 161.469 1549.17 161.344 1551.75 161.344C1554.42 161.344 1556.62 161.469 1558.38 161.719C1560.12 161.885 1561.46 162.177 1562.38 162.594C1563.38 163.01 1564.08 163.552 1564.5 164.219C1564.92 164.802 1565.12 165.51 1565.12 166.344V179.219C1571.29 172.552 1577.54 167.552 1583.88 164.219C1590.29 160.885 1596.96 159.219 1603.88 159.219C1611.46 159.219 1617.83 160.469 1623 162.969C1628.25 165.469 1632.46 168.885 1635.62 173.219C1638.88 177.469 1641.21 182.469 1642.62 188.219C1644.04 193.969 1644.75 200.885 1644.75 208.969V277.844Z" fill="white"/>
<path d="M1782.25 277.844C1782.25 278.677 1782 279.427 1781.5 280.094C1781 280.677 1780.17 281.177 1779 281.594C1777.83 282.01 1776.21 282.302 1774.12 282.469C1772.12 282.719 1769.62 282.844 1766.62 282.844C1763.54 282.844 1760.96 282.719 1758.88 282.469C1756.88 282.302 1755.29 282.01 1754.12 281.594C1752.96 281.177 1752.12 280.677 1751.62 280.094C1751.12 279.427 1750.88 278.677 1750.88 277.844V214.219C1750.88 208.802 1750.46 204.552 1749.62 201.469C1748.88 198.385 1747.75 195.76 1746.25 193.594C1744.75 191.344 1742.79 189.635 1740.38 188.469C1738.04 187.219 1735.29 186.594 1732.12 186.594C1728.12 186.594 1724.08 188.052 1720 190.969C1715.92 193.885 1711.67 198.135 1707.25 203.719V277.844C1707.25 278.677 1707 279.427 1706.5 280.094C1706 280.677 1705.12 281.177 1703.88 281.594C1702.71 282.01 1701.12 282.302 1699.12 282.469C1697.12 282.719 1694.58 282.844 1691.5 282.844C1688.42 282.844 1685.88 282.719 1683.88 282.469C1681.88 282.302 1680.25 282.01 1679 281.594C1677.83 281.177 1677 280.677 1676.5 280.094C1676 279.427 1675.75 278.677 1675.75 277.844V166.344C1675.75 165.51 1675.96 164.802 1676.38 164.219C1676.79 163.552 1677.54 163.01 1678.62 162.594C1679.71 162.177 1681.08 161.885 1682.75 161.719C1684.5 161.469 1686.67 161.344 1689.25 161.344C1691.92 161.344 1694.12 161.469 1695.88 161.719C1697.62 161.885 1698.96 162.177 1699.88 162.594C1700.88 163.01 1701.58 163.552 1702 164.219C1702.42 164.802 1702.62 165.51 1702.62 166.344V179.219C1708.79 172.552 1715.04 167.552 1721.38 164.219C1727.79 160.885 1734.46 159.219 1741.38 159.219C1748.96 159.219 1755.33 160.469 1760.5 162.969C1765.75 165.469 1769.96 168.885 1773.12 173.219C1776.38 177.469 1778.71 182.469 1780.12 188.219C1781.54 193.969 1782.25 200.885 1782.25 208.969V277.844Z" fill="white"/>
<path d="M1916.25 218.844C1916.25 222.677 1915.38 225.51 1913.62 227.344C1911.96 229.177 1909.62 230.094 1906.62 230.094H1838.75C1838.75 234.844 1839.29 239.177 1840.38 243.094C1841.54 246.927 1843.33 250.219 1845.75 252.969C1848.25 255.635 1851.42 257.677 1855.25 259.094C1859.17 260.51 1863.83 261.219 1869.25 261.219C1874.75 261.219 1879.58 260.844 1883.75 260.094C1887.92 259.26 1891.5 258.385 1894.5 257.469C1897.58 256.469 1900.12 255.594 1902.12 254.844C1904.12 254.01 1905.75 253.594 1907 253.594C1907.75 253.594 1908.38 253.76 1908.88 254.094C1909.38 254.344 1909.79 254.844 1910.12 255.594C1910.46 256.344 1910.67 257.427 1910.75 258.844C1910.92 260.177 1911 261.885 1911 263.969C1911 265.802 1910.96 267.385 1910.88 268.719C1910.79 269.969 1910.67 271.052 1910.5 271.969C1910.33 272.885 1910.08 273.677 1909.75 274.344C1909.42 274.927 1908.96 275.51 1908.38 276.094C1907.88 276.677 1906.42 277.469 1904 278.469C1901.58 279.469 1898.5 280.469 1894.75 281.469C1891 282.385 1886.71 283.177 1881.88 283.844C1877.04 284.594 1871.88 284.969 1866.38 284.969C1856.46 284.969 1847.75 283.719 1840.25 281.219C1832.83 278.719 1826.62 274.927 1821.62 269.844C1816.62 264.76 1812.88 258.344 1810.38 250.594C1807.96 242.844 1806.75 233.76 1806.75 223.344C1806.75 213.427 1808.04 204.51 1810.62 196.594C1813.21 188.594 1816.96 181.844 1821.88 176.344C1826.79 170.76 1832.75 166.51 1839.75 163.594C1846.83 160.677 1854.79 159.219 1863.62 159.219C1872.96 159.219 1880.92 160.594 1887.5 163.344C1894.17 166.094 1899.62 169.927 1903.88 174.844C1908.12 179.677 1911.25 185.427 1913.25 192.094C1915.25 198.76 1916.25 206.01 1916.25 213.844V218.844ZM1885.75 209.844C1886 201.01 1884.21 194.094 1880.38 189.094C1876.62 184.01 1870.79 181.469 1862.88 181.469C1858.88 181.469 1855.38 182.219 1852.38 183.719C1849.46 185.219 1847 187.26 1845 189.844C1843.08 192.344 1841.58 195.344 1840.5 198.844C1839.5 202.26 1838.92 205.927 1838.75 209.844H1885.75Z" fill="white"/>
<path d="M2026.62 260.094C2026.62 262.26 2026.54 264.094 2026.38 265.594C2026.29 267.01 2026.12 268.219 2025.88 269.219C2025.71 270.219 2025.46 271.052 2025.12 271.719C2024.88 272.302 2024.25 273.094 2023.25 274.094C2022.25 275.01 2020.54 276.177 2018.12 277.594C2015.71 278.927 2012.96 280.135 2009.88 281.219C2006.79 282.302 2003.42 283.177 1999.75 283.844C1996.17 284.51 1992.46 284.844 1988.62 284.844C1980.04 284.844 1972.42 283.51 1965.75 280.844C1959.17 278.177 1953.62 274.26 1949.12 269.094C1944.62 263.844 1941.21 257.469 1938.88 249.969C1936.62 242.469 1935.5 233.885 1935.5 224.219C1935.5 213.052 1936.88 203.427 1939.62 195.344C1942.46 187.177 1946.38 180.427 1951.38 175.094C1956.38 169.76 1962.29 165.802 1969.12 163.219C1975.96 160.635 1983.46 159.344 1991.62 159.344C1994.96 159.344 1998.21 159.635 2001.38 160.219C2004.62 160.802 2007.62 161.594 2010.38 162.594C2013.21 163.594 2015.71 164.719 2017.88 165.969C2020.12 167.219 2021.71 168.302 2022.62 169.219C2023.54 170.135 2024.17 170.927 2024.5 171.594C2024.92 172.177 2025.21 172.969 2025.38 173.969C2025.62 174.969 2025.79 176.219 2025.88 177.719C2026.04 179.135 2026.12 180.885 2026.12 182.969C2026.12 187.802 2025.71 191.219 2024.88 193.219C2024.04 195.135 2022.96 196.094 2021.62 196.094C2020.21 196.094 2018.71 195.51 2017.12 194.344C2015.54 193.177 2013.67 191.885 2011.5 190.469C2009.33 189.052 2006.75 187.76 2003.75 186.594C2000.75 185.427 1997.17 184.844 1993 184.844C1984.83 184.844 1978.58 188.01 1974.25 194.344C1969.92 200.594 1967.75 209.802 1967.75 221.969C1967.75 227.969 1968.29 233.26 1969.38 237.844C1970.46 242.427 1972.04 246.26 1974.12 249.344C1976.29 252.427 1978.96 254.76 1982.12 256.344C1985.38 257.844 1989.12 258.594 1993.38 258.594C1997.71 258.594 2001.42 257.969 2004.5 256.719C2007.67 255.385 2010.42 253.927 2012.75 252.344C2015.08 250.76 2017.04 249.344 2018.62 248.094C2020.21 246.76 2021.54 246.094 2022.62 246.094C2023.38 246.094 2024 246.302 2024.5 246.719C2025 247.135 2025.38 247.927 2025.62 249.094C2025.96 250.177 2026.21 251.594 2026.38 253.344C2026.54 255.094 2026.62 257.344 2026.62 260.094Z" fill="white"/>
<path d="M2115.5 266.844C2115.5 270.51 2115.25 273.344 2114.75 275.344C2114.33 277.26 2113.75 278.635 2113 279.469C2112.25 280.219 2111.12 280.927 2109.62 281.594C2108.21 282.177 2106.5 282.677 2104.5 283.094C2102.58 283.594 2100.46 283.969 2098.12 284.219C2095.88 284.469 2093.58 284.594 2091.25 284.594C2085 284.594 2079.58 283.802 2075 282.219C2070.42 280.635 2066.62 278.219 2063.62 274.969C2060.62 271.635 2058.42 267.469 2057 262.469C2055.58 257.469 2054.88 251.552 2054.88 244.719V187.594H2041.5C2039.92 187.594 2038.71 186.635 2037.88 184.719C2037.04 182.719 2036.62 179.427 2036.62 174.844C2036.62 172.427 2036.71 170.385 2036.88 168.719C2037.12 167.052 2037.46 165.76 2037.88 164.844C2038.29 163.844 2038.79 163.135 2039.38 162.719C2040.04 162.302 2040.79 162.094 2041.62 162.094H2054.88V137.219C2054.88 136.385 2055.08 135.635 2055.5 134.969C2056 134.302 2056.83 133.76 2058 133.344C2059.25 132.844 2060.88 132.51 2062.88 132.344C2064.96 132.094 2067.5 131.969 2070.5 131.969C2073.58 131.969 2076.12 132.094 2078.12 132.344C2080.21 132.51 2081.83 132.844 2083 133.344C2084.17 133.76 2085 134.302 2085.5 134.969C2086 135.635 2086.25 136.385 2086.25 137.219V162.094H2110.5C2111.33 162.094 2112.04 162.302 2112.62 162.719C2113.29 163.135 2113.83 163.844 2114.25 164.844C2114.67 165.76 2114.96 167.052 2115.12 168.719C2115.38 170.385 2115.5 172.427 2115.5 174.844C2115.5 179.427 2115.08 182.719 2114.25 184.719C2113.42 186.635 2112.21 187.594 2110.62 187.594H2086.25V239.969C2086.25 246.052 2087.21 250.635 2089.12 253.719C2091.04 256.719 2094.46 258.219 2099.38 258.219C2101.04 258.219 2102.54 258.094 2103.88 257.844C2105.21 257.51 2106.38 257.177 2107.38 256.844C2108.46 256.427 2109.33 256.094 2110 255.844C2110.75 255.51 2111.42 255.344 2112 255.344C2112.5 255.344 2112.96 255.51 2113.38 255.844C2113.88 256.094 2114.25 256.677 2114.5 257.594C2114.75 258.427 2114.96 259.594 2115.12 261.094C2115.38 262.594 2115.5 264.51 2115.5 266.844Z" fill="white"/>
<path d="M670.219 386.781C670.219 387.115 670.208 387.406 670.188 387.656C670.167 387.906 670.125 388.125 670.062 388.312C670.021 388.5 669.958 388.667 669.875 388.812C669.792 388.958 669.646 389.135 669.438 389.344C669.229 389.552 668.792 389.875 668.125 390.312C667.458 390.729 666.625 391.146 665.625 391.562C664.646 391.958 663.51 392.292 662.219 392.562C660.948 392.854 659.552 393 658.031 393C655.406 393 653.031 392.562 650.906 391.688C648.802 390.812 647 389.521 645.5 387.812C644.021 386.104 642.875 384 642.062 381.5C641.271 378.979 640.875 376.083 640.875 372.812C640.875 369.458 641.302 366.469 642.156 363.844C643.031 361.219 644.25 359 645.812 357.188C647.375 355.354 649.24 353.958 651.406 353C653.594 352.042 656.01 351.562 658.656 351.562C659.823 351.562 660.958 351.677 662.062 351.906C663.167 352.115 664.188 352.385 665.125 352.719C666.062 353.052 666.896 353.438 667.625 353.875C668.354 354.312 668.854 354.677 669.125 354.969C669.417 355.24 669.604 355.448 669.688 355.594C669.771 355.74 669.833 355.917 669.875 356.125C669.938 356.312 669.979 356.542 670 356.812C670.042 357.083 670.062 357.406 670.062 357.781C670.062 358.198 670.042 358.552 670 358.844C669.958 359.135 669.896 359.385 669.812 359.594C669.729 359.781 669.625 359.927 669.5 360.031C669.396 360.115 669.26 360.156 669.094 360.156C668.802 360.156 668.396 359.958 667.875 359.562C667.354 359.146 666.677 358.698 665.844 358.219C665.031 357.719 664.031 357.271 662.844 356.875C661.677 356.458 660.271 356.25 658.625 356.25C656.833 356.25 655.198 356.615 653.719 357.344C652.26 358.052 651.01 359.104 649.969 360.5C648.927 361.896 648.115 363.604 647.531 365.625C646.969 367.625 646.688 369.917 646.688 372.5C646.688 375.062 646.958 377.333 647.5 379.312C648.062 381.271 648.854 382.917 649.875 384.25C650.917 385.562 652.188 386.562 653.688 387.25C655.188 387.917 656.885 388.25 658.781 388.25C660.385 388.25 661.781 388.052 662.969 387.656C664.177 387.26 665.198 386.823 666.031 386.344C666.885 385.844 667.583 385.396 668.125 385C668.667 384.604 669.094 384.406 669.406 384.406C669.552 384.406 669.677 384.438 669.781 384.5C669.885 384.562 669.969 384.688 670.031 384.875C670.094 385.042 670.135 385.281 670.156 385.594C670.198 385.906 670.219 386.302 670.219 386.781Z" fill="#EA580C"/>
<path d="M702.906 377.344C702.906 379.635 702.604 381.75 702 383.688C701.396 385.604 700.49 387.26 699.281 388.656C698.094 390.052 696.594 391.146 694.781 391.938C692.99 392.708 690.906 393.094 688.531 393.094C686.219 393.094 684.198 392.75 682.469 392.062C680.76 391.375 679.333 390.375 678.188 389.062C677.042 387.75 676.188 386.156 675.625 384.281C675.062 382.406 674.781 380.281 674.781 377.906C674.781 375.615 675.073 373.51 675.656 371.594C676.26 369.656 677.156 367.99 678.344 366.594C679.552 365.198 681.052 364.115 682.844 363.344C684.635 362.573 686.729 362.188 689.125 362.188C691.438 362.188 693.448 362.531 695.156 363.219C696.885 363.906 698.323 364.906 699.469 366.219C700.615 367.531 701.469 369.125 702.031 371C702.615 372.875 702.906 374.99 702.906 377.344ZM697.469 377.688C697.469 376.167 697.323 374.729 697.031 373.375C696.76 372.021 696.302 370.833 695.656 369.812C695.01 368.792 694.135 367.99 693.031 367.406C691.927 366.802 690.552 366.5 688.906 366.5C687.385 366.5 686.073 366.771 684.969 367.312C683.885 367.854 682.99 368.625 682.281 369.625C681.573 370.604 681.042 371.771 680.688 373.125C680.354 374.479 680.188 375.958 680.188 377.562C680.188 379.104 680.323 380.552 680.594 381.906C680.885 383.26 681.354 384.448 682 385.469C682.667 386.469 683.552 387.271 684.656 387.875C685.76 388.458 687.135 388.75 688.781 388.75C690.281 388.75 691.583 388.479 692.688 387.938C693.792 387.396 694.698 386.635 695.406 385.656C696.115 384.677 696.635 383.51 696.969 382.156C697.302 380.802 697.469 379.312 697.469 377.688Z" fill="#EA580C"/>
<path d="M734.719 391.719C734.719 391.885 734.677 392.031 734.594 392.156C734.51 392.26 734.375 392.354 734.188 392.438C734 392.521 733.74 392.583 733.406 392.625C733.073 392.667 732.656 392.688 732.156 392.688C731.635 392.688 731.208 392.667 730.875 392.625C730.542 392.583 730.281 392.521 730.094 392.438C729.906 392.354 729.771 392.26 729.688 392.156C729.604 392.031 729.562 391.885 729.562 391.719V375.25C729.562 373.646 729.438 372.354 729.188 371.375C728.938 370.396 728.573 369.552 728.094 368.844C727.615 368.135 726.99 367.594 726.219 367.219C725.469 366.844 724.594 366.656 723.594 366.656C722.302 366.656 721.01 367.115 719.719 368.031C718.427 368.948 717.073 370.292 715.656 372.062V391.719C715.656 391.885 715.615 392.031 715.531 392.156C715.448 392.26 715.312 392.354 715.125 392.438C714.938 392.521 714.677 392.583 714.344 392.625C714.01 392.667 713.583 392.688 713.062 392.688C712.562 392.688 712.146 392.667 711.812 392.625C711.479 392.583 711.208 392.521 711 392.438C710.812 392.354 710.677 392.26 710.594 392.156C710.531 392.031 710.5 391.885 710.5 391.719V363.594C710.5 363.427 710.531 363.292 710.594 363.188C710.656 363.062 710.781 362.958 710.969 362.875C711.156 362.771 711.396 362.708 711.688 362.688C711.979 362.646 712.365 362.625 712.844 362.625C713.302 362.625 713.677 362.646 713.969 362.688C714.281 362.708 714.521 362.771 714.688 362.875C714.854 362.958 714.969 363.062 715.031 363.188C715.115 363.292 715.156 363.427 715.156 363.594V367.312C716.74 365.542 718.312 364.25 719.875 363.438C721.458 362.604 723.052 362.188 724.656 362.188C726.531 362.188 728.104 362.51 729.375 363.156C730.667 363.781 731.708 364.625 732.5 365.688C733.292 366.75 733.854 368 734.188 369.438C734.542 370.854 734.719 372.562 734.719 374.562V391.719Z" fill="#EA580C"/>
<path d="M768.344 391.719C768.344 391.885 768.302 392.031 768.219 392.156C768.135 392.26 768 392.354 767.812 392.438C767.625 392.521 767.365 392.583 767.031 392.625C766.698 392.667 766.281 392.688 765.781 392.688C765.26 392.688 764.833 392.667 764.5 392.625C764.167 392.583 763.906 392.521 763.719 392.438C763.531 392.354 763.396 392.26 763.312 392.156C763.229 392.031 763.188 391.885 763.188 391.719V375.25C763.188 373.646 763.062 372.354 762.812 371.375C762.562 370.396 762.198 369.552 761.719 368.844C761.24 368.135 760.615 367.594 759.844 367.219C759.094 366.844 758.219 366.656 757.219 366.656C755.927 366.656 754.635 367.115 753.344 368.031C752.052 368.948 750.698 370.292 749.281 372.062V391.719C749.281 391.885 749.24 392.031 749.156 392.156C749.073 392.26 748.938 392.354 748.75 392.438C748.562 392.521 748.302 392.583 747.969 392.625C747.635 392.667 747.208 392.688 746.688 392.688C746.188 392.688 745.771 392.667 745.438 392.625C745.104 392.583 744.833 392.521 744.625 392.438C744.438 392.354 744.302 392.26 744.219 392.156C744.156 392.031 744.125 391.885 744.125 391.719V363.594C744.125 363.427 744.156 363.292 744.219 363.188C744.281 363.062 744.406 362.958 744.594 362.875C744.781 362.771 745.021 362.708 745.312 362.688C745.604 362.646 745.99 362.625 746.469 362.625C746.927 362.625 747.302 362.646 747.594 362.688C747.906 362.708 748.146 362.771 748.312 362.875C748.479 362.958 748.594 363.062 748.656 363.188C748.74 363.292 748.781 363.427 748.781 363.594V367.312C750.365 365.542 751.938 364.25 753.5 363.438C755.083 362.604 756.677 362.188 758.281 362.188C760.156 362.188 761.729 362.51 763 363.156C764.292 363.781 765.333 364.625 766.125 365.688C766.917 366.75 767.479 368 767.812 369.438C768.167 370.854 768.344 372.562 768.344 374.562V391.719Z" fill="#EA580C"/>
<path d="M801.75 376.438C801.75 377.25 801.542 377.833 801.125 378.188C800.729 378.521 800.271 378.688 799.75 378.688H781.312C781.312 380.25 781.469 381.656 781.781 382.906C782.094 384.156 782.615 385.229 783.344 386.125C784.073 387.021 785.021 387.708 786.188 388.188C787.354 388.667 788.781 388.906 790.469 388.906C791.802 388.906 792.99 388.802 794.031 388.594C795.073 388.365 795.969 388.115 796.719 387.844C797.49 387.573 798.115 387.333 798.594 387.125C799.094 386.896 799.469 386.781 799.719 386.781C799.865 386.781 799.99 386.823 800.094 386.906C800.219 386.969 800.312 387.073 800.375 387.219C800.438 387.365 800.479 387.573 800.5 387.844C800.542 388.094 800.562 388.406 800.562 388.781C800.562 389.052 800.552 389.292 800.531 389.5C800.51 389.688 800.479 389.865 800.438 390.031C800.417 390.177 800.365 390.312 800.281 390.438C800.219 390.562 800.125 390.688 800 390.812C799.896 390.917 799.562 391.104 799 391.375C798.438 391.625 797.708 391.875 796.812 392.125C795.917 392.375 794.875 392.594 793.688 392.781C792.521 392.99 791.271 393.094 789.938 393.094C787.625 393.094 785.594 392.771 783.844 392.125C782.115 391.479 780.656 390.521 779.469 389.25C778.281 387.979 777.385 386.385 776.781 384.469C776.177 382.552 775.875 380.323 775.875 377.781C775.875 375.365 776.188 373.198 776.812 371.281C777.438 369.344 778.333 367.708 779.5 366.375C780.688 365.021 782.115 363.99 783.781 363.281C785.448 362.552 787.312 362.188 789.375 362.188C791.583 362.188 793.458 362.542 795 363.25C796.562 363.958 797.844 364.917 798.844 366.125C799.844 367.312 800.573 368.719 801.031 370.344C801.51 371.948 801.75 373.667 801.75 375.5V376.438ZM796.562 374.906C796.625 372.198 796.021 370.073 794.75 368.531C793.5 366.99 791.635 366.219 789.156 366.219C787.885 366.219 786.771 366.458 785.812 366.938C784.854 367.417 784.052 368.052 783.406 368.844C782.76 369.635 782.26 370.562 781.906 371.625C781.552 372.667 781.354 373.76 781.312 374.906H796.562Z" fill="#EA580C"/>
<path d="M829.844 387.438C829.844 387.792 829.833 388.104 829.812 388.375C829.792 388.625 829.75 388.844 829.688 389.031C829.646 389.198 829.583 389.354 829.5 389.5C829.438 389.625 829.271 389.823 829 390.094C828.75 390.344 828.312 390.667 827.688 391.062C827.062 391.438 826.354 391.781 825.562 392.094C824.792 392.385 823.948 392.625 823.031 392.812C822.115 393 821.167 393.094 820.188 393.094C818.167 393.094 816.375 392.76 814.812 392.094C813.25 391.427 811.938 390.458 810.875 389.188C809.833 387.896 809.031 386.323 808.469 384.469C807.927 382.594 807.656 380.438 807.656 378C807.656 375.229 807.99 372.854 808.656 370.875C809.344 368.875 810.271 367.24 811.438 365.969C812.625 364.698 814.01 363.76 815.594 363.156C817.198 362.531 818.927 362.219 820.781 362.219C821.677 362.219 822.542 362.302 823.375 362.469C824.229 362.635 825.01 362.854 825.719 363.125C826.427 363.396 827.052 363.708 827.594 364.062C828.156 364.417 828.562 364.719 828.812 364.969C829.062 365.219 829.229 365.417 829.312 365.562C829.417 365.708 829.5 365.885 829.562 366.094C829.625 366.281 829.667 366.5 829.688 366.75C829.708 367 829.719 367.312 829.719 367.688C829.719 368.5 829.625 369.073 829.438 369.406C829.25 369.719 829.021 369.875 828.75 369.875C828.438 369.875 828.073 369.708 827.656 369.375C827.26 369.021 826.75 368.635 826.125 368.219C825.5 367.802 824.74 367.427 823.844 367.094C822.969 366.74 821.927 366.562 820.719 366.562C818.24 366.562 816.333 367.521 815 369.438C813.688 371.333 813.031 374.094 813.031 377.719C813.031 379.531 813.198 381.125 813.531 382.5C813.885 383.854 814.396 384.99 815.062 385.906C815.729 386.823 816.542 387.51 817.5 387.969C818.479 388.406 819.594 388.625 820.844 388.625C822.031 388.625 823.073 388.438 823.969 388.062C824.865 387.688 825.635 387.281 826.281 386.844C826.948 386.385 827.5 385.979 827.938 385.625C828.396 385.25 828.75 385.062 829 385.062C829.146 385.062 829.271 385.104 829.375 385.188C829.479 385.271 829.562 385.417 829.625 385.625C829.708 385.812 829.76 386.062 829.781 386.375C829.823 386.667 829.844 387.021 829.844 387.438Z" fill="#EA580C"/>
<path d="M861.156 362.781C861.781 362.781 862.208 362.927 862.438 363.219C862.667 363.49 862.781 363.896 862.781 364.438V391.719C862.781 391.885 862.74 392.031 862.656 392.156C862.573 392.26 862.427 392.354 862.219 392.438C862.031 392.521 861.771 392.583 861.438 392.625C861.104 392.667 860.698 392.688 860.219 392.688C859.698 392.688 859.271 392.667 858.938 392.625C858.604 392.583 858.333 392.521 858.125 392.438C857.938 392.354 857.802 392.26 857.719 392.156C857.635 392.031 857.594 391.885 857.594 391.719V367.062H843.062V382.75C843.062 384.688 843.344 386.156 843.906 387.156C844.49 388.135 845.521 388.625 847 388.625C847.479 388.625 847.906 388.583 848.281 388.5C848.656 388.396 848.99 388.292 849.281 388.188C849.573 388.083 849.823 387.99 850.031 387.906C850.24 387.802 850.427 387.75 850.594 387.75C850.698 387.75 850.792 387.781 850.875 387.844C850.979 387.885 851.052 387.979 851.094 388.125C851.156 388.271 851.208 388.469 851.25 388.719C851.292 388.969 851.312 389.281 851.312 389.656C851.312 390.26 851.271 390.74 851.188 391.094C851.104 391.427 850.979 391.688 850.812 391.875C850.646 392.042 850.396 392.198 850.062 392.344C849.729 392.49 849.344 392.604 848.906 392.688C848.49 392.792 848.042 392.875 847.562 392.938C847.083 393 846.604 393.031 846.125 393.031C844.667 393.031 843.417 392.844 842.375 392.469C841.333 392.073 840.479 391.49 839.812 390.719C839.146 389.927 838.656 388.938 838.344 387.75C838.052 386.542 837.906 385.125 837.906 383.5V367.062H833.969C833.656 367.062 833.406 366.896 833.219 366.562C833.031 366.229 832.938 365.688 832.938 364.938C832.938 364.542 832.958 364.208 833 363.938C833.062 363.667 833.135 363.448 833.219 363.281C833.302 363.094 833.406 362.969 833.531 362.906C833.677 362.823 833.833 362.781 834 362.781H837.906V356.094C837.906 355.948 837.938 355.812 838 355.688C838.083 355.562 838.219 355.458 838.406 355.375C838.615 355.271 838.885 355.198 839.219 355.156C839.552 355.115 839.969 355.094 840.469 355.094C840.99 355.094 841.417 355.115 841.75 355.156C842.083 355.198 842.344 355.271 842.531 355.375C842.719 355.458 842.854 355.562 842.938 355.688C843.021 355.812 843.062 355.948 843.062 356.094V362.781H861.156ZM863.375 354.094C863.375 355.302 863.146 356.125 862.688 356.562C862.229 357 861.385 357.219 860.156 357.219C858.948 357.219 858.115 357.01 857.656 356.594C857.219 356.156 857 355.344 857 354.156C857 352.948 857.229 352.125 857.688 351.688C858.146 351.25 858.99 351.031 860.219 351.031C861.427 351.031 862.25 351.25 862.688 351.688C863.146 352.104 863.375 352.906 863.375 354.094Z" fill="#EA580C"/>
<path d="M896.594 391.719C896.594 391.885 896.552 392.031 896.469 392.156C896.385 392.26 896.25 392.354 896.062 392.438C895.875 392.521 895.615 392.583 895.281 392.625C894.948 392.667 894.531 392.688 894.031 392.688C893.51 392.688 893.083 392.667 892.75 392.625C892.417 392.583 892.156 392.521 891.969 392.438C891.781 392.354 891.646 392.26 891.562 392.156C891.479 392.031 891.438 391.885 891.438 391.719V375.25C891.438 373.646 891.312 372.354 891.062 371.375C890.812 370.396 890.448 369.552 889.969 368.844C889.49 368.135 888.865 367.594 888.094 367.219C887.344 366.844 886.469 366.656 885.469 366.656C884.177 366.656 882.885 367.115 881.594 368.031C880.302 368.948 878.948 370.292 877.531 372.062V391.719C877.531 391.885 877.49 392.031 877.406 392.156C877.323 392.26 877.188 392.354 877 392.438C876.812 392.521 876.552 392.583 876.219 392.625C875.885 392.667 875.458 392.688 874.938 392.688C874.438 392.688 874.021 392.667 873.688 392.625C873.354 392.583 873.083 392.521 872.875 392.438C872.688 392.354 872.552 392.26 872.469 392.156C872.406 392.031 872.375 391.885 872.375 391.719V363.594C872.375 363.427 872.406 363.292 872.469 363.188C872.531 363.062 872.656 362.958 872.844 362.875C873.031 362.771 873.271 362.708 873.562 362.688C873.854 362.646 874.24 362.625 874.719 362.625C875.177 362.625 875.552 362.646 875.844 362.688C876.156 362.708 876.396 362.771 876.562 362.875C876.729 362.958 876.844 363.062 876.906 363.188C876.99 363.292 877.031 363.427 877.031 363.594V367.312C878.615 365.542 880.188 364.25 881.75 363.438C883.333 362.604 884.927 362.188 886.531 362.188C888.406 362.188 889.979 362.51 891.25 363.156C892.542 363.781 893.583 364.625 894.375 365.688C895.167 366.75 895.729 368 896.062 369.438C896.417 370.854 896.594 372.562 896.594 374.562V391.719Z" fill="#EA580C"/>
<path d="M929.5 364.875C929.5 365.604 929.396 366.135 929.188 366.469C929 366.781 928.75 366.938 928.438 366.938H924.406C925.135 367.688 925.646 368.521 925.938 369.438C926.229 370.333 926.375 371.271 926.375 372.25C926.375 373.875 926.115 375.312 925.594 376.562C925.073 377.812 924.323 378.875 923.344 379.75C922.385 380.604 921.24 381.26 919.906 381.719C918.573 382.177 917.094 382.406 915.469 382.406C914.323 382.406 913.229 382.26 912.188 381.969C911.167 381.656 910.375 381.271 909.812 380.812C909.438 381.188 909.125 381.615 908.875 382.094C908.646 382.573 908.531 383.125 908.531 383.75C908.531 384.479 908.865 385.083 909.531 385.562C910.219 386.042 911.125 386.302 912.25 386.344L919.594 386.656C920.99 386.698 922.271 386.896 923.438 387.25C924.604 387.583 925.615 388.073 926.469 388.719C927.323 389.344 927.99 390.125 928.469 391.062C928.948 391.979 929.188 393.052 929.188 394.281C929.188 395.573 928.917 396.802 928.375 397.969C927.833 399.135 927 400.156 925.875 401.031C924.771 401.927 923.354 402.625 921.625 403.125C919.896 403.646 917.854 403.906 915.5 403.906C913.229 403.906 911.292 403.708 909.688 403.312C908.104 402.938 906.802 402.417 905.781 401.75C904.76 401.083 904.021 400.281 903.562 399.344C903.104 398.427 902.875 397.427 902.875 396.344C902.875 395.656 902.958 394.99 903.125 394.344C903.292 393.698 903.542 393.083 903.875 392.5C904.229 391.917 904.656 391.365 905.156 390.844C905.677 390.302 906.271 389.771 906.938 389.25C905.917 388.729 905.156 388.073 904.656 387.281C904.177 386.49 903.938 385.635 903.938 384.719C903.938 383.448 904.198 382.312 904.719 381.312C905.24 380.312 905.885 379.417 906.656 378.625C906.01 377.854 905.5 376.99 905.125 376.031C904.75 375.052 904.562 373.875 904.562 372.5C904.562 370.896 904.833 369.458 905.375 368.188C905.917 366.917 906.667 365.844 907.625 364.969C908.583 364.094 909.729 363.427 911.062 362.969C912.417 362.49 913.885 362.25 915.469 362.25C916.323 362.25 917.115 362.302 917.844 362.406C918.594 362.49 919.292 362.615 919.938 362.781H928.438C928.792 362.781 929.052 362.958 929.219 363.312C929.406 363.646 929.5 364.167 929.5 364.875ZM921.438 372.281C921.438 370.365 920.906 368.875 919.844 367.812C918.802 366.729 917.312 366.188 915.375 366.188C914.375 366.188 913.5 366.354 912.75 366.688C912.021 367.021 911.406 367.479 910.906 368.062C910.427 368.646 910.062 369.323 909.812 370.094C909.583 370.844 909.469 371.635 909.469 372.469C909.469 374.323 909.99 375.781 911.031 376.844C912.094 377.906 913.573 378.438 915.469 378.438C916.49 378.438 917.375 378.281 918.125 377.969C918.875 377.635 919.49 377.188 919.969 376.625C920.469 376.042 920.833 375.375 921.062 374.625C921.312 373.875 921.438 373.094 921.438 372.281ZM924.031 394.562C924.031 393.354 923.531 392.427 922.531 391.781C921.552 391.115 920.219 390.76 918.531 390.719L911.25 390.469C910.583 390.99 910.031 391.49 909.594 391.969C909.177 392.427 908.844 392.865 908.594 393.281C908.344 393.719 908.167 394.146 908.062 394.562C907.979 394.979 907.938 395.406 907.938 395.844C907.938 397.198 908.625 398.219 910 398.906C911.375 399.615 913.292 399.969 915.75 399.969C917.312 399.969 918.615 399.812 919.656 399.5C920.719 399.208 921.573 398.812 922.219 398.312C922.865 397.812 923.323 397.24 923.594 396.594C923.885 395.948 924.031 395.271 924.031 394.562Z" fill="#EA580C"/>
<path d="M995.188 391.688C995.188 391.854 995.146 392 995.062 392.125C994.979 392.25 994.833 392.354 994.625 392.438C994.417 392.5 994.146 392.552 993.812 392.594C993.5 392.656 993.083 392.688 992.562 392.688C992.083 392.688 991.667 392.656 991.312 392.594C990.979 392.552 990.708 392.5 990.5 392.438C990.312 392.354 990.177 392.25 990.094 392.125C990.01 392 989.969 391.854 989.969 391.688V356.469H989.906L975.5 391.844C975.438 391.99 975.344 392.115 975.219 392.219C975.115 392.323 974.948 392.417 974.719 392.5C974.51 392.562 974.25 392.604 973.938 392.625C973.646 392.667 973.292 392.688 972.875 392.688C972.438 392.688 972.062 392.667 971.75 392.625C971.438 392.583 971.177 392.531 970.969 392.469C970.76 392.385 970.594 392.292 970.469 392.188C970.365 392.083 970.292 391.969 970.25 391.844L956.469 356.469H956.438V391.688C956.438 391.854 956.396 392 956.312 392.125C956.229 392.25 956.083 392.354 955.875 392.438C955.667 392.5 955.396 392.552 955.062 392.594C954.729 392.656 954.302 392.688 953.781 392.688C953.281 392.688 952.865 392.656 952.531 392.594C952.198 392.552 951.927 392.5 951.719 392.438C951.531 392.354 951.396 392.25 951.312 392.125C951.25 392 951.219 391.854 951.219 391.688V354.5C951.219 353.625 951.448 353 951.906 352.625C952.365 352.25 952.875 352.062 953.438 352.062H956.688C957.354 352.062 957.938 352.125 958.438 352.25C958.938 352.375 959.375 352.573 959.75 352.844C960.125 353.115 960.438 353.458 960.688 353.875C960.938 354.292 961.156 354.781 961.344 355.344L973.062 384.625H973.219L985.406 355.438C985.635 354.812 985.885 354.281 986.156 353.844C986.427 353.406 986.719 353.062 987.031 352.812C987.365 352.542 987.729 352.354 988.125 352.25C988.521 352.125 988.979 352.062 989.5 352.062H992.906C993.219 352.062 993.51 352.115 993.781 352.219C994.073 352.302 994.312 352.448 994.5 352.656C994.708 352.844 994.875 353.094 995 353.406C995.125 353.698 995.188 354.062 995.188 354.5V391.688Z" fill="#EA580C"/>
<path d="M1010.53 391.719C1010.53 391.885 1010.49 392.031 1010.41 392.156C1010.32 392.26 1010.19 392.354 1010 392.438C1009.81 392.521 1009.55 392.583 1009.22 392.625C1008.89 392.667 1008.46 392.688 1007.94 392.688C1007.44 392.688 1007.02 392.667 1006.69 392.625C1006.35 392.583 1006.08 392.521 1005.88 392.438C1005.69 392.354 1005.55 392.26 1005.47 392.156C1005.41 392.031 1005.38 391.885 1005.38 391.719V363.594C1005.38 363.448 1005.41 363.312 1005.47 363.188C1005.55 363.062 1005.69 362.958 1005.88 362.875C1006.08 362.792 1006.35 362.729 1006.69 362.688C1007.02 362.646 1007.44 362.625 1007.94 362.625C1008.46 362.625 1008.89 362.646 1009.22 362.688C1009.55 362.729 1009.81 362.792 1010 362.875C1010.19 362.958 1010.32 363.062 1010.41 363.188C1010.49 363.312 1010.53 363.448 1010.53 363.594V391.719ZM1011.12 354.094C1011.12 355.302 1010.9 356.125 1010.44 356.562C1009.98 357 1009.14 357.219 1007.91 357.219C1006.7 357.219 1005.86 357.01 1005.41 356.594C1004.97 356.156 1004.75 355.344 1004.75 354.156C1004.75 352.948 1004.98 352.125 1005.44 351.688C1005.9 351.25 1006.74 351.031 1007.97 351.031C1009.18 351.031 1010 351.25 1010.44 351.688C1010.9 352.104 1011.12 352.906 1011.12 354.094Z" fill="#EA580C"/>
<path d="M1044.28 391.719C1044.28 391.885 1044.24 392.031 1044.16 392.156C1044.07 392.26 1043.94 392.354 1043.75 392.438C1043.56 392.521 1043.3 392.583 1042.97 392.625C1042.64 392.667 1042.22 392.688 1041.72 392.688C1041.2 392.688 1040.77 392.667 1040.44 392.625C1040.1 392.583 1039.84 392.521 1039.66 392.438C1039.47 392.354 1039.33 392.26 1039.25 392.156C1039.17 392.031 1039.12 391.885 1039.12 391.719V375.25C1039.12 373.646 1039 372.354 1038.75 371.375C1038.5 370.396 1038.14 369.552 1037.66 368.844C1037.18 368.135 1036.55 367.594 1035.78 367.219C1035.03 366.844 1034.16 366.656 1033.16 366.656C1031.86 366.656 1030.57 367.115 1029.28 368.031C1027.99 368.948 1026.64 370.292 1025.22 372.062V391.719C1025.22 391.885 1025.18 392.031 1025.09 392.156C1025.01 392.26 1024.88 392.354 1024.69 392.438C1024.5 392.521 1024.24 392.583 1023.91 392.625C1023.57 392.667 1023.15 392.688 1022.62 392.688C1022.12 392.688 1021.71 392.667 1021.38 392.625C1021.04 392.583 1020.77 392.521 1020.56 392.438C1020.38 392.354 1020.24 392.26 1020.16 392.156C1020.09 392.031 1020.06 391.885 1020.06 391.719V363.594C1020.06 363.427 1020.09 363.292 1020.16 363.188C1020.22 363.062 1020.34 362.958 1020.53 362.875C1020.72 362.771 1020.96 362.708 1021.25 362.688C1021.54 362.646 1021.93 362.625 1022.41 362.625C1022.86 362.625 1023.24 362.646 1023.53 362.688C1023.84 362.708 1024.08 362.771 1024.25 362.875C1024.42 362.958 1024.53 363.062 1024.59 363.188C1024.68 363.292 1024.72 363.427 1024.72 363.594V367.312C1026.3 365.542 1027.88 364.25 1029.44 363.438C1031.02 362.604 1032.61 362.188 1034.22 362.188C1036.09 362.188 1037.67 362.51 1038.94 363.156C1040.23 363.781 1041.27 364.625 1042.06 365.688C1042.85 366.75 1043.42 368 1043.75 369.438C1044.1 370.854 1044.28 372.562 1044.28 374.562V391.719Z" fill="#EA580C"/>
<path d="M1077.78 391.719C1077.78 391.885 1077.74 392.031 1077.66 392.156C1077.59 392.281 1077.47 392.385 1077.28 392.469C1077.11 392.531 1076.89 392.583 1076.59 392.625C1076.3 392.667 1075.95 392.688 1075.53 392.688C1075.09 392.688 1074.73 392.667 1074.44 392.625C1074.15 392.583 1073.91 392.531 1073.72 392.469C1073.53 392.385 1073.4 392.281 1073.31 392.156C1073.23 392.031 1073.19 391.885 1073.19 391.719V388C1071.71 389.604 1070.17 390.854 1068.56 391.75C1066.98 392.646 1065.24 393.094 1063.34 393.094C1061.28 393.094 1059.52 392.698 1058.06 391.906C1056.6 391.094 1055.42 390.01 1054.5 388.656C1053.6 387.281 1052.95 385.677 1052.53 383.844C1052.11 381.99 1051.91 380.042 1051.91 378C1051.91 375.583 1052.17 373.406 1052.69 371.469C1053.21 369.51 1053.98 367.844 1055 366.469C1056.02 365.094 1057.28 364.042 1058.78 363.312C1060.3 362.562 1062.05 362.188 1064.03 362.188C1065.68 362.188 1067.18 362.552 1068.53 363.281C1069.91 363.99 1071.26 365.042 1072.59 366.438V350.094C1072.59 349.948 1072.62 349.812 1072.69 349.688C1072.77 349.542 1072.92 349.438 1073.12 349.375C1073.33 349.292 1073.59 349.229 1073.91 349.188C1074.24 349.125 1074.66 349.094 1075.16 349.094C1075.68 349.094 1076.1 349.125 1076.44 349.188C1076.77 349.229 1077.03 349.292 1077.22 349.375C1077.41 349.438 1077.54 349.542 1077.62 349.688C1077.73 349.812 1077.78 349.948 1077.78 350.094V391.719ZM1072.59 371.938C1071.2 370.208 1069.84 368.896 1068.53 368C1067.24 367.083 1065.89 366.625 1064.47 366.625C1063.16 366.625 1062.04 366.938 1061.12 367.562C1060.21 368.188 1059.46 369.01 1058.88 370.031C1058.31 371.052 1057.9 372.208 1057.62 373.5C1057.38 374.792 1057.25 376.104 1057.25 377.438C1057.25 378.854 1057.35 380.24 1057.56 381.594C1057.79 382.948 1058.18 384.156 1058.72 385.219C1059.26 386.26 1059.98 387.104 1060.88 387.75C1061.77 388.375 1062.9 388.688 1064.25 388.688C1064.94 388.688 1065.59 388.594 1066.22 388.406C1066.86 388.219 1067.52 387.906 1068.19 387.469C1068.85 387.031 1069.55 386.469 1070.28 385.781C1071.01 385.073 1071.78 384.208 1072.59 383.188V371.938Z" fill="#EA580C"/>
<path d="M1104.97 384.062C1104.97 385.5 1104.7 386.781 1104.16 387.906C1103.64 389.031 1102.89 389.979 1101.91 390.75C1100.93 391.521 1099.76 392.104 1098.41 392.5C1097.05 392.896 1095.56 393.094 1093.94 393.094C1092.94 393.094 1091.98 393.01 1091.06 392.844C1090.17 392.698 1089.35 392.51 1088.62 392.281C1087.92 392.031 1087.31 391.781 1086.81 391.531C1086.31 391.26 1085.95 391.021 1085.72 390.812C1085.49 390.604 1085.32 390.312 1085.22 389.938C1085.11 389.562 1085.06 389.052 1085.06 388.406C1085.06 388.01 1085.08 387.677 1085.12 387.406C1085.17 387.135 1085.22 386.917 1085.28 386.75C1085.34 386.583 1085.43 386.469 1085.53 386.406C1085.66 386.323 1085.79 386.281 1085.94 386.281C1086.17 386.281 1086.5 386.427 1086.94 386.719C1087.4 386.99 1087.95 387.292 1088.59 387.625C1089.26 387.958 1090.04 388.271 1090.94 388.562C1091.83 388.833 1092.86 388.969 1094.03 388.969C1094.91 388.969 1095.7 388.875 1096.41 388.688C1097.11 388.5 1097.73 388.229 1098.25 387.875C1098.77 387.5 1099.17 387.031 1099.44 386.469C1099.73 385.906 1099.88 385.24 1099.88 384.469C1099.88 383.677 1099.67 383.01 1099.25 382.469C1098.85 381.927 1098.32 381.448 1097.66 381.031C1096.99 380.615 1096.24 380.25 1095.41 379.938C1094.57 379.604 1093.71 379.26 1092.81 378.906C1091.94 378.552 1091.07 378.156 1090.22 377.719C1089.39 377.26 1088.64 376.708 1087.97 376.062C1087.3 375.417 1086.76 374.646 1086.34 373.75C1085.95 372.854 1085.75 371.781 1085.75 370.531C1085.75 369.427 1085.96 368.375 1086.38 367.375C1086.81 366.354 1087.46 365.469 1088.31 364.719C1089.17 363.948 1090.23 363.333 1091.5 362.875C1092.79 362.417 1094.29 362.188 1096 362.188C1096.75 362.188 1097.5 362.25 1098.25 362.375C1099 362.5 1099.68 362.656 1100.28 362.844C1100.89 363.031 1101.4 363.24 1101.81 363.469C1102.25 363.677 1102.57 363.865 1102.78 364.031C1103.01 364.198 1103.16 364.344 1103.22 364.469C1103.3 364.594 1103.35 364.74 1103.38 364.906C1103.42 365.052 1103.45 365.24 1103.47 365.469C1103.51 365.698 1103.53 365.979 1103.53 366.312C1103.53 366.667 1103.51 366.979 1103.47 367.25C1103.45 367.5 1103.4 367.708 1103.31 367.875C1103.25 368.042 1103.17 368.167 1103.06 368.25C1102.96 368.312 1102.84 368.344 1102.72 368.344C1102.53 368.344 1102.26 368.229 1101.91 368C1101.55 367.771 1101.09 367.531 1100.53 367.281C1099.97 367.01 1099.3 366.76 1098.53 366.531C1097.78 366.302 1096.92 366.188 1095.94 366.188C1095.06 366.188 1094.29 366.292 1093.62 366.5C1092.96 366.688 1092.41 366.969 1091.97 367.344C1091.55 367.698 1091.23 368.125 1091 368.625C1090.79 369.125 1090.69 369.667 1090.69 370.25C1090.69 371.062 1090.9 371.75 1091.31 372.312C1091.73 372.854 1092.27 373.333 1092.94 373.75C1093.6 374.167 1094.36 374.542 1095.22 374.875C1096.07 375.208 1096.94 375.552 1097.81 375.906C1098.71 376.26 1099.58 376.656 1100.44 377.094C1101.31 377.531 1102.08 378.062 1102.75 378.688C1103.42 379.312 1103.95 380.062 1104.34 380.938C1104.76 381.812 1104.97 382.854 1104.97 384.062Z" fill="#EA580C"/>
<path d="M1119.19 388.031C1119.19 388.677 1119.16 389.271 1119.09 389.812C1119.03 390.354 1118.93 390.865 1118.78 391.344C1118.64 391.823 1118.44 392.292 1118.19 392.75C1117.96 393.229 1117.67 393.729 1117.31 394.25L1113.03 400.688C1112.93 400.833 1112.8 400.958 1112.66 401.062C1112.53 401.167 1112.36 401.26 1112.16 401.344C1111.97 401.427 1111.74 401.479 1111.47 401.5C1111.22 401.542 1110.9 401.562 1110.5 401.562C1110.15 401.562 1109.84 401.542 1109.59 401.5C1109.36 401.479 1109.2 401.427 1109.09 401.344C1108.99 401.281 1108.93 401.188 1108.91 401.062C1108.91 400.938 1108.95 400.792 1109.03 400.625L1113.19 392.031V388.031C1113.19 387.469 1113.24 387.021 1113.34 386.688C1113.47 386.354 1113.66 386.104 1113.91 385.938C1114.16 385.771 1114.47 385.656 1114.84 385.594C1115.22 385.531 1115.68 385.5 1116.22 385.5C1116.74 385.5 1117.19 385.531 1117.56 385.594C1117.94 385.656 1118.24 385.771 1118.47 385.938C1118.72 386.104 1118.9 386.354 1119 386.688C1119.12 387.021 1119.19 387.469 1119.19 388.031Z" fill="white"/>
<path d="M1170.12 380.906C1170.12 382.177 1169.96 383.354 1169.62 384.438C1169.31 385.5 1168.86 386.458 1168.28 387.312C1167.7 388.167 1166.99 388.917 1166.16 389.562C1165.34 390.208 1164.42 390.75 1163.38 391.188C1162.35 391.625 1161.25 391.958 1160.06 392.188C1158.9 392.396 1157.55 392.5 1156.03 392.5H1145.47C1144.99 392.5 1144.53 392.344 1144.09 392.031C1143.68 391.698 1143.47 391.125 1143.47 390.312V354.25C1143.47 353.438 1143.68 352.875 1144.09 352.562C1144.53 352.229 1144.99 352.062 1145.47 352.062H1154.66C1157.07 352.062 1159.05 352.292 1160.59 352.75C1162.14 353.208 1163.42 353.875 1164.44 354.75C1165.48 355.625 1166.26 356.698 1166.78 357.969C1167.3 359.24 1167.56 360.677 1167.56 362.281C1167.56 363.24 1167.45 364.156 1167.22 365.031C1166.99 365.906 1166.65 366.719 1166.19 367.469C1165.75 368.198 1165.19 368.854 1164.5 369.438C1163.83 370.021 1163.06 370.5 1162.19 370.875C1163.29 371.083 1164.32 371.469 1165.28 372.031C1166.24 372.573 1167.07 373.271 1167.78 374.125C1168.51 374.979 1169.08 375.979 1169.5 377.125C1169.92 378.271 1170.12 379.531 1170.12 380.906ZM1162.03 362.812C1162.03 361.833 1161.9 360.948 1161.62 360.156C1161.35 359.365 1160.93 358.698 1160.34 358.156C1159.76 357.594 1159 357.167 1158.06 356.875C1157.12 356.583 1155.89 356.438 1154.34 356.438H1148.78V369.531H1154.91C1156.3 369.531 1157.43 369.354 1158.28 369C1159.14 368.625 1159.84 368.135 1160.41 367.531C1160.97 366.906 1161.38 366.188 1161.62 365.375C1161.9 364.542 1162.03 363.688 1162.03 362.812ZM1164.47 381.219C1164.47 380.01 1164.27 378.948 1163.88 378.031C1163.5 377.115 1162.94 376.344 1162.19 375.719C1161.46 375.094 1160.53 374.625 1159.41 374.312C1158.3 373.979 1156.91 373.812 1155.22 373.812H1148.78V388.062H1156.59C1157.82 388.062 1158.9 387.917 1159.81 387.625C1160.73 387.333 1161.53 386.906 1162.22 386.344C1162.93 385.76 1163.48 385.042 1163.88 384.188C1164.27 383.333 1164.47 382.344 1164.47 381.219Z" fill="white"/>
<path d="M1201.78 391.719C1201.78 391.885 1201.74 392.031 1201.66 392.156C1201.59 392.26 1201.47 392.354 1201.28 392.438C1201.09 392.521 1200.84 392.583 1200.53 392.625C1200.24 392.667 1199.88 392.688 1199.44 392.688C1198.96 392.688 1198.56 392.667 1198.25 392.625C1197.96 392.583 1197.72 392.521 1197.53 392.438C1197.36 392.354 1197.25 392.26 1197.19 392.156C1197.12 392.031 1197.09 391.885 1197.09 391.719V388C1195.49 389.771 1193.91 391.062 1192.34 391.875C1190.78 392.688 1189.2 393.094 1187.59 393.094C1185.72 393.094 1184.14 392.781 1182.84 392.156C1181.57 391.531 1180.54 390.688 1179.75 389.625C1178.96 388.542 1178.39 387.292 1178.03 385.875C1177.7 384.438 1177.53 382.698 1177.53 380.656V363.594C1177.53 363.427 1177.56 363.292 1177.62 363.188C1177.71 363.062 1177.85 362.958 1178.06 362.875C1178.27 362.771 1178.54 362.708 1178.88 362.688C1179.21 362.646 1179.62 362.625 1180.12 362.625C1180.62 362.625 1181.04 362.646 1181.38 362.688C1181.71 362.708 1181.97 362.771 1182.16 362.875C1182.36 362.958 1182.51 363.062 1182.59 363.188C1182.68 363.292 1182.72 363.427 1182.72 363.594V379.969C1182.72 381.615 1182.83 382.938 1183.06 383.938C1183.31 384.917 1183.68 385.76 1184.16 386.469C1184.66 387.156 1185.28 387.698 1186.03 388.094C1186.78 388.469 1187.66 388.656 1188.66 388.656C1189.95 388.656 1191.23 388.198 1192.5 387.281C1193.79 386.365 1195.16 385.021 1196.59 383.25V363.594C1196.59 363.427 1196.62 363.292 1196.69 363.188C1196.77 363.062 1196.92 362.958 1197.12 362.875C1197.33 362.771 1197.59 362.708 1197.91 362.688C1198.24 362.646 1198.67 362.625 1199.19 362.625C1199.69 362.625 1200.1 362.646 1200.44 362.688C1200.77 362.708 1201.03 362.771 1201.22 362.875C1201.41 362.958 1201.54 363.062 1201.62 363.188C1201.73 363.292 1201.78 363.427 1201.78 363.594V391.719Z" fill="white"/>
<path d="M1216.47 391.719C1216.47 391.885 1216.43 392.031 1216.34 392.156C1216.26 392.26 1216.12 392.354 1215.94 392.438C1215.75 392.521 1215.49 392.583 1215.16 392.625C1214.82 392.667 1214.4 392.688 1213.88 392.688C1213.38 392.688 1212.96 392.667 1212.62 392.625C1212.29 392.583 1212.02 392.521 1211.81 392.438C1211.62 392.354 1211.49 392.26 1211.41 392.156C1211.34 392.031 1211.31 391.885 1211.31 391.719V363.594C1211.31 363.448 1211.34 363.312 1211.41 363.188C1211.49 363.062 1211.62 362.958 1211.81 362.875C1212.02 362.792 1212.29 362.729 1212.62 362.688C1212.96 362.646 1213.38 362.625 1213.88 362.625C1214.4 362.625 1214.82 362.646 1215.16 362.688C1215.49 362.729 1215.75 362.792 1215.94 362.875C1216.12 362.958 1216.26 363.062 1216.34 363.188C1216.43 363.312 1216.47 363.448 1216.47 363.594V391.719ZM1217.06 354.094C1217.06 355.302 1216.83 356.125 1216.38 356.562C1215.92 357 1215.07 357.219 1213.84 357.219C1212.64 357.219 1211.8 357.01 1211.34 356.594C1210.91 356.156 1210.69 355.344 1210.69 354.156C1210.69 352.948 1210.92 352.125 1211.38 351.688C1211.83 351.25 1212.68 351.031 1213.91 351.031C1215.11 351.031 1215.94 351.25 1216.38 351.688C1216.83 352.104 1217.06 352.906 1217.06 354.094Z" fill="white"/>
<path d="M1231.16 391.719C1231.16 391.885 1231.11 392.031 1231.03 392.156C1230.95 392.26 1230.81 392.354 1230.62 392.438C1230.44 392.521 1230.18 392.583 1229.84 392.625C1229.51 392.667 1229.08 392.688 1228.56 392.688C1228.06 392.688 1227.65 392.667 1227.31 392.625C1226.98 392.583 1226.71 392.521 1226.5 392.438C1226.31 392.354 1226.18 392.26 1226.09 392.156C1226.03 392.031 1226 391.885 1226 391.719V349.969C1226 349.802 1226.03 349.656 1226.09 349.531C1226.18 349.406 1226.31 349.302 1226.5 349.219C1226.71 349.135 1226.98 349.073 1227.31 349.031C1227.65 348.99 1228.06 348.969 1228.56 348.969C1229.08 348.969 1229.51 348.99 1229.84 349.031C1230.18 349.073 1230.44 349.135 1230.62 349.219C1230.81 349.302 1230.95 349.406 1231.03 349.531C1231.11 349.656 1231.16 349.802 1231.16 349.969V391.719Z" fill="white"/>
<path d="M1264.78 391.719C1264.78 391.885 1264.74 392.031 1264.66 392.156C1264.59 392.281 1264.47 392.385 1264.28 392.469C1264.11 392.531 1263.89 392.583 1263.59 392.625C1263.3 392.667 1262.95 392.688 1262.53 392.688C1262.09 392.688 1261.73 392.667 1261.44 392.625C1261.15 392.583 1260.91 392.531 1260.72 392.469C1260.53 392.385 1260.4 392.281 1260.31 392.156C1260.23 392.031 1260.19 391.885 1260.19 391.719V388C1258.71 389.604 1257.17 390.854 1255.56 391.75C1253.98 392.646 1252.24 393.094 1250.34 393.094C1248.28 393.094 1246.52 392.698 1245.06 391.906C1243.6 391.094 1242.42 390.01 1241.5 388.656C1240.6 387.281 1239.95 385.677 1239.53 383.844C1239.11 381.99 1238.91 380.042 1238.91 378C1238.91 375.583 1239.17 373.406 1239.69 371.469C1240.21 369.51 1240.98 367.844 1242 366.469C1243.02 365.094 1244.28 364.042 1245.78 363.312C1247.3 362.562 1249.05 362.188 1251.03 362.188C1252.68 362.188 1254.18 362.552 1255.53 363.281C1256.91 363.99 1258.26 365.042 1259.59 366.438V350.094C1259.59 349.948 1259.62 349.812 1259.69 349.688C1259.77 349.542 1259.92 349.438 1260.12 349.375C1260.33 349.292 1260.59 349.229 1260.91 349.188C1261.24 349.125 1261.66 349.094 1262.16 349.094C1262.68 349.094 1263.1 349.125 1263.44 349.188C1263.77 349.229 1264.03 349.292 1264.22 349.375C1264.41 349.438 1264.54 349.542 1264.62 349.688C1264.73 349.812 1264.78 349.948 1264.78 350.094V391.719ZM1259.59 371.938C1258.2 370.208 1256.84 368.896 1255.53 368C1254.24 367.083 1252.89 366.625 1251.47 366.625C1250.16 366.625 1249.04 366.938 1248.12 367.562C1247.21 368.188 1246.46 369.01 1245.88 370.031C1245.31 371.052 1244.9 372.208 1244.62 373.5C1244.38 374.792 1244.25 376.104 1244.25 377.438C1244.25 378.854 1244.35 380.24 1244.56 381.594C1244.79 382.948 1245.18 384.156 1245.72 385.219C1246.26 386.26 1246.98 387.104 1247.88 387.75C1248.77 388.375 1249.9 388.688 1251.25 388.688C1251.94 388.688 1252.59 388.594 1253.22 388.406C1253.86 388.219 1254.52 387.906 1255.19 387.469C1255.85 387.031 1256.55 386.469 1257.28 385.781C1258.01 385.073 1258.78 384.208 1259.59 383.188V371.938Z" fill="white"/>
<path d="M1279.47 391.719C1279.47 391.885 1279.43 392.031 1279.34 392.156C1279.26 392.26 1279.12 392.354 1278.94 392.438C1278.75 392.521 1278.49 392.583 1278.16 392.625C1277.82 392.667 1277.4 392.688 1276.88 392.688C1276.38 392.688 1275.96 392.667 1275.62 392.625C1275.29 392.583 1275.02 392.521 1274.81 392.438C1274.62 392.354 1274.49 392.26 1274.41 392.156C1274.34 392.031 1274.31 391.885 1274.31 391.719V363.594C1274.31 363.448 1274.34 363.312 1274.41 363.188C1274.49 363.062 1274.62 362.958 1274.81 362.875C1275.02 362.792 1275.29 362.729 1275.62 362.688C1275.96 362.646 1276.38 362.625 1276.88 362.625C1277.4 362.625 1277.82 362.646 1278.16 362.688C1278.49 362.729 1278.75 362.792 1278.94 362.875C1279.12 362.958 1279.26 363.062 1279.34 363.188C1279.43 363.312 1279.47 363.448 1279.47 363.594V391.719ZM1280.06 354.094C1280.06 355.302 1279.83 356.125 1279.38 356.562C1278.92 357 1278.07 357.219 1276.84 357.219C1275.64 357.219 1274.8 357.01 1274.34 356.594C1273.91 356.156 1273.69 355.344 1273.69 354.156C1273.69 352.948 1273.92 352.125 1274.38 351.688C1274.83 351.25 1275.68 351.031 1276.91 351.031C1278.11 351.031 1278.94 351.25 1279.38 351.688C1279.83 352.104 1280.06 352.906 1280.06 354.094Z" fill="white"/>
<path d="M1313.22 391.719C1313.22 391.885 1313.18 392.031 1313.09 392.156C1313.01 392.26 1312.88 392.354 1312.69 392.438C1312.5 392.521 1312.24 392.583 1311.91 392.625C1311.57 392.667 1311.16 392.688 1310.66 392.688C1310.14 392.688 1309.71 392.667 1309.38 392.625C1309.04 392.583 1308.78 392.521 1308.59 392.438C1308.41 392.354 1308.27 392.26 1308.19 392.156C1308.1 392.031 1308.06 391.885 1308.06 391.719V375.25C1308.06 373.646 1307.94 372.354 1307.69 371.375C1307.44 370.396 1307.07 369.552 1306.59 368.844C1306.11 368.135 1305.49 367.594 1304.72 367.219C1303.97 366.844 1303.09 366.656 1302.09 366.656C1300.8 366.656 1299.51 367.115 1298.22 368.031C1296.93 368.948 1295.57 370.292 1294.16 372.062V391.719C1294.16 391.885 1294.11 392.031 1294.03 392.156C1293.95 392.26 1293.81 392.354 1293.62 392.438C1293.44 392.521 1293.18 392.583 1292.84 392.625C1292.51 392.667 1292.08 392.688 1291.56 392.688C1291.06 392.688 1290.65 392.667 1290.31 392.625C1289.98 392.583 1289.71 392.521 1289.5 392.438C1289.31 392.354 1289.18 392.26 1289.09 392.156C1289.03 392.031 1289 391.885 1289 391.719V363.594C1289 363.427 1289.03 363.292 1289.09 363.188C1289.16 363.062 1289.28 362.958 1289.47 362.875C1289.66 362.771 1289.9 362.708 1290.19 362.688C1290.48 362.646 1290.86 362.625 1291.34 362.625C1291.8 362.625 1292.18 362.646 1292.47 362.688C1292.78 362.708 1293.02 362.771 1293.19 362.875C1293.35 362.958 1293.47 363.062 1293.53 363.188C1293.61 363.292 1293.66 363.427 1293.66 363.594V367.312C1295.24 365.542 1296.81 364.25 1298.38 363.438C1299.96 362.604 1301.55 362.188 1303.16 362.188C1305.03 362.188 1306.6 362.51 1307.88 363.156C1309.17 363.781 1310.21 364.625 1311 365.688C1311.79 366.75 1312.35 368 1312.69 369.438C1313.04 370.854 1313.22 372.562 1313.22 374.562V391.719Z" fill="white"/>
<path d="M1346.12 364.875C1346.12 365.604 1346.02 366.135 1345.81 366.469C1345.62 366.781 1345.38 366.938 1345.06 366.938H1341.03C1341.76 367.688 1342.27 368.521 1342.56 369.438C1342.85 370.333 1343 371.271 1343 372.25C1343 373.875 1342.74 375.312 1342.22 376.562C1341.7 377.812 1340.95 378.875 1339.97 379.75C1339.01 380.604 1337.86 381.26 1336.53 381.719C1335.2 382.177 1333.72 382.406 1332.09 382.406C1330.95 382.406 1329.85 382.26 1328.81 381.969C1327.79 381.656 1327 381.271 1326.44 380.812C1326.06 381.188 1325.75 381.615 1325.5 382.094C1325.27 382.573 1325.16 383.125 1325.16 383.75C1325.16 384.479 1325.49 385.083 1326.16 385.562C1326.84 386.042 1327.75 386.302 1328.88 386.344L1336.22 386.656C1337.61 386.698 1338.9 386.896 1340.06 387.25C1341.23 387.583 1342.24 388.073 1343.09 388.719C1343.95 389.344 1344.61 390.125 1345.09 391.062C1345.57 391.979 1345.81 393.052 1345.81 394.281C1345.81 395.573 1345.54 396.802 1345 397.969C1344.46 399.135 1343.62 400.156 1342.5 401.031C1341.4 401.927 1339.98 402.625 1338.25 403.125C1336.52 403.646 1334.48 403.906 1332.12 403.906C1329.85 403.906 1327.92 403.708 1326.31 403.312C1324.73 402.938 1323.43 402.417 1322.41 401.75C1321.39 401.083 1320.65 400.281 1320.19 399.344C1319.73 398.427 1319.5 397.427 1319.5 396.344C1319.5 395.656 1319.58 394.99 1319.75 394.344C1319.92 393.698 1320.17 393.083 1320.5 392.5C1320.85 391.917 1321.28 391.365 1321.78 390.844C1322.3 390.302 1322.9 389.771 1323.56 389.25C1322.54 388.729 1321.78 388.073 1321.28 387.281C1320.8 386.49 1320.56 385.635 1320.56 384.719C1320.56 383.448 1320.82 382.312 1321.34 381.312C1321.86 380.312 1322.51 379.417 1323.28 378.625C1322.64 377.854 1322.12 376.99 1321.75 376.031C1321.38 375.052 1321.19 373.875 1321.19 372.5C1321.19 370.896 1321.46 369.458 1322 368.188C1322.54 366.917 1323.29 365.844 1324.25 364.969C1325.21 364.094 1326.35 363.427 1327.69 362.969C1329.04 362.49 1330.51 362.25 1332.09 362.25C1332.95 362.25 1333.74 362.302 1334.47 362.406C1335.22 362.49 1335.92 362.615 1336.56 362.781H1345.06C1345.42 362.781 1345.68 362.958 1345.84 363.312C1346.03 363.646 1346.12 364.167 1346.12 364.875ZM1338.06 372.281C1338.06 370.365 1337.53 368.875 1336.47 367.812C1335.43 366.729 1333.94 366.188 1332 366.188C1331 366.188 1330.12 366.354 1329.38 366.688C1328.65 367.021 1328.03 367.479 1327.53 368.062C1327.05 368.646 1326.69 369.323 1326.44 370.094C1326.21 370.844 1326.09 371.635 1326.09 372.469C1326.09 374.323 1326.61 375.781 1327.66 376.844C1328.72 377.906 1330.2 378.438 1332.09 378.438C1333.11 378.438 1334 378.281 1334.75 377.969C1335.5 377.635 1336.11 377.188 1336.59 376.625C1337.09 376.042 1337.46 375.375 1337.69 374.625C1337.94 373.875 1338.06 373.094 1338.06 372.281ZM1340.66 394.562C1340.66 393.354 1340.16 392.427 1339.16 391.781C1338.18 391.115 1336.84 390.76 1335.16 390.719L1327.88 390.469C1327.21 390.99 1326.66 391.49 1326.22 391.969C1325.8 392.427 1325.47 392.865 1325.22 393.281C1324.97 393.719 1324.79 394.146 1324.69 394.562C1324.6 394.979 1324.56 395.406 1324.56 395.844C1324.56 397.198 1325.25 398.219 1326.62 398.906C1328 399.615 1329.92 399.969 1332.38 399.969C1333.94 399.969 1335.24 399.812 1336.28 399.5C1337.34 399.208 1338.2 398.812 1338.84 398.312C1339.49 397.812 1339.95 397.24 1340.22 396.594C1340.51 395.948 1340.66 395.271 1340.66 394.562Z" fill="white"/>
<path d="M1394.5 380.906C1394.5 382.177 1394.33 383.354 1394 384.438C1393.69 385.5 1393.24 386.458 1392.66 387.312C1392.07 388.167 1391.36 388.917 1390.53 389.562C1389.72 390.208 1388.79 390.75 1387.75 391.188C1386.73 391.625 1385.62 391.958 1384.44 392.188C1383.27 392.396 1381.93 392.5 1380.41 392.5H1369.84C1369.36 392.5 1368.91 392.344 1368.47 392.031C1368.05 391.698 1367.84 391.125 1367.84 390.312V354.25C1367.84 353.438 1368.05 352.875 1368.47 352.562C1368.91 352.229 1369.36 352.062 1369.84 352.062H1379.03C1381.45 352.062 1383.43 352.292 1384.97 352.75C1386.51 353.208 1387.79 353.875 1388.81 354.75C1389.85 355.625 1390.64 356.698 1391.16 357.969C1391.68 359.24 1391.94 360.677 1391.94 362.281C1391.94 363.24 1391.82 364.156 1391.59 365.031C1391.36 365.906 1391.02 366.719 1390.56 367.469C1390.12 368.198 1389.56 368.854 1388.88 369.438C1388.21 370.021 1387.44 370.5 1386.56 370.875C1387.67 371.083 1388.7 371.469 1389.66 372.031C1390.61 372.573 1391.45 373.271 1392.16 374.125C1392.89 374.979 1393.46 375.979 1393.88 377.125C1394.29 378.271 1394.5 379.531 1394.5 380.906ZM1386.41 362.812C1386.41 361.833 1386.27 360.948 1386 360.156C1385.73 359.365 1385.3 358.698 1384.72 358.156C1384.14 357.594 1383.38 357.167 1382.44 356.875C1381.5 356.583 1380.26 356.438 1378.72 356.438H1373.16V369.531H1379.28C1380.68 369.531 1381.8 369.354 1382.66 369C1383.51 368.625 1384.22 368.135 1384.78 367.531C1385.34 366.906 1385.75 366.188 1386 365.375C1386.27 364.542 1386.41 363.688 1386.41 362.812ZM1388.84 381.219C1388.84 380.01 1388.65 378.948 1388.25 378.031C1387.88 377.115 1387.31 376.344 1386.56 375.719C1385.83 375.094 1384.91 374.625 1383.78 374.312C1382.68 373.979 1381.28 373.812 1379.59 373.812H1373.16V388.062H1380.97C1382.2 388.062 1383.27 387.917 1384.19 387.625C1385.1 387.333 1385.91 386.906 1386.59 386.344C1387.3 385.76 1387.85 385.042 1388.25 384.188C1388.65 383.333 1388.84 382.344 1388.84 381.219Z" fill="white"/>
<path d="M1418.5 365.438C1418.5 365.896 1418.49 366.281 1418.47 366.594C1418.45 366.906 1418.41 367.156 1418.34 367.344C1418.28 367.51 1418.2 367.646 1418.09 367.75C1418.01 367.833 1417.89 367.875 1417.72 367.875C1417.55 367.875 1417.34 367.833 1417.09 367.75C1416.86 367.646 1416.59 367.552 1416.28 367.469C1415.99 367.365 1415.66 367.271 1415.28 367.188C1414.91 367.104 1414.5 367.062 1414.06 367.062C1413.54 367.062 1413.03 367.167 1412.53 367.375C1412.03 367.583 1411.5 367.927 1410.94 368.406C1410.4 368.885 1409.82 369.521 1409.22 370.312C1408.61 371.104 1407.95 372.073 1407.22 373.219V391.719C1407.22 391.885 1407.18 392.031 1407.09 392.156C1407.01 392.26 1406.88 392.354 1406.69 392.438C1406.5 392.521 1406.24 392.583 1405.91 392.625C1405.57 392.667 1405.15 392.688 1404.62 392.688C1404.12 392.688 1403.71 392.667 1403.38 392.625C1403.04 392.583 1402.77 392.521 1402.56 392.438C1402.38 392.354 1402.24 392.26 1402.16 392.156C1402.09 392.031 1402.06 391.885 1402.06 391.719V363.594C1402.06 363.427 1402.09 363.292 1402.16 363.188C1402.22 363.062 1402.34 362.958 1402.53 362.875C1402.72 362.771 1402.96 362.708 1403.25 362.688C1403.54 362.646 1403.93 362.625 1404.41 362.625C1404.86 362.625 1405.24 362.646 1405.53 362.688C1405.84 362.708 1406.08 362.771 1406.25 362.875C1406.42 362.958 1406.53 363.062 1406.59 363.188C1406.68 363.292 1406.72 363.427 1406.72 363.594V367.688C1407.49 366.562 1408.21 365.646 1408.88 364.938C1409.56 364.229 1410.21 363.677 1410.81 363.281C1411.42 362.865 1412.01 362.583 1412.59 362.438C1413.2 362.271 1413.8 362.188 1414.41 362.188C1414.68 362.188 1414.98 362.208 1415.31 362.25C1415.67 362.271 1416.03 362.323 1416.41 362.406C1416.78 362.49 1417.11 362.583 1417.41 362.688C1417.72 362.792 1417.94 362.896 1418.06 363C1418.19 363.104 1418.27 363.208 1418.31 363.312C1418.35 363.396 1418.39 363.51 1418.41 363.656C1418.45 363.802 1418.47 364.021 1418.47 364.312C1418.49 364.583 1418.5 364.958 1418.5 365.438Z" fill="white"/>
<path d="M1429.53 391.719C1429.53 391.885 1429.49 392.031 1429.41 392.156C1429.32 392.26 1429.19 392.354 1429 392.438C1428.81 392.521 1428.55 392.583 1428.22 392.625C1427.89 392.667 1427.46 392.688 1426.94 392.688C1426.44 392.688 1426.02 392.667 1425.69 392.625C1425.35 392.583 1425.08 392.521 1424.88 392.438C1424.69 392.354 1424.55 392.26 1424.47 392.156C1424.41 392.031 1424.38 391.885 1424.38 391.719V363.594C1424.38 363.448 1424.41 363.312 1424.47 363.188C1424.55 363.062 1424.69 362.958 1424.88 362.875C1425.08 362.792 1425.35 362.729 1425.69 362.688C1426.02 362.646 1426.44 362.625 1426.94 362.625C1427.46 362.625 1427.89 362.646 1428.22 362.688C1428.55 362.729 1428.81 362.792 1429 362.875C1429.19 362.958 1429.32 363.062 1429.41 363.188C1429.49 363.312 1429.53 363.448 1429.53 363.594V391.719ZM1430.12 354.094C1430.12 355.302 1429.9 356.125 1429.44 356.562C1428.98 357 1428.14 357.219 1426.91 357.219C1425.7 357.219 1424.86 357.01 1424.41 356.594C1423.97 356.156 1423.75 355.344 1423.75 354.156C1423.75 352.948 1423.98 352.125 1424.44 351.688C1424.9 351.25 1425.74 351.031 1426.97 351.031C1428.18 351.031 1429 351.25 1429.44 351.688C1429.9 352.104 1430.12 352.906 1430.12 354.094Z" fill="white"/>
<path d="M1463.16 391.719C1463.16 391.885 1463.11 392.031 1463.03 392.156C1462.97 392.281 1462.84 392.385 1462.66 392.469C1462.49 392.531 1462.26 392.583 1461.97 392.625C1461.68 392.667 1461.32 392.688 1460.91 392.688C1460.47 392.688 1460.1 392.667 1459.81 392.625C1459.52 392.583 1459.28 392.531 1459.09 392.469C1458.91 392.385 1458.77 392.281 1458.69 392.156C1458.6 392.031 1458.56 391.885 1458.56 391.719V388C1457.08 389.604 1455.54 390.854 1453.94 391.75C1452.35 392.646 1450.61 393.094 1448.72 393.094C1446.66 393.094 1444.9 392.698 1443.44 391.906C1441.98 391.094 1440.79 390.01 1439.88 388.656C1438.98 387.281 1438.32 385.677 1437.91 383.844C1437.49 381.99 1437.28 380.042 1437.28 378C1437.28 375.583 1437.54 373.406 1438.06 371.469C1438.58 369.51 1439.35 367.844 1440.38 366.469C1441.4 365.094 1442.66 364.042 1444.16 363.312C1445.68 362.562 1447.43 362.188 1449.41 362.188C1451.05 362.188 1452.55 362.552 1453.91 363.281C1455.28 363.99 1456.64 365.042 1457.97 366.438V350.094C1457.97 349.948 1458 349.812 1458.06 349.688C1458.15 349.542 1458.29 349.438 1458.5 349.375C1458.71 349.292 1458.97 349.229 1459.28 349.188C1459.61 349.125 1460.03 349.094 1460.53 349.094C1461.05 349.094 1461.48 349.125 1461.81 349.188C1462.15 349.229 1462.41 349.292 1462.59 349.375C1462.78 349.438 1462.92 349.542 1463 349.688C1463.1 349.812 1463.16 349.948 1463.16 350.094V391.719ZM1457.97 371.938C1456.57 370.208 1455.22 368.896 1453.91 368C1452.61 367.083 1451.26 366.625 1449.84 366.625C1448.53 366.625 1447.42 366.938 1446.5 367.562C1445.58 368.188 1444.83 369.01 1444.25 370.031C1443.69 371.052 1443.27 372.208 1443 373.5C1442.75 374.792 1442.62 376.104 1442.62 377.438C1442.62 378.854 1442.73 380.24 1442.94 381.594C1443.17 382.948 1443.55 384.156 1444.09 385.219C1444.64 386.26 1445.35 387.104 1446.25 387.75C1447.15 388.375 1448.27 388.688 1449.62 388.688C1450.31 388.688 1450.97 388.594 1451.59 388.406C1452.24 388.219 1452.9 387.906 1453.56 387.469C1454.23 387.031 1454.93 386.469 1455.66 385.781C1456.39 385.073 1457.16 384.208 1457.97 383.188V371.938Z" fill="white"/>
<path d="M1496.19 364.875C1496.19 365.604 1496.08 366.135 1495.88 366.469C1495.69 366.781 1495.44 366.938 1495.12 366.938H1491.09C1491.82 367.688 1492.33 368.521 1492.62 369.438C1492.92 370.333 1493.06 371.271 1493.06 372.25C1493.06 373.875 1492.8 375.312 1492.28 376.562C1491.76 377.812 1491.01 378.875 1490.03 379.75C1489.07 380.604 1487.93 381.26 1486.59 381.719C1485.26 382.177 1483.78 382.406 1482.16 382.406C1481.01 382.406 1479.92 382.26 1478.88 381.969C1477.85 381.656 1477.06 381.271 1476.5 380.812C1476.12 381.188 1475.81 381.615 1475.56 382.094C1475.33 382.573 1475.22 383.125 1475.22 383.75C1475.22 384.479 1475.55 385.083 1476.22 385.562C1476.91 386.042 1477.81 386.302 1478.94 386.344L1486.28 386.656C1487.68 386.698 1488.96 386.896 1490.12 387.25C1491.29 387.583 1492.3 388.073 1493.16 388.719C1494.01 389.344 1494.68 390.125 1495.16 391.062C1495.64 391.979 1495.88 393.052 1495.88 394.281C1495.88 395.573 1495.6 396.802 1495.06 397.969C1494.52 399.135 1493.69 400.156 1492.56 401.031C1491.46 401.927 1490.04 402.625 1488.31 403.125C1486.58 403.646 1484.54 403.906 1482.19 403.906C1479.92 403.906 1477.98 403.708 1476.38 403.312C1474.79 402.938 1473.49 402.417 1472.47 401.75C1471.45 401.083 1470.71 400.281 1470.25 399.344C1469.79 398.427 1469.56 397.427 1469.56 396.344C1469.56 395.656 1469.65 394.99 1469.81 394.344C1469.98 393.698 1470.23 393.083 1470.56 392.5C1470.92 391.917 1471.34 391.365 1471.84 390.844C1472.36 390.302 1472.96 389.771 1473.62 389.25C1472.6 388.729 1471.84 388.073 1471.34 387.281C1470.86 386.49 1470.62 385.635 1470.62 384.719C1470.62 383.448 1470.89 382.312 1471.41 381.312C1471.93 380.312 1472.57 379.417 1473.34 378.625C1472.7 377.854 1472.19 376.99 1471.81 376.031C1471.44 375.052 1471.25 373.875 1471.25 372.5C1471.25 370.896 1471.52 369.458 1472.06 368.188C1472.6 366.917 1473.35 365.844 1474.31 364.969C1475.27 364.094 1476.42 363.427 1477.75 362.969C1479.1 362.49 1480.57 362.25 1482.16 362.25C1483.01 362.25 1483.8 362.302 1484.53 362.406C1485.28 362.49 1485.98 362.615 1486.62 362.781H1495.12C1495.48 362.781 1495.74 362.958 1495.91 363.312C1496.09 363.646 1496.19 364.167 1496.19 364.875ZM1488.12 372.281C1488.12 370.365 1487.59 368.875 1486.53 367.812C1485.49 366.729 1484 366.188 1482.06 366.188C1481.06 366.188 1480.19 366.354 1479.44 366.688C1478.71 367.021 1478.09 367.479 1477.59 368.062C1477.11 368.646 1476.75 369.323 1476.5 370.094C1476.27 370.844 1476.16 371.635 1476.16 372.469C1476.16 374.323 1476.68 375.781 1477.72 376.844C1478.78 377.906 1480.26 378.438 1482.16 378.438C1483.18 378.438 1484.06 378.281 1484.81 377.969C1485.56 377.635 1486.18 377.188 1486.66 376.625C1487.16 376.042 1487.52 375.375 1487.75 374.625C1488 373.875 1488.12 373.094 1488.12 372.281ZM1490.72 394.562C1490.72 393.354 1490.22 392.427 1489.22 391.781C1488.24 391.115 1486.91 390.76 1485.22 390.719L1477.94 390.469C1477.27 390.99 1476.72 391.49 1476.28 391.969C1475.86 392.427 1475.53 392.865 1475.28 393.281C1475.03 393.719 1474.85 394.146 1474.75 394.562C1474.67 394.979 1474.62 395.406 1474.62 395.844C1474.62 397.198 1475.31 398.219 1476.69 398.906C1478.06 399.615 1479.98 399.969 1482.44 399.969C1484 399.969 1485.3 399.812 1486.34 399.5C1487.41 399.208 1488.26 398.812 1488.91 398.312C1489.55 397.812 1490.01 397.24 1490.28 396.594C1490.57 395.948 1490.72 395.271 1490.72 394.562Z" fill="white"/>
<path d="M1526.25 376.438C1526.25 377.25 1526.04 377.833 1525.62 378.188C1525.23 378.521 1524.77 378.688 1524.25 378.688H1505.81C1505.81 380.25 1505.97 381.656 1506.28 382.906C1506.59 384.156 1507.11 385.229 1507.84 386.125C1508.57 387.021 1509.52 387.708 1510.69 388.188C1511.85 388.667 1513.28 388.906 1514.97 388.906C1516.3 388.906 1517.49 388.802 1518.53 388.594C1519.57 388.365 1520.47 388.115 1521.22 387.844C1521.99 387.573 1522.61 387.333 1523.09 387.125C1523.59 386.896 1523.97 386.781 1524.22 386.781C1524.36 386.781 1524.49 386.823 1524.59 386.906C1524.72 386.969 1524.81 387.073 1524.88 387.219C1524.94 387.365 1524.98 387.573 1525 387.844C1525.04 388.094 1525.06 388.406 1525.06 388.781C1525.06 389.052 1525.05 389.292 1525.03 389.5C1525.01 389.688 1524.98 389.865 1524.94 390.031C1524.92 390.177 1524.86 390.312 1524.78 390.438C1524.72 390.562 1524.62 390.688 1524.5 390.812C1524.4 390.917 1524.06 391.104 1523.5 391.375C1522.94 391.625 1522.21 391.875 1521.31 392.125C1520.42 392.375 1519.38 392.594 1518.19 392.781C1517.02 392.99 1515.77 393.094 1514.44 393.094C1512.12 393.094 1510.09 392.771 1508.34 392.125C1506.61 391.479 1505.16 390.521 1503.97 389.25C1502.78 387.979 1501.89 386.385 1501.28 384.469C1500.68 382.552 1500.38 380.323 1500.38 377.781C1500.38 375.365 1500.69 373.198 1501.31 371.281C1501.94 369.344 1502.83 367.708 1504 366.375C1505.19 365.021 1506.61 363.99 1508.28 363.281C1509.95 362.552 1511.81 362.188 1513.88 362.188C1516.08 362.188 1517.96 362.542 1519.5 363.25C1521.06 363.958 1522.34 364.917 1523.34 366.125C1524.34 367.312 1525.07 368.719 1525.53 370.344C1526.01 371.948 1526.25 373.667 1526.25 375.5V376.438ZM1521.06 374.906C1521.12 372.198 1520.52 370.073 1519.25 368.531C1518 366.99 1516.14 366.219 1513.66 366.219C1512.39 366.219 1511.27 366.458 1510.31 366.938C1509.35 367.417 1508.55 368.052 1507.91 368.844C1507.26 369.635 1506.76 370.562 1506.41 371.625C1506.05 372.667 1505.85 373.76 1505.81 374.906H1521.06Z" fill="white"/>
<path d="M1551.78 384.062C1551.78 385.5 1551.51 386.781 1550.97 387.906C1550.45 389.031 1549.7 389.979 1548.72 390.75C1547.74 391.521 1546.57 392.104 1545.22 392.5C1543.86 392.896 1542.38 393.094 1540.75 393.094C1539.75 393.094 1538.79 393.01 1537.88 392.844C1536.98 392.698 1536.17 392.51 1535.44 392.281C1534.73 392.031 1534.12 391.781 1533.62 391.531C1533.12 391.26 1532.76 391.021 1532.53 390.812C1532.3 390.604 1532.14 390.312 1532.03 389.938C1531.93 389.562 1531.88 389.052 1531.88 388.406C1531.88 388.01 1531.9 387.677 1531.94 387.406C1531.98 387.135 1532.03 386.917 1532.09 386.75C1532.16 386.583 1532.24 386.469 1532.34 386.406C1532.47 386.323 1532.6 386.281 1532.75 386.281C1532.98 386.281 1533.31 386.427 1533.75 386.719C1534.21 386.99 1534.76 387.292 1535.41 387.625C1536.07 387.958 1536.85 388.271 1537.75 388.562C1538.65 388.833 1539.68 388.969 1540.84 388.969C1541.72 388.969 1542.51 388.875 1543.22 388.688C1543.93 388.5 1544.54 388.229 1545.06 387.875C1545.58 387.5 1545.98 387.031 1546.25 386.469C1546.54 385.906 1546.69 385.24 1546.69 384.469C1546.69 383.677 1546.48 383.01 1546.06 382.469C1545.67 381.927 1545.14 381.448 1544.47 381.031C1543.8 380.615 1543.05 380.25 1542.22 379.938C1541.39 379.604 1540.52 379.26 1539.62 378.906C1538.75 378.552 1537.89 378.156 1537.03 377.719C1536.2 377.26 1535.45 376.708 1534.78 376.062C1534.11 375.417 1533.57 374.646 1533.16 373.75C1532.76 372.854 1532.56 371.781 1532.56 370.531C1532.56 369.427 1532.77 368.375 1533.19 367.375C1533.62 366.354 1534.27 365.469 1535.12 364.719C1535.98 363.948 1537.04 363.333 1538.31 362.875C1539.6 362.417 1541.1 362.188 1542.81 362.188C1543.56 362.188 1544.31 362.25 1545.06 362.375C1545.81 362.5 1546.49 362.656 1547.09 362.844C1547.7 363.031 1548.21 363.24 1548.62 363.469C1549.06 363.677 1549.39 363.865 1549.59 364.031C1549.82 364.198 1549.97 364.344 1550.03 364.469C1550.11 364.594 1550.17 364.74 1550.19 364.906C1550.23 365.052 1550.26 365.24 1550.28 365.469C1550.32 365.698 1550.34 365.979 1550.34 366.312C1550.34 366.667 1550.32 366.979 1550.28 367.25C1550.26 367.5 1550.21 367.708 1550.12 367.875C1550.06 368.042 1549.98 368.167 1549.88 368.25C1549.77 368.312 1549.66 368.344 1549.53 368.344C1549.34 368.344 1549.07 368.229 1548.72 368C1548.36 367.771 1547.91 367.531 1547.34 367.281C1546.78 367.01 1546.11 366.76 1545.34 366.531C1544.59 366.302 1543.73 366.188 1542.75 366.188C1541.88 366.188 1541.1 366.292 1540.44 366.5C1539.77 366.688 1539.22 366.969 1538.78 367.344C1538.36 367.698 1538.04 368.125 1537.81 368.625C1537.6 369.125 1537.5 369.667 1537.5 370.25C1537.5 371.062 1537.71 371.75 1538.12 372.312C1538.54 372.854 1539.08 373.333 1539.75 373.75C1540.42 374.167 1541.18 374.542 1542.03 374.875C1542.89 375.208 1543.75 375.552 1544.62 375.906C1545.52 376.26 1546.4 376.656 1547.25 377.094C1548.12 377.531 1548.9 378.062 1549.56 378.688C1550.23 379.312 1550.76 380.062 1551.16 380.938C1551.57 381.812 1551.78 382.854 1551.78 384.062Z" fill="white"/>
</svg>
