<svg width="2115" height="512" viewBox="0 0 2115 512" fill="none" xmlns="http://www.w3.org/2000/svg">
<path d="M416.644 454.201C473.776 407.253 510.24 335.9 510.24 256C510.24 114.617 396.073 0 255.252 0C114.431 0 0.25 114.617 0.25 256C0.25 397.383 114.417 512 255.238 512H512.25L416.644 454.201ZM307.912 211.084L244.469 384.332L180.175 258.405L173.773 273.647L65.01 260.813L152.018 247.98L175.083 187.154L239.03 310.525L306.098 127.668L356.853 249.587L447.49 260.817L336.916 275.253L307.912 211.084Z" fill="#EA580C"/>
<path d="M751 228.938C751 238.021 749.583 246.062 746.75 253.062C743.917 260.062 739.792 265.979 734.375 270.812C728.958 275.562 722.292 279.188 714.375 281.688C706.542 284.188 697.292 285.438 686.625 285.438H673.125V337.062C673.125 337.896 672.833 338.646 672.25 339.312C671.75 339.979 670.875 340.521 669.625 340.938C668.375 341.354 666.708 341.688 664.625 341.938C662.542 342.188 659.875 342.312 656.625 342.312C653.458 342.312 650.792 342.188 648.625 341.938C646.542 341.688 644.875 341.354 643.625 340.938C642.375 340.521 641.5 339.979 641 339.312C640.5 338.646 640.25 337.896 640.25 337.062V191.562C640.25 187.646 641.25 184.729 643.25 182.812C645.333 180.812 648.042 179.812 651.375 179.812H689.5C693.333 179.812 696.958 179.979 700.375 180.312C703.875 180.562 708.042 181.188 712.875 182.188C717.708 183.104 722.583 184.854 727.5 187.438C732.5 190.021 736.75 193.312 740.25 197.312C743.75 201.229 746.417 205.854 748.25 211.188C750.083 216.438 751 222.354 751 228.938ZM716.625 231.312C716.625 225.646 715.625 220.979 713.625 217.312C711.625 213.646 709.167 210.938 706.25 209.188C703.333 207.438 700.25 206.354 697 205.938C693.833 205.438 690.542 205.188 687.125 205.188H673.125V260.062H687.875C693.125 260.062 697.5 259.354 701 257.938C704.583 256.521 707.5 254.562 709.75 252.062C712 249.479 713.708 246.438 714.875 242.938C716.042 239.354 716.625 235.479 716.625 231.312Z" fill="#EA580C"/>
<path d="M880.375 337.312C880.375 338.146 880.167 338.896 879.75 339.562C879.333 340.146 878.583 340.646 877.5 341.062C876.5 341.479 875.125 341.771 873.375 341.938C871.708 342.188 869.583 342.312 867 342.312C864.25 342.312 862 342.188 860.25 341.938C858.583 341.771 857.25 341.479 856.25 341.062C855.25 340.646 854.542 340.146 854.125 339.562C853.708 338.896 853.5 338.146 853.5 337.312V324.438C847.333 331.104 841.042 336.104 834.625 339.438C828.292 342.771 821.708 344.438 814.875 344.438C807.208 344.438 800.75 343.188 795.5 340.688C790.333 338.188 786.125 334.771 782.875 330.438C779.708 326.104 777.417 321.104 776 315.438C774.667 309.688 774 302.562 774 294.062V225.812C774 224.979 774.208 224.271 774.625 223.688C775.125 223.021 775.958 222.479 777.125 222.062C778.375 221.646 780 221.354 782 221.188C784.083 220.938 786.625 220.812 789.625 220.812C792.708 220.812 795.25 220.938 797.25 221.188C799.25 221.354 800.833 221.646 802 222.062C803.25 222.479 804.125 223.021 804.625 223.688C805.125 224.271 805.375 224.979 805.375 225.812V288.812C805.375 294.646 805.75 299.104 806.5 302.188C807.25 305.271 808.375 307.938 809.875 310.188C811.458 312.354 813.417 314.062 815.75 315.312C818.167 316.479 820.958 317.062 824.125 317.062C828.125 317.062 832.125 315.604 836.125 312.688C840.208 309.771 844.542 305.521 849.125 299.938V225.812C849.125 224.979 849.333 224.271 849.75 223.688C850.25 223.021 851.083 222.479 852.25 222.062C853.5 221.646 855.125 221.354 857.125 221.188C859.125 220.938 861.667 220.812 864.75 220.812C867.833 220.812 870.375 220.938 872.375 221.188C874.375 221.354 875.958 221.646 877.125 222.062C878.292 222.479 879.125 223.021 879.625 223.688C880.125 224.271 880.375 224.979 880.375 225.812V337.312Z" fill="#EA580C"/>
<path d="M943.625 337.312C943.625 338.146 943.375 338.896 942.875 339.562C942.375 340.146 941.5 340.646 940.25 341.062C939.083 341.479 937.5 341.771 935.5 341.938C933.5 342.188 930.958 342.312 927.875 342.312C924.792 342.312 922.25 342.188 920.25 341.938C918.25 341.771 916.625 341.479 915.375 341.062C914.208 340.646 913.375 340.146 912.875 339.562C912.375 338.896 912.125 338.146 912.125 337.312V172.938C912.125 172.104 912.375 171.354 912.875 170.688C913.375 170.021 914.208 169.479 915.375 169.062C916.625 168.562 918.25 168.188 920.25 167.938C922.25 167.688 924.792 167.562 927.875 167.562C930.958 167.562 933.5 167.688 935.5 167.938C937.5 168.188 939.083 168.562 940.25 169.062C941.5 169.479 942.375 170.021 942.875 170.688C943.375 171.354 943.625 172.104 943.625 172.938V337.312Z" fill="#EA580C"/>
<path d="M1053.62 305.812C1053.62 312.146 1052.42 317.729 1050 322.562C1047.67 327.396 1044.33 331.438 1040 334.688C1035.67 337.938 1030.54 340.354 1024.62 341.938C1018.71 343.604 1012.29 344.438 1005.38 344.438C1001.21 344.438 997.208 344.104 993.375 343.438C989.625 342.854 986.25 342.104 983.25 341.188C980.25 340.188 977.75 339.188 975.75 338.188C973.75 337.188 972.292 336.271 971.375 335.438C970.458 334.521 969.75 333.146 969.25 331.312C968.75 329.396 968.5 326.604 968.5 322.938C968.5 320.521 968.583 318.604 968.75 317.188C968.917 315.688 969.167 314.521 969.5 313.688C969.833 312.771 970.25 312.188 970.75 311.938C971.25 311.604 971.875 311.438 972.625 311.438C973.542 311.438 974.875 311.979 976.625 313.062C978.458 314.062 980.708 315.188 983.375 316.438C986.042 317.688 989.125 318.854 992.625 319.938C996.208 321.021 1000.25 321.562 1004.75 321.562C1007.58 321.562 1010.08 321.271 1012.25 320.688C1014.5 320.104 1016.42 319.271 1018 318.188C1019.67 317.104 1020.92 315.729 1021.75 314.062C1022.58 312.396 1023 310.479 1023 308.312C1023 305.812 1022.21 303.688 1020.62 301.938C1019.12 300.104 1017.08 298.521 1014.5 297.188C1012 295.854 1009.12 294.604 1005.88 293.438C1002.71 292.271 999.417 290.979 996 289.562C992.667 288.146 989.375 286.521 986.125 284.688C982.958 282.854 980.083 280.604 977.5 277.938C975 275.271 972.958 272.062 971.375 268.312C969.875 264.562 969.125 260.062 969.125 254.812C969.125 249.479 970.167 244.604 972.25 240.188C974.333 235.688 977.333 231.854 981.25 228.688C985.167 225.521 989.917 223.062 995.5 221.312C1001.17 219.562 1007.5 218.688 1014.5 218.688C1018 218.688 1021.38 218.938 1024.62 219.438C1027.96 219.938 1030.96 220.562 1033.62 221.312C1036.29 222.062 1038.54 222.896 1040.38 223.812C1042.21 224.646 1043.5 225.396 1044.25 226.062C1045.08 226.646 1045.67 227.271 1046 227.938C1046.33 228.521 1046.58 229.271 1046.75 230.188C1046.92 231.021 1047.04 232.104 1047.12 233.438C1047.29 234.688 1047.38 236.271 1047.38 238.188C1047.38 240.438 1047.29 242.271 1047.12 243.688C1047.04 245.104 1046.83 246.229 1046.5 247.062C1046.25 247.896 1045.88 248.479 1045.38 248.812C1044.88 249.062 1044.29 249.188 1043.62 249.188C1042.88 249.188 1041.71 248.771 1040.12 247.938C1038.54 247.021 1036.54 246.062 1034.12 245.062C1031.79 244.062 1029.04 243.146 1025.88 242.312C1022.79 241.396 1019.25 240.938 1015.25 240.938C1012.42 240.938 1009.96 241.229 1007.88 241.812C1005.79 242.396 1004.08 243.229 1002.75 244.312C1001.42 245.396 1000.42 246.688 999.75 248.188C999.083 249.604 998.75 251.146 998.75 252.812C998.75 255.396 999.542 257.562 1001.12 259.312C1002.71 261.062 1004.79 262.604 1007.38 263.938C1009.96 265.271 1012.88 266.521 1016.12 267.688C1019.46 268.854 1022.79 270.146 1026.12 271.562C1029.54 272.896 1032.88 274.479 1036.12 276.312C1039.46 278.146 1042.42 280.396 1045 283.062C1047.58 285.729 1049.67 288.938 1051.25 292.688C1052.83 296.354 1053.62 300.729 1053.62 305.812Z" fill="#EA580C"/>
<path d="M1180.38 278.312C1180.38 282.146 1179.5 284.979 1177.75 286.812C1176.08 288.646 1173.75 289.562 1170.75 289.562H1102.88C1102.88 294.312 1103.42 298.646 1104.5 302.562C1105.67 306.396 1107.46 309.688 1109.88 312.438C1112.38 315.104 1115.54 317.146 1119.38 318.562C1123.29 319.979 1127.96 320.688 1133.38 320.688C1138.88 320.688 1143.71 320.312 1147.88 319.562C1152.04 318.729 1155.62 317.854 1158.62 316.938C1161.71 315.938 1164.25 315.062 1166.25 314.312C1168.25 313.479 1169.88 313.062 1171.12 313.062C1171.88 313.062 1172.5 313.229 1173 313.562C1173.5 313.812 1173.92 314.312 1174.25 315.062C1174.58 315.812 1174.79 316.896 1174.88 318.312C1175.04 319.646 1175.12 321.354 1175.12 323.438C1175.12 325.271 1175.08 326.854 1175 328.188C1174.92 329.438 1174.79 330.521 1174.62 331.438C1174.46 332.354 1174.21 333.146 1173.88 333.812C1173.54 334.396 1173.08 334.979 1172.5 335.562C1172 336.146 1170.54 336.938 1168.12 337.938C1165.71 338.938 1162.62 339.938 1158.88 340.938C1155.12 341.854 1150.83 342.646 1146 343.312C1141.17 344.062 1136 344.438 1130.5 344.438C1120.58 344.438 1111.88 343.188 1104.38 340.688C1096.96 338.188 1090.75 334.396 1085.75 329.312C1080.75 324.229 1077 317.812 1074.5 310.062C1072.08 302.312 1070.88 293.229 1070.88 282.812C1070.88 272.896 1072.17 263.979 1074.75 256.062C1077.33 248.062 1081.08 241.312 1086 235.812C1090.92 230.229 1096.88 225.979 1103.88 223.062C1110.96 220.146 1118.92 218.688 1127.75 218.688C1137.08 218.688 1145.04 220.062 1151.62 222.812C1158.29 225.562 1163.75 229.396 1168 234.312C1172.25 239.146 1175.38 244.896 1177.38 251.562C1179.38 258.229 1180.38 265.479 1180.38 273.312V278.312ZM1149.88 269.312C1150.12 260.479 1148.33 253.562 1144.5 248.562C1140.75 243.479 1134.92 240.938 1127 240.938C1123 240.938 1119.5 241.688 1116.5 243.188C1113.58 244.688 1111.12 246.729 1109.12 249.312C1107.21 251.812 1105.71 254.812 1104.62 258.312C1103.62 261.729 1103.04 265.396 1102.88 269.312H1149.88Z" fill="#EA580C"/>
<path d="M1378.12 317.062C1378.12 319.146 1378.04 320.938 1377.88 322.438C1377.79 323.854 1377.62 325.104 1377.38 326.188C1377.12 327.188 1376.79 328.062 1376.38 328.812C1375.96 329.562 1375.29 330.438 1374.38 331.438C1373.46 332.354 1371.67 333.562 1369 335.062C1366.42 336.562 1363.21 338.021 1359.38 339.438C1355.62 340.771 1351.29 341.896 1346.38 342.812C1341.54 343.729 1336.29 344.188 1330.62 344.188C1319.54 344.188 1309.54 342.479 1300.62 339.062C1291.71 335.646 1284.12 330.562 1277.88 323.812C1271.62 316.979 1266.83 308.479 1263.5 298.312C1260.17 288.146 1258.5 276.312 1258.5 262.812C1258.5 249.062 1260.33 236.854 1264 226.188C1267.67 215.521 1272.79 206.562 1279.38 199.312C1285.96 192.062 1293.83 186.562 1303 182.812C1312.25 179.062 1322.42 177.188 1333.5 177.188C1338 177.188 1342.33 177.562 1346.5 178.312C1350.67 179.062 1354.5 180.062 1358 181.312C1361.58 182.479 1364.79 183.854 1367.62 185.438C1370.46 187.021 1372.42 188.396 1373.5 189.562C1374.67 190.646 1375.46 191.562 1375.88 192.312C1376.29 193.062 1376.62 194.021 1376.88 195.188C1377.12 196.354 1377.29 197.729 1377.38 199.312C1377.54 200.896 1377.62 202.854 1377.62 205.188C1377.62 207.688 1377.54 209.812 1377.38 211.562C1377.21 213.312 1376.92 214.729 1376.5 215.812C1376.08 216.896 1375.58 217.688 1375 218.188C1374.42 218.688 1373.75 218.938 1373 218.938C1371.75 218.938 1370.17 218.229 1368.25 216.812C1366.33 215.312 1363.83 213.688 1360.75 211.938C1357.75 210.104 1354.12 208.479 1349.88 207.062C1345.71 205.562 1340.71 204.812 1334.88 204.812C1328.46 204.812 1322.71 206.146 1317.62 208.812C1312.62 211.396 1308.33 215.146 1304.75 220.062C1301.25 224.896 1298.58 230.771 1296.75 237.688C1294.92 244.604 1294 252.396 1294 261.062C1294 270.562 1294.96 278.812 1296.88 285.812C1298.88 292.729 1301.67 298.438 1305.25 302.938C1308.92 307.438 1313.29 310.812 1318.38 313.062C1323.54 315.229 1329.33 316.312 1335.75 316.312C1341.58 316.312 1346.62 315.646 1350.88 314.312C1355.12 312.896 1358.75 311.354 1361.75 309.688C1364.83 308.021 1367.33 306.521 1369.25 305.188C1371.25 303.854 1372.79 303.188 1373.88 303.188C1374.71 303.188 1375.38 303.354 1375.88 303.688C1376.38 304.021 1376.79 304.688 1377.12 305.688C1377.46 306.688 1377.71 308.104 1377.88 309.938C1378.04 311.688 1378.12 314.062 1378.12 317.062Z" fill="black"/>
<path d="M1512.62 280.438C1512.62 289.938 1511.38 298.604 1508.88 306.438C1506.38 314.271 1502.58 321.021 1497.5 326.688C1492.42 332.354 1486.04 336.729 1478.38 339.812C1470.71 342.896 1461.75 344.438 1451.5 344.438C1441.58 344.438 1432.96 343.062 1425.62 340.312C1418.29 337.562 1412.21 333.562 1407.38 328.312C1402.54 323.062 1398.96 316.604 1396.62 308.938C1394.29 301.271 1393.12 292.521 1393.12 282.688C1393.12 273.188 1394.38 264.521 1396.88 256.688C1399.46 248.771 1403.29 242.021 1408.38 236.438C1413.46 230.771 1419.79 226.396 1427.38 223.312C1435.04 220.229 1444 218.688 1454.25 218.688C1464.25 218.688 1472.92 220.062 1480.25 222.812C1487.58 225.479 1493.62 229.438 1498.38 234.688C1503.21 239.938 1506.79 246.396 1509.12 254.062C1511.46 261.729 1512.62 270.521 1512.62 280.438ZM1480.25 281.688C1480.25 276.188 1479.79 271.146 1478.88 266.562C1478.04 261.896 1476.58 257.854 1474.5 254.438C1472.42 251.021 1469.62 248.354 1466.12 246.438C1462.71 244.521 1458.38 243.562 1453.12 243.562C1448.46 243.562 1444.38 244.438 1440.88 246.188C1437.38 247.854 1434.5 250.354 1432.25 253.688C1430 256.938 1428.29 260.896 1427.12 265.562C1426.04 270.146 1425.5 275.396 1425.5 281.312C1425.5 286.812 1425.96 291.896 1426.88 296.562C1427.79 301.146 1429.25 305.146 1431.25 308.562C1433.33 311.979 1436.12 314.646 1439.62 316.562C1443.12 318.396 1447.46 319.312 1452.62 319.312C1457.38 319.312 1461.5 318.479 1465 316.812C1468.5 315.062 1471.38 312.562 1473.62 309.312C1475.88 306.062 1477.54 302.146 1478.62 297.562C1479.71 292.896 1480.25 287.604 1480.25 281.688Z" fill="black"/>
<path d="M1644.12 337.312C1644.12 338.146 1643.88 338.896 1643.38 339.562C1642.88 340.146 1642.04 340.646 1640.88 341.062C1639.71 341.479 1638.08 341.771 1636 341.938C1634 342.188 1631.5 342.312 1628.5 342.312C1625.42 342.312 1622.83 342.188 1620.75 341.938C1618.75 341.771 1617.17 341.479 1616 341.062C1614.83 340.646 1614 340.146 1613.5 339.562C1613 338.896 1612.75 338.146 1612.75 337.312V273.688C1612.75 268.271 1612.33 264.021 1611.5 260.938C1610.75 257.854 1609.62 255.229 1608.12 253.062C1606.62 250.812 1604.67 249.104 1602.25 247.938C1599.92 246.688 1597.17 246.062 1594 246.062C1590 246.062 1585.96 247.521 1581.88 250.438C1577.79 253.354 1573.54 257.604 1569.12 263.188V337.312C1569.12 338.146 1568.88 338.896 1568.38 339.562C1567.88 340.146 1567 340.646 1565.75 341.062C1564.58 341.479 1563 341.771 1561 341.938C1559 342.188 1556.46 342.312 1553.38 342.312C1550.29 342.312 1547.75 342.188 1545.75 341.938C1543.75 341.771 1542.12 341.479 1540.88 341.062C1539.71 340.646 1538.88 340.146 1538.38 339.562C1537.88 338.896 1537.62 338.146 1537.62 337.312V225.812C1537.62 224.979 1537.83 224.271 1538.25 223.688C1538.67 223.021 1539.42 222.479 1540.5 222.062C1541.58 221.646 1542.96 221.354 1544.62 221.188C1546.38 220.938 1548.54 220.812 1551.12 220.812C1553.79 220.812 1556 220.938 1557.75 221.188C1559.5 221.354 1560.83 221.646 1561.75 222.062C1562.75 222.479 1563.46 223.021 1563.88 223.688C1564.29 224.271 1564.5 224.979 1564.5 225.812V238.688C1570.67 232.021 1576.92 227.021 1583.25 223.688C1589.67 220.354 1596.33 218.688 1603.25 218.688C1610.83 218.688 1617.21 219.938 1622.38 222.438C1627.62 224.938 1631.83 228.354 1635 232.688C1638.25 236.938 1640.58 241.938 1642 247.688C1643.42 253.438 1644.12 260.354 1644.12 268.438V337.312Z" fill="black"/>
<path d="M1781.62 337.312C1781.62 338.146 1781.38 338.896 1780.88 339.562C1780.38 340.146 1779.54 340.646 1778.38 341.062C1777.21 341.479 1775.58 341.771 1773.5 341.938C1771.5 342.188 1769 342.312 1766 342.312C1762.92 342.312 1760.33 342.188 1758.25 341.938C1756.25 341.771 1754.67 341.479 1753.5 341.062C1752.33 340.646 1751.5 340.146 1751 339.562C1750.5 338.896 1750.25 338.146 1750.25 337.312V273.688C1750.25 268.271 1749.83 264.021 1749 260.938C1748.25 257.854 1747.12 255.229 1745.62 253.062C1744.12 250.812 1742.17 249.104 1739.75 247.938C1737.42 246.688 1734.67 246.062 1731.5 246.062C1727.5 246.062 1723.46 247.521 1719.38 250.438C1715.29 253.354 1711.04 257.604 1706.62 263.188V337.312C1706.62 338.146 1706.38 338.896 1705.88 339.562C1705.38 340.146 1704.5 340.646 1703.25 341.062C1702.08 341.479 1700.5 341.771 1698.5 341.938C1696.5 342.188 1693.96 342.312 1690.88 342.312C1687.79 342.312 1685.25 342.188 1683.25 341.938C1681.25 341.771 1679.62 341.479 1678.38 341.062C1677.21 340.646 1676.38 340.146 1675.88 339.562C1675.38 338.896 1675.12 338.146 1675.12 337.312V225.812C1675.12 224.979 1675.33 224.271 1675.75 223.688C1676.17 223.021 1676.92 222.479 1678 222.062C1679.08 221.646 1680.46 221.354 1682.12 221.188C1683.88 220.938 1686.04 220.812 1688.62 220.812C1691.29 220.812 1693.5 220.938 1695.25 221.188C1697 221.354 1698.33 221.646 1699.25 222.062C1700.25 222.479 1700.96 223.021 1701.38 223.688C1701.79 224.271 1702 224.979 1702 225.812V238.688C1708.17 232.021 1714.42 227.021 1720.75 223.688C1727.17 220.354 1733.83 218.688 1740.75 218.688C1748.33 218.688 1754.71 219.938 1759.88 222.438C1765.12 224.938 1769.33 228.354 1772.5 232.688C1775.75 236.938 1778.08 241.938 1779.5 247.688C1780.92 253.438 1781.62 260.354 1781.62 268.438V337.312Z" fill="black"/>
<path d="M1915.62 278.312C1915.62 282.146 1914.75 284.979 1913 286.812C1911.33 288.646 1909 289.562 1906 289.562H1838.12C1838.12 294.312 1838.67 298.646 1839.75 302.562C1840.92 306.396 1842.71 309.688 1845.12 312.438C1847.62 315.104 1850.79 317.146 1854.62 318.562C1858.54 319.979 1863.21 320.688 1868.62 320.688C1874.12 320.688 1878.96 320.312 1883.12 319.562C1887.29 318.729 1890.88 317.854 1893.88 316.938C1896.96 315.938 1899.5 315.062 1901.5 314.312C1903.5 313.479 1905.12 313.062 1906.38 313.062C1907.12 313.062 1907.75 313.229 1908.25 313.562C1908.75 313.812 1909.17 314.312 1909.5 315.062C1909.83 315.812 1910.04 316.896 1910.12 318.312C1910.29 319.646 1910.38 321.354 1910.38 323.438C1910.38 325.271 1910.33 326.854 1910.25 328.188C1910.17 329.438 1910.04 330.521 1909.88 331.438C1909.71 332.354 1909.46 333.146 1909.12 333.812C1908.79 334.396 1908.33 334.979 1907.75 335.562C1907.25 336.146 1905.79 336.938 1903.38 337.938C1900.96 338.938 1897.88 339.938 1894.12 340.938C1890.38 341.854 1886.08 342.646 1881.25 343.312C1876.42 344.062 1871.25 344.438 1865.75 344.438C1855.83 344.438 1847.12 343.188 1839.62 340.688C1832.21 338.188 1826 334.396 1821 329.312C1816 324.229 1812.25 317.812 1809.75 310.062C1807.33 302.312 1806.12 293.229 1806.12 282.812C1806.12 272.896 1807.42 263.979 1810 256.062C1812.58 248.062 1816.33 241.312 1821.25 235.812C1826.17 230.229 1832.12 225.979 1839.12 223.062C1846.21 220.146 1854.17 218.688 1863 218.688C1872.33 218.688 1880.29 220.062 1886.88 222.812C1893.54 225.562 1899 229.396 1903.25 234.312C1907.5 239.146 1910.62 244.896 1912.62 251.562C1914.62 258.229 1915.62 265.479 1915.62 273.312V278.312ZM1885.12 269.312C1885.38 260.479 1883.58 253.562 1879.75 248.562C1876 243.479 1870.17 240.938 1862.25 240.938C1858.25 240.938 1854.75 241.688 1851.75 243.188C1848.83 244.688 1846.38 246.729 1844.38 249.312C1842.46 251.812 1840.96 254.812 1839.88 258.312C1838.88 261.729 1838.29 265.396 1838.12 269.312H1885.12Z" fill="black"/>
<path d="M2026 319.562C2026 321.729 2025.92 323.562 2025.75 325.062C2025.67 326.479 2025.5 327.688 2025.25 328.688C2025.08 329.688 2024.83 330.521 2024.5 331.188C2024.25 331.771 2023.62 332.562 2022.62 333.562C2021.62 334.479 2019.92 335.646 2017.5 337.062C2015.08 338.396 2012.33 339.604 2009.25 340.688C2006.17 341.771 2002.79 342.646 1999.12 343.312C1995.54 343.979 1991.83 344.312 1988 344.312C1979.42 344.312 1971.79 342.979 1965.12 340.312C1958.54 337.646 1953 333.729 1948.5 328.562C1944 323.312 1940.58 316.938 1938.25 309.438C1936 301.938 1934.88 293.354 1934.88 283.688C1934.88 272.521 1936.25 262.896 1939 254.812C1941.83 246.646 1945.75 239.896 1950.75 234.562C1955.75 229.229 1961.67 225.271 1968.5 222.688C1975.33 220.104 1982.83 218.812 1991 218.812C1994.33 218.812 1997.58 219.104 2000.75 219.688C2004 220.271 2007 221.062 2009.75 222.062C2012.58 223.062 2015.08 224.188 2017.25 225.438C2019.5 226.688 2021.08 227.771 2022 228.688C2022.92 229.604 2023.54 230.396 2023.88 231.062C2024.29 231.646 2024.58 232.438 2024.75 233.438C2025 234.438 2025.17 235.688 2025.25 237.188C2025.42 238.604 2025.5 240.354 2025.5 242.438C2025.5 247.271 2025.08 250.688 2024.25 252.688C2023.42 254.604 2022.33 255.562 2021 255.562C2019.58 255.562 2018.08 254.979 2016.5 253.812C2014.92 252.646 2013.04 251.354 2010.88 249.938C2008.71 248.521 2006.12 247.229 2003.12 246.062C2000.12 244.896 1996.54 244.312 1992.38 244.312C1984.21 244.312 1977.96 247.479 1973.62 253.812C1969.29 260.062 1967.12 269.271 1967.12 281.438C1967.12 287.438 1967.67 292.729 1968.75 297.312C1969.83 301.896 1971.42 305.729 1973.5 308.812C1975.67 311.896 1978.33 314.229 1981.5 315.812C1984.75 317.312 1988.5 318.062 1992.75 318.062C1997.08 318.062 2000.79 317.438 2003.88 316.188C2007.04 314.854 2009.79 313.396 2012.12 311.812C2014.46 310.229 2016.42 308.812 2018 307.562C2019.58 306.229 2020.92 305.562 2022 305.562C2022.75 305.562 2023.38 305.771 2023.88 306.188C2024.38 306.604 2024.75 307.396 2025 308.562C2025.33 309.646 2025.58 311.062 2025.75 312.812C2025.92 314.562 2026 316.812 2026 319.562Z" fill="black"/>
<path d="M2114.88 326.312C2114.88 329.979 2114.62 332.812 2114.12 334.812C2113.71 336.729 2113.12 338.104 2112.38 338.938C2111.62 339.688 2110.5 340.396 2109 341.062C2107.58 341.646 2105.88 342.146 2103.88 342.562C2101.96 343.062 2099.83 343.438 2097.5 343.688C2095.25 343.938 2092.96 344.062 2090.62 344.062C2084.38 344.062 2078.96 343.271 2074.38 341.688C2069.79 340.104 2066 337.688 2063 334.438C2060 331.104 2057.79 326.938 2056.38 321.938C2054.96 316.938 2054.25 311.021 2054.25 304.188V247.062H2040.88C2039.29 247.062 2038.08 246.104 2037.25 244.188C2036.42 242.188 2036 238.896 2036 234.312C2036 231.896 2036.08 229.854 2036.25 228.188C2036.5 226.521 2036.83 225.229 2037.25 224.312C2037.67 223.312 2038.17 222.604 2038.75 222.188C2039.42 221.771 2040.17 221.562 2041 221.562H2054.25V196.688C2054.25 195.854 2054.46 195.104 2054.88 194.438C2055.38 193.771 2056.21 193.229 2057.38 192.812C2058.62 192.312 2060.25 191.979 2062.25 191.812C2064.33 191.562 2066.88 191.438 2069.88 191.438C2072.96 191.438 2075.5 191.562 2077.5 191.812C2079.58 191.979 2081.21 192.312 2082.38 192.812C2083.54 193.229 2084.38 193.771 2084.88 194.438C2085.38 195.104 2085.62 195.854 2085.62 196.688V221.562H2109.88C2110.71 221.562 2111.42 221.771 2112 222.188C2112.67 222.604 2113.21 223.312 2113.62 224.312C2114.04 225.229 2114.33 226.521 2114.5 228.188C2114.75 229.854 2114.88 231.896 2114.88 234.312C2114.88 238.896 2114.46 242.188 2113.62 244.188C2112.79 246.104 2111.58 247.062 2110 247.062H2085.62V299.438C2085.62 305.521 2086.58 310.104 2088.5 313.188C2090.42 316.188 2093.83 317.688 2098.75 317.688C2100.42 317.688 2101.92 317.562 2103.25 317.312C2104.58 316.979 2105.75 316.646 2106.75 316.312C2107.83 315.896 2108.71 315.562 2109.38 315.312C2110.12 314.979 2110.79 314.812 2111.38 314.812C2111.88 314.812 2112.33 314.979 2112.75 315.312C2113.25 315.562 2113.62 316.146 2113.88 317.062C2114.12 317.896 2114.33 319.062 2114.5 320.562C2114.75 322.062 2114.88 323.979 2114.88 326.312Z" fill="black"/>
</svg>
