<svg width="2115" height="512" viewBox="0 0 2115 512" fill="none" xmlns="http://www.w3.org/2000/svg">
<path d="M254.995 0C395.823 0 509.99 114.62 509.99 256C509.99 335.9 473.525 407.253 416.391 454.201L512 512H254.995C114.17 512 0 397.383 0 256C0 114.617 114.17 0 254.995 0Z" fill="#EA580C"/>
<path d="M64.7898 260.778L151.801 247.941L174.866 187.136L238.815 310.508L305.885 127.629L356.641 249.548L447.28 260.778L336.704 275.215L307.699 211.045L244.254 384.3L179.958 258.37L173.556 273.611L64.7898 260.778Z" fill="white"/>
<path d="M750.75 228.938C750.75 238.021 749.333 246.062 746.5 253.062C743.667 260.062 739.542 265.979 734.125 270.812C728.708 275.562 722.042 279.188 714.125 281.688C706.292 284.188 697.042 285.438 686.375 285.438H672.875V337.062C672.875 337.896 672.583 338.646 672 339.312C671.5 339.979 670.625 340.521 669.375 340.938C668.125 341.354 666.458 341.688 664.375 341.938C662.292 342.188 659.625 342.312 656.375 342.312C653.208 342.312 650.542 342.188 648.375 341.938C646.292 341.688 644.625 341.354 643.375 340.938C642.125 340.521 641.25 339.979 640.75 339.312C640.25 338.646 640 337.896 640 337.062V191.562C640 187.646 641 184.729 643 182.812C645.083 180.812 647.792 179.812 651.125 179.812H689.25C693.083 179.812 696.708 179.979 700.125 180.312C703.625 180.562 707.792 181.188 712.625 182.188C717.458 183.104 722.333 184.854 727.25 187.438C732.25 190.021 736.5 193.312 740 197.312C743.5 201.229 746.167 205.854 748 211.188C749.833 216.438 750.75 222.354 750.75 228.938ZM716.375 231.312C716.375 225.646 715.375 220.979 713.375 217.312C711.375 213.646 708.917 210.938 706 209.188C703.083 207.438 700 206.354 696.75 205.938C693.583 205.438 690.292 205.188 686.875 205.188H672.875V260.062H687.625C692.875 260.062 697.25 259.354 700.75 257.938C704.333 256.521 707.25 254.562 709.5 252.062C711.75 249.479 713.458 246.438 714.625 242.938C715.792 239.354 716.375 235.479 716.375 231.312Z" fill="#EA580C"/>
<path d="M880.125 337.312C880.125 338.146 879.917 338.896 879.5 339.562C879.083 340.146 878.333 340.646 877.25 341.062C876.25 341.479 874.875 341.771 873.125 341.938C871.458 342.188 869.333 342.312 866.75 342.312C864 342.312 861.75 342.188 860 341.938C858.333 341.771 857 341.479 856 341.062C855 340.646 854.292 340.146 853.875 339.562C853.458 338.896 853.25 338.146 853.25 337.312V324.438C847.083 331.104 840.792 336.104 834.375 339.438C828.042 342.771 821.458 344.438 814.625 344.438C806.958 344.438 800.5 343.188 795.25 340.688C790.083 338.188 785.875 334.771 782.625 330.438C779.458 326.104 777.167 321.104 775.75 315.438C774.417 309.688 773.75 302.562 773.75 294.062V225.812C773.75 224.979 773.958 224.271 774.375 223.688C774.875 223.021 775.708 222.479 776.875 222.062C778.125 221.646 779.75 221.354 781.75 221.188C783.833 220.938 786.375 220.812 789.375 220.812C792.458 220.812 795 220.938 797 221.188C799 221.354 800.583 221.646 801.75 222.062C803 222.479 803.875 223.021 804.375 223.688C804.875 224.271 805.125 224.979 805.125 225.812V288.812C805.125 294.646 805.5 299.104 806.25 302.188C807 305.271 808.125 307.938 809.625 310.188C811.208 312.354 813.167 314.062 815.5 315.312C817.917 316.479 820.708 317.062 823.875 317.062C827.875 317.062 831.875 315.604 835.875 312.688C839.958 309.771 844.292 305.521 848.875 299.938V225.812C848.875 224.979 849.083 224.271 849.5 223.688C850 223.021 850.833 222.479 852 222.062C853.25 221.646 854.875 221.354 856.875 221.188C858.875 220.938 861.417 220.812 864.5 220.812C867.583 220.812 870.125 220.938 872.125 221.188C874.125 221.354 875.708 221.646 876.875 222.062C878.042 222.479 878.875 223.021 879.375 223.688C879.875 224.271 880.125 224.979 880.125 225.812V337.312Z" fill="#EA580C"/>
<path d="M943.375 337.312C943.375 338.146 943.125 338.896 942.625 339.562C942.125 340.146 941.25 340.646 940 341.062C938.833 341.479 937.25 341.771 935.25 341.938C933.25 342.188 930.708 342.312 927.625 342.312C924.542 342.312 922 342.188 920 341.938C918 341.771 916.375 341.479 915.125 341.062C913.958 340.646 913.125 340.146 912.625 339.562C912.125 338.896 911.875 338.146 911.875 337.312V172.938C911.875 172.104 912.125 171.354 912.625 170.688C913.125 170.021 913.958 169.479 915.125 169.062C916.375 168.562 918 168.188 920 167.938C922 167.688 924.542 167.562 927.625 167.562C930.708 167.562 933.25 167.688 935.25 167.938C937.25 168.188 938.833 168.562 940 169.062C941.25 169.479 942.125 170.021 942.625 170.688C943.125 171.354 943.375 172.104 943.375 172.938V337.312Z" fill="#EA580C"/>
<path d="M1053.38 305.812C1053.38 312.146 1052.17 317.729 1049.75 322.562C1047.42 327.396 1044.08 331.438 1039.75 334.688C1035.42 337.938 1030.29 340.354 1024.38 341.938C1018.46 343.604 1012.04 344.438 1005.12 344.438C1000.96 344.438 996.958 344.104 993.125 343.438C989.375 342.854 986 342.104 983 341.188C980 340.188 977.5 339.188 975.5 338.188C973.5 337.188 972.042 336.271 971.125 335.438C970.208 334.521 969.5 333.146 969 331.312C968.5 329.396 968.25 326.604 968.25 322.938C968.25 320.521 968.333 318.604 968.5 317.188C968.667 315.688 968.917 314.521 969.25 313.688C969.583 312.771 970 312.188 970.5 311.938C971 311.604 971.625 311.438 972.375 311.438C973.292 311.438 974.625 311.979 976.375 313.062C978.208 314.062 980.458 315.188 983.125 316.438C985.792 317.688 988.875 318.854 992.375 319.938C995.958 321.021 1000 321.562 1004.5 321.562C1007.33 321.562 1009.83 321.271 1012 320.688C1014.25 320.104 1016.17 319.271 1017.75 318.188C1019.42 317.104 1020.67 315.729 1021.5 314.062C1022.33 312.396 1022.75 310.479 1022.75 308.312C1022.75 305.812 1021.96 303.688 1020.38 301.938C1018.88 300.104 1016.83 298.521 1014.25 297.188C1011.75 295.854 1008.88 294.604 1005.62 293.438C1002.46 292.271 999.167 290.979 995.75 289.562C992.417 288.146 989.125 286.521 985.875 284.688C982.708 282.854 979.833 280.604 977.25 277.938C974.75 275.271 972.708 272.062 971.125 268.312C969.625 264.562 968.875 260.062 968.875 254.812C968.875 249.479 969.917 244.604 972 240.188C974.083 235.688 977.083 231.854 981 228.688C984.917 225.521 989.667 223.062 995.25 221.312C1000.92 219.562 1007.25 218.688 1014.25 218.688C1017.75 218.688 1021.12 218.938 1024.38 219.438C1027.71 219.938 1030.71 220.562 1033.38 221.312C1036.04 222.062 1038.29 222.896 1040.12 223.812C1041.96 224.646 1043.25 225.396 1044 226.062C1044.83 226.646 1045.42 227.271 1045.75 227.938C1046.08 228.521 1046.33 229.271 1046.5 230.188C1046.67 231.021 1046.79 232.104 1046.88 233.438C1047.04 234.688 1047.12 236.271 1047.12 238.188C1047.12 240.438 1047.04 242.271 1046.88 243.688C1046.79 245.104 1046.58 246.229 1046.25 247.062C1046 247.896 1045.62 248.479 1045.12 248.812C1044.62 249.062 1044.04 249.188 1043.38 249.188C1042.62 249.188 1041.46 248.771 1039.88 247.938C1038.29 247.021 1036.29 246.062 1033.88 245.062C1031.54 244.062 1028.79 243.146 1025.62 242.312C1022.54 241.396 1019 240.938 1015 240.938C1012.17 240.938 1009.71 241.229 1007.62 241.812C1005.54 242.396 1003.83 243.229 1002.5 244.312C1001.17 245.396 1000.17 246.688 999.5 248.188C998.833 249.604 998.5 251.146 998.5 252.812C998.5 255.396 999.292 257.562 1000.88 259.312C1002.46 261.062 1004.54 262.604 1007.12 263.938C1009.71 265.271 1012.62 266.521 1015.88 267.688C1019.21 268.854 1022.54 270.146 1025.88 271.562C1029.29 272.896 1032.62 274.479 1035.88 276.312C1039.21 278.146 1042.17 280.396 1044.75 283.062C1047.33 285.729 1049.42 288.938 1051 292.688C1052.58 296.354 1053.38 300.729 1053.38 305.812Z" fill="#EA580C"/>
<path d="M1180.12 278.312C1180.12 282.146 1179.25 284.979 1177.5 286.812C1175.83 288.646 1173.5 289.562 1170.5 289.562H1102.62C1102.62 294.312 1103.17 298.646 1104.25 302.562C1105.42 306.396 1107.21 309.688 1109.62 312.438C1112.12 315.104 1115.29 317.146 1119.12 318.562C1123.04 319.979 1127.71 320.688 1133.12 320.688C1138.62 320.688 1143.46 320.312 1147.62 319.562C1151.79 318.729 1155.38 317.854 1158.38 316.938C1161.46 315.938 1164 315.062 1166 314.312C1168 313.479 1169.62 313.062 1170.88 313.062C1171.62 313.062 1172.25 313.229 1172.75 313.562C1173.25 313.812 1173.67 314.312 1174 315.062C1174.33 315.812 1174.54 316.896 1174.62 318.312C1174.79 319.646 1174.88 321.354 1174.88 323.438C1174.88 325.271 1174.83 326.854 1174.75 328.188C1174.67 329.438 1174.54 330.521 1174.38 331.438C1174.21 332.354 1173.96 333.146 1173.62 333.812C1173.29 334.396 1172.83 334.979 1172.25 335.562C1171.75 336.146 1170.29 336.938 1167.88 337.938C1165.46 338.938 1162.38 339.938 1158.62 340.938C1154.88 341.854 1150.58 342.646 1145.75 343.312C1140.92 344.062 1135.75 344.438 1130.25 344.438C1120.33 344.438 1111.62 343.188 1104.12 340.688C1096.71 338.188 1090.5 334.396 1085.5 329.312C1080.5 324.229 1076.75 317.812 1074.25 310.062C1071.83 302.312 1070.62 293.229 1070.62 282.812C1070.62 272.896 1071.92 263.979 1074.5 256.062C1077.08 248.062 1080.83 241.312 1085.75 235.812C1090.67 230.229 1096.62 225.979 1103.62 223.062C1110.71 220.146 1118.67 218.688 1127.5 218.688C1136.83 218.688 1144.79 220.062 1151.38 222.812C1158.04 225.562 1163.5 229.396 1167.75 234.312C1172 239.146 1175.12 244.896 1177.12 251.562C1179.12 258.229 1180.12 265.479 1180.12 273.312V278.312ZM1149.62 269.312C1149.88 260.479 1148.08 253.562 1144.25 248.562C1140.5 243.479 1134.67 240.938 1126.75 240.938C1122.75 240.938 1119.25 241.688 1116.25 243.188C1113.33 244.688 1110.88 246.729 1108.88 249.312C1106.96 251.812 1105.46 254.812 1104.38 258.312C1103.38 261.729 1102.79 265.396 1102.62 269.312H1149.62Z" fill="#EA580C"/>
<path d="M1377.88 317.062C1377.88 319.146 1377.79 320.938 1377.62 322.438C1377.54 323.854 1377.38 325.104 1377.12 326.188C1376.88 327.188 1376.54 328.062 1376.12 328.812C1375.71 329.562 1375.04 330.438 1374.12 331.438C1373.21 332.354 1371.42 333.562 1368.75 335.062C1366.17 336.562 1362.96 338.021 1359.12 339.438C1355.38 340.771 1351.04 341.896 1346.12 342.812C1341.29 343.729 1336.04 344.188 1330.38 344.188C1319.29 344.188 1309.29 342.479 1300.38 339.062C1291.46 335.646 1283.88 330.562 1277.62 323.812C1271.38 316.979 1266.58 308.479 1263.25 298.312C1259.92 288.146 1258.25 276.312 1258.25 262.812C1258.25 249.062 1260.08 236.854 1263.75 226.188C1267.42 215.521 1272.54 206.562 1279.12 199.312C1285.71 192.062 1293.58 186.562 1302.75 182.812C1312 179.062 1322.17 177.188 1333.25 177.188C1337.75 177.188 1342.08 177.562 1346.25 178.312C1350.42 179.062 1354.25 180.062 1357.75 181.312C1361.33 182.479 1364.54 183.854 1367.38 185.438C1370.21 187.021 1372.17 188.396 1373.25 189.562C1374.42 190.646 1375.21 191.562 1375.62 192.312C1376.04 193.062 1376.38 194.021 1376.62 195.188C1376.88 196.354 1377.04 197.729 1377.12 199.312C1377.29 200.896 1377.38 202.854 1377.38 205.188C1377.38 207.688 1377.29 209.812 1377.12 211.562C1376.96 213.312 1376.67 214.729 1376.25 215.812C1375.83 216.896 1375.33 217.688 1374.75 218.188C1374.17 218.688 1373.5 218.938 1372.75 218.938C1371.5 218.938 1369.92 218.229 1368 216.812C1366.08 215.312 1363.58 213.688 1360.5 211.938C1357.5 210.104 1353.88 208.479 1349.62 207.062C1345.46 205.562 1340.46 204.812 1334.62 204.812C1328.21 204.812 1322.46 206.146 1317.38 208.812C1312.38 211.396 1308.08 215.146 1304.5 220.062C1301 224.896 1298.33 230.771 1296.5 237.688C1294.67 244.604 1293.75 252.396 1293.75 261.062C1293.75 270.562 1294.71 278.812 1296.62 285.812C1298.62 292.729 1301.42 298.438 1305 302.938C1308.67 307.438 1313.04 310.812 1318.12 313.062C1323.29 315.229 1329.08 316.312 1335.5 316.312C1341.33 316.312 1346.38 315.646 1350.62 314.312C1354.88 312.896 1358.5 311.354 1361.5 309.688C1364.58 308.021 1367.08 306.521 1369 305.188C1371 303.854 1372.54 303.188 1373.62 303.188C1374.46 303.188 1375.12 303.354 1375.62 303.688C1376.12 304.021 1376.54 304.688 1376.88 305.688C1377.21 306.688 1377.46 308.104 1377.62 309.938C1377.79 311.688 1377.88 314.062 1377.88 317.062Z" fill="black"/>
<path d="M1512.38 280.438C1512.38 289.938 1511.12 298.604 1508.62 306.438C1506.12 314.271 1502.33 321.021 1497.25 326.688C1492.17 332.354 1485.79 336.729 1478.12 339.812C1470.46 342.896 1461.5 344.438 1451.25 344.438C1441.33 344.438 1432.71 343.062 1425.38 340.312C1418.04 337.562 1411.96 333.562 1407.12 328.312C1402.29 323.062 1398.71 316.604 1396.38 308.938C1394.04 301.271 1392.88 292.521 1392.88 282.688C1392.88 273.188 1394.12 264.521 1396.62 256.688C1399.21 248.771 1403.04 242.021 1408.12 236.438C1413.21 230.771 1419.54 226.396 1427.12 223.312C1434.79 220.229 1443.75 218.688 1454 218.688C1464 218.688 1472.67 220.062 1480 222.812C1487.33 225.479 1493.38 229.438 1498.12 234.688C1502.96 239.938 1506.54 246.396 1508.88 254.062C1511.21 261.729 1512.38 270.521 1512.38 280.438ZM1480 281.688C1480 276.188 1479.54 271.146 1478.62 266.562C1477.79 261.896 1476.33 257.854 1474.25 254.438C1472.17 251.021 1469.38 248.354 1465.88 246.438C1462.46 244.521 1458.12 243.562 1452.88 243.562C1448.21 243.562 1444.12 244.438 1440.62 246.188C1437.12 247.854 1434.25 250.354 1432 253.688C1429.75 256.938 1428.04 260.896 1426.88 265.562C1425.79 270.146 1425.25 275.396 1425.25 281.312C1425.25 286.812 1425.71 291.896 1426.62 296.562C1427.54 301.146 1429 305.146 1431 308.562C1433.08 311.979 1435.88 314.646 1439.38 316.562C1442.88 318.396 1447.21 319.312 1452.38 319.312C1457.12 319.312 1461.25 318.479 1464.75 316.812C1468.25 315.062 1471.12 312.562 1473.38 309.312C1475.62 306.062 1477.29 302.146 1478.38 297.562C1479.46 292.896 1480 287.604 1480 281.688Z" fill="black"/>
<path d="M1643.88 337.312C1643.88 338.146 1643.62 338.896 1643.12 339.562C1642.62 340.146 1641.79 340.646 1640.62 341.062C1639.46 341.479 1637.83 341.771 1635.75 341.938C1633.75 342.188 1631.25 342.312 1628.25 342.312C1625.17 342.312 1622.58 342.188 1620.5 341.938C1618.5 341.771 1616.92 341.479 1615.75 341.062C1614.58 340.646 1613.75 340.146 1613.25 339.562C1612.75 338.896 1612.5 338.146 1612.5 337.312V273.688C1612.5 268.271 1612.08 264.021 1611.25 260.938C1610.5 257.854 1609.38 255.229 1607.88 253.062C1606.38 250.812 1604.42 249.104 1602 247.938C1599.67 246.688 1596.92 246.062 1593.75 246.062C1589.75 246.062 1585.71 247.521 1581.62 250.438C1577.54 253.354 1573.29 257.604 1568.88 263.188V337.312C1568.88 338.146 1568.62 338.896 1568.12 339.562C1567.62 340.146 1566.75 340.646 1565.5 341.062C1564.33 341.479 1562.75 341.771 1560.75 341.938C1558.75 342.188 1556.21 342.312 1553.12 342.312C1550.04 342.312 1547.5 342.188 1545.5 341.938C1543.5 341.771 1541.88 341.479 1540.62 341.062C1539.46 340.646 1538.62 340.146 1538.12 339.562C1537.62 338.896 1537.38 338.146 1537.38 337.312V225.812C1537.38 224.979 1537.58 224.271 1538 223.688C1538.42 223.021 1539.17 222.479 1540.25 222.062C1541.33 221.646 1542.71 221.354 1544.38 221.188C1546.12 220.938 1548.29 220.812 1550.88 220.812C1553.54 220.812 1555.75 220.938 1557.5 221.188C1559.25 221.354 1560.58 221.646 1561.5 222.062C1562.5 222.479 1563.21 223.021 1563.62 223.688C1564.04 224.271 1564.25 224.979 1564.25 225.812V238.688C1570.42 232.021 1576.67 227.021 1583 223.688C1589.42 220.354 1596.08 218.688 1603 218.688C1610.58 218.688 1616.96 219.938 1622.12 222.438C1627.38 224.938 1631.58 228.354 1634.75 232.688C1638 236.938 1640.33 241.938 1641.75 247.688C1643.17 253.438 1643.88 260.354 1643.88 268.438V337.312Z" fill="black"/>
<path d="M1781.38 337.312C1781.38 338.146 1781.12 338.896 1780.62 339.562C1780.12 340.146 1779.29 340.646 1778.12 341.062C1776.96 341.479 1775.33 341.771 1773.25 341.938C1771.25 342.188 1768.75 342.312 1765.75 342.312C1762.67 342.312 1760.08 342.188 1758 341.938C1756 341.771 1754.42 341.479 1753.25 341.062C1752.08 340.646 1751.25 340.146 1750.75 339.562C1750.25 338.896 1750 338.146 1750 337.312V273.688C1750 268.271 1749.58 264.021 1748.75 260.938C1748 257.854 1746.88 255.229 1745.38 253.062C1743.88 250.812 1741.92 249.104 1739.5 247.938C1737.17 246.688 1734.42 246.062 1731.25 246.062C1727.25 246.062 1723.21 247.521 1719.12 250.438C1715.04 253.354 1710.79 257.604 1706.38 263.188V337.312C1706.38 338.146 1706.12 338.896 1705.62 339.562C1705.12 340.146 1704.25 340.646 1703 341.062C1701.83 341.479 1700.25 341.771 1698.25 341.938C1696.25 342.188 1693.71 342.312 1690.62 342.312C1687.54 342.312 1685 342.188 1683 341.938C1681 341.771 1679.38 341.479 1678.12 341.062C1676.96 340.646 1676.12 340.146 1675.62 339.562C1675.12 338.896 1674.88 338.146 1674.88 337.312V225.812C1674.88 224.979 1675.08 224.271 1675.5 223.688C1675.92 223.021 1676.67 222.479 1677.75 222.062C1678.83 221.646 1680.21 221.354 1681.88 221.188C1683.62 220.938 1685.79 220.812 1688.38 220.812C1691.04 220.812 1693.25 220.938 1695 221.188C1696.75 221.354 1698.08 221.646 1699 222.062C1700 222.479 1700.71 223.021 1701.12 223.688C1701.54 224.271 1701.75 224.979 1701.75 225.812V238.688C1707.92 232.021 1714.17 227.021 1720.5 223.688C1726.92 220.354 1733.58 218.688 1740.5 218.688C1748.08 218.688 1754.46 219.938 1759.62 222.438C1764.88 224.938 1769.08 228.354 1772.25 232.688C1775.5 236.938 1777.83 241.938 1779.25 247.688C1780.67 253.438 1781.38 260.354 1781.38 268.438V337.312Z" fill="black"/>
<path d="M1915.38 278.312C1915.38 282.146 1914.5 284.979 1912.75 286.812C1911.08 288.646 1908.75 289.562 1905.75 289.562H1837.88C1837.88 294.312 1838.42 298.646 1839.5 302.562C1840.67 306.396 1842.46 309.688 1844.88 312.438C1847.38 315.104 1850.54 317.146 1854.38 318.562C1858.29 319.979 1862.96 320.688 1868.38 320.688C1873.88 320.688 1878.71 320.312 1882.88 319.562C1887.04 318.729 1890.62 317.854 1893.62 316.938C1896.71 315.938 1899.25 315.062 1901.25 314.312C1903.25 313.479 1904.88 313.062 1906.12 313.062C1906.88 313.062 1907.5 313.229 1908 313.562C1908.5 313.812 1908.92 314.312 1909.25 315.062C1909.58 315.812 1909.79 316.896 1909.88 318.312C1910.04 319.646 1910.12 321.354 1910.12 323.438C1910.12 325.271 1910.08 326.854 1910 328.188C1909.92 329.438 1909.79 330.521 1909.62 331.438C1909.46 332.354 1909.21 333.146 1908.88 333.812C1908.54 334.396 1908.08 334.979 1907.5 335.562C1907 336.146 1905.54 336.938 1903.12 337.938C1900.71 338.938 1897.62 339.938 1893.88 340.938C1890.12 341.854 1885.83 342.646 1881 343.312C1876.17 344.062 1871 344.438 1865.5 344.438C1855.58 344.438 1846.88 343.188 1839.38 340.688C1831.96 338.188 1825.75 334.396 1820.75 329.312C1815.75 324.229 1812 317.812 1809.5 310.062C1807.08 302.312 1805.88 293.229 1805.88 282.812C1805.88 272.896 1807.17 263.979 1809.75 256.062C1812.33 248.062 1816.08 241.312 1821 235.812C1825.92 230.229 1831.88 225.979 1838.88 223.062C1845.96 220.146 1853.92 218.688 1862.75 218.688C1872.08 218.688 1880.04 220.062 1886.62 222.812C1893.29 225.562 1898.75 229.396 1903 234.312C1907.25 239.146 1910.38 244.896 1912.38 251.562C1914.38 258.229 1915.38 265.479 1915.38 273.312V278.312ZM1884.88 269.312C1885.12 260.479 1883.33 253.562 1879.5 248.562C1875.75 243.479 1869.92 240.938 1862 240.938C1858 240.938 1854.5 241.688 1851.5 243.188C1848.58 244.688 1846.12 246.729 1844.12 249.312C1842.21 251.812 1840.71 254.812 1839.62 258.312C1838.62 261.729 1838.04 265.396 1837.88 269.312H1884.88Z" fill="black"/>
<path d="M2025.75 319.562C2025.75 321.729 2025.67 323.562 2025.5 325.062C2025.42 326.479 2025.25 327.688 2025 328.688C2024.83 329.688 2024.58 330.521 2024.25 331.188C2024 331.771 2023.38 332.562 2022.38 333.562C2021.38 334.479 2019.67 335.646 2017.25 337.062C2014.83 338.396 2012.08 339.604 2009 340.688C2005.92 341.771 2002.54 342.646 1998.88 343.312C1995.29 343.979 1991.58 344.312 1987.75 344.312C1979.17 344.312 1971.54 342.979 1964.88 340.312C1958.29 337.646 1952.75 333.729 1948.25 328.562C1943.75 323.312 1940.33 316.938 1938 309.438C1935.75 301.938 1934.62 293.354 1934.62 283.688C1934.62 272.521 1936 262.896 1938.75 254.812C1941.58 246.646 1945.5 239.896 1950.5 234.562C1955.5 229.229 1961.42 225.271 1968.25 222.688C1975.08 220.104 1982.58 218.812 1990.75 218.812C1994.08 218.812 1997.33 219.104 2000.5 219.688C2003.75 220.271 2006.75 221.062 2009.5 222.062C2012.33 223.062 2014.83 224.188 2017 225.438C2019.25 226.688 2020.83 227.771 2021.75 228.688C2022.67 229.604 2023.29 230.396 2023.62 231.062C2024.04 231.646 2024.33 232.438 2024.5 233.438C2024.75 234.438 2024.92 235.688 2025 237.188C2025.17 238.604 2025.25 240.354 2025.25 242.438C2025.25 247.271 2024.83 250.688 2024 252.688C2023.17 254.604 2022.08 255.562 2020.75 255.562C2019.33 255.562 2017.83 254.979 2016.25 253.812C2014.67 252.646 2012.79 251.354 2010.62 249.938C2008.46 248.521 2005.88 247.229 2002.88 246.062C1999.88 244.896 1996.29 244.312 1992.12 244.312C1983.96 244.312 1977.71 247.479 1973.38 253.812C1969.04 260.062 1966.88 269.271 1966.88 281.438C1966.88 287.438 1967.42 292.729 1968.5 297.312C1969.58 301.896 1971.17 305.729 1973.25 308.812C1975.42 311.896 1978.08 314.229 1981.25 315.812C1984.5 317.312 1988.25 318.062 1992.5 318.062C1996.83 318.062 2000.54 317.438 2003.62 316.188C2006.79 314.854 2009.54 313.396 2011.88 311.812C2014.21 310.229 2016.17 308.812 2017.75 307.562C2019.33 306.229 2020.67 305.562 2021.75 305.562C2022.5 305.562 2023.12 305.771 2023.62 306.188C2024.12 306.604 2024.5 307.396 2024.75 308.562C2025.08 309.646 2025.33 311.062 2025.5 312.812C2025.67 314.562 2025.75 316.812 2025.75 319.562Z" fill="black"/>
<path d="M2114.62 326.312C2114.62 329.979 2114.38 332.812 2113.88 334.812C2113.46 336.729 2112.88 338.104 2112.12 338.938C2111.38 339.688 2110.25 340.396 2108.75 341.062C2107.33 341.646 2105.62 342.146 2103.62 342.562C2101.71 343.062 2099.58 343.438 2097.25 343.688C2095 343.938 2092.71 344.062 2090.38 344.062C2084.12 344.062 2078.71 343.271 2074.12 341.688C2069.54 340.104 2065.75 337.688 2062.75 334.438C2059.75 331.104 2057.54 326.938 2056.12 321.938C2054.71 316.938 2054 311.021 2054 304.188V247.062H2040.62C2039.04 247.062 2037.83 246.104 2037 244.188C2036.17 242.188 2035.75 238.896 2035.75 234.312C2035.75 231.896 2035.83 229.854 2036 228.188C2036.25 226.521 2036.58 225.229 2037 224.312C2037.42 223.312 2037.92 222.604 2038.5 222.188C2039.17 221.771 2039.92 221.562 2040.75 221.562H2054V196.688C2054 195.854 2054.21 195.104 2054.62 194.438C2055.12 193.771 2055.96 193.229 2057.12 192.812C2058.38 192.312 2060 191.979 2062 191.812C2064.08 191.562 2066.62 191.438 2069.62 191.438C2072.71 191.438 2075.25 191.562 2077.25 191.812C2079.33 191.979 2080.96 192.312 2082.12 192.812C2083.29 193.229 2084.12 193.771 2084.62 194.438C2085.12 195.104 2085.38 195.854 2085.38 196.688V221.562H2109.62C2110.46 221.562 2111.17 221.771 2111.75 222.188C2112.42 222.604 2112.96 223.312 2113.38 224.312C2113.79 225.229 2114.08 226.521 2114.25 228.188C2114.5 229.854 2114.62 231.896 2114.62 234.312C2114.62 238.896 2114.21 242.188 2113.38 244.188C2112.54 246.104 2111.33 247.062 2109.75 247.062H2085.38V299.438C2085.38 305.521 2086.33 310.104 2088.25 313.188C2090.17 316.188 2093.58 317.688 2098.5 317.688C2100.17 317.688 2101.67 317.562 2103 317.312C2104.33 316.979 2105.5 316.646 2106.5 316.312C2107.58 315.896 2108.46 315.562 2109.12 315.312C2109.88 314.979 2110.54 314.812 2111.12 314.812C2111.62 314.812 2112.08 314.979 2112.5 315.312C2113 315.562 2113.38 316.146 2113.62 317.062C2113.88 317.896 2114.08 319.062 2114.25 320.562C2114.5 322.062 2114.62 323.979 2114.62 326.312Z" fill="black"/>
</svg>
