<svg width="2116" height="512" viewBox="0 0 2116 512" fill="none" xmlns="http://www.w3.org/2000/svg">
<path d="M255.62 0C396.448 0 510.615 114.62 510.615 256C510.615 335.9 474.15 407.253 417.016 454.201L512.625 512H255.62C114.795 512 0.625 397.383 0.625 256C0.625 114.617 114.795 0 255.62 0Z" fill="#EA580C"/>
<path d="M65.4148 260.778L152.426 247.941L175.491 187.136L239.44 310.508L306.51 127.629L357.266 249.548L447.905 260.778L337.329 275.215L308.324 211.045L244.879 384.3L180.583 258.37L174.181 273.611L65.4148 260.778Z" fill="black"/>
<path d="M751.375 228.938C751.375 238.021 749.958 246.062 747.125 253.062C744.292 260.062 740.167 265.979 734.75 270.812C729.333 275.562 722.667 279.188 714.75 281.688C706.917 284.188 697.667 285.438 687 285.438H673.5V337.062C673.5 337.896 673.208 338.646 672.625 339.312C672.125 339.979 671.25 340.521 670 340.938C668.75 341.354 667.083 341.688 665 341.938C662.917 342.188 660.25 342.312 657 342.312C653.833 342.312 651.167 342.188 649 341.938C646.917 341.688 645.25 341.354 644 340.938C642.75 340.521 641.875 339.979 641.375 339.312C640.875 338.646 640.625 337.896 640.625 337.062V191.562C640.625 187.646 641.625 184.729 643.625 182.812C645.708 180.812 648.417 179.812 651.75 179.812H689.875C693.708 179.812 697.333 179.979 700.75 180.312C704.25 180.562 708.417 181.188 713.25 182.188C718.083 183.104 722.958 184.854 727.875 187.438C732.875 190.021 737.125 193.312 740.625 197.312C744.125 201.229 746.792 205.854 748.625 211.188C750.458 216.438 751.375 222.354 751.375 228.938ZM717 231.312C717 225.646 716 220.979 714 217.312C712 213.646 709.542 210.938 706.625 209.188C703.708 207.438 700.625 206.354 697.375 205.938C694.208 205.438 690.917 205.188 687.5 205.188H673.5V260.062H688.25C693.5 260.062 697.875 259.354 701.375 257.938C704.958 256.521 707.875 254.562 710.125 252.062C712.375 249.479 714.083 246.438 715.25 242.938C716.417 239.354 717 235.479 717 231.312Z" fill="#EA580C"/>
<path d="M880.75 337.312C880.75 338.146 880.542 338.896 880.125 339.562C879.708 340.146 878.958 340.646 877.875 341.062C876.875 341.479 875.5 341.771 873.75 341.938C872.083 342.188 869.958 342.312 867.375 342.312C864.625 342.312 862.375 342.188 860.625 341.938C858.958 341.771 857.625 341.479 856.625 341.062C855.625 340.646 854.917 340.146 854.5 339.562C854.083 338.896 853.875 338.146 853.875 337.312V324.438C847.708 331.104 841.417 336.104 835 339.438C828.667 342.771 822.083 344.438 815.25 344.438C807.583 344.438 801.125 343.188 795.875 340.688C790.708 338.188 786.5 334.771 783.25 330.438C780.083 326.104 777.792 321.104 776.375 315.438C775.042 309.688 774.375 302.562 774.375 294.062V225.812C774.375 224.979 774.583 224.271 775 223.688C775.5 223.021 776.333 222.479 777.5 222.062C778.75 221.646 780.375 221.354 782.375 221.188C784.458 220.938 787 220.812 790 220.812C793.083 220.812 795.625 220.938 797.625 221.188C799.625 221.354 801.208 221.646 802.375 222.062C803.625 222.479 804.5 223.021 805 223.688C805.5 224.271 805.75 224.979 805.75 225.812V288.812C805.75 294.646 806.125 299.104 806.875 302.188C807.625 305.271 808.75 307.938 810.25 310.188C811.833 312.354 813.792 314.062 816.125 315.312C818.542 316.479 821.333 317.062 824.5 317.062C828.5 317.062 832.5 315.604 836.5 312.688C840.583 309.771 844.917 305.521 849.5 299.938V225.812C849.5 224.979 849.708 224.271 850.125 223.688C850.625 223.021 851.458 222.479 852.625 222.062C853.875 221.646 855.5 221.354 857.5 221.188C859.5 220.938 862.042 220.812 865.125 220.812C868.208 220.812 870.75 220.938 872.75 221.188C874.75 221.354 876.333 221.646 877.5 222.062C878.667 222.479 879.5 223.021 880 223.688C880.5 224.271 880.75 224.979 880.75 225.812V337.312Z" fill="#EA580C"/>
<path d="M944 337.312C944 338.146 943.75 338.896 943.25 339.562C942.75 340.146 941.875 340.646 940.625 341.062C939.458 341.479 937.875 341.771 935.875 341.938C933.875 342.188 931.333 342.312 928.25 342.312C925.167 342.312 922.625 342.188 920.625 341.938C918.625 341.771 917 341.479 915.75 341.062C914.583 340.646 913.75 340.146 913.25 339.562C912.75 338.896 912.5 338.146 912.5 337.312V172.938C912.5 172.104 912.75 171.354 913.25 170.688C913.75 170.021 914.583 169.479 915.75 169.062C917 168.562 918.625 168.188 920.625 167.938C922.625 167.688 925.167 167.562 928.25 167.562C931.333 167.562 933.875 167.688 935.875 167.938C937.875 168.188 939.458 168.562 940.625 169.062C941.875 169.479 942.75 170.021 943.25 170.688C943.75 171.354 944 172.104 944 172.938V337.312Z" fill="#EA580C"/>
<path d="M1054 305.812C1054 312.146 1052.79 317.729 1050.38 322.562C1048.04 327.396 1044.71 331.438 1040.38 334.688C1036.04 337.938 1030.92 340.354 1025 341.938C1019.08 343.604 1012.67 344.438 1005.75 344.438C1001.58 344.438 997.583 344.104 993.75 343.438C990 342.854 986.625 342.104 983.625 341.188C980.625 340.188 978.125 339.188 976.125 338.188C974.125 337.188 972.667 336.271 971.75 335.438C970.833 334.521 970.125 333.146 969.625 331.312C969.125 329.396 968.875 326.604 968.875 322.938C968.875 320.521 968.958 318.604 969.125 317.188C969.292 315.688 969.542 314.521 969.875 313.688C970.208 312.771 970.625 312.188 971.125 311.938C971.625 311.604 972.25 311.438 973 311.438C973.917 311.438 975.25 311.979 977 313.062C978.833 314.062 981.083 315.188 983.75 316.438C986.417 317.688 989.5 318.854 993 319.938C996.583 321.021 1000.62 321.562 1005.12 321.562C1007.96 321.562 1010.46 321.271 1012.62 320.688C1014.88 320.104 1016.79 319.271 1018.38 318.188C1020.04 317.104 1021.29 315.729 1022.12 314.062C1022.96 312.396 1023.38 310.479 1023.38 308.312C1023.38 305.812 1022.58 303.688 1021 301.938C1019.5 300.104 1017.46 298.521 1014.88 297.188C1012.38 295.854 1009.5 294.604 1006.25 293.438C1003.08 292.271 999.792 290.979 996.375 289.562C993.042 288.146 989.75 286.521 986.5 284.688C983.333 282.854 980.458 280.604 977.875 277.938C975.375 275.271 973.333 272.062 971.75 268.312C970.25 264.562 969.5 260.062 969.5 254.812C969.5 249.479 970.542 244.604 972.625 240.188C974.708 235.688 977.708 231.854 981.625 228.688C985.542 225.521 990.292 223.062 995.875 221.312C1001.54 219.562 1007.88 218.688 1014.88 218.688C1018.38 218.688 1021.75 218.938 1025 219.438C1028.33 219.938 1031.33 220.562 1034 221.312C1036.67 222.062 1038.92 222.896 1040.75 223.812C1042.58 224.646 1043.88 225.396 1044.62 226.062C1045.46 226.646 1046.04 227.271 1046.38 227.938C1046.71 228.521 1046.96 229.271 1047.12 230.188C1047.29 231.021 1047.42 232.104 1047.5 233.438C1047.67 234.688 1047.75 236.271 1047.75 238.188C1047.75 240.438 1047.67 242.271 1047.5 243.688C1047.42 245.104 1047.21 246.229 1046.88 247.062C1046.62 247.896 1046.25 248.479 1045.75 248.812C1045.25 249.062 1044.67 249.188 1044 249.188C1043.25 249.188 1042.08 248.771 1040.5 247.938C1038.92 247.021 1036.92 246.062 1034.5 245.062C1032.17 244.062 1029.42 243.146 1026.25 242.312C1023.17 241.396 1019.62 240.938 1015.62 240.938C1012.79 240.938 1010.33 241.229 1008.25 241.812C1006.17 242.396 1004.46 243.229 1003.12 244.312C1001.79 245.396 1000.79 246.688 1000.12 248.188C999.458 249.604 999.125 251.146 999.125 252.812C999.125 255.396 999.917 257.562 1001.5 259.312C1003.08 261.062 1005.17 262.604 1007.75 263.938C1010.33 265.271 1013.25 266.521 1016.5 267.688C1019.83 268.854 1023.17 270.146 1026.5 271.562C1029.92 272.896 1033.25 274.479 1036.5 276.312C1039.83 278.146 1042.79 280.396 1045.38 283.062C1047.96 285.729 1050.04 288.938 1051.62 292.688C1053.21 296.354 1054 300.729 1054 305.812Z" fill="#EA580C"/>
<path d="M1180.75 278.312C1180.75 282.146 1179.88 284.979 1178.12 286.812C1176.46 288.646 1174.12 289.562 1171.12 289.562H1103.25C1103.25 294.312 1103.79 298.646 1104.88 302.562C1106.04 306.396 1107.83 309.688 1110.25 312.438C1112.75 315.104 1115.92 317.146 1119.75 318.562C1123.67 319.979 1128.33 320.688 1133.75 320.688C1139.25 320.688 1144.08 320.312 1148.25 319.562C1152.42 318.729 1156 317.854 1159 316.938C1162.08 315.938 1164.62 315.062 1166.62 314.312C1168.62 313.479 1170.25 313.062 1171.5 313.062C1172.25 313.062 1172.88 313.229 1173.38 313.562C1173.88 313.812 1174.29 314.312 1174.62 315.062C1174.96 315.812 1175.17 316.896 1175.25 318.312C1175.42 319.646 1175.5 321.354 1175.5 323.438C1175.5 325.271 1175.46 326.854 1175.38 328.188C1175.29 329.438 1175.17 330.521 1175 331.438C1174.83 332.354 1174.58 333.146 1174.25 333.812C1173.92 334.396 1173.46 334.979 1172.88 335.562C1172.38 336.146 1170.92 336.938 1168.5 337.938C1166.08 338.938 1163 339.938 1159.25 340.938C1155.5 341.854 1151.21 342.646 1146.38 343.312C1141.54 344.062 1136.38 344.438 1130.88 344.438C1120.96 344.438 1112.25 343.188 1104.75 340.688C1097.33 338.188 1091.12 334.396 1086.12 329.312C1081.12 324.229 1077.38 317.812 1074.88 310.062C1072.46 302.312 1071.25 293.229 1071.25 282.812C1071.25 272.896 1072.54 263.979 1075.12 256.062C1077.71 248.062 1081.46 241.312 1086.38 235.812C1091.29 230.229 1097.25 225.979 1104.25 223.062C1111.33 220.146 1119.29 218.688 1128.12 218.688C1137.46 218.688 1145.42 220.062 1152 222.812C1158.67 225.562 1164.12 229.396 1168.38 234.312C1172.62 239.146 1175.75 244.896 1177.75 251.562C1179.75 258.229 1180.75 265.479 1180.75 273.312V278.312ZM1150.25 269.312C1150.5 260.479 1148.71 253.562 1144.88 248.562C1141.12 243.479 1135.29 240.938 1127.38 240.938C1123.38 240.938 1119.88 241.688 1116.88 243.188C1113.96 244.688 1111.5 246.729 1109.5 249.312C1107.58 251.812 1106.08 254.812 1105 258.312C1104 261.729 1103.42 265.396 1103.25 269.312H1150.25Z" fill="#EA580C"/>
<path d="M1378.5 317.062C1378.5 319.146 1378.42 320.938 1378.25 322.438C1378.17 323.854 1378 325.104 1377.75 326.188C1377.5 327.188 1377.17 328.062 1376.75 328.812C1376.33 329.562 1375.67 330.438 1374.75 331.438C1373.83 332.354 1372.04 333.562 1369.38 335.062C1366.79 336.562 1363.58 338.021 1359.75 339.438C1356 340.771 1351.67 341.896 1346.75 342.812C1341.92 343.729 1336.67 344.188 1331 344.188C1319.92 344.188 1309.92 342.479 1301 339.062C1292.08 335.646 1284.5 330.562 1278.25 323.812C1272 316.979 1267.21 308.479 1263.88 298.312C1260.54 288.146 1258.88 276.312 1258.88 262.812C1258.88 249.062 1260.71 236.854 1264.38 226.188C1268.04 215.521 1273.17 206.562 1279.75 199.312C1286.33 192.062 1294.21 186.562 1303.38 182.812C1312.62 179.062 1322.79 177.188 1333.88 177.188C1338.38 177.188 1342.71 177.562 1346.88 178.312C1351.04 179.062 1354.88 180.062 1358.38 181.312C1361.96 182.479 1365.17 183.854 1368 185.438C1370.83 187.021 1372.79 188.396 1373.88 189.562C1375.04 190.646 1375.83 191.562 1376.25 192.312C1376.67 193.062 1377 194.021 1377.25 195.188C1377.5 196.354 1377.67 197.729 1377.75 199.312C1377.92 200.896 1378 202.854 1378 205.188C1378 207.688 1377.92 209.812 1377.75 211.562C1377.58 213.312 1377.29 214.729 1376.88 215.812C1376.46 216.896 1375.96 217.688 1375.38 218.188C1374.79 218.688 1374.12 218.938 1373.38 218.938C1372.12 218.938 1370.54 218.229 1368.62 216.812C1366.71 215.312 1364.21 213.688 1361.12 211.938C1358.12 210.104 1354.5 208.479 1350.25 207.062C1346.08 205.562 1341.08 204.812 1335.25 204.812C1328.83 204.812 1323.08 206.146 1318 208.812C1313 211.396 1308.71 215.146 1305.12 220.062C1301.62 224.896 1298.96 230.771 1297.12 237.688C1295.29 244.604 1294.38 252.396 1294.38 261.062C1294.38 270.562 1295.33 278.812 1297.25 285.812C1299.25 292.729 1302.04 298.438 1305.62 302.938C1309.29 307.438 1313.67 310.812 1318.75 313.062C1323.92 315.229 1329.71 316.312 1336.12 316.312C1341.96 316.312 1347 315.646 1351.25 314.312C1355.5 312.896 1359.12 311.354 1362.12 309.688C1365.21 308.021 1367.71 306.521 1369.62 305.188C1371.62 303.854 1373.17 303.188 1374.25 303.188C1375.08 303.188 1375.75 303.354 1376.25 303.688C1376.75 304.021 1377.17 304.688 1377.5 305.688C1377.83 306.688 1378.08 308.104 1378.25 309.938C1378.42 311.688 1378.5 314.062 1378.5 317.062Z" fill="white"/>
<path d="M1513 280.438C1513 289.938 1511.75 298.604 1509.25 306.438C1506.75 314.271 1502.96 321.021 1497.88 326.688C1492.79 332.354 1486.42 336.729 1478.75 339.812C1471.08 342.896 1462.12 344.438 1451.88 344.438C1441.96 344.438 1433.33 343.062 1426 340.312C1418.67 337.562 1412.58 333.562 1407.75 328.312C1402.92 323.062 1399.33 316.604 1397 308.938C1394.67 301.271 1393.5 292.521 1393.5 282.688C1393.5 273.188 1394.75 264.521 1397.25 256.688C1399.83 248.771 1403.67 242.021 1408.75 236.438C1413.83 230.771 1420.17 226.396 1427.75 223.312C1435.42 220.229 1444.38 218.688 1454.62 218.688C1464.62 218.688 1473.29 220.062 1480.62 222.812C1487.96 225.479 1494 229.438 1498.75 234.688C1503.58 239.938 1507.17 246.396 1509.5 254.062C1511.83 261.729 1513 270.521 1513 280.438ZM1480.62 281.688C1480.62 276.188 1480.17 271.146 1479.25 266.562C1478.42 261.896 1476.96 257.854 1474.88 254.438C1472.79 251.021 1470 248.354 1466.5 246.438C1463.08 244.521 1458.75 243.562 1453.5 243.562C1448.83 243.562 1444.75 244.438 1441.25 246.188C1437.75 247.854 1434.88 250.354 1432.62 253.688C1430.38 256.938 1428.67 260.896 1427.5 265.562C1426.42 270.146 1425.88 275.396 1425.88 281.312C1425.88 286.812 1426.33 291.896 1427.25 296.562C1428.17 301.146 1429.62 305.146 1431.62 308.562C1433.71 311.979 1436.5 314.646 1440 316.562C1443.5 318.396 1447.83 319.312 1453 319.312C1457.75 319.312 1461.88 318.479 1465.38 316.812C1468.88 315.062 1471.75 312.562 1474 309.312C1476.25 306.062 1477.92 302.146 1479 297.562C1480.08 292.896 1480.62 287.604 1480.62 281.688Z" fill="white"/>
<path d="M1644.5 337.312C1644.5 338.146 1644.25 338.896 1643.75 339.562C1643.25 340.146 1642.42 340.646 1641.25 341.062C1640.08 341.479 1638.46 341.771 1636.38 341.938C1634.38 342.188 1631.88 342.312 1628.88 342.312C1625.79 342.312 1623.21 342.188 1621.12 341.938C1619.12 341.771 1617.54 341.479 1616.38 341.062C1615.21 340.646 1614.38 340.146 1613.88 339.562C1613.38 338.896 1613.12 338.146 1613.12 337.312V273.688C1613.12 268.271 1612.71 264.021 1611.88 260.938C1611.12 257.854 1610 255.229 1608.5 253.062C1607 250.812 1605.04 249.104 1602.62 247.938C1600.29 246.688 1597.54 246.062 1594.38 246.062C1590.38 246.062 1586.33 247.521 1582.25 250.438C1578.17 253.354 1573.92 257.604 1569.5 263.188V337.312C1569.5 338.146 1569.25 338.896 1568.75 339.562C1568.25 340.146 1567.38 340.646 1566.12 341.062C1564.96 341.479 1563.38 341.771 1561.38 341.938C1559.38 342.188 1556.83 342.312 1553.75 342.312C1550.67 342.312 1548.12 342.188 1546.12 341.938C1544.12 341.771 1542.5 341.479 1541.25 341.062C1540.08 340.646 1539.25 340.146 1538.75 339.562C1538.25 338.896 1538 338.146 1538 337.312V225.812C1538 224.979 1538.21 224.271 1538.62 223.688C1539.04 223.021 1539.79 222.479 1540.88 222.062C1541.96 221.646 1543.33 221.354 1545 221.188C1546.75 220.938 1548.92 220.812 1551.5 220.812C1554.17 220.812 1556.38 220.938 1558.12 221.188C1559.88 221.354 1561.21 221.646 1562.12 222.062C1563.12 222.479 1563.83 223.021 1564.25 223.688C1564.67 224.271 1564.88 224.979 1564.88 225.812V238.688C1571.04 232.021 1577.29 227.021 1583.62 223.688C1590.04 220.354 1596.71 218.688 1603.62 218.688C1611.21 218.688 1617.58 219.938 1622.75 222.438C1628 224.938 1632.21 228.354 1635.38 232.688C1638.62 236.938 1640.96 241.938 1642.38 247.688C1643.79 253.438 1644.5 260.354 1644.5 268.438V337.312Z" fill="white"/>
<path d="M1782 337.312C1782 338.146 1781.75 338.896 1781.25 339.562C1780.75 340.146 1779.92 340.646 1778.75 341.062C1777.58 341.479 1775.96 341.771 1773.88 341.938C1771.88 342.188 1769.38 342.312 1766.38 342.312C1763.29 342.312 1760.71 342.188 1758.62 341.938C1756.62 341.771 1755.04 341.479 1753.88 341.062C1752.71 340.646 1751.88 340.146 1751.38 339.562C1750.88 338.896 1750.62 338.146 1750.62 337.312V273.688C1750.62 268.271 1750.21 264.021 1749.38 260.938C1748.62 257.854 1747.5 255.229 1746 253.062C1744.5 250.812 1742.54 249.104 1740.12 247.938C1737.79 246.688 1735.04 246.062 1731.88 246.062C1727.88 246.062 1723.83 247.521 1719.75 250.438C1715.67 253.354 1711.42 257.604 1707 263.188V337.312C1707 338.146 1706.75 338.896 1706.25 339.562C1705.75 340.146 1704.88 340.646 1703.62 341.062C1702.46 341.479 1700.88 341.771 1698.88 341.938C1696.88 342.188 1694.33 342.312 1691.25 342.312C1688.17 342.312 1685.62 342.188 1683.62 341.938C1681.62 341.771 1680 341.479 1678.75 341.062C1677.58 340.646 1676.75 340.146 1676.25 339.562C1675.75 338.896 1675.5 338.146 1675.5 337.312V225.812C1675.5 224.979 1675.71 224.271 1676.12 223.688C1676.54 223.021 1677.29 222.479 1678.38 222.062C1679.46 221.646 1680.83 221.354 1682.5 221.188C1684.25 220.938 1686.42 220.812 1689 220.812C1691.67 220.812 1693.88 220.938 1695.62 221.188C1697.38 221.354 1698.71 221.646 1699.62 222.062C1700.62 222.479 1701.33 223.021 1701.75 223.688C1702.17 224.271 1702.38 224.979 1702.38 225.812V238.688C1708.54 232.021 1714.79 227.021 1721.12 223.688C1727.54 220.354 1734.21 218.688 1741.12 218.688C1748.71 218.688 1755.08 219.938 1760.25 222.438C1765.5 224.938 1769.71 228.354 1772.88 232.688C1776.12 236.938 1778.46 241.938 1779.88 247.688C1781.29 253.438 1782 260.354 1782 268.438V337.312Z" fill="white"/>
<path d="M1916 278.312C1916 282.146 1915.12 284.979 1913.38 286.812C1911.71 288.646 1909.38 289.562 1906.38 289.562H1838.5C1838.5 294.312 1839.04 298.646 1840.12 302.562C1841.29 306.396 1843.08 309.688 1845.5 312.438C1848 315.104 1851.17 317.146 1855 318.562C1858.92 319.979 1863.58 320.688 1869 320.688C1874.5 320.688 1879.33 320.312 1883.5 319.562C1887.67 318.729 1891.25 317.854 1894.25 316.938C1897.33 315.938 1899.88 315.062 1901.88 314.312C1903.88 313.479 1905.5 313.062 1906.75 313.062C1907.5 313.062 1908.12 313.229 1908.62 313.562C1909.12 313.812 1909.54 314.312 1909.88 315.062C1910.21 315.812 1910.42 316.896 1910.5 318.312C1910.67 319.646 1910.75 321.354 1910.75 323.438C1910.75 325.271 1910.71 326.854 1910.62 328.188C1910.54 329.438 1910.42 330.521 1910.25 331.438C1910.08 332.354 1909.83 333.146 1909.5 333.812C1909.17 334.396 1908.71 334.979 1908.12 335.562C1907.62 336.146 1906.17 336.938 1903.75 337.938C1901.33 338.938 1898.25 339.938 1894.5 340.938C1890.75 341.854 1886.46 342.646 1881.62 343.312C1876.79 344.062 1871.62 344.438 1866.12 344.438C1856.21 344.438 1847.5 343.188 1840 340.688C1832.58 338.188 1826.38 334.396 1821.38 329.312C1816.38 324.229 1812.62 317.812 1810.12 310.062C1807.71 302.312 1806.5 293.229 1806.5 282.812C1806.5 272.896 1807.79 263.979 1810.38 256.062C1812.96 248.062 1816.71 241.312 1821.62 235.812C1826.54 230.229 1832.5 225.979 1839.5 223.062C1846.58 220.146 1854.54 218.688 1863.38 218.688C1872.71 218.688 1880.67 220.062 1887.25 222.812C1893.92 225.562 1899.38 229.396 1903.62 234.312C1907.88 239.146 1911 244.896 1913 251.562C1915 258.229 1916 265.479 1916 273.312V278.312ZM1885.5 269.312C1885.75 260.479 1883.96 253.562 1880.12 248.562C1876.38 243.479 1870.54 240.938 1862.62 240.938C1858.62 240.938 1855.12 241.688 1852.12 243.188C1849.21 244.688 1846.75 246.729 1844.75 249.312C1842.83 251.812 1841.33 254.812 1840.25 258.312C1839.25 261.729 1838.67 265.396 1838.5 269.312H1885.5Z" fill="white"/>
<path d="M2026.38 319.562C2026.38 321.729 2026.29 323.562 2026.12 325.062C2026.04 326.479 2025.88 327.688 2025.62 328.688C2025.46 329.688 2025.21 330.521 2024.88 331.188C2024.62 331.771 2024 332.562 2023 333.562C2022 334.479 2020.29 335.646 2017.88 337.062C2015.46 338.396 2012.71 339.604 2009.62 340.688C2006.54 341.771 2003.17 342.646 1999.5 343.312C1995.92 343.979 1992.21 344.312 1988.38 344.312C1979.79 344.312 1972.17 342.979 1965.5 340.312C1958.92 337.646 1953.38 333.729 1948.88 328.562C1944.38 323.312 1940.96 316.938 1938.62 309.438C1936.38 301.938 1935.25 293.354 1935.25 283.688C1935.25 272.521 1936.62 262.896 1939.38 254.812C1942.21 246.646 1946.12 239.896 1951.12 234.562C1956.12 229.229 1962.04 225.271 1968.88 222.688C1975.71 220.104 1983.21 218.812 1991.38 218.812C1994.71 218.812 1997.96 219.104 2001.12 219.688C2004.38 220.271 2007.38 221.062 2010.12 222.062C2012.96 223.062 2015.46 224.188 2017.62 225.438C2019.88 226.688 2021.46 227.771 2022.38 228.688C2023.29 229.604 2023.92 230.396 2024.25 231.062C2024.67 231.646 2024.96 232.438 2025.12 233.438C2025.38 234.438 2025.54 235.688 2025.62 237.188C2025.79 238.604 2025.88 240.354 2025.88 242.438C2025.88 247.271 2025.46 250.688 2024.62 252.688C2023.79 254.604 2022.71 255.562 2021.38 255.562C2019.96 255.562 2018.46 254.979 2016.88 253.812C2015.29 252.646 2013.42 251.354 2011.25 249.938C2009.08 248.521 2006.5 247.229 2003.5 246.062C2000.5 244.896 1996.92 244.312 1992.75 244.312C1984.58 244.312 1978.33 247.479 1974 253.812C1969.67 260.062 1967.5 269.271 1967.5 281.438C1967.5 287.438 1968.04 292.729 1969.12 297.312C1970.21 301.896 1971.79 305.729 1973.88 308.812C1976.04 311.896 1978.71 314.229 1981.88 315.812C1985.12 317.312 1988.88 318.062 1993.12 318.062C1997.46 318.062 2001.17 317.438 2004.25 316.188C2007.42 314.854 2010.17 313.396 2012.5 311.812C2014.83 310.229 2016.79 308.812 2018.38 307.562C2019.96 306.229 2021.29 305.562 2022.38 305.562C2023.12 305.562 2023.75 305.771 2024.25 306.188C2024.75 306.604 2025.12 307.396 2025.38 308.562C2025.71 309.646 2025.96 311.062 2026.12 312.812C2026.29 314.562 2026.38 316.812 2026.38 319.562Z" fill="white"/>
<path d="M2115.25 326.312C2115.25 329.979 2115 332.812 2114.5 334.812C2114.08 336.729 2113.5 338.104 2112.75 338.938C2112 339.688 2110.88 340.396 2109.38 341.062C2107.96 341.646 2106.25 342.146 2104.25 342.562C2102.33 343.062 2100.21 343.438 2097.88 343.688C2095.62 343.938 2093.33 344.062 2091 344.062C2084.75 344.062 2079.33 343.271 2074.75 341.688C2070.17 340.104 2066.38 337.688 2063.38 334.438C2060.38 331.104 2058.17 326.938 2056.75 321.938C2055.33 316.938 2054.62 311.021 2054.62 304.188V247.062H2041.25C2039.67 247.062 2038.46 246.104 2037.62 244.188C2036.79 242.188 2036.38 238.896 2036.38 234.312C2036.38 231.896 2036.46 229.854 2036.62 228.188C2036.88 226.521 2037.21 225.229 2037.62 224.312C2038.04 223.312 2038.54 222.604 2039.12 222.188C2039.79 221.771 2040.54 221.562 2041.38 221.562H2054.62V196.688C2054.62 195.854 2054.83 195.104 2055.25 194.438C2055.75 193.771 2056.58 193.229 2057.75 192.812C2059 192.312 2060.62 191.979 2062.62 191.812C2064.71 191.562 2067.25 191.438 2070.25 191.438C2073.33 191.438 2075.88 191.562 2077.88 191.812C2079.96 191.979 2081.58 192.312 2082.75 192.812C2083.92 193.229 2084.75 193.771 2085.25 194.438C2085.75 195.104 2086 195.854 2086 196.688V221.562H2110.25C2111.08 221.562 2111.79 221.771 2112.38 222.188C2113.04 222.604 2113.58 223.312 2114 224.312C2114.42 225.229 2114.71 226.521 2114.88 228.188C2115.12 229.854 2115.25 231.896 2115.25 234.312C2115.25 238.896 2114.83 242.188 2114 244.188C2113.17 246.104 2111.96 247.062 2110.38 247.062H2086V299.438C2086 305.521 2086.96 310.104 2088.88 313.188C2090.79 316.188 2094.21 317.688 2099.12 317.688C2100.79 317.688 2102.29 317.562 2103.62 317.312C2104.96 316.979 2106.12 316.646 2107.12 316.312C2108.21 315.896 2109.08 315.562 2109.75 315.312C2110.5 314.979 2111.17 314.812 2111.75 314.812C2112.25 314.812 2112.71 314.979 2113.12 315.312C2113.62 315.562 2114 316.146 2114.25 317.062C2114.5 317.896 2114.71 319.062 2114.88 320.562C2115.12 322.062 2115.25 323.979 2115.25 326.312Z" fill="white"/>
</svg>
