<svg width="2116" height="512" viewBox="0 0 2116 512" fill="none" xmlns="http://www.w3.org/2000/svg">
<path d="M417.019 454.201C474.151 407.253 510.615 335.9 510.615 256C510.615 114.617 396.448 0 255.627 0C114.806 0 0.625 114.617 0.625 256C0.625 397.383 114.792 512 255.613 512H512.625L417.019 454.201ZM308.287 211.084L244.844 384.332L180.55 258.405L174.148 273.647L65.385 260.813L152.393 247.98L175.458 187.154L239.405 310.525L306.473 127.668L357.228 249.587L447.865 260.817L337.291 275.253L308.287 211.084Z" fill="#EA580C"/>
<path d="M751.375 169.469C751.375 178.552 749.958 186.594 747.125 193.594C744.292 200.594 740.167 206.51 734.75 211.344C729.333 216.094 722.667 219.719 714.75 222.219C706.917 224.719 697.667 225.969 687 225.969H673.5V277.594C673.5 278.427 673.208 279.177 672.625 279.844C672.125 280.51 671.25 281.052 670 281.469C668.75 281.885 667.083 282.219 665 282.469C662.917 282.719 660.25 282.844 657 282.844C653.833 282.844 651.167 282.719 649 282.469C646.917 282.219 645.25 281.885 644 281.469C642.75 281.052 641.875 280.51 641.375 279.844C640.875 279.177 640.625 278.427 640.625 277.594V132.094C640.625 128.177 641.625 125.26 643.625 123.344C645.708 121.344 648.417 120.344 651.75 120.344H689.875C693.708 120.344 697.333 120.51 700.75 120.844C704.25 121.094 708.417 121.719 713.25 122.719C718.083 123.635 722.958 125.385 727.875 127.969C732.875 130.552 737.125 133.844 740.625 137.844C744.125 141.76 746.792 146.385 748.625 151.719C750.458 156.969 751.375 162.885 751.375 169.469ZM717 171.844C717 166.177 716 161.51 714 157.844C712 154.177 709.542 151.469 706.625 149.719C703.708 147.969 700.625 146.885 697.375 146.469C694.208 145.969 690.917 145.719 687.5 145.719H673.5V200.594H688.25C693.5 200.594 697.875 199.885 701.375 198.469C704.958 197.052 707.875 195.094 710.125 192.594C712.375 190.01 714.083 186.969 715.25 183.469C716.417 179.885 717 176.01 717 171.844Z" fill="#EA580C"/>
<path d="M880.75 277.844C880.75 278.677 880.542 279.427 880.125 280.094C879.708 280.677 878.958 281.177 877.875 281.594C876.875 282.01 875.5 282.302 873.75 282.469C872.083 282.719 869.958 282.844 867.375 282.844C864.625 282.844 862.375 282.719 860.625 282.469C858.958 282.302 857.625 282.01 856.625 281.594C855.625 281.177 854.917 280.677 854.5 280.094C854.083 279.427 853.875 278.677 853.875 277.844V264.969C847.708 271.635 841.417 276.635 835 279.969C828.667 283.302 822.083 284.969 815.25 284.969C807.583 284.969 801.125 283.719 795.875 281.219C790.708 278.719 786.5 275.302 783.25 270.969C780.083 266.635 777.792 261.635 776.375 255.969C775.042 250.219 774.375 243.094 774.375 234.594V166.344C774.375 165.51 774.583 164.802 775 164.219C775.5 163.552 776.333 163.01 777.5 162.594C778.75 162.177 780.375 161.885 782.375 161.719C784.458 161.469 787 161.344 790 161.344C793.083 161.344 795.625 161.469 797.625 161.719C799.625 161.885 801.208 162.177 802.375 162.594C803.625 163.01 804.5 163.552 805 164.219C805.5 164.802 805.75 165.51 805.75 166.344V229.344C805.75 235.177 806.125 239.635 806.875 242.719C807.625 245.802 808.75 248.469 810.25 250.719C811.833 252.885 813.792 254.594 816.125 255.844C818.542 257.01 821.333 257.594 824.5 257.594C828.5 257.594 832.5 256.135 836.5 253.219C840.583 250.302 844.917 246.052 849.5 240.469V166.344C849.5 165.51 849.708 164.802 850.125 164.219C850.625 163.552 851.458 163.01 852.625 162.594C853.875 162.177 855.5 161.885 857.5 161.719C859.5 161.469 862.042 161.344 865.125 161.344C868.208 161.344 870.75 161.469 872.75 161.719C874.75 161.885 876.333 162.177 877.5 162.594C878.667 163.01 879.5 163.552 880 164.219C880.5 164.802 880.75 165.51 880.75 166.344V277.844Z" fill="#EA580C"/>
<path d="M944 277.844C944 278.677 943.75 279.427 943.25 280.094C942.75 280.677 941.875 281.177 940.625 281.594C939.458 282.01 937.875 282.302 935.875 282.469C933.875 282.719 931.333 282.844 928.25 282.844C925.167 282.844 922.625 282.719 920.625 282.469C918.625 282.302 917 282.01 915.75 281.594C914.583 281.177 913.75 280.677 913.25 280.094C912.75 279.427 912.5 278.677 912.5 277.844V113.469C912.5 112.635 912.75 111.885 913.25 111.219C913.75 110.552 914.583 110.01 915.75 109.594C917 109.094 918.625 108.719 920.625 108.469C922.625 108.219 925.167 108.094 928.25 108.094C931.333 108.094 933.875 108.219 935.875 108.469C937.875 108.719 939.458 109.094 940.625 109.594C941.875 110.01 942.75 110.552 943.25 111.219C943.75 111.885 944 112.635 944 113.469V277.844Z" fill="#EA580C"/>
<path d="M1054 246.344C1054 252.677 1052.79 258.26 1050.38 263.094C1048.04 267.927 1044.71 271.969 1040.38 275.219C1036.04 278.469 1030.92 280.885 1025 282.469C1019.08 284.135 1012.67 284.969 1005.75 284.969C1001.58 284.969 997.583 284.635 993.75 283.969C990 283.385 986.625 282.635 983.625 281.719C980.625 280.719 978.125 279.719 976.125 278.719C974.125 277.719 972.667 276.802 971.75 275.969C970.833 275.052 970.125 273.677 969.625 271.844C969.125 269.927 968.875 267.135 968.875 263.469C968.875 261.052 968.958 259.135 969.125 257.719C969.292 256.219 969.542 255.052 969.875 254.219C970.208 253.302 970.625 252.719 971.125 252.469C971.625 252.135 972.25 251.969 973 251.969C973.917 251.969 975.25 252.51 977 253.594C978.833 254.594 981.083 255.719 983.75 256.969C986.417 258.219 989.5 259.385 993 260.469C996.583 261.552 1000.62 262.094 1005.12 262.094C1007.96 262.094 1010.46 261.802 1012.62 261.219C1014.88 260.635 1016.79 259.802 1018.38 258.719C1020.04 257.635 1021.29 256.26 1022.12 254.594C1022.96 252.927 1023.38 251.01 1023.38 248.844C1023.38 246.344 1022.58 244.219 1021 242.469C1019.5 240.635 1017.46 239.052 1014.88 237.719C1012.38 236.385 1009.5 235.135 1006.25 233.969C1003.08 232.802 999.792 231.51 996.375 230.094C993.042 228.677 989.75 227.052 986.5 225.219C983.333 223.385 980.458 221.135 977.875 218.469C975.375 215.802 973.333 212.594 971.75 208.844C970.25 205.094 969.5 200.594 969.5 195.344C969.5 190.01 970.542 185.135 972.625 180.719C974.708 176.219 977.708 172.385 981.625 169.219C985.542 166.052 990.292 163.594 995.875 161.844C1001.54 160.094 1007.88 159.219 1014.88 159.219C1018.38 159.219 1021.75 159.469 1025 159.969C1028.33 160.469 1031.33 161.094 1034 161.844C1036.67 162.594 1038.92 163.427 1040.75 164.344C1042.58 165.177 1043.88 165.927 1044.62 166.594C1045.46 167.177 1046.04 167.802 1046.38 168.469C1046.71 169.052 1046.96 169.802 1047.12 170.719C1047.29 171.552 1047.42 172.635 1047.5 173.969C1047.67 175.219 1047.75 176.802 1047.75 178.719C1047.75 180.969 1047.67 182.802 1047.5 184.219C1047.42 185.635 1047.21 186.76 1046.88 187.594C1046.62 188.427 1046.25 189.01 1045.75 189.344C1045.25 189.594 1044.67 189.719 1044 189.719C1043.25 189.719 1042.08 189.302 1040.5 188.469C1038.92 187.552 1036.92 186.594 1034.5 185.594C1032.17 184.594 1029.42 183.677 1026.25 182.844C1023.17 181.927 1019.62 181.469 1015.62 181.469C1012.79 181.469 1010.33 181.76 1008.25 182.344C1006.17 182.927 1004.46 183.76 1003.12 184.844C1001.79 185.927 1000.79 187.219 1000.12 188.719C999.458 190.135 999.125 191.677 999.125 193.344C999.125 195.927 999.917 198.094 1001.5 199.844C1003.08 201.594 1005.17 203.135 1007.75 204.469C1010.33 205.802 1013.25 207.052 1016.5 208.219C1019.83 209.385 1023.17 210.677 1026.5 212.094C1029.92 213.427 1033.25 215.01 1036.5 216.844C1039.83 218.677 1042.79 220.927 1045.38 223.594C1047.96 226.26 1050.04 229.469 1051.62 233.219C1053.21 236.885 1054 241.26 1054 246.344Z" fill="#EA580C"/>
<path d="M1180.75 218.844C1180.75 222.677 1179.88 225.51 1178.12 227.344C1176.46 229.177 1174.12 230.094 1171.12 230.094H1103.25C1103.25 234.844 1103.79 239.177 1104.88 243.094C1106.04 246.927 1107.83 250.219 1110.25 252.969C1112.75 255.635 1115.92 257.677 1119.75 259.094C1123.67 260.51 1128.33 261.219 1133.75 261.219C1139.25 261.219 1144.08 260.844 1148.25 260.094C1152.42 259.26 1156 258.385 1159 257.469C1162.08 256.469 1164.62 255.594 1166.62 254.844C1168.62 254.01 1170.25 253.594 1171.5 253.594C1172.25 253.594 1172.88 253.76 1173.38 254.094C1173.88 254.344 1174.29 254.844 1174.62 255.594C1174.96 256.344 1175.17 257.427 1175.25 258.844C1175.42 260.177 1175.5 261.885 1175.5 263.969C1175.5 265.802 1175.46 267.385 1175.38 268.719C1175.29 269.969 1175.17 271.052 1175 271.969C1174.83 272.885 1174.58 273.677 1174.25 274.344C1173.92 274.927 1173.46 275.51 1172.88 276.094C1172.38 276.677 1170.92 277.469 1168.5 278.469C1166.08 279.469 1163 280.469 1159.25 281.469C1155.5 282.385 1151.21 283.177 1146.38 283.844C1141.54 284.594 1136.38 284.969 1130.88 284.969C1120.96 284.969 1112.25 283.719 1104.75 281.219C1097.33 278.719 1091.12 274.927 1086.12 269.844C1081.12 264.76 1077.38 258.344 1074.88 250.594C1072.46 242.844 1071.25 233.76 1071.25 223.344C1071.25 213.427 1072.54 204.51 1075.12 196.594C1077.71 188.594 1081.46 181.844 1086.38 176.344C1091.29 170.76 1097.25 166.51 1104.25 163.594C1111.33 160.677 1119.29 159.219 1128.12 159.219C1137.46 159.219 1145.42 160.594 1152 163.344C1158.67 166.094 1164.12 169.927 1168.38 174.844C1172.62 179.677 1175.75 185.427 1177.75 192.094C1179.75 198.76 1180.75 206.01 1180.75 213.844V218.844ZM1150.25 209.844C1150.5 201.01 1148.71 194.094 1144.88 189.094C1141.12 184.01 1135.29 181.469 1127.38 181.469C1123.38 181.469 1119.88 182.219 1116.88 183.719C1113.96 185.219 1111.5 187.26 1109.5 189.844C1107.58 192.344 1106.08 195.344 1105 198.844C1104 202.26 1103.42 205.927 1103.25 209.844H1150.25Z" fill="#EA580C"/>
<path d="M1378.5 257.594C1378.5 259.677 1378.42 261.469 1378.25 262.969C1378.17 264.385 1378 265.635 1377.75 266.719C1377.5 267.719 1377.17 268.594 1376.75 269.344C1376.33 270.094 1375.67 270.969 1374.75 271.969C1373.83 272.885 1372.04 274.094 1369.38 275.594C1366.79 277.094 1363.58 278.552 1359.75 279.969C1356 281.302 1351.67 282.427 1346.75 283.344C1341.92 284.26 1336.67 284.719 1331 284.719C1319.92 284.719 1309.92 283.01 1301 279.594C1292.08 276.177 1284.5 271.094 1278.25 264.344C1272 257.51 1267.21 249.01 1263.88 238.844C1260.54 228.677 1258.88 216.844 1258.88 203.344C1258.88 189.594 1260.71 177.385 1264.38 166.719C1268.04 156.052 1273.17 147.094 1279.75 139.844C1286.33 132.594 1294.21 127.094 1303.38 123.344C1312.62 119.594 1322.79 117.719 1333.88 117.719C1338.38 117.719 1342.71 118.094 1346.88 118.844C1351.04 119.594 1354.88 120.594 1358.38 121.844C1361.96 123.01 1365.17 124.385 1368 125.969C1370.83 127.552 1372.79 128.927 1373.88 130.094C1375.04 131.177 1375.83 132.094 1376.25 132.844C1376.67 133.594 1377 134.552 1377.25 135.719C1377.5 136.885 1377.67 138.26 1377.75 139.844C1377.92 141.427 1378 143.385 1378 145.719C1378 148.219 1377.92 150.344 1377.75 152.094C1377.58 153.844 1377.29 155.26 1376.88 156.344C1376.46 157.427 1375.96 158.219 1375.38 158.719C1374.79 159.219 1374.12 159.469 1373.38 159.469C1372.12 159.469 1370.54 158.76 1368.62 157.344C1366.71 155.844 1364.21 154.219 1361.12 152.469C1358.12 150.635 1354.5 149.01 1350.25 147.594C1346.08 146.094 1341.08 145.344 1335.25 145.344C1328.83 145.344 1323.08 146.677 1318 149.344C1313 151.927 1308.71 155.677 1305.12 160.594C1301.62 165.427 1298.96 171.302 1297.12 178.219C1295.29 185.135 1294.38 192.927 1294.38 201.594C1294.38 211.094 1295.33 219.344 1297.25 226.344C1299.25 233.26 1302.04 238.969 1305.62 243.469C1309.29 247.969 1313.67 251.344 1318.75 253.594C1323.92 255.76 1329.71 256.844 1336.12 256.844C1341.96 256.844 1347 256.177 1351.25 254.844C1355.5 253.427 1359.12 251.885 1362.12 250.219C1365.21 248.552 1367.71 247.052 1369.62 245.719C1371.62 244.385 1373.17 243.719 1374.25 243.719C1375.08 243.719 1375.75 243.885 1376.25 244.219C1376.75 244.552 1377.17 245.219 1377.5 246.219C1377.83 247.219 1378.08 248.635 1378.25 250.469C1378.42 252.219 1378.5 254.594 1378.5 257.594Z" fill="white"/>
<path d="M1513 220.969C1513 230.469 1511.75 239.135 1509.25 246.969C1506.75 254.802 1502.96 261.552 1497.88 267.219C1492.79 272.885 1486.42 277.26 1478.75 280.344C1471.08 283.427 1462.12 284.969 1451.88 284.969C1441.96 284.969 1433.33 283.594 1426 280.844C1418.67 278.094 1412.58 274.094 1407.75 268.844C1402.92 263.594 1399.33 257.135 1397 249.469C1394.67 241.802 1393.5 233.052 1393.5 223.219C1393.5 213.719 1394.75 205.052 1397.25 197.219C1399.83 189.302 1403.67 182.552 1408.75 176.969C1413.83 171.302 1420.17 166.927 1427.75 163.844C1435.42 160.76 1444.38 159.219 1454.62 159.219C1464.62 159.219 1473.29 160.594 1480.62 163.344C1487.96 166.01 1494 169.969 1498.75 175.219C1503.58 180.469 1507.17 186.927 1509.5 194.594C1511.83 202.26 1513 211.052 1513 220.969ZM1480.62 222.219C1480.62 216.719 1480.17 211.677 1479.25 207.094C1478.42 202.427 1476.96 198.385 1474.88 194.969C1472.79 191.552 1470 188.885 1466.5 186.969C1463.08 185.052 1458.75 184.094 1453.5 184.094C1448.83 184.094 1444.75 184.969 1441.25 186.719C1437.75 188.385 1434.88 190.885 1432.62 194.219C1430.38 197.469 1428.67 201.427 1427.5 206.094C1426.42 210.677 1425.88 215.927 1425.88 221.844C1425.88 227.344 1426.33 232.427 1427.25 237.094C1428.17 241.677 1429.62 245.677 1431.62 249.094C1433.71 252.51 1436.5 255.177 1440 257.094C1443.5 258.927 1447.83 259.844 1453 259.844C1457.75 259.844 1461.88 259.01 1465.38 257.344C1468.88 255.594 1471.75 253.094 1474 249.844C1476.25 246.594 1477.92 242.677 1479 238.094C1480.08 233.427 1480.62 228.135 1480.62 222.219Z" fill="white"/>
<path d="M1644.5 277.844C1644.5 278.677 1644.25 279.427 1643.75 280.094C1643.25 280.677 1642.42 281.177 1641.25 281.594C1640.08 282.01 1638.46 282.302 1636.38 282.469C1634.38 282.719 1631.88 282.844 1628.88 282.844C1625.79 282.844 1623.21 282.719 1621.12 282.469C1619.12 282.302 1617.54 282.01 1616.38 281.594C1615.21 281.177 1614.38 280.677 1613.88 280.094C1613.38 279.427 1613.12 278.677 1613.12 277.844V214.219C1613.12 208.802 1612.71 204.552 1611.88 201.469C1611.12 198.385 1610 195.76 1608.5 193.594C1607 191.344 1605.04 189.635 1602.62 188.469C1600.29 187.219 1597.54 186.594 1594.38 186.594C1590.38 186.594 1586.33 188.052 1582.25 190.969C1578.17 193.885 1573.92 198.135 1569.5 203.719V277.844C1569.5 278.677 1569.25 279.427 1568.75 280.094C1568.25 280.677 1567.38 281.177 1566.12 281.594C1564.96 282.01 1563.38 282.302 1561.38 282.469C1559.38 282.719 1556.83 282.844 1553.75 282.844C1550.67 282.844 1548.12 282.719 1546.12 282.469C1544.12 282.302 1542.5 282.01 1541.25 281.594C1540.08 281.177 1539.25 280.677 1538.75 280.094C1538.25 279.427 1538 278.677 1538 277.844V166.344C1538 165.51 1538.21 164.802 1538.62 164.219C1539.04 163.552 1539.79 163.01 1540.88 162.594C1541.96 162.177 1543.33 161.885 1545 161.719C1546.75 161.469 1548.92 161.344 1551.5 161.344C1554.17 161.344 1556.38 161.469 1558.12 161.719C1559.88 161.885 1561.21 162.177 1562.12 162.594C1563.12 163.01 1563.83 163.552 1564.25 164.219C1564.67 164.802 1564.88 165.51 1564.88 166.344V179.219C1571.04 172.552 1577.29 167.552 1583.62 164.219C1590.04 160.885 1596.71 159.219 1603.62 159.219C1611.21 159.219 1617.58 160.469 1622.75 162.969C1628 165.469 1632.21 168.885 1635.38 173.219C1638.62 177.469 1640.96 182.469 1642.38 188.219C1643.79 193.969 1644.5 200.885 1644.5 208.969V277.844Z" fill="white"/>
<path d="M1782 277.844C1782 278.677 1781.75 279.427 1781.25 280.094C1780.75 280.677 1779.92 281.177 1778.75 281.594C1777.58 282.01 1775.96 282.302 1773.88 282.469C1771.88 282.719 1769.38 282.844 1766.38 282.844C1763.29 282.844 1760.71 282.719 1758.62 282.469C1756.62 282.302 1755.04 282.01 1753.88 281.594C1752.71 281.177 1751.88 280.677 1751.38 280.094C1750.88 279.427 1750.62 278.677 1750.62 277.844V214.219C1750.62 208.802 1750.21 204.552 1749.38 201.469C1748.62 198.385 1747.5 195.76 1746 193.594C1744.5 191.344 1742.54 189.635 1740.12 188.469C1737.79 187.219 1735.04 186.594 1731.88 186.594C1727.88 186.594 1723.83 188.052 1719.75 190.969C1715.67 193.885 1711.42 198.135 1707 203.719V277.844C1707 278.677 1706.75 279.427 1706.25 280.094C1705.75 280.677 1704.88 281.177 1703.62 281.594C1702.46 282.01 1700.88 282.302 1698.88 282.469C1696.88 282.719 1694.33 282.844 1691.25 282.844C1688.17 282.844 1685.62 282.719 1683.62 282.469C1681.62 282.302 1680 282.01 1678.75 281.594C1677.58 281.177 1676.75 280.677 1676.25 280.094C1675.75 279.427 1675.5 278.677 1675.5 277.844V166.344C1675.5 165.51 1675.71 164.802 1676.12 164.219C1676.54 163.552 1677.29 163.01 1678.38 162.594C1679.46 162.177 1680.83 161.885 1682.5 161.719C1684.25 161.469 1686.42 161.344 1689 161.344C1691.67 161.344 1693.88 161.469 1695.62 161.719C1697.38 161.885 1698.71 162.177 1699.62 162.594C1700.62 163.01 1701.33 163.552 1701.75 164.219C1702.17 164.802 1702.38 165.51 1702.38 166.344V179.219C1708.54 172.552 1714.79 167.552 1721.12 164.219C1727.54 160.885 1734.21 159.219 1741.12 159.219C1748.71 159.219 1755.08 160.469 1760.25 162.969C1765.5 165.469 1769.71 168.885 1772.88 173.219C1776.12 177.469 1778.46 182.469 1779.88 188.219C1781.29 193.969 1782 200.885 1782 208.969V277.844Z" fill="white"/>
<path d="M1916 218.844C1916 222.677 1915.12 225.51 1913.38 227.344C1911.71 229.177 1909.38 230.094 1906.38 230.094H1838.5C1838.5 234.844 1839.04 239.177 1840.12 243.094C1841.29 246.927 1843.08 250.219 1845.5 252.969C1848 255.635 1851.17 257.677 1855 259.094C1858.92 260.51 1863.58 261.219 1869 261.219C1874.5 261.219 1879.33 260.844 1883.5 260.094C1887.67 259.26 1891.25 258.385 1894.25 257.469C1897.33 256.469 1899.88 255.594 1901.88 254.844C1903.88 254.01 1905.5 253.594 1906.75 253.594C1907.5 253.594 1908.12 253.76 1908.62 254.094C1909.12 254.344 1909.54 254.844 1909.88 255.594C1910.21 256.344 1910.42 257.427 1910.5 258.844C1910.67 260.177 1910.75 261.885 1910.75 263.969C1910.75 265.802 1910.71 267.385 1910.62 268.719C1910.54 269.969 1910.42 271.052 1910.25 271.969C1910.08 272.885 1909.83 273.677 1909.5 274.344C1909.17 274.927 1908.71 275.51 1908.12 276.094C1907.62 276.677 1906.17 277.469 1903.75 278.469C1901.33 279.469 1898.25 280.469 1894.5 281.469C1890.75 282.385 1886.46 283.177 1881.62 283.844C1876.79 284.594 1871.62 284.969 1866.12 284.969C1856.21 284.969 1847.5 283.719 1840 281.219C1832.58 278.719 1826.38 274.927 1821.38 269.844C1816.38 264.76 1812.62 258.344 1810.12 250.594C1807.71 242.844 1806.5 233.76 1806.5 223.344C1806.5 213.427 1807.79 204.51 1810.38 196.594C1812.96 188.594 1816.71 181.844 1821.62 176.344C1826.54 170.76 1832.5 166.51 1839.5 163.594C1846.58 160.677 1854.54 159.219 1863.38 159.219C1872.71 159.219 1880.67 160.594 1887.25 163.344C1893.92 166.094 1899.38 169.927 1903.62 174.844C1907.88 179.677 1911 185.427 1913 192.094C1915 198.76 1916 206.01 1916 213.844V218.844ZM1885.5 209.844C1885.75 201.01 1883.96 194.094 1880.12 189.094C1876.38 184.01 1870.54 181.469 1862.62 181.469C1858.62 181.469 1855.12 182.219 1852.12 183.719C1849.21 185.219 1846.75 187.26 1844.75 189.844C1842.83 192.344 1841.33 195.344 1840.25 198.844C1839.25 202.26 1838.67 205.927 1838.5 209.844H1885.5Z" fill="white"/>
<path d="M2026.38 260.094C2026.38 262.26 2026.29 264.094 2026.12 265.594C2026.04 267.01 2025.88 268.219 2025.62 269.219C2025.46 270.219 2025.21 271.052 2024.88 271.719C2024.62 272.302 2024 273.094 2023 274.094C2022 275.01 2020.29 276.177 2017.88 277.594C2015.46 278.927 2012.71 280.135 2009.62 281.219C2006.54 282.302 2003.17 283.177 1999.5 283.844C1995.92 284.51 1992.21 284.844 1988.38 284.844C1979.79 284.844 1972.17 283.51 1965.5 280.844C1958.92 278.177 1953.38 274.26 1948.88 269.094C1944.38 263.844 1940.96 257.469 1938.62 249.969C1936.38 242.469 1935.25 233.885 1935.25 224.219C1935.25 213.052 1936.62 203.427 1939.38 195.344C1942.21 187.177 1946.12 180.427 1951.12 175.094C1956.12 169.76 1962.04 165.802 1968.88 163.219C1975.71 160.635 1983.21 159.344 1991.38 159.344C1994.71 159.344 1997.96 159.635 2001.12 160.219C2004.38 160.802 2007.38 161.594 2010.12 162.594C2012.96 163.594 2015.46 164.719 2017.62 165.969C2019.88 167.219 2021.46 168.302 2022.38 169.219C2023.29 170.135 2023.92 170.927 2024.25 171.594C2024.67 172.177 2024.96 172.969 2025.12 173.969C2025.38 174.969 2025.54 176.219 2025.62 177.719C2025.79 179.135 2025.88 180.885 2025.88 182.969C2025.88 187.802 2025.46 191.219 2024.62 193.219C2023.79 195.135 2022.71 196.094 2021.38 196.094C2019.96 196.094 2018.46 195.51 2016.88 194.344C2015.29 193.177 2013.42 191.885 2011.25 190.469C2009.08 189.052 2006.5 187.76 2003.5 186.594C2000.5 185.427 1996.92 184.844 1992.75 184.844C1984.58 184.844 1978.33 188.01 1974 194.344C1969.67 200.594 1967.5 209.802 1967.5 221.969C1967.5 227.969 1968.04 233.26 1969.12 237.844C1970.21 242.427 1971.79 246.26 1973.88 249.344C1976.04 252.427 1978.71 254.76 1981.88 256.344C1985.12 257.844 1988.88 258.594 1993.12 258.594C1997.46 258.594 2001.17 257.969 2004.25 256.719C2007.42 255.385 2010.17 253.927 2012.5 252.344C2014.83 250.76 2016.79 249.344 2018.38 248.094C2019.96 246.76 2021.29 246.094 2022.38 246.094C2023.12 246.094 2023.75 246.302 2024.25 246.719C2024.75 247.135 2025.12 247.927 2025.38 249.094C2025.71 250.177 2025.96 251.594 2026.12 253.344C2026.29 255.094 2026.38 257.344 2026.38 260.094Z" fill="white"/>
<path d="M2115.25 266.844C2115.25 270.51 2115 273.344 2114.5 275.344C2114.08 277.26 2113.5 278.635 2112.75 279.469C2112 280.219 2110.88 280.927 2109.38 281.594C2107.96 282.177 2106.25 282.677 2104.25 283.094C2102.33 283.594 2100.21 283.969 2097.88 284.219C2095.62 284.469 2093.33 284.594 2091 284.594C2084.75 284.594 2079.33 283.802 2074.75 282.219C2070.17 280.635 2066.38 278.219 2063.38 274.969C2060.38 271.635 2058.17 267.469 2056.75 262.469C2055.33 257.469 2054.62 251.552 2054.62 244.719V187.594H2041.25C2039.67 187.594 2038.46 186.635 2037.62 184.719C2036.79 182.719 2036.38 179.427 2036.38 174.844C2036.38 172.427 2036.46 170.385 2036.62 168.719C2036.88 167.052 2037.21 165.76 2037.62 164.844C2038.04 163.844 2038.54 163.135 2039.12 162.719C2039.79 162.302 2040.54 162.094 2041.38 162.094H2054.62V137.219C2054.62 136.385 2054.83 135.635 2055.25 134.969C2055.75 134.302 2056.58 133.76 2057.75 133.344C2059 132.844 2060.62 132.51 2062.62 132.344C2064.71 132.094 2067.25 131.969 2070.25 131.969C2073.33 131.969 2075.88 132.094 2077.88 132.344C2079.96 132.51 2081.58 132.844 2082.75 133.344C2083.92 133.76 2084.75 134.302 2085.25 134.969C2085.75 135.635 2086 136.385 2086 137.219V162.094H2110.25C2111.08 162.094 2111.79 162.302 2112.38 162.719C2113.04 163.135 2113.58 163.844 2114 164.844C2114.42 165.76 2114.71 167.052 2114.88 168.719C2115.12 170.385 2115.25 172.427 2115.25 174.844C2115.25 179.427 2114.83 182.719 2114 184.719C2113.17 186.635 2111.96 187.594 2110.38 187.594H2086V239.969C2086 246.052 2086.96 250.635 2088.88 253.719C2090.79 256.719 2094.21 258.219 2099.12 258.219C2100.79 258.219 2102.29 258.094 2103.62 257.844C2104.96 257.51 2106.12 257.177 2107.12 256.844C2108.21 256.427 2109.08 256.094 2109.75 255.844C2110.5 255.51 2111.17 255.344 2111.75 255.344C2112.25 255.344 2112.71 255.51 2113.12 255.844C2113.62 256.094 2114 256.677 2114.25 257.594C2114.5 258.427 2114.71 259.594 2114.88 261.094C2115.12 262.594 2115.25 264.51 2115.25 266.844Z" fill="white"/>
<path d="M669.969 386.781C669.969 387.115 669.958 387.406 669.938 387.656C669.917 387.906 669.875 388.125 669.812 388.312C669.771 388.5 669.708 388.667 669.625 388.812C669.542 388.958 669.396 389.135 669.188 389.344C668.979 389.552 668.542 389.875 667.875 390.312C667.208 390.729 666.375 391.146 665.375 391.562C664.396 391.958 663.26 392.292 661.969 392.562C660.698 392.854 659.302 393 657.781 393C655.156 393 652.781 392.562 650.656 391.688C648.552 390.812 646.75 389.521 645.25 387.812C643.771 386.104 642.625 384 641.812 381.5C641.021 378.979 640.625 376.083 640.625 372.812C640.625 369.458 641.052 366.469 641.906 363.844C642.781 361.219 644 359 645.562 357.188C647.125 355.354 648.99 353.958 651.156 353C653.344 352.042 655.76 351.562 658.406 351.562C659.573 351.562 660.708 351.677 661.812 351.906C662.917 352.115 663.938 352.385 664.875 352.719C665.812 353.052 666.646 353.438 667.375 353.875C668.104 354.312 668.604 354.677 668.875 354.969C669.167 355.24 669.354 355.448 669.438 355.594C669.521 355.74 669.583 355.917 669.625 356.125C669.688 356.312 669.729 356.542 669.75 356.812C669.792 357.083 669.812 357.406 669.812 357.781C669.812 358.198 669.792 358.552 669.75 358.844C669.708 359.135 669.646 359.385 669.562 359.594C669.479 359.781 669.375 359.927 669.25 360.031C669.146 360.115 669.01 360.156 668.844 360.156C668.552 360.156 668.146 359.958 667.625 359.562C667.104 359.146 666.427 358.698 665.594 358.219C664.781 357.719 663.781 357.271 662.594 356.875C661.427 356.458 660.021 356.25 658.375 356.25C656.583 356.25 654.948 356.615 653.469 357.344C652.01 358.052 650.76 359.104 649.719 360.5C648.677 361.896 647.865 363.604 647.281 365.625C646.719 367.625 646.438 369.917 646.438 372.5C646.438 375.062 646.708 377.333 647.25 379.312C647.812 381.271 648.604 382.917 649.625 384.25C650.667 385.562 651.938 386.562 653.438 387.25C654.938 387.917 656.635 388.25 658.531 388.25C660.135 388.25 661.531 388.052 662.719 387.656C663.927 387.26 664.948 386.823 665.781 386.344C666.635 385.844 667.333 385.396 667.875 385C668.417 384.604 668.844 384.406 669.156 384.406C669.302 384.406 669.427 384.438 669.531 384.5C669.635 384.562 669.719 384.688 669.781 384.875C669.844 385.042 669.885 385.281 669.906 385.594C669.948 385.906 669.969 386.302 669.969 386.781Z" fill="#EA580C"/>
<path d="M702.656 377.344C702.656 379.635 702.354 381.75 701.75 383.688C701.146 385.604 700.24 387.26 699.031 388.656C697.844 390.052 696.344 391.146 694.531 391.938C692.74 392.708 690.656 393.094 688.281 393.094C685.969 393.094 683.948 392.75 682.219 392.062C680.51 391.375 679.083 390.375 677.938 389.062C676.792 387.75 675.938 386.156 675.375 384.281C674.812 382.406 674.531 380.281 674.531 377.906C674.531 375.615 674.823 373.51 675.406 371.594C676.01 369.656 676.906 367.99 678.094 366.594C679.302 365.198 680.802 364.115 682.594 363.344C684.385 362.573 686.479 362.188 688.875 362.188C691.188 362.188 693.198 362.531 694.906 363.219C696.635 363.906 698.073 364.906 699.219 366.219C700.365 367.531 701.219 369.125 701.781 371C702.365 372.875 702.656 374.99 702.656 377.344ZM697.219 377.688C697.219 376.167 697.073 374.729 696.781 373.375C696.51 372.021 696.052 370.833 695.406 369.812C694.76 368.792 693.885 367.99 692.781 367.406C691.677 366.802 690.302 366.5 688.656 366.5C687.135 366.5 685.823 366.771 684.719 367.312C683.635 367.854 682.74 368.625 682.031 369.625C681.323 370.604 680.792 371.771 680.438 373.125C680.104 374.479 679.938 375.958 679.938 377.562C679.938 379.104 680.073 380.552 680.344 381.906C680.635 383.26 681.104 384.448 681.75 385.469C682.417 386.469 683.302 387.271 684.406 387.875C685.51 388.458 686.885 388.75 688.531 388.75C690.031 388.75 691.333 388.479 692.438 387.938C693.542 387.396 694.448 386.635 695.156 385.656C695.865 384.677 696.385 383.51 696.719 382.156C697.052 380.802 697.219 379.312 697.219 377.688Z" fill="#EA580C"/>
<path d="M734.469 391.719C734.469 391.885 734.427 392.031 734.344 392.156C734.26 392.26 734.125 392.354 733.938 392.438C733.75 392.521 733.49 392.583 733.156 392.625C732.823 392.667 732.406 392.688 731.906 392.688C731.385 392.688 730.958 392.667 730.625 392.625C730.292 392.583 730.031 392.521 729.844 392.438C729.656 392.354 729.521 392.26 729.438 392.156C729.354 392.031 729.312 391.885 729.312 391.719V375.25C729.312 373.646 729.188 372.354 728.938 371.375C728.688 370.396 728.323 369.552 727.844 368.844C727.365 368.135 726.74 367.594 725.969 367.219C725.219 366.844 724.344 366.656 723.344 366.656C722.052 366.656 720.76 367.115 719.469 368.031C718.177 368.948 716.823 370.292 715.406 372.062V391.719C715.406 391.885 715.365 392.031 715.281 392.156C715.198 392.26 715.062 392.354 714.875 392.438C714.688 392.521 714.427 392.583 714.094 392.625C713.76 392.667 713.333 392.688 712.812 392.688C712.312 392.688 711.896 392.667 711.562 392.625C711.229 392.583 710.958 392.521 710.75 392.438C710.562 392.354 710.427 392.26 710.344 392.156C710.281 392.031 710.25 391.885 710.25 391.719V363.594C710.25 363.427 710.281 363.292 710.344 363.188C710.406 363.062 710.531 362.958 710.719 362.875C710.906 362.771 711.146 362.708 711.438 362.688C711.729 362.646 712.115 362.625 712.594 362.625C713.052 362.625 713.427 362.646 713.719 362.688C714.031 362.708 714.271 362.771 714.438 362.875C714.604 362.958 714.719 363.062 714.781 363.188C714.865 363.292 714.906 363.427 714.906 363.594V367.312C716.49 365.542 718.062 364.25 719.625 363.438C721.208 362.604 722.802 362.188 724.406 362.188C726.281 362.188 727.854 362.51 729.125 363.156C730.417 363.781 731.458 364.625 732.25 365.688C733.042 366.75 733.604 368 733.938 369.438C734.292 370.854 734.469 372.562 734.469 374.562V391.719Z" fill="#EA580C"/>
<path d="M768.094 391.719C768.094 391.885 768.052 392.031 767.969 392.156C767.885 392.26 767.75 392.354 767.562 392.438C767.375 392.521 767.115 392.583 766.781 392.625C766.448 392.667 766.031 392.688 765.531 392.688C765.01 392.688 764.583 392.667 764.25 392.625C763.917 392.583 763.656 392.521 763.469 392.438C763.281 392.354 763.146 392.26 763.062 392.156C762.979 392.031 762.938 391.885 762.938 391.719V375.25C762.938 373.646 762.812 372.354 762.562 371.375C762.312 370.396 761.948 369.552 761.469 368.844C760.99 368.135 760.365 367.594 759.594 367.219C758.844 366.844 757.969 366.656 756.969 366.656C755.677 366.656 754.385 367.115 753.094 368.031C751.802 368.948 750.448 370.292 749.031 372.062V391.719C749.031 391.885 748.99 392.031 748.906 392.156C748.823 392.26 748.688 392.354 748.5 392.438C748.312 392.521 748.052 392.583 747.719 392.625C747.385 392.667 746.958 392.688 746.438 392.688C745.938 392.688 745.521 392.667 745.188 392.625C744.854 392.583 744.583 392.521 744.375 392.438C744.188 392.354 744.052 392.26 743.969 392.156C743.906 392.031 743.875 391.885 743.875 391.719V363.594C743.875 363.427 743.906 363.292 743.969 363.188C744.031 363.062 744.156 362.958 744.344 362.875C744.531 362.771 744.771 362.708 745.062 362.688C745.354 362.646 745.74 362.625 746.219 362.625C746.677 362.625 747.052 362.646 747.344 362.688C747.656 362.708 747.896 362.771 748.062 362.875C748.229 362.958 748.344 363.062 748.406 363.188C748.49 363.292 748.531 363.427 748.531 363.594V367.312C750.115 365.542 751.688 364.25 753.25 363.438C754.833 362.604 756.427 362.188 758.031 362.188C759.906 362.188 761.479 362.51 762.75 363.156C764.042 363.781 765.083 364.625 765.875 365.688C766.667 366.75 767.229 368 767.562 369.438C767.917 370.854 768.094 372.562 768.094 374.562V391.719Z" fill="#EA580C"/>
<path d="M801.5 376.438C801.5 377.25 801.292 377.833 800.875 378.188C800.479 378.521 800.021 378.688 799.5 378.688H781.062C781.062 380.25 781.219 381.656 781.531 382.906C781.844 384.156 782.365 385.229 783.094 386.125C783.823 387.021 784.771 387.708 785.938 388.188C787.104 388.667 788.531 388.906 790.219 388.906C791.552 388.906 792.74 388.802 793.781 388.594C794.823 388.365 795.719 388.115 796.469 387.844C797.24 387.573 797.865 387.333 798.344 387.125C798.844 386.896 799.219 386.781 799.469 386.781C799.615 386.781 799.74 386.823 799.844 386.906C799.969 386.969 800.062 387.073 800.125 387.219C800.188 387.365 800.229 387.573 800.25 387.844C800.292 388.094 800.312 388.406 800.312 388.781C800.312 389.052 800.302 389.292 800.281 389.5C800.26 389.688 800.229 389.865 800.188 390.031C800.167 390.177 800.115 390.312 800.031 390.438C799.969 390.562 799.875 390.688 799.75 390.812C799.646 390.917 799.312 391.104 798.75 391.375C798.188 391.625 797.458 391.875 796.562 392.125C795.667 392.375 794.625 392.594 793.438 392.781C792.271 392.99 791.021 393.094 789.688 393.094C787.375 393.094 785.344 392.771 783.594 392.125C781.865 391.479 780.406 390.521 779.219 389.25C778.031 387.979 777.135 386.385 776.531 384.469C775.927 382.552 775.625 380.323 775.625 377.781C775.625 375.365 775.938 373.198 776.562 371.281C777.188 369.344 778.083 367.708 779.25 366.375C780.438 365.021 781.865 363.99 783.531 363.281C785.198 362.552 787.062 362.188 789.125 362.188C791.333 362.188 793.208 362.542 794.75 363.25C796.312 363.958 797.594 364.917 798.594 366.125C799.594 367.312 800.323 368.719 800.781 370.344C801.26 371.948 801.5 373.667 801.5 375.5V376.438ZM796.312 374.906C796.375 372.198 795.771 370.073 794.5 368.531C793.25 366.99 791.385 366.219 788.906 366.219C787.635 366.219 786.521 366.458 785.562 366.938C784.604 367.417 783.802 368.052 783.156 368.844C782.51 369.635 782.01 370.562 781.656 371.625C781.302 372.667 781.104 373.76 781.062 374.906H796.312Z" fill="#EA580C"/>
<path d="M829.594 387.438C829.594 387.792 829.583 388.104 829.562 388.375C829.542 388.625 829.5 388.844 829.438 389.031C829.396 389.198 829.333 389.354 829.25 389.5C829.188 389.625 829.021 389.823 828.75 390.094C828.5 390.344 828.062 390.667 827.438 391.062C826.812 391.438 826.104 391.781 825.312 392.094C824.542 392.385 823.698 392.625 822.781 392.812C821.865 393 820.917 393.094 819.938 393.094C817.917 393.094 816.125 392.76 814.562 392.094C813 391.427 811.688 390.458 810.625 389.188C809.583 387.896 808.781 386.323 808.219 384.469C807.677 382.594 807.406 380.438 807.406 378C807.406 375.229 807.74 372.854 808.406 370.875C809.094 368.875 810.021 367.24 811.188 365.969C812.375 364.698 813.76 363.76 815.344 363.156C816.948 362.531 818.677 362.219 820.531 362.219C821.427 362.219 822.292 362.302 823.125 362.469C823.979 362.635 824.76 362.854 825.469 363.125C826.177 363.396 826.802 363.708 827.344 364.062C827.906 364.417 828.312 364.719 828.562 364.969C828.812 365.219 828.979 365.417 829.062 365.562C829.167 365.708 829.25 365.885 829.312 366.094C829.375 366.281 829.417 366.5 829.438 366.75C829.458 367 829.469 367.312 829.469 367.688C829.469 368.5 829.375 369.073 829.188 369.406C829 369.719 828.771 369.875 828.5 369.875C828.188 369.875 827.823 369.708 827.406 369.375C827.01 369.021 826.5 368.635 825.875 368.219C825.25 367.802 824.49 367.427 823.594 367.094C822.719 366.74 821.677 366.562 820.469 366.562C817.99 366.562 816.083 367.521 814.75 369.438C813.438 371.333 812.781 374.094 812.781 377.719C812.781 379.531 812.948 381.125 813.281 382.5C813.635 383.854 814.146 384.99 814.812 385.906C815.479 386.823 816.292 387.51 817.25 387.969C818.229 388.406 819.344 388.625 820.594 388.625C821.781 388.625 822.823 388.438 823.719 388.062C824.615 387.688 825.385 387.281 826.031 386.844C826.698 386.385 827.25 385.979 827.688 385.625C828.146 385.25 828.5 385.062 828.75 385.062C828.896 385.062 829.021 385.104 829.125 385.188C829.229 385.271 829.312 385.417 829.375 385.625C829.458 385.812 829.51 386.062 829.531 386.375C829.573 386.667 829.594 387.021 829.594 387.438Z" fill="#EA580C"/>
<path d="M860.906 362.781C861.531 362.781 861.958 362.927 862.188 363.219C862.417 363.49 862.531 363.896 862.531 364.438V391.719C862.531 391.885 862.49 392.031 862.406 392.156C862.323 392.26 862.177 392.354 861.969 392.438C861.781 392.521 861.521 392.583 861.188 392.625C860.854 392.667 860.448 392.688 859.969 392.688C859.448 392.688 859.021 392.667 858.688 392.625C858.354 392.583 858.083 392.521 857.875 392.438C857.688 392.354 857.552 392.26 857.469 392.156C857.385 392.031 857.344 391.885 857.344 391.719V367.062H842.812V382.75C842.812 384.688 843.094 386.156 843.656 387.156C844.24 388.135 845.271 388.625 846.75 388.625C847.229 388.625 847.656 388.583 848.031 388.5C848.406 388.396 848.74 388.292 849.031 388.188C849.323 388.083 849.573 387.99 849.781 387.906C849.99 387.802 850.177 387.75 850.344 387.75C850.448 387.75 850.542 387.781 850.625 387.844C850.729 387.885 850.802 387.979 850.844 388.125C850.906 388.271 850.958 388.469 851 388.719C851.042 388.969 851.062 389.281 851.062 389.656C851.062 390.26 851.021 390.74 850.938 391.094C850.854 391.427 850.729 391.688 850.562 391.875C850.396 392.042 850.146 392.198 849.812 392.344C849.479 392.49 849.094 392.604 848.656 392.688C848.24 392.792 847.792 392.875 847.312 392.938C846.833 393 846.354 393.031 845.875 393.031C844.417 393.031 843.167 392.844 842.125 392.469C841.083 392.073 840.229 391.49 839.562 390.719C838.896 389.927 838.406 388.938 838.094 387.75C837.802 386.542 837.656 385.125 837.656 383.5V367.062H833.719C833.406 367.062 833.156 366.896 832.969 366.562C832.781 366.229 832.688 365.688 832.688 364.938C832.688 364.542 832.708 364.208 832.75 363.938C832.812 363.667 832.885 363.448 832.969 363.281C833.052 363.094 833.156 362.969 833.281 362.906C833.427 362.823 833.583 362.781 833.75 362.781H837.656V356.094C837.656 355.948 837.688 355.812 837.75 355.688C837.833 355.562 837.969 355.458 838.156 355.375C838.365 355.271 838.635 355.198 838.969 355.156C839.302 355.115 839.719 355.094 840.219 355.094C840.74 355.094 841.167 355.115 841.5 355.156C841.833 355.198 842.094 355.271 842.281 355.375C842.469 355.458 842.604 355.562 842.688 355.688C842.771 355.812 842.812 355.948 842.812 356.094V362.781H860.906ZM863.125 354.094C863.125 355.302 862.896 356.125 862.438 356.562C861.979 357 861.135 357.219 859.906 357.219C858.698 357.219 857.865 357.01 857.406 356.594C856.969 356.156 856.75 355.344 856.75 354.156C856.75 352.948 856.979 352.125 857.438 351.688C857.896 351.25 858.74 351.031 859.969 351.031C861.177 351.031 862 351.25 862.438 351.688C862.896 352.104 863.125 352.906 863.125 354.094Z" fill="#EA580C"/>
<path d="M896.344 391.719C896.344 391.885 896.302 392.031 896.219 392.156C896.135 392.26 896 392.354 895.812 392.438C895.625 392.521 895.365 392.583 895.031 392.625C894.698 392.667 894.281 392.688 893.781 392.688C893.26 392.688 892.833 392.667 892.5 392.625C892.167 392.583 891.906 392.521 891.719 392.438C891.531 392.354 891.396 392.26 891.312 392.156C891.229 392.031 891.188 391.885 891.188 391.719V375.25C891.188 373.646 891.062 372.354 890.812 371.375C890.562 370.396 890.198 369.552 889.719 368.844C889.24 368.135 888.615 367.594 887.844 367.219C887.094 366.844 886.219 366.656 885.219 366.656C883.927 366.656 882.635 367.115 881.344 368.031C880.052 368.948 878.698 370.292 877.281 372.062V391.719C877.281 391.885 877.24 392.031 877.156 392.156C877.073 392.26 876.938 392.354 876.75 392.438C876.562 392.521 876.302 392.583 875.969 392.625C875.635 392.667 875.208 392.688 874.688 392.688C874.188 392.688 873.771 392.667 873.438 392.625C873.104 392.583 872.833 392.521 872.625 392.438C872.438 392.354 872.302 392.26 872.219 392.156C872.156 392.031 872.125 391.885 872.125 391.719V363.594C872.125 363.427 872.156 363.292 872.219 363.188C872.281 363.062 872.406 362.958 872.594 362.875C872.781 362.771 873.021 362.708 873.312 362.688C873.604 362.646 873.99 362.625 874.469 362.625C874.927 362.625 875.302 362.646 875.594 362.688C875.906 362.708 876.146 362.771 876.312 362.875C876.479 362.958 876.594 363.062 876.656 363.188C876.74 363.292 876.781 363.427 876.781 363.594V367.312C878.365 365.542 879.938 364.25 881.5 363.438C883.083 362.604 884.677 362.188 886.281 362.188C888.156 362.188 889.729 362.51 891 363.156C892.292 363.781 893.333 364.625 894.125 365.688C894.917 366.75 895.479 368 895.812 369.438C896.167 370.854 896.344 372.562 896.344 374.562V391.719Z" fill="#EA580C"/>
<path d="M929.25 364.875C929.25 365.604 929.146 366.135 928.938 366.469C928.75 366.781 928.5 366.938 928.188 366.938H924.156C924.885 367.688 925.396 368.521 925.688 369.438C925.979 370.333 926.125 371.271 926.125 372.25C926.125 373.875 925.865 375.312 925.344 376.562C924.823 377.812 924.073 378.875 923.094 379.75C922.135 380.604 920.99 381.26 919.656 381.719C918.323 382.177 916.844 382.406 915.219 382.406C914.073 382.406 912.979 382.26 911.938 381.969C910.917 381.656 910.125 381.271 909.562 380.812C909.188 381.188 908.875 381.615 908.625 382.094C908.396 382.573 908.281 383.125 908.281 383.75C908.281 384.479 908.615 385.083 909.281 385.562C909.969 386.042 910.875 386.302 912 386.344L919.344 386.656C920.74 386.698 922.021 386.896 923.188 387.25C924.354 387.583 925.365 388.073 926.219 388.719C927.073 389.344 927.74 390.125 928.219 391.062C928.698 391.979 928.938 393.052 928.938 394.281C928.938 395.573 928.667 396.802 928.125 397.969C927.583 399.135 926.75 400.156 925.625 401.031C924.521 401.927 923.104 402.625 921.375 403.125C919.646 403.646 917.604 403.906 915.25 403.906C912.979 403.906 911.042 403.708 909.438 403.312C907.854 402.938 906.552 402.417 905.531 401.75C904.51 401.083 903.771 400.281 903.312 399.344C902.854 398.427 902.625 397.427 902.625 396.344C902.625 395.656 902.708 394.99 902.875 394.344C903.042 393.698 903.292 393.083 903.625 392.5C903.979 391.917 904.406 391.365 904.906 390.844C905.427 390.302 906.021 389.771 906.688 389.25C905.667 388.729 904.906 388.073 904.406 387.281C903.927 386.49 903.688 385.635 903.688 384.719C903.688 383.448 903.948 382.312 904.469 381.312C904.99 380.312 905.635 379.417 906.406 378.625C905.76 377.854 905.25 376.99 904.875 376.031C904.5 375.052 904.312 373.875 904.312 372.5C904.312 370.896 904.583 369.458 905.125 368.188C905.667 366.917 906.417 365.844 907.375 364.969C908.333 364.094 909.479 363.427 910.812 362.969C912.167 362.49 913.635 362.25 915.219 362.25C916.073 362.25 916.865 362.302 917.594 362.406C918.344 362.49 919.042 362.615 919.688 362.781H928.188C928.542 362.781 928.802 362.958 928.969 363.312C929.156 363.646 929.25 364.167 929.25 364.875ZM921.188 372.281C921.188 370.365 920.656 368.875 919.594 367.812C918.552 366.729 917.062 366.188 915.125 366.188C914.125 366.188 913.25 366.354 912.5 366.688C911.771 367.021 911.156 367.479 910.656 368.062C910.177 368.646 909.812 369.323 909.562 370.094C909.333 370.844 909.219 371.635 909.219 372.469C909.219 374.323 909.74 375.781 910.781 376.844C911.844 377.906 913.323 378.438 915.219 378.438C916.24 378.438 917.125 378.281 917.875 377.969C918.625 377.635 919.24 377.188 919.719 376.625C920.219 376.042 920.583 375.375 920.812 374.625C921.062 373.875 921.188 373.094 921.188 372.281ZM923.781 394.562C923.781 393.354 923.281 392.427 922.281 391.781C921.302 391.115 919.969 390.76 918.281 390.719L911 390.469C910.333 390.99 909.781 391.49 909.344 391.969C908.927 392.427 908.594 392.865 908.344 393.281C908.094 393.719 907.917 394.146 907.812 394.562C907.729 394.979 907.688 395.406 907.688 395.844C907.688 397.198 908.375 398.219 909.75 398.906C911.125 399.615 913.042 399.969 915.5 399.969C917.062 399.969 918.365 399.812 919.406 399.5C920.469 399.208 921.323 398.812 921.969 398.312C922.615 397.812 923.073 397.24 923.344 396.594C923.635 395.948 923.781 395.271 923.781 394.562Z" fill="#EA580C"/>
<path d="M994.938 391.688C994.938 391.854 994.896 392 994.812 392.125C994.729 392.25 994.583 392.354 994.375 392.438C994.167 392.5 993.896 392.552 993.562 392.594C993.25 392.656 992.833 392.688 992.312 392.688C991.833 392.688 991.417 392.656 991.062 392.594C990.729 392.552 990.458 392.5 990.25 392.438C990.062 392.354 989.927 392.25 989.844 392.125C989.76 392 989.719 391.854 989.719 391.688V356.469H989.656L975.25 391.844C975.188 391.99 975.094 392.115 974.969 392.219C974.865 392.323 974.698 392.417 974.469 392.5C974.26 392.562 974 392.604 973.688 392.625C973.396 392.667 973.042 392.688 972.625 392.688C972.188 392.688 971.812 392.667 971.5 392.625C971.188 392.583 970.927 392.531 970.719 392.469C970.51 392.385 970.344 392.292 970.219 392.188C970.115 392.083 970.042 391.969 970 391.844L956.219 356.469H956.188V391.688C956.188 391.854 956.146 392 956.062 392.125C955.979 392.25 955.833 392.354 955.625 392.438C955.417 392.5 955.146 392.552 954.812 392.594C954.479 392.656 954.052 392.688 953.531 392.688C953.031 392.688 952.615 392.656 952.281 392.594C951.948 392.552 951.677 392.5 951.469 392.438C951.281 392.354 951.146 392.25 951.062 392.125C951 392 950.969 391.854 950.969 391.688V354.5C950.969 353.625 951.198 353 951.656 352.625C952.115 352.25 952.625 352.062 953.188 352.062H956.438C957.104 352.062 957.688 352.125 958.188 352.25C958.688 352.375 959.125 352.573 959.5 352.844C959.875 353.115 960.188 353.458 960.438 353.875C960.688 354.292 960.906 354.781 961.094 355.344L972.812 384.625H972.969L985.156 355.438C985.385 354.812 985.635 354.281 985.906 353.844C986.177 353.406 986.469 353.062 986.781 352.812C987.115 352.542 987.479 352.354 987.875 352.25C988.271 352.125 988.729 352.062 989.25 352.062H992.656C992.969 352.062 993.26 352.115 993.531 352.219C993.823 352.302 994.062 352.448 994.25 352.656C994.458 352.844 994.625 353.094 994.75 353.406C994.875 353.698 994.938 354.062 994.938 354.5V391.688Z" fill="#EA580C"/>
<path d="M1010.28 391.719C1010.28 391.885 1010.24 392.031 1010.16 392.156C1010.07 392.26 1009.94 392.354 1009.75 392.438C1009.56 392.521 1009.3 392.583 1008.97 392.625C1008.64 392.667 1008.21 392.688 1007.69 392.688C1007.19 392.688 1006.77 392.667 1006.44 392.625C1006.1 392.583 1005.83 392.521 1005.62 392.438C1005.44 392.354 1005.3 392.26 1005.22 392.156C1005.16 392.031 1005.12 391.885 1005.12 391.719V363.594C1005.12 363.448 1005.16 363.312 1005.22 363.188C1005.3 363.062 1005.44 362.958 1005.62 362.875C1005.83 362.792 1006.1 362.729 1006.44 362.688C1006.77 362.646 1007.19 362.625 1007.69 362.625C1008.21 362.625 1008.64 362.646 1008.97 362.688C1009.3 362.729 1009.56 362.792 1009.75 362.875C1009.94 362.958 1010.07 363.062 1010.16 363.188C1010.24 363.312 1010.28 363.448 1010.28 363.594V391.719ZM1010.88 354.094C1010.88 355.302 1010.65 356.125 1010.19 356.562C1009.73 357 1008.89 357.219 1007.66 357.219C1006.45 357.219 1005.61 357.01 1005.16 356.594C1004.72 356.156 1004.5 355.344 1004.5 354.156C1004.5 352.948 1004.73 352.125 1005.19 351.688C1005.65 351.25 1006.49 351.031 1007.72 351.031C1008.93 351.031 1009.75 351.25 1010.19 351.688C1010.65 352.104 1010.88 352.906 1010.88 354.094Z" fill="#EA580C"/>
<path d="M1044.03 391.719C1044.03 391.885 1043.99 392.031 1043.91 392.156C1043.82 392.26 1043.69 392.354 1043.5 392.438C1043.31 392.521 1043.05 392.583 1042.72 392.625C1042.39 392.667 1041.97 392.688 1041.47 392.688C1040.95 392.688 1040.52 392.667 1040.19 392.625C1039.85 392.583 1039.59 392.521 1039.41 392.438C1039.22 392.354 1039.08 392.26 1039 392.156C1038.92 392.031 1038.88 391.885 1038.88 391.719V375.25C1038.88 373.646 1038.75 372.354 1038.5 371.375C1038.25 370.396 1037.89 369.552 1037.41 368.844C1036.93 368.135 1036.3 367.594 1035.53 367.219C1034.78 366.844 1033.91 366.656 1032.91 366.656C1031.61 366.656 1030.32 367.115 1029.03 368.031C1027.74 368.948 1026.39 370.292 1024.97 372.062V391.719C1024.97 391.885 1024.93 392.031 1024.84 392.156C1024.76 392.26 1024.62 392.354 1024.44 392.438C1024.25 392.521 1023.99 392.583 1023.66 392.625C1023.32 392.667 1022.9 392.688 1022.38 392.688C1021.88 392.688 1021.46 392.667 1021.12 392.625C1020.79 392.583 1020.52 392.521 1020.31 392.438C1020.12 392.354 1019.99 392.26 1019.91 392.156C1019.84 392.031 1019.81 391.885 1019.81 391.719V363.594C1019.81 363.427 1019.84 363.292 1019.91 363.188C1019.97 363.062 1020.09 362.958 1020.28 362.875C1020.47 362.771 1020.71 362.708 1021 362.688C1021.29 362.646 1021.68 362.625 1022.16 362.625C1022.61 362.625 1022.99 362.646 1023.28 362.688C1023.59 362.708 1023.83 362.771 1024 362.875C1024.17 362.958 1024.28 363.062 1024.34 363.188C1024.43 363.292 1024.47 363.427 1024.47 363.594V367.312C1026.05 365.542 1027.62 364.25 1029.19 363.438C1030.77 362.604 1032.36 362.188 1033.97 362.188C1035.84 362.188 1037.42 362.51 1038.69 363.156C1039.98 363.781 1041.02 364.625 1041.81 365.688C1042.6 366.75 1043.17 368 1043.5 369.438C1043.85 370.854 1044.03 372.562 1044.03 374.562V391.719Z" fill="#EA580C"/>
<path d="M1077.53 391.719C1077.53 391.885 1077.49 392.031 1077.41 392.156C1077.34 392.281 1077.22 392.385 1077.03 392.469C1076.86 392.531 1076.64 392.583 1076.34 392.625C1076.05 392.667 1075.7 392.688 1075.28 392.688C1074.84 392.688 1074.48 392.667 1074.19 392.625C1073.9 392.583 1073.66 392.531 1073.47 392.469C1073.28 392.385 1073.15 392.281 1073.06 392.156C1072.98 392.031 1072.94 391.885 1072.94 391.719V388C1071.46 389.604 1069.92 390.854 1068.31 391.75C1066.73 392.646 1064.99 393.094 1063.09 393.094C1061.03 393.094 1059.27 392.698 1057.81 391.906C1056.35 391.094 1055.17 390.01 1054.25 388.656C1053.35 387.281 1052.7 385.677 1052.28 383.844C1051.86 381.99 1051.66 380.042 1051.66 378C1051.66 375.583 1051.92 373.406 1052.44 371.469C1052.96 369.51 1053.73 367.844 1054.75 366.469C1055.77 365.094 1057.03 364.042 1058.53 363.312C1060.05 362.562 1061.8 362.188 1063.78 362.188C1065.43 362.188 1066.93 362.552 1068.28 363.281C1069.66 363.99 1071.01 365.042 1072.34 366.438V350.094C1072.34 349.948 1072.38 349.812 1072.44 349.688C1072.52 349.542 1072.67 349.438 1072.88 349.375C1073.08 349.292 1073.34 349.229 1073.66 349.188C1073.99 349.125 1074.41 349.094 1074.91 349.094C1075.43 349.094 1075.85 349.125 1076.19 349.188C1076.52 349.229 1076.78 349.292 1076.97 349.375C1077.16 349.438 1077.29 349.542 1077.38 349.688C1077.48 349.812 1077.53 349.948 1077.53 350.094V391.719ZM1072.34 371.938C1070.95 370.208 1069.59 368.896 1068.28 368C1066.99 367.083 1065.64 366.625 1064.22 366.625C1062.91 366.625 1061.79 366.938 1060.88 367.562C1059.96 368.188 1059.21 369.01 1058.62 370.031C1058.06 371.052 1057.65 372.208 1057.38 373.5C1057.12 374.792 1057 376.104 1057 377.438C1057 378.854 1057.1 380.24 1057.31 381.594C1057.54 382.948 1057.93 384.156 1058.47 385.219C1059.01 386.26 1059.73 387.104 1060.62 387.75C1061.52 388.375 1062.65 388.688 1064 388.688C1064.69 388.688 1065.34 388.594 1065.97 388.406C1066.61 388.219 1067.27 387.906 1067.94 387.469C1068.6 387.031 1069.3 386.469 1070.03 385.781C1070.76 385.073 1071.53 384.208 1072.34 383.188V371.938Z" fill="#EA580C"/>
<path d="M1104.72 384.062C1104.72 385.5 1104.45 386.781 1103.91 387.906C1103.39 389.031 1102.64 389.979 1101.66 390.75C1100.68 391.521 1099.51 392.104 1098.16 392.5C1096.8 392.896 1095.31 393.094 1093.69 393.094C1092.69 393.094 1091.73 393.01 1090.81 392.844C1089.92 392.698 1089.1 392.51 1088.38 392.281C1087.67 392.031 1087.06 391.781 1086.56 391.531C1086.06 391.26 1085.7 391.021 1085.47 390.812C1085.24 390.604 1085.07 390.312 1084.97 389.938C1084.86 389.562 1084.81 389.052 1084.81 388.406C1084.81 388.01 1084.83 387.677 1084.88 387.406C1084.92 387.135 1084.97 386.917 1085.03 386.75C1085.09 386.583 1085.18 386.469 1085.28 386.406C1085.41 386.323 1085.54 386.281 1085.69 386.281C1085.92 386.281 1086.25 386.427 1086.69 386.719C1087.15 386.99 1087.7 387.292 1088.34 387.625C1089.01 387.958 1089.79 388.271 1090.69 388.562C1091.58 388.833 1092.61 388.969 1093.78 388.969C1094.66 388.969 1095.45 388.875 1096.16 388.688C1096.86 388.5 1097.48 388.229 1098 387.875C1098.52 387.5 1098.92 387.031 1099.19 386.469C1099.48 385.906 1099.62 385.24 1099.62 384.469C1099.62 383.677 1099.42 383.01 1099 382.469C1098.6 381.927 1098.07 381.448 1097.41 381.031C1096.74 380.615 1095.99 380.25 1095.16 379.938C1094.32 379.604 1093.46 379.26 1092.56 378.906C1091.69 378.552 1090.82 378.156 1089.97 377.719C1089.14 377.26 1088.39 376.708 1087.72 376.062C1087.05 375.417 1086.51 374.646 1086.09 373.75C1085.7 372.854 1085.5 371.781 1085.5 370.531C1085.5 369.427 1085.71 368.375 1086.12 367.375C1086.56 366.354 1087.21 365.469 1088.06 364.719C1088.92 363.948 1089.98 363.333 1091.25 362.875C1092.54 362.417 1094.04 362.188 1095.75 362.188C1096.5 362.188 1097.25 362.25 1098 362.375C1098.75 362.5 1099.43 362.656 1100.03 362.844C1100.64 363.031 1101.15 363.24 1101.56 363.469C1102 363.677 1102.32 363.865 1102.53 364.031C1102.76 364.198 1102.91 364.344 1102.97 364.469C1103.05 364.594 1103.1 364.74 1103.12 364.906C1103.17 365.052 1103.2 365.24 1103.22 365.469C1103.26 365.698 1103.28 365.979 1103.28 366.312C1103.28 366.667 1103.26 366.979 1103.22 367.25C1103.2 367.5 1103.15 367.708 1103.06 367.875C1103 368.042 1102.92 368.167 1102.81 368.25C1102.71 368.312 1102.59 368.344 1102.47 368.344C1102.28 368.344 1102.01 368.229 1101.66 368C1101.3 367.771 1100.84 367.531 1100.28 367.281C1099.72 367.01 1099.05 366.76 1098.28 366.531C1097.53 366.302 1096.67 366.188 1095.69 366.188C1094.81 366.188 1094.04 366.292 1093.38 366.5C1092.71 366.688 1092.16 366.969 1091.72 367.344C1091.3 367.698 1090.98 368.125 1090.75 368.625C1090.54 369.125 1090.44 369.667 1090.44 370.25C1090.44 371.062 1090.65 371.75 1091.06 372.312C1091.48 372.854 1092.02 373.333 1092.69 373.75C1093.35 374.167 1094.11 374.542 1094.97 374.875C1095.82 375.208 1096.69 375.552 1097.56 375.906C1098.46 376.26 1099.33 376.656 1100.19 377.094C1101.06 377.531 1101.83 378.062 1102.5 378.688C1103.17 379.312 1103.7 380.062 1104.09 380.938C1104.51 381.812 1104.72 382.854 1104.72 384.062Z" fill="#EA580C"/>
<path d="M1118.94 388.031C1118.94 388.677 1118.91 389.271 1118.84 389.812C1118.78 390.354 1118.68 390.865 1118.53 391.344C1118.39 391.823 1118.19 392.292 1117.94 392.75C1117.71 393.229 1117.42 393.729 1117.06 394.25L1112.78 400.688C1112.68 400.833 1112.55 400.958 1112.41 401.062C1112.28 401.167 1112.11 401.26 1111.91 401.344C1111.72 401.427 1111.49 401.479 1111.22 401.5C1110.97 401.542 1110.65 401.562 1110.25 401.562C1109.9 401.562 1109.59 401.542 1109.34 401.5C1109.11 401.479 1108.95 401.427 1108.84 401.344C1108.74 401.281 1108.68 401.188 1108.66 401.062C1108.66 400.938 1108.7 400.792 1108.78 400.625L1112.94 392.031V388.031C1112.94 387.469 1112.99 387.021 1113.09 386.688C1113.22 386.354 1113.41 386.104 1113.66 385.938C1113.91 385.771 1114.22 385.656 1114.59 385.594C1114.97 385.531 1115.43 385.5 1115.97 385.5C1116.49 385.5 1116.94 385.531 1117.31 385.594C1117.69 385.656 1117.99 385.771 1118.22 385.938C1118.47 386.104 1118.65 386.354 1118.75 386.688C1118.88 387.021 1118.94 387.469 1118.94 388.031Z" fill="white"/>
<path d="M1169.88 380.906C1169.88 382.177 1169.71 383.354 1169.38 384.438C1169.06 385.5 1168.61 386.458 1168.03 387.312C1167.45 388.167 1166.74 388.917 1165.91 389.562C1165.09 390.208 1164.17 390.75 1163.12 391.188C1162.1 391.625 1161 391.958 1159.81 392.188C1158.65 392.396 1157.3 392.5 1155.78 392.5H1145.22C1144.74 392.5 1144.28 392.344 1143.84 392.031C1143.43 391.698 1143.22 391.125 1143.22 390.312V354.25C1143.22 353.438 1143.43 352.875 1143.84 352.562C1144.28 352.229 1144.74 352.062 1145.22 352.062H1154.41C1156.82 352.062 1158.8 352.292 1160.34 352.75C1161.89 353.208 1163.17 353.875 1164.19 354.75C1165.23 355.625 1166.01 356.698 1166.53 357.969C1167.05 359.24 1167.31 360.677 1167.31 362.281C1167.31 363.24 1167.2 364.156 1166.97 365.031C1166.74 365.906 1166.4 366.719 1165.94 367.469C1165.5 368.198 1164.94 368.854 1164.25 369.438C1163.58 370.021 1162.81 370.5 1161.94 370.875C1163.04 371.083 1164.07 371.469 1165.03 372.031C1165.99 372.573 1166.82 373.271 1167.53 374.125C1168.26 374.979 1168.83 375.979 1169.25 377.125C1169.67 378.271 1169.88 379.531 1169.88 380.906ZM1161.78 362.812C1161.78 361.833 1161.65 360.948 1161.38 360.156C1161.1 359.365 1160.68 358.698 1160.09 358.156C1159.51 357.594 1158.75 357.167 1157.81 356.875C1156.88 356.583 1155.64 356.438 1154.09 356.438H1148.53V369.531H1154.66C1156.05 369.531 1157.18 369.354 1158.03 369C1158.89 368.625 1159.59 368.135 1160.16 367.531C1160.72 366.906 1161.12 366.188 1161.38 365.375C1161.65 364.542 1161.78 363.688 1161.78 362.812ZM1164.22 381.219C1164.22 380.01 1164.02 378.948 1163.62 378.031C1163.25 377.115 1162.69 376.344 1161.94 375.719C1161.21 375.094 1160.28 374.625 1159.16 374.312C1158.05 373.979 1156.66 373.812 1154.97 373.812H1148.53V388.062H1156.34C1157.57 388.062 1158.65 387.917 1159.56 387.625C1160.48 387.333 1161.28 386.906 1161.97 386.344C1162.68 385.76 1163.23 385.042 1163.62 384.188C1164.02 383.333 1164.22 382.344 1164.22 381.219Z" fill="white"/>
<path d="M1201.53 391.719C1201.53 391.885 1201.49 392.031 1201.41 392.156C1201.34 392.26 1201.22 392.354 1201.03 392.438C1200.84 392.521 1200.59 392.583 1200.28 392.625C1199.99 392.667 1199.62 392.688 1199.19 392.688C1198.71 392.688 1198.31 392.667 1198 392.625C1197.71 392.583 1197.47 392.521 1197.28 392.438C1197.11 392.354 1197 392.26 1196.94 392.156C1196.88 392.031 1196.84 391.885 1196.84 391.719V388C1195.24 389.771 1193.66 391.062 1192.09 391.875C1190.53 392.688 1188.95 393.094 1187.34 393.094C1185.47 393.094 1183.89 392.781 1182.59 392.156C1181.32 391.531 1180.29 390.688 1179.5 389.625C1178.71 388.542 1178.14 387.292 1177.78 385.875C1177.45 384.438 1177.28 382.698 1177.28 380.656V363.594C1177.28 363.427 1177.31 363.292 1177.38 363.188C1177.46 363.062 1177.6 362.958 1177.81 362.875C1178.02 362.771 1178.29 362.708 1178.62 362.688C1178.96 362.646 1179.38 362.625 1179.88 362.625C1180.38 362.625 1180.79 362.646 1181.12 362.688C1181.46 362.708 1181.72 362.771 1181.91 362.875C1182.11 362.958 1182.26 363.062 1182.34 363.188C1182.43 363.292 1182.47 363.427 1182.47 363.594V379.969C1182.47 381.615 1182.58 382.938 1182.81 383.938C1183.06 384.917 1183.43 385.76 1183.91 386.469C1184.41 387.156 1185.03 387.698 1185.78 388.094C1186.53 388.469 1187.41 388.656 1188.41 388.656C1189.7 388.656 1190.98 388.198 1192.25 387.281C1193.54 386.365 1194.91 385.021 1196.34 383.25V363.594C1196.34 363.427 1196.38 363.292 1196.44 363.188C1196.52 363.062 1196.67 362.958 1196.88 362.875C1197.08 362.771 1197.34 362.708 1197.66 362.688C1197.99 362.646 1198.42 362.625 1198.94 362.625C1199.44 362.625 1199.85 362.646 1200.19 362.688C1200.52 362.708 1200.78 362.771 1200.97 362.875C1201.16 362.958 1201.29 363.062 1201.38 363.188C1201.48 363.292 1201.53 363.427 1201.53 363.594V391.719Z" fill="white"/>
<path d="M1216.22 391.719C1216.22 391.885 1216.18 392.031 1216.09 392.156C1216.01 392.26 1215.88 392.354 1215.69 392.438C1215.5 392.521 1215.24 392.583 1214.91 392.625C1214.57 392.667 1214.15 392.688 1213.62 392.688C1213.12 392.688 1212.71 392.667 1212.38 392.625C1212.04 392.583 1211.77 392.521 1211.56 392.438C1211.38 392.354 1211.24 392.26 1211.16 392.156C1211.09 392.031 1211.06 391.885 1211.06 391.719V363.594C1211.06 363.448 1211.09 363.312 1211.16 363.188C1211.24 363.062 1211.38 362.958 1211.56 362.875C1211.77 362.792 1212.04 362.729 1212.38 362.688C1212.71 362.646 1213.12 362.625 1213.62 362.625C1214.15 362.625 1214.57 362.646 1214.91 362.688C1215.24 362.729 1215.5 362.792 1215.69 362.875C1215.88 362.958 1216.01 363.062 1216.09 363.188C1216.18 363.312 1216.22 363.448 1216.22 363.594V391.719ZM1216.81 354.094C1216.81 355.302 1216.58 356.125 1216.12 356.562C1215.67 357 1214.82 357.219 1213.59 357.219C1212.39 357.219 1211.55 357.01 1211.09 356.594C1210.66 356.156 1210.44 355.344 1210.44 354.156C1210.44 352.948 1210.67 352.125 1211.12 351.688C1211.58 351.25 1212.43 351.031 1213.66 351.031C1214.86 351.031 1215.69 351.25 1216.12 351.688C1216.58 352.104 1216.81 352.906 1216.81 354.094Z" fill="white"/>
<path d="M1230.91 391.719C1230.91 391.885 1230.86 392.031 1230.78 392.156C1230.7 392.26 1230.56 392.354 1230.38 392.438C1230.19 392.521 1229.93 392.583 1229.59 392.625C1229.26 392.667 1228.83 392.688 1228.31 392.688C1227.81 392.688 1227.4 392.667 1227.06 392.625C1226.73 392.583 1226.46 392.521 1226.25 392.438C1226.06 392.354 1225.93 392.26 1225.84 392.156C1225.78 392.031 1225.75 391.885 1225.75 391.719V349.969C1225.75 349.802 1225.78 349.656 1225.84 349.531C1225.93 349.406 1226.06 349.302 1226.25 349.219C1226.46 349.135 1226.73 349.073 1227.06 349.031C1227.4 348.99 1227.81 348.969 1228.31 348.969C1228.83 348.969 1229.26 348.99 1229.59 349.031C1229.93 349.073 1230.19 349.135 1230.38 349.219C1230.56 349.302 1230.7 349.406 1230.78 349.531C1230.86 349.656 1230.91 349.802 1230.91 349.969V391.719Z" fill="white"/>
<path d="M1264.53 391.719C1264.53 391.885 1264.49 392.031 1264.41 392.156C1264.34 392.281 1264.22 392.385 1264.03 392.469C1263.86 392.531 1263.64 392.583 1263.34 392.625C1263.05 392.667 1262.7 392.688 1262.28 392.688C1261.84 392.688 1261.48 392.667 1261.19 392.625C1260.9 392.583 1260.66 392.531 1260.47 392.469C1260.28 392.385 1260.15 392.281 1260.06 392.156C1259.98 392.031 1259.94 391.885 1259.94 391.719V388C1258.46 389.604 1256.92 390.854 1255.31 391.75C1253.73 392.646 1251.99 393.094 1250.09 393.094C1248.03 393.094 1246.27 392.698 1244.81 391.906C1243.35 391.094 1242.17 390.01 1241.25 388.656C1240.35 387.281 1239.7 385.677 1239.28 383.844C1238.86 381.99 1238.66 380.042 1238.66 378C1238.66 375.583 1238.92 373.406 1239.44 371.469C1239.96 369.51 1240.73 367.844 1241.75 366.469C1242.77 365.094 1244.03 364.042 1245.53 363.312C1247.05 362.562 1248.8 362.188 1250.78 362.188C1252.43 362.188 1253.93 362.552 1255.28 363.281C1256.66 363.99 1258.01 365.042 1259.34 366.438V350.094C1259.34 349.948 1259.38 349.812 1259.44 349.688C1259.52 349.542 1259.67 349.438 1259.88 349.375C1260.08 349.292 1260.34 349.229 1260.66 349.188C1260.99 349.125 1261.41 349.094 1261.91 349.094C1262.43 349.094 1262.85 349.125 1263.19 349.188C1263.52 349.229 1263.78 349.292 1263.97 349.375C1264.16 349.438 1264.29 349.542 1264.38 349.688C1264.48 349.812 1264.53 349.948 1264.53 350.094V391.719ZM1259.34 371.938C1257.95 370.208 1256.59 368.896 1255.28 368C1253.99 367.083 1252.64 366.625 1251.22 366.625C1249.91 366.625 1248.79 366.938 1247.88 367.562C1246.96 368.188 1246.21 369.01 1245.62 370.031C1245.06 371.052 1244.65 372.208 1244.38 373.5C1244.12 374.792 1244 376.104 1244 377.438C1244 378.854 1244.1 380.24 1244.31 381.594C1244.54 382.948 1244.93 384.156 1245.47 385.219C1246.01 386.26 1246.73 387.104 1247.62 387.75C1248.52 388.375 1249.65 388.688 1251 388.688C1251.69 388.688 1252.34 388.594 1252.97 388.406C1253.61 388.219 1254.27 387.906 1254.94 387.469C1255.6 387.031 1256.3 386.469 1257.03 385.781C1257.76 385.073 1258.53 384.208 1259.34 383.188V371.938Z" fill="white"/>
<path d="M1279.22 391.719C1279.22 391.885 1279.18 392.031 1279.09 392.156C1279.01 392.26 1278.88 392.354 1278.69 392.438C1278.5 392.521 1278.24 392.583 1277.91 392.625C1277.57 392.667 1277.15 392.688 1276.62 392.688C1276.12 392.688 1275.71 392.667 1275.38 392.625C1275.04 392.583 1274.77 392.521 1274.56 392.438C1274.38 392.354 1274.24 392.26 1274.16 392.156C1274.09 392.031 1274.06 391.885 1274.06 391.719V363.594C1274.06 363.448 1274.09 363.312 1274.16 363.188C1274.24 363.062 1274.38 362.958 1274.56 362.875C1274.77 362.792 1275.04 362.729 1275.38 362.688C1275.71 362.646 1276.12 362.625 1276.62 362.625C1277.15 362.625 1277.57 362.646 1277.91 362.688C1278.24 362.729 1278.5 362.792 1278.69 362.875C1278.88 362.958 1279.01 363.062 1279.09 363.188C1279.18 363.312 1279.22 363.448 1279.22 363.594V391.719ZM1279.81 354.094C1279.81 355.302 1279.58 356.125 1279.12 356.562C1278.67 357 1277.82 357.219 1276.59 357.219C1275.39 357.219 1274.55 357.01 1274.09 356.594C1273.66 356.156 1273.44 355.344 1273.44 354.156C1273.44 352.948 1273.67 352.125 1274.12 351.688C1274.58 351.25 1275.43 351.031 1276.66 351.031C1277.86 351.031 1278.69 351.25 1279.12 351.688C1279.58 352.104 1279.81 352.906 1279.81 354.094Z" fill="white"/>
<path d="M1312.97 391.719C1312.97 391.885 1312.93 392.031 1312.84 392.156C1312.76 392.26 1312.62 392.354 1312.44 392.438C1312.25 392.521 1311.99 392.583 1311.66 392.625C1311.32 392.667 1310.91 392.688 1310.41 392.688C1309.89 392.688 1309.46 392.667 1309.12 392.625C1308.79 392.583 1308.53 392.521 1308.34 392.438C1308.16 392.354 1308.02 392.26 1307.94 392.156C1307.85 392.031 1307.81 391.885 1307.81 391.719V375.25C1307.81 373.646 1307.69 372.354 1307.44 371.375C1307.19 370.396 1306.82 369.552 1306.34 368.844C1305.86 368.135 1305.24 367.594 1304.47 367.219C1303.72 366.844 1302.84 366.656 1301.84 366.656C1300.55 366.656 1299.26 367.115 1297.97 368.031C1296.68 368.948 1295.32 370.292 1293.91 372.062V391.719C1293.91 391.885 1293.86 392.031 1293.78 392.156C1293.7 392.26 1293.56 392.354 1293.38 392.438C1293.19 392.521 1292.93 392.583 1292.59 392.625C1292.26 392.667 1291.83 392.688 1291.31 392.688C1290.81 392.688 1290.4 392.667 1290.06 392.625C1289.73 392.583 1289.46 392.521 1289.25 392.438C1289.06 392.354 1288.93 392.26 1288.84 392.156C1288.78 392.031 1288.75 391.885 1288.75 391.719V363.594C1288.75 363.427 1288.78 363.292 1288.84 363.188C1288.91 363.062 1289.03 362.958 1289.22 362.875C1289.41 362.771 1289.65 362.708 1289.94 362.688C1290.23 362.646 1290.61 362.625 1291.09 362.625C1291.55 362.625 1291.93 362.646 1292.22 362.688C1292.53 362.708 1292.77 362.771 1292.94 362.875C1293.1 362.958 1293.22 363.062 1293.28 363.188C1293.36 363.292 1293.41 363.427 1293.41 363.594V367.312C1294.99 365.542 1296.56 364.25 1298.12 363.438C1299.71 362.604 1301.3 362.188 1302.91 362.188C1304.78 362.188 1306.35 362.51 1307.62 363.156C1308.92 363.781 1309.96 364.625 1310.75 365.688C1311.54 366.75 1312.1 368 1312.44 369.438C1312.79 370.854 1312.97 372.562 1312.97 374.562V391.719Z" fill="white"/>
<path d="M1345.88 364.875C1345.88 365.604 1345.77 366.135 1345.56 366.469C1345.38 366.781 1345.12 366.938 1344.81 366.938H1340.78C1341.51 367.688 1342.02 368.521 1342.31 369.438C1342.6 370.333 1342.75 371.271 1342.75 372.25C1342.75 373.875 1342.49 375.312 1341.97 376.562C1341.45 377.812 1340.7 378.875 1339.72 379.75C1338.76 380.604 1337.61 381.26 1336.28 381.719C1334.95 382.177 1333.47 382.406 1331.84 382.406C1330.7 382.406 1329.6 382.26 1328.56 381.969C1327.54 381.656 1326.75 381.271 1326.19 380.812C1325.81 381.188 1325.5 381.615 1325.25 382.094C1325.02 382.573 1324.91 383.125 1324.91 383.75C1324.91 384.479 1325.24 385.083 1325.91 385.562C1326.59 386.042 1327.5 386.302 1328.62 386.344L1335.97 386.656C1337.36 386.698 1338.65 386.896 1339.81 387.25C1340.98 387.583 1341.99 388.073 1342.84 388.719C1343.7 389.344 1344.36 390.125 1344.84 391.062C1345.32 391.979 1345.56 393.052 1345.56 394.281C1345.56 395.573 1345.29 396.802 1344.75 397.969C1344.21 399.135 1343.38 400.156 1342.25 401.031C1341.15 401.927 1339.73 402.625 1338 403.125C1336.27 403.646 1334.23 403.906 1331.88 403.906C1329.6 403.906 1327.67 403.708 1326.06 403.312C1324.48 402.938 1323.18 402.417 1322.16 401.75C1321.14 401.083 1320.4 400.281 1319.94 399.344C1319.48 398.427 1319.25 397.427 1319.25 396.344C1319.25 395.656 1319.33 394.99 1319.5 394.344C1319.67 393.698 1319.92 393.083 1320.25 392.5C1320.6 391.917 1321.03 391.365 1321.53 390.844C1322.05 390.302 1322.65 389.771 1323.31 389.25C1322.29 388.729 1321.53 388.073 1321.03 387.281C1320.55 386.49 1320.31 385.635 1320.31 384.719C1320.31 383.448 1320.57 382.312 1321.09 381.312C1321.61 380.312 1322.26 379.417 1323.03 378.625C1322.39 377.854 1321.88 376.99 1321.5 376.031C1321.12 375.052 1320.94 373.875 1320.94 372.5C1320.94 370.896 1321.21 369.458 1321.75 368.188C1322.29 366.917 1323.04 365.844 1324 364.969C1324.96 364.094 1326.1 363.427 1327.44 362.969C1328.79 362.49 1330.26 362.25 1331.84 362.25C1332.7 362.25 1333.49 362.302 1334.22 362.406C1334.97 362.49 1335.67 362.615 1336.31 362.781H1344.81C1345.17 362.781 1345.43 362.958 1345.59 363.312C1345.78 363.646 1345.88 364.167 1345.88 364.875ZM1337.81 372.281C1337.81 370.365 1337.28 368.875 1336.22 367.812C1335.18 366.729 1333.69 366.188 1331.75 366.188C1330.75 366.188 1329.88 366.354 1329.12 366.688C1328.4 367.021 1327.78 367.479 1327.28 368.062C1326.8 368.646 1326.44 369.323 1326.19 370.094C1325.96 370.844 1325.84 371.635 1325.84 372.469C1325.84 374.323 1326.36 375.781 1327.41 376.844C1328.47 377.906 1329.95 378.438 1331.84 378.438C1332.86 378.438 1333.75 378.281 1334.5 377.969C1335.25 377.635 1335.86 377.188 1336.34 376.625C1336.84 376.042 1337.21 375.375 1337.44 374.625C1337.69 373.875 1337.81 373.094 1337.81 372.281ZM1340.41 394.562C1340.41 393.354 1339.91 392.427 1338.91 391.781C1337.93 391.115 1336.59 390.76 1334.91 390.719L1327.62 390.469C1326.96 390.99 1326.41 391.49 1325.97 391.969C1325.55 392.427 1325.22 392.865 1324.97 393.281C1324.72 393.719 1324.54 394.146 1324.44 394.562C1324.35 394.979 1324.31 395.406 1324.31 395.844C1324.31 397.198 1325 398.219 1326.38 398.906C1327.75 399.615 1329.67 399.969 1332.12 399.969C1333.69 399.969 1334.99 399.812 1336.03 399.5C1337.09 399.208 1337.95 398.812 1338.59 398.312C1339.24 397.812 1339.7 397.24 1339.97 396.594C1340.26 395.948 1340.41 395.271 1340.41 394.562Z" fill="white"/>
<path d="M1394.25 380.906C1394.25 382.177 1394.08 383.354 1393.75 384.438C1393.44 385.5 1392.99 386.458 1392.41 387.312C1391.82 388.167 1391.11 388.917 1390.28 389.562C1389.47 390.208 1388.54 390.75 1387.5 391.188C1386.48 391.625 1385.38 391.958 1384.19 392.188C1383.02 392.396 1381.68 392.5 1380.16 392.5H1369.59C1369.11 392.5 1368.66 392.344 1368.22 392.031C1367.8 391.698 1367.59 391.125 1367.59 390.312V354.25C1367.59 353.438 1367.8 352.875 1368.22 352.562C1368.66 352.229 1369.11 352.062 1369.59 352.062H1378.78C1381.2 352.062 1383.18 352.292 1384.72 352.75C1386.26 353.208 1387.54 353.875 1388.56 354.75C1389.6 355.625 1390.39 356.698 1390.91 357.969C1391.43 359.24 1391.69 360.677 1391.69 362.281C1391.69 363.24 1391.57 364.156 1391.34 365.031C1391.11 365.906 1390.77 366.719 1390.31 367.469C1389.88 368.198 1389.31 368.854 1388.62 369.438C1387.96 370.021 1387.19 370.5 1386.31 370.875C1387.42 371.083 1388.45 371.469 1389.41 372.031C1390.36 372.573 1391.2 373.271 1391.91 374.125C1392.64 374.979 1393.21 375.979 1393.62 377.125C1394.04 378.271 1394.25 379.531 1394.25 380.906ZM1386.16 362.812C1386.16 361.833 1386.02 360.948 1385.75 360.156C1385.48 359.365 1385.05 358.698 1384.47 358.156C1383.89 357.594 1383.12 357.167 1382.19 356.875C1381.25 356.583 1380.01 356.438 1378.47 356.438H1372.91V369.531H1379.03C1380.43 369.531 1381.55 369.354 1382.41 369C1383.26 368.625 1383.97 368.135 1384.53 367.531C1385.09 366.906 1385.5 366.188 1385.75 365.375C1386.02 364.542 1386.16 363.688 1386.16 362.812ZM1388.59 381.219C1388.59 380.01 1388.4 378.948 1388 378.031C1387.62 377.115 1387.06 376.344 1386.31 375.719C1385.58 375.094 1384.66 374.625 1383.53 374.312C1382.43 373.979 1381.03 373.812 1379.34 373.812H1372.91V388.062H1380.72C1381.95 388.062 1383.02 387.917 1383.94 387.625C1384.85 387.333 1385.66 386.906 1386.34 386.344C1387.05 385.76 1387.6 385.042 1388 384.188C1388.4 383.333 1388.59 382.344 1388.59 381.219Z" fill="white"/>
<path d="M1418.25 365.438C1418.25 365.896 1418.24 366.281 1418.22 366.594C1418.2 366.906 1418.16 367.156 1418.09 367.344C1418.03 367.51 1417.95 367.646 1417.84 367.75C1417.76 367.833 1417.64 367.875 1417.47 367.875C1417.3 367.875 1417.09 367.833 1416.84 367.75C1416.61 367.646 1416.34 367.552 1416.03 367.469C1415.74 367.365 1415.41 367.271 1415.03 367.188C1414.66 367.104 1414.25 367.062 1413.81 367.062C1413.29 367.062 1412.78 367.167 1412.28 367.375C1411.78 367.583 1411.25 367.927 1410.69 368.406C1410.15 368.885 1409.57 369.521 1408.97 370.312C1408.36 371.104 1407.7 372.073 1406.97 373.219V391.719C1406.97 391.885 1406.93 392.031 1406.84 392.156C1406.76 392.26 1406.62 392.354 1406.44 392.438C1406.25 392.521 1405.99 392.583 1405.66 392.625C1405.32 392.667 1404.9 392.688 1404.38 392.688C1403.88 392.688 1403.46 392.667 1403.12 392.625C1402.79 392.583 1402.52 392.521 1402.31 392.438C1402.12 392.354 1401.99 392.26 1401.91 392.156C1401.84 392.031 1401.81 391.885 1401.81 391.719V363.594C1401.81 363.427 1401.84 363.292 1401.91 363.188C1401.97 363.062 1402.09 362.958 1402.28 362.875C1402.47 362.771 1402.71 362.708 1403 362.688C1403.29 362.646 1403.68 362.625 1404.16 362.625C1404.61 362.625 1404.99 362.646 1405.28 362.688C1405.59 362.708 1405.83 362.771 1406 362.875C1406.17 362.958 1406.28 363.062 1406.34 363.188C1406.43 363.292 1406.47 363.427 1406.47 363.594V367.688C1407.24 366.562 1407.96 365.646 1408.62 364.938C1409.31 364.229 1409.96 363.677 1410.56 363.281C1411.17 362.865 1411.76 362.583 1412.34 362.438C1412.95 362.271 1413.55 362.188 1414.16 362.188C1414.43 362.188 1414.73 362.208 1415.06 362.25C1415.42 362.271 1415.78 362.323 1416.16 362.406C1416.53 362.49 1416.86 362.583 1417.16 362.688C1417.47 362.792 1417.69 362.896 1417.81 363C1417.94 363.104 1418.02 363.208 1418.06 363.312C1418.1 363.396 1418.14 363.51 1418.16 363.656C1418.2 363.802 1418.22 364.021 1418.22 364.312C1418.24 364.583 1418.25 364.958 1418.25 365.438Z" fill="white"/>
<path d="M1429.28 391.719C1429.28 391.885 1429.24 392.031 1429.16 392.156C1429.07 392.26 1428.94 392.354 1428.75 392.438C1428.56 392.521 1428.3 392.583 1427.97 392.625C1427.64 392.667 1427.21 392.688 1426.69 392.688C1426.19 392.688 1425.77 392.667 1425.44 392.625C1425.1 392.583 1424.83 392.521 1424.62 392.438C1424.44 392.354 1424.3 392.26 1424.22 392.156C1424.16 392.031 1424.12 391.885 1424.12 391.719V363.594C1424.12 363.448 1424.16 363.312 1424.22 363.188C1424.3 363.062 1424.44 362.958 1424.62 362.875C1424.83 362.792 1425.1 362.729 1425.44 362.688C1425.77 362.646 1426.19 362.625 1426.69 362.625C1427.21 362.625 1427.64 362.646 1427.97 362.688C1428.3 362.729 1428.56 362.792 1428.75 362.875C1428.94 362.958 1429.07 363.062 1429.16 363.188C1429.24 363.312 1429.28 363.448 1429.28 363.594V391.719ZM1429.88 354.094C1429.88 355.302 1429.65 356.125 1429.19 356.562C1428.73 357 1427.89 357.219 1426.66 357.219C1425.45 357.219 1424.61 357.01 1424.16 356.594C1423.72 356.156 1423.5 355.344 1423.5 354.156C1423.5 352.948 1423.73 352.125 1424.19 351.688C1424.65 351.25 1425.49 351.031 1426.72 351.031C1427.93 351.031 1428.75 351.25 1429.19 351.688C1429.65 352.104 1429.88 352.906 1429.88 354.094Z" fill="white"/>
<path d="M1462.91 391.719C1462.91 391.885 1462.86 392.031 1462.78 392.156C1462.72 392.281 1462.59 392.385 1462.41 392.469C1462.24 392.531 1462.01 392.583 1461.72 392.625C1461.43 392.667 1461.07 392.688 1460.66 392.688C1460.22 392.688 1459.85 392.667 1459.56 392.625C1459.27 392.583 1459.03 392.531 1458.84 392.469C1458.66 392.385 1458.52 392.281 1458.44 392.156C1458.35 392.031 1458.31 391.885 1458.31 391.719V388C1456.83 389.604 1455.29 390.854 1453.69 391.75C1452.1 392.646 1450.36 393.094 1448.47 393.094C1446.41 393.094 1444.65 392.698 1443.19 391.906C1441.73 391.094 1440.54 390.01 1439.62 388.656C1438.73 387.281 1438.07 385.677 1437.66 383.844C1437.24 381.99 1437.03 380.042 1437.03 378C1437.03 375.583 1437.29 373.406 1437.81 371.469C1438.33 369.51 1439.1 367.844 1440.12 366.469C1441.15 365.094 1442.41 364.042 1443.91 363.312C1445.43 362.562 1447.18 362.188 1449.16 362.188C1450.8 362.188 1452.3 362.552 1453.66 363.281C1455.03 363.99 1456.39 365.042 1457.72 366.438V350.094C1457.72 349.948 1457.75 349.812 1457.81 349.688C1457.9 349.542 1458.04 349.438 1458.25 349.375C1458.46 349.292 1458.72 349.229 1459.03 349.188C1459.36 349.125 1459.78 349.094 1460.28 349.094C1460.8 349.094 1461.23 349.125 1461.56 349.188C1461.9 349.229 1462.16 349.292 1462.34 349.375C1462.53 349.438 1462.67 349.542 1462.75 349.688C1462.85 349.812 1462.91 349.948 1462.91 350.094V391.719ZM1457.72 371.938C1456.32 370.208 1454.97 368.896 1453.66 368C1452.36 367.083 1451.01 366.625 1449.59 366.625C1448.28 366.625 1447.17 366.938 1446.25 367.562C1445.33 368.188 1444.58 369.01 1444 370.031C1443.44 371.052 1443.02 372.208 1442.75 373.5C1442.5 374.792 1442.38 376.104 1442.38 377.438C1442.38 378.854 1442.48 380.24 1442.69 381.594C1442.92 382.948 1443.3 384.156 1443.84 385.219C1444.39 386.26 1445.1 387.104 1446 387.75C1446.9 388.375 1448.02 388.688 1449.38 388.688C1450.06 388.688 1450.72 388.594 1451.34 388.406C1451.99 388.219 1452.65 387.906 1453.31 387.469C1453.98 387.031 1454.68 386.469 1455.41 385.781C1456.14 385.073 1456.91 384.208 1457.72 383.188V371.938Z" fill="white"/>
<path d="M1495.94 364.875C1495.94 365.604 1495.83 366.135 1495.62 366.469C1495.44 366.781 1495.19 366.938 1494.88 366.938H1490.84C1491.57 367.688 1492.08 368.521 1492.38 369.438C1492.67 370.333 1492.81 371.271 1492.81 372.25C1492.81 373.875 1492.55 375.312 1492.03 376.562C1491.51 377.812 1490.76 378.875 1489.78 379.75C1488.82 380.604 1487.68 381.26 1486.34 381.719C1485.01 382.177 1483.53 382.406 1481.91 382.406C1480.76 382.406 1479.67 382.26 1478.62 381.969C1477.6 381.656 1476.81 381.271 1476.25 380.812C1475.88 381.188 1475.56 381.615 1475.31 382.094C1475.08 382.573 1474.97 383.125 1474.97 383.75C1474.97 384.479 1475.3 385.083 1475.97 385.562C1476.66 386.042 1477.56 386.302 1478.69 386.344L1486.03 386.656C1487.43 386.698 1488.71 386.896 1489.88 387.25C1491.04 387.583 1492.05 388.073 1492.91 388.719C1493.76 389.344 1494.43 390.125 1494.91 391.062C1495.39 391.979 1495.62 393.052 1495.62 394.281C1495.62 395.573 1495.35 396.802 1494.81 397.969C1494.27 399.135 1493.44 400.156 1492.31 401.031C1491.21 401.927 1489.79 402.625 1488.06 403.125C1486.33 403.646 1484.29 403.906 1481.94 403.906C1479.67 403.906 1477.73 403.708 1476.12 403.312C1474.54 402.938 1473.24 402.417 1472.22 401.75C1471.2 401.083 1470.46 400.281 1470 399.344C1469.54 398.427 1469.31 397.427 1469.31 396.344C1469.31 395.656 1469.4 394.99 1469.56 394.344C1469.73 393.698 1469.98 393.083 1470.31 392.5C1470.67 391.917 1471.09 391.365 1471.59 390.844C1472.11 390.302 1472.71 389.771 1473.38 389.25C1472.35 388.729 1471.59 388.073 1471.09 387.281C1470.61 386.49 1470.38 385.635 1470.38 384.719C1470.38 383.448 1470.64 382.312 1471.16 381.312C1471.68 380.312 1472.32 379.417 1473.09 378.625C1472.45 377.854 1471.94 376.99 1471.56 376.031C1471.19 375.052 1471 373.875 1471 372.5C1471 370.896 1471.27 369.458 1471.81 368.188C1472.35 366.917 1473.1 365.844 1474.06 364.969C1475.02 364.094 1476.17 363.427 1477.5 362.969C1478.85 362.49 1480.32 362.25 1481.91 362.25C1482.76 362.25 1483.55 362.302 1484.28 362.406C1485.03 362.49 1485.73 362.615 1486.38 362.781H1494.88C1495.23 362.781 1495.49 362.958 1495.66 363.312C1495.84 363.646 1495.94 364.167 1495.94 364.875ZM1487.88 372.281C1487.88 370.365 1487.34 368.875 1486.28 367.812C1485.24 366.729 1483.75 366.188 1481.81 366.188C1480.81 366.188 1479.94 366.354 1479.19 366.688C1478.46 367.021 1477.84 367.479 1477.34 368.062C1476.86 368.646 1476.5 369.323 1476.25 370.094C1476.02 370.844 1475.91 371.635 1475.91 372.469C1475.91 374.323 1476.43 375.781 1477.47 376.844C1478.53 377.906 1480.01 378.438 1481.91 378.438C1482.93 378.438 1483.81 378.281 1484.56 377.969C1485.31 377.635 1485.93 377.188 1486.41 376.625C1486.91 376.042 1487.27 375.375 1487.5 374.625C1487.75 373.875 1487.88 373.094 1487.88 372.281ZM1490.47 394.562C1490.47 393.354 1489.97 392.427 1488.97 391.781C1487.99 391.115 1486.66 390.76 1484.97 390.719L1477.69 390.469C1477.02 390.99 1476.47 391.49 1476.03 391.969C1475.61 392.427 1475.28 392.865 1475.03 393.281C1474.78 393.719 1474.6 394.146 1474.5 394.562C1474.42 394.979 1474.38 395.406 1474.38 395.844C1474.38 397.198 1475.06 398.219 1476.44 398.906C1477.81 399.615 1479.73 399.969 1482.19 399.969C1483.75 399.969 1485.05 399.812 1486.09 399.5C1487.16 399.208 1488.01 398.812 1488.66 398.312C1489.3 397.812 1489.76 397.24 1490.03 396.594C1490.32 395.948 1490.47 395.271 1490.47 394.562Z" fill="white"/>
<path d="M1526 376.438C1526 377.25 1525.79 377.833 1525.38 378.188C1524.98 378.521 1524.52 378.688 1524 378.688H1505.56C1505.56 380.25 1505.72 381.656 1506.03 382.906C1506.34 384.156 1506.86 385.229 1507.59 386.125C1508.32 387.021 1509.27 387.708 1510.44 388.188C1511.6 388.667 1513.03 388.906 1514.72 388.906C1516.05 388.906 1517.24 388.802 1518.28 388.594C1519.32 388.365 1520.22 388.115 1520.97 387.844C1521.74 387.573 1522.36 387.333 1522.84 387.125C1523.34 386.896 1523.72 386.781 1523.97 386.781C1524.11 386.781 1524.24 386.823 1524.34 386.906C1524.47 386.969 1524.56 387.073 1524.62 387.219C1524.69 387.365 1524.73 387.573 1524.75 387.844C1524.79 388.094 1524.81 388.406 1524.81 388.781C1524.81 389.052 1524.8 389.292 1524.78 389.5C1524.76 389.688 1524.73 389.865 1524.69 390.031C1524.67 390.177 1524.61 390.312 1524.53 390.438C1524.47 390.562 1524.38 390.688 1524.25 390.812C1524.15 390.917 1523.81 391.104 1523.25 391.375C1522.69 391.625 1521.96 391.875 1521.06 392.125C1520.17 392.375 1519.12 392.594 1517.94 392.781C1516.77 392.99 1515.52 393.094 1514.19 393.094C1511.88 393.094 1509.84 392.771 1508.09 392.125C1506.36 391.479 1504.91 390.521 1503.72 389.25C1502.53 387.979 1501.64 386.385 1501.03 384.469C1500.43 382.552 1500.12 380.323 1500.12 377.781C1500.12 375.365 1500.44 373.198 1501.06 371.281C1501.69 369.344 1502.58 367.708 1503.75 366.375C1504.94 365.021 1506.36 363.99 1508.03 363.281C1509.7 362.552 1511.56 362.188 1513.62 362.188C1515.83 362.188 1517.71 362.542 1519.25 363.25C1520.81 363.958 1522.09 364.917 1523.09 366.125C1524.09 367.312 1524.82 368.719 1525.28 370.344C1525.76 371.948 1526 373.667 1526 375.5V376.438ZM1520.81 374.906C1520.88 372.198 1520.27 370.073 1519 368.531C1517.75 366.99 1515.89 366.219 1513.41 366.219C1512.14 366.219 1511.02 366.458 1510.06 366.938C1509.1 367.417 1508.3 368.052 1507.66 368.844C1507.01 369.635 1506.51 370.562 1506.16 371.625C1505.8 372.667 1505.6 373.76 1505.56 374.906H1520.81Z" fill="white"/>
<path d="M1551.53 384.062C1551.53 385.5 1551.26 386.781 1550.72 387.906C1550.2 389.031 1549.45 389.979 1548.47 390.75C1547.49 391.521 1546.32 392.104 1544.97 392.5C1543.61 392.896 1542.12 393.094 1540.5 393.094C1539.5 393.094 1538.54 393.01 1537.62 392.844C1536.73 392.698 1535.92 392.51 1535.19 392.281C1534.48 392.031 1533.88 391.781 1533.38 391.531C1532.88 391.26 1532.51 391.021 1532.28 390.812C1532.05 390.604 1531.89 390.312 1531.78 389.938C1531.68 389.562 1531.62 389.052 1531.62 388.406C1531.62 388.01 1531.65 387.677 1531.69 387.406C1531.73 387.135 1531.78 386.917 1531.84 386.75C1531.91 386.583 1531.99 386.469 1532.09 386.406C1532.22 386.323 1532.35 386.281 1532.5 386.281C1532.73 386.281 1533.06 386.427 1533.5 386.719C1533.96 386.99 1534.51 387.292 1535.16 387.625C1535.82 387.958 1536.6 388.271 1537.5 388.562C1538.4 388.833 1539.43 388.969 1540.59 388.969C1541.47 388.969 1542.26 388.875 1542.97 388.688C1543.68 388.5 1544.29 388.229 1544.81 387.875C1545.33 387.5 1545.73 387.031 1546 386.469C1546.29 385.906 1546.44 385.24 1546.44 384.469C1546.44 383.677 1546.23 383.01 1545.81 382.469C1545.42 381.927 1544.89 381.448 1544.22 381.031C1543.55 380.615 1542.8 380.25 1541.97 379.938C1541.14 379.604 1540.27 379.26 1539.38 378.906C1538.5 378.552 1537.64 378.156 1536.78 377.719C1535.95 377.26 1535.2 376.708 1534.53 376.062C1533.86 375.417 1533.32 374.646 1532.91 373.75C1532.51 372.854 1532.31 371.781 1532.31 370.531C1532.31 369.427 1532.52 368.375 1532.94 367.375C1533.38 366.354 1534.02 365.469 1534.88 364.719C1535.73 363.948 1536.79 363.333 1538.06 362.875C1539.35 362.417 1540.85 362.188 1542.56 362.188C1543.31 362.188 1544.06 362.25 1544.81 362.375C1545.56 362.5 1546.24 362.656 1546.84 362.844C1547.45 363.031 1547.96 363.24 1548.38 363.469C1548.81 363.677 1549.14 363.865 1549.34 364.031C1549.57 364.198 1549.72 364.344 1549.78 364.469C1549.86 364.594 1549.92 364.74 1549.94 364.906C1549.98 365.052 1550.01 365.24 1550.03 365.469C1550.07 365.698 1550.09 365.979 1550.09 366.312C1550.09 366.667 1550.07 366.979 1550.03 367.25C1550.01 367.5 1549.96 367.708 1549.88 367.875C1549.81 368.042 1549.73 368.167 1549.62 368.25C1549.52 368.312 1549.41 368.344 1549.28 368.344C1549.09 368.344 1548.82 368.229 1548.47 368C1548.11 367.771 1547.66 367.531 1547.09 367.281C1546.53 367.01 1545.86 366.76 1545.09 366.531C1544.34 366.302 1543.48 366.188 1542.5 366.188C1541.62 366.188 1540.85 366.292 1540.19 366.5C1539.52 366.688 1538.97 366.969 1538.53 367.344C1538.11 367.698 1537.79 368.125 1537.56 368.625C1537.35 369.125 1537.25 369.667 1537.25 370.25C1537.25 371.062 1537.46 371.75 1537.88 372.312C1538.29 372.854 1538.83 373.333 1539.5 373.75C1540.17 374.167 1540.93 374.542 1541.78 374.875C1542.64 375.208 1543.5 375.552 1544.38 375.906C1545.27 376.26 1546.15 376.656 1547 377.094C1547.88 377.531 1548.65 378.062 1549.31 378.688C1549.98 379.312 1550.51 380.062 1550.91 380.938C1551.32 381.812 1551.53 382.854 1551.53 384.062Z" fill="white"/>
</svg>
