<svg width="2115" height="512" viewBox="0 0 2115 512" fill="none" xmlns="http://www.w3.org/2000/svg">
<path d="M416.394 454.201C473.526 407.253 509.99 335.9 509.99 256C509.99 114.617 395.823 0 255.002 0C114.181 0 0 114.617 0 256C0 397.383 114.167 512 254.988 512H512L416.394 454.201ZM307.662 211.084L244.219 384.332L179.925 258.405L173.523 273.647L64.76 260.813L151.768 247.98L174.833 187.154L238.78 310.525L305.848 127.668L356.603 249.587L447.24 260.817L336.666 275.253L307.662 211.084Z" fill="#EA580C"/>
<path d="M750.75 169.469C750.75 178.552 749.333 186.594 746.5 193.594C743.667 200.594 739.542 206.51 734.125 211.344C728.708 216.094 722.042 219.719 714.125 222.219C706.292 224.719 697.042 225.969 686.375 225.969H672.875V277.594C672.875 278.427 672.583 279.177 672 279.844C671.5 280.51 670.625 281.052 669.375 281.469C668.125 281.885 666.458 282.219 664.375 282.469C662.292 282.719 659.625 282.844 656.375 282.844C653.208 282.844 650.542 282.719 648.375 282.469C646.292 282.219 644.625 281.885 643.375 281.469C642.125 281.052 641.25 280.51 640.75 279.844C640.25 279.177 640 278.427 640 277.594V132.094C640 128.177 641 125.26 643 123.344C645.083 121.344 647.792 120.344 651.125 120.344H689.25C693.083 120.344 696.708 120.51 700.125 120.844C703.625 121.094 707.792 121.719 712.625 122.719C717.458 123.635 722.333 125.385 727.25 127.969C732.25 130.552 736.5 133.844 740 137.844C743.5 141.76 746.167 146.385 748 151.719C749.833 156.969 750.75 162.885 750.75 169.469ZM716.375 171.844C716.375 166.177 715.375 161.51 713.375 157.844C711.375 154.177 708.917 151.469 706 149.719C703.083 147.969 700 146.885 696.75 146.469C693.583 145.969 690.292 145.719 686.875 145.719H672.875V200.594H687.625C692.875 200.594 697.25 199.885 700.75 198.469C704.333 197.052 707.25 195.094 709.5 192.594C711.75 190.01 713.458 186.969 714.625 183.469C715.792 179.885 716.375 176.01 716.375 171.844Z" fill="#EA580C"/>
<path d="M880.125 277.844C880.125 278.677 879.917 279.427 879.5 280.094C879.083 280.677 878.333 281.177 877.25 281.594C876.25 282.01 874.875 282.302 873.125 282.469C871.458 282.719 869.333 282.844 866.75 282.844C864 282.844 861.75 282.719 860 282.469C858.333 282.302 857 282.01 856 281.594C855 281.177 854.292 280.677 853.875 280.094C853.458 279.427 853.25 278.677 853.25 277.844V264.969C847.083 271.635 840.792 276.635 834.375 279.969C828.042 283.302 821.458 284.969 814.625 284.969C806.958 284.969 800.5 283.719 795.25 281.219C790.083 278.719 785.875 275.302 782.625 270.969C779.458 266.635 777.167 261.635 775.75 255.969C774.417 250.219 773.75 243.094 773.75 234.594V166.344C773.75 165.51 773.958 164.802 774.375 164.219C774.875 163.552 775.708 163.01 776.875 162.594C778.125 162.177 779.75 161.885 781.75 161.719C783.833 161.469 786.375 161.344 789.375 161.344C792.458 161.344 795 161.469 797 161.719C799 161.885 800.583 162.177 801.75 162.594C803 163.01 803.875 163.552 804.375 164.219C804.875 164.802 805.125 165.51 805.125 166.344V229.344C805.125 235.177 805.5 239.635 806.25 242.719C807 245.802 808.125 248.469 809.625 250.719C811.208 252.885 813.167 254.594 815.5 255.844C817.917 257.01 820.708 257.594 823.875 257.594C827.875 257.594 831.875 256.135 835.875 253.219C839.958 250.302 844.292 246.052 848.875 240.469V166.344C848.875 165.51 849.083 164.802 849.5 164.219C850 163.552 850.833 163.01 852 162.594C853.25 162.177 854.875 161.885 856.875 161.719C858.875 161.469 861.417 161.344 864.5 161.344C867.583 161.344 870.125 161.469 872.125 161.719C874.125 161.885 875.708 162.177 876.875 162.594C878.042 163.01 878.875 163.552 879.375 164.219C879.875 164.802 880.125 165.51 880.125 166.344V277.844Z" fill="#EA580C"/>
<path d="M943.375 277.844C943.375 278.677 943.125 279.427 942.625 280.094C942.125 280.677 941.25 281.177 940 281.594C938.833 282.01 937.25 282.302 935.25 282.469C933.25 282.719 930.708 282.844 927.625 282.844C924.542 282.844 922 282.719 920 282.469C918 282.302 916.375 282.01 915.125 281.594C913.958 281.177 913.125 280.677 912.625 280.094C912.125 279.427 911.875 278.677 911.875 277.844V113.469C911.875 112.635 912.125 111.885 912.625 111.219C913.125 110.552 913.958 110.01 915.125 109.594C916.375 109.094 918 108.719 920 108.469C922 108.219 924.542 108.094 927.625 108.094C930.708 108.094 933.25 108.219 935.25 108.469C937.25 108.719 938.833 109.094 940 109.594C941.25 110.01 942.125 110.552 942.625 111.219C943.125 111.885 943.375 112.635 943.375 113.469V277.844Z" fill="#EA580C"/>
<path d="M1053.38 246.344C1053.38 252.677 1052.17 258.26 1049.75 263.094C1047.42 267.927 1044.08 271.969 1039.75 275.219C1035.42 278.469 1030.29 280.885 1024.38 282.469C1018.46 284.135 1012.04 284.969 1005.12 284.969C1000.96 284.969 996.958 284.635 993.125 283.969C989.375 283.385 986 282.635 983 281.719C980 280.719 977.5 279.719 975.5 278.719C973.5 277.719 972.042 276.802 971.125 275.969C970.208 275.052 969.5 273.677 969 271.844C968.5 269.927 968.25 267.135 968.25 263.469C968.25 261.052 968.333 259.135 968.5 257.719C968.667 256.219 968.917 255.052 969.25 254.219C969.583 253.302 970 252.719 970.5 252.469C971 252.135 971.625 251.969 972.375 251.969C973.292 251.969 974.625 252.51 976.375 253.594C978.208 254.594 980.458 255.719 983.125 256.969C985.792 258.219 988.875 259.385 992.375 260.469C995.958 261.552 1000 262.094 1004.5 262.094C1007.33 262.094 1009.83 261.802 1012 261.219C1014.25 260.635 1016.17 259.802 1017.75 258.719C1019.42 257.635 1020.67 256.26 1021.5 254.594C1022.33 252.927 1022.75 251.01 1022.75 248.844C1022.75 246.344 1021.96 244.219 1020.38 242.469C1018.88 240.635 1016.83 239.052 1014.25 237.719C1011.75 236.385 1008.88 235.135 1005.62 233.969C1002.46 232.802 999.167 231.51 995.75 230.094C992.417 228.677 989.125 227.052 985.875 225.219C982.708 223.385 979.833 221.135 977.25 218.469C974.75 215.802 972.708 212.594 971.125 208.844C969.625 205.094 968.875 200.594 968.875 195.344C968.875 190.01 969.917 185.135 972 180.719C974.083 176.219 977.083 172.385 981 169.219C984.917 166.052 989.667 163.594 995.25 161.844C1000.92 160.094 1007.25 159.219 1014.25 159.219C1017.75 159.219 1021.12 159.469 1024.38 159.969C1027.71 160.469 1030.71 161.094 1033.38 161.844C1036.04 162.594 1038.29 163.427 1040.12 164.344C1041.96 165.177 1043.25 165.927 1044 166.594C1044.83 167.177 1045.42 167.802 1045.75 168.469C1046.08 169.052 1046.33 169.802 1046.5 170.719C1046.67 171.552 1046.79 172.635 1046.88 173.969C1047.04 175.219 1047.12 176.802 1047.12 178.719C1047.12 180.969 1047.04 182.802 1046.88 184.219C1046.79 185.635 1046.58 186.76 1046.25 187.594C1046 188.427 1045.62 189.01 1045.12 189.344C1044.62 189.594 1044.04 189.719 1043.38 189.719C1042.62 189.719 1041.46 189.302 1039.88 188.469C1038.29 187.552 1036.29 186.594 1033.88 185.594C1031.54 184.594 1028.79 183.677 1025.62 182.844C1022.54 181.927 1019 181.469 1015 181.469C1012.17 181.469 1009.71 181.76 1007.62 182.344C1005.54 182.927 1003.83 183.76 1002.5 184.844C1001.17 185.927 1000.17 187.219 999.5 188.719C998.833 190.135 998.5 191.677 998.5 193.344C998.5 195.927 999.292 198.094 1000.88 199.844C1002.46 201.594 1004.54 203.135 1007.12 204.469C1009.71 205.802 1012.62 207.052 1015.88 208.219C1019.21 209.385 1022.54 210.677 1025.88 212.094C1029.29 213.427 1032.62 215.01 1035.88 216.844C1039.21 218.677 1042.17 220.927 1044.75 223.594C1047.33 226.26 1049.42 229.469 1051 233.219C1052.58 236.885 1053.38 241.26 1053.38 246.344Z" fill="#EA580C"/>
<path d="M1180.12 218.844C1180.12 222.677 1179.25 225.51 1177.5 227.344C1175.83 229.177 1173.5 230.094 1170.5 230.094H1102.62C1102.62 234.844 1103.17 239.177 1104.25 243.094C1105.42 246.927 1107.21 250.219 1109.62 252.969C1112.12 255.635 1115.29 257.677 1119.12 259.094C1123.04 260.51 1127.71 261.219 1133.12 261.219C1138.62 261.219 1143.46 260.844 1147.62 260.094C1151.79 259.26 1155.38 258.385 1158.38 257.469C1161.46 256.469 1164 255.594 1166 254.844C1168 254.01 1169.62 253.594 1170.88 253.594C1171.62 253.594 1172.25 253.76 1172.75 254.094C1173.25 254.344 1173.67 254.844 1174 255.594C1174.33 256.344 1174.54 257.427 1174.62 258.844C1174.79 260.177 1174.88 261.885 1174.88 263.969C1174.88 265.802 1174.83 267.385 1174.75 268.719C1174.67 269.969 1174.54 271.052 1174.38 271.969C1174.21 272.885 1173.96 273.677 1173.62 274.344C1173.29 274.927 1172.83 275.51 1172.25 276.094C1171.75 276.677 1170.29 277.469 1167.88 278.469C1165.46 279.469 1162.38 280.469 1158.62 281.469C1154.88 282.385 1150.58 283.177 1145.75 283.844C1140.92 284.594 1135.75 284.969 1130.25 284.969C1120.33 284.969 1111.62 283.719 1104.12 281.219C1096.71 278.719 1090.5 274.927 1085.5 269.844C1080.5 264.76 1076.75 258.344 1074.25 250.594C1071.83 242.844 1070.62 233.76 1070.62 223.344C1070.62 213.427 1071.92 204.51 1074.5 196.594C1077.08 188.594 1080.83 181.844 1085.75 176.344C1090.67 170.76 1096.62 166.51 1103.62 163.594C1110.71 160.677 1118.67 159.219 1127.5 159.219C1136.83 159.219 1144.79 160.594 1151.38 163.344C1158.04 166.094 1163.5 169.927 1167.75 174.844C1172 179.677 1175.12 185.427 1177.12 192.094C1179.12 198.76 1180.12 206.01 1180.12 213.844V218.844ZM1149.62 209.844C1149.88 201.01 1148.08 194.094 1144.25 189.094C1140.5 184.01 1134.67 181.469 1126.75 181.469C1122.75 181.469 1119.25 182.219 1116.25 183.719C1113.33 185.219 1110.88 187.26 1108.88 189.844C1106.96 192.344 1105.46 195.344 1104.38 198.844C1103.38 202.26 1102.79 205.927 1102.62 209.844H1149.62Z" fill="#EA580C"/>
<path d="M1377.88 257.594C1377.88 259.677 1377.79 261.469 1377.62 262.969C1377.54 264.385 1377.38 265.635 1377.12 266.719C1376.88 267.719 1376.54 268.594 1376.12 269.344C1375.71 270.094 1375.04 270.969 1374.12 271.969C1373.21 272.885 1371.42 274.094 1368.75 275.594C1366.17 277.094 1362.96 278.552 1359.12 279.969C1355.38 281.302 1351.04 282.427 1346.12 283.344C1341.29 284.26 1336.04 284.719 1330.38 284.719C1319.29 284.719 1309.29 283.01 1300.38 279.594C1291.46 276.177 1283.88 271.094 1277.62 264.344C1271.38 257.51 1266.58 249.01 1263.25 238.844C1259.92 228.677 1258.25 216.844 1258.25 203.344C1258.25 189.594 1260.08 177.385 1263.75 166.719C1267.42 156.052 1272.54 147.094 1279.12 139.844C1285.71 132.594 1293.58 127.094 1302.75 123.344C1312 119.594 1322.17 117.719 1333.25 117.719C1337.75 117.719 1342.08 118.094 1346.25 118.844C1350.42 119.594 1354.25 120.594 1357.75 121.844C1361.33 123.01 1364.54 124.385 1367.38 125.969C1370.21 127.552 1372.17 128.927 1373.25 130.094C1374.42 131.177 1375.21 132.094 1375.62 132.844C1376.04 133.594 1376.38 134.552 1376.62 135.719C1376.88 136.885 1377.04 138.26 1377.12 139.844C1377.29 141.427 1377.38 143.385 1377.38 145.719C1377.38 148.219 1377.29 150.344 1377.12 152.094C1376.96 153.844 1376.67 155.26 1376.25 156.344C1375.83 157.427 1375.33 158.219 1374.75 158.719C1374.17 159.219 1373.5 159.469 1372.75 159.469C1371.5 159.469 1369.92 158.76 1368 157.344C1366.08 155.844 1363.58 154.219 1360.5 152.469C1357.5 150.635 1353.88 149.01 1349.62 147.594C1345.46 146.094 1340.46 145.344 1334.62 145.344C1328.21 145.344 1322.46 146.677 1317.38 149.344C1312.38 151.927 1308.08 155.677 1304.5 160.594C1301 165.427 1298.33 171.302 1296.5 178.219C1294.67 185.135 1293.75 192.927 1293.75 201.594C1293.75 211.094 1294.71 219.344 1296.62 226.344C1298.62 233.26 1301.42 238.969 1305 243.469C1308.67 247.969 1313.04 251.344 1318.12 253.594C1323.29 255.76 1329.08 256.844 1335.5 256.844C1341.33 256.844 1346.38 256.177 1350.62 254.844C1354.88 253.427 1358.5 251.885 1361.5 250.219C1364.58 248.552 1367.08 247.052 1369 245.719C1371 244.385 1372.54 243.719 1373.62 243.719C1374.46 243.719 1375.12 243.885 1375.62 244.219C1376.12 244.552 1376.54 245.219 1376.88 246.219C1377.21 247.219 1377.46 248.635 1377.62 250.469C1377.79 252.219 1377.88 254.594 1377.88 257.594Z" fill="black"/>
<path d="M1512.38 220.969C1512.38 230.469 1511.12 239.135 1508.62 246.969C1506.12 254.802 1502.33 261.552 1497.25 267.219C1492.17 272.885 1485.79 277.26 1478.12 280.344C1470.46 283.427 1461.5 284.969 1451.25 284.969C1441.33 284.969 1432.71 283.594 1425.38 280.844C1418.04 278.094 1411.96 274.094 1407.12 268.844C1402.29 263.594 1398.71 257.135 1396.38 249.469C1394.04 241.802 1392.88 233.052 1392.88 223.219C1392.88 213.719 1394.12 205.052 1396.62 197.219C1399.21 189.302 1403.04 182.552 1408.12 176.969C1413.21 171.302 1419.54 166.927 1427.12 163.844C1434.79 160.76 1443.75 159.219 1454 159.219C1464 159.219 1472.67 160.594 1480 163.344C1487.33 166.01 1493.38 169.969 1498.12 175.219C1502.96 180.469 1506.54 186.927 1508.88 194.594C1511.21 202.26 1512.38 211.052 1512.38 220.969ZM1480 222.219C1480 216.719 1479.54 211.677 1478.62 207.094C1477.79 202.427 1476.33 198.385 1474.25 194.969C1472.17 191.552 1469.38 188.885 1465.88 186.969C1462.46 185.052 1458.12 184.094 1452.88 184.094C1448.21 184.094 1444.12 184.969 1440.62 186.719C1437.12 188.385 1434.25 190.885 1432 194.219C1429.75 197.469 1428.04 201.427 1426.88 206.094C1425.79 210.677 1425.25 215.927 1425.25 221.844C1425.25 227.344 1425.71 232.427 1426.62 237.094C1427.54 241.677 1429 245.677 1431 249.094C1433.08 252.51 1435.88 255.177 1439.38 257.094C1442.88 258.927 1447.21 259.844 1452.38 259.844C1457.12 259.844 1461.25 259.01 1464.75 257.344C1468.25 255.594 1471.12 253.094 1473.38 249.844C1475.62 246.594 1477.29 242.677 1478.38 238.094C1479.46 233.427 1480 228.135 1480 222.219Z" fill="black"/>
<path d="M1643.88 277.844C1643.88 278.677 1643.62 279.427 1643.12 280.094C1642.62 280.677 1641.79 281.177 1640.62 281.594C1639.46 282.01 1637.83 282.302 1635.75 282.469C1633.75 282.719 1631.25 282.844 1628.25 282.844C1625.17 282.844 1622.58 282.719 1620.5 282.469C1618.5 282.302 1616.92 282.01 1615.75 281.594C1614.58 281.177 1613.75 280.677 1613.25 280.094C1612.75 279.427 1612.5 278.677 1612.5 277.844V214.219C1612.5 208.802 1612.08 204.552 1611.25 201.469C1610.5 198.385 1609.38 195.76 1607.88 193.594C1606.38 191.344 1604.42 189.635 1602 188.469C1599.67 187.219 1596.92 186.594 1593.75 186.594C1589.75 186.594 1585.71 188.052 1581.62 190.969C1577.54 193.885 1573.29 198.135 1568.88 203.719V277.844C1568.88 278.677 1568.62 279.427 1568.12 280.094C1567.62 280.677 1566.75 281.177 1565.5 281.594C1564.33 282.01 1562.75 282.302 1560.75 282.469C1558.75 282.719 1556.21 282.844 1553.12 282.844C1550.04 282.844 1547.5 282.719 1545.5 282.469C1543.5 282.302 1541.88 282.01 1540.62 281.594C1539.46 281.177 1538.62 280.677 1538.12 280.094C1537.62 279.427 1537.38 278.677 1537.38 277.844V166.344C1537.38 165.51 1537.58 164.802 1538 164.219C1538.42 163.552 1539.17 163.01 1540.25 162.594C1541.33 162.177 1542.71 161.885 1544.38 161.719C1546.12 161.469 1548.29 161.344 1550.88 161.344C1553.54 161.344 1555.75 161.469 1557.5 161.719C1559.25 161.885 1560.58 162.177 1561.5 162.594C1562.5 163.01 1563.21 163.552 1563.62 164.219C1564.04 164.802 1564.25 165.51 1564.25 166.344V179.219C1570.42 172.552 1576.67 167.552 1583 164.219C1589.42 160.885 1596.08 159.219 1603 159.219C1610.58 159.219 1616.96 160.469 1622.12 162.969C1627.38 165.469 1631.58 168.885 1634.75 173.219C1638 177.469 1640.33 182.469 1641.75 188.219C1643.17 193.969 1643.88 200.885 1643.88 208.969V277.844Z" fill="black"/>
<path d="M1781.38 277.844C1781.38 278.677 1781.12 279.427 1780.62 280.094C1780.12 280.677 1779.29 281.177 1778.12 281.594C1776.96 282.01 1775.33 282.302 1773.25 282.469C1771.25 282.719 1768.75 282.844 1765.75 282.844C1762.67 282.844 1760.08 282.719 1758 282.469C1756 282.302 1754.42 282.01 1753.25 281.594C1752.08 281.177 1751.25 280.677 1750.75 280.094C1750.25 279.427 1750 278.677 1750 277.844V214.219C1750 208.802 1749.58 204.552 1748.75 201.469C1748 198.385 1746.88 195.76 1745.38 193.594C1743.88 191.344 1741.92 189.635 1739.5 188.469C1737.17 187.219 1734.42 186.594 1731.25 186.594C1727.25 186.594 1723.21 188.052 1719.12 190.969C1715.04 193.885 1710.79 198.135 1706.38 203.719V277.844C1706.38 278.677 1706.12 279.427 1705.62 280.094C1705.12 280.677 1704.25 281.177 1703 281.594C1701.83 282.01 1700.25 282.302 1698.25 282.469C1696.25 282.719 1693.71 282.844 1690.62 282.844C1687.54 282.844 1685 282.719 1683 282.469C1681 282.302 1679.38 282.01 1678.12 281.594C1676.96 281.177 1676.12 280.677 1675.62 280.094C1675.12 279.427 1674.88 278.677 1674.88 277.844V166.344C1674.88 165.51 1675.08 164.802 1675.5 164.219C1675.92 163.552 1676.67 163.01 1677.75 162.594C1678.83 162.177 1680.21 161.885 1681.88 161.719C1683.62 161.469 1685.79 161.344 1688.38 161.344C1691.04 161.344 1693.25 161.469 1695 161.719C1696.75 161.885 1698.08 162.177 1699 162.594C1700 163.01 1700.71 163.552 1701.12 164.219C1701.54 164.802 1701.75 165.51 1701.75 166.344V179.219C1707.92 172.552 1714.17 167.552 1720.5 164.219C1726.92 160.885 1733.58 159.219 1740.5 159.219C1748.08 159.219 1754.46 160.469 1759.62 162.969C1764.88 165.469 1769.08 168.885 1772.25 173.219C1775.5 177.469 1777.83 182.469 1779.25 188.219C1780.67 193.969 1781.38 200.885 1781.38 208.969V277.844Z" fill="black"/>
<path d="M1915.38 218.844C1915.38 222.677 1914.5 225.51 1912.75 227.344C1911.08 229.177 1908.75 230.094 1905.75 230.094H1837.88C1837.88 234.844 1838.42 239.177 1839.5 243.094C1840.67 246.927 1842.46 250.219 1844.88 252.969C1847.38 255.635 1850.54 257.677 1854.38 259.094C1858.29 260.51 1862.96 261.219 1868.38 261.219C1873.88 261.219 1878.71 260.844 1882.88 260.094C1887.04 259.26 1890.62 258.385 1893.62 257.469C1896.71 256.469 1899.25 255.594 1901.25 254.844C1903.25 254.01 1904.88 253.594 1906.12 253.594C1906.88 253.594 1907.5 253.76 1908 254.094C1908.5 254.344 1908.92 254.844 1909.25 255.594C1909.58 256.344 1909.79 257.427 1909.88 258.844C1910.04 260.177 1910.12 261.885 1910.12 263.969C1910.12 265.802 1910.08 267.385 1910 268.719C1909.92 269.969 1909.79 271.052 1909.62 271.969C1909.46 272.885 1909.21 273.677 1908.88 274.344C1908.54 274.927 1908.08 275.51 1907.5 276.094C1907 276.677 1905.54 277.469 1903.12 278.469C1900.71 279.469 1897.62 280.469 1893.88 281.469C1890.12 282.385 1885.83 283.177 1881 283.844C1876.17 284.594 1871 284.969 1865.5 284.969C1855.58 284.969 1846.88 283.719 1839.38 281.219C1831.96 278.719 1825.75 274.927 1820.75 269.844C1815.75 264.76 1812 258.344 1809.5 250.594C1807.08 242.844 1805.88 233.76 1805.88 223.344C1805.88 213.427 1807.17 204.51 1809.75 196.594C1812.33 188.594 1816.08 181.844 1821 176.344C1825.92 170.76 1831.88 166.51 1838.88 163.594C1845.96 160.677 1853.92 159.219 1862.75 159.219C1872.08 159.219 1880.04 160.594 1886.62 163.344C1893.29 166.094 1898.75 169.927 1903 174.844C1907.25 179.677 1910.38 185.427 1912.38 192.094C1914.38 198.76 1915.38 206.01 1915.38 213.844V218.844ZM1884.88 209.844C1885.12 201.01 1883.33 194.094 1879.5 189.094C1875.75 184.01 1869.92 181.469 1862 181.469C1858 181.469 1854.5 182.219 1851.5 183.719C1848.58 185.219 1846.12 187.26 1844.12 189.844C1842.21 192.344 1840.71 195.344 1839.62 198.844C1838.62 202.26 1838.04 205.927 1837.88 209.844H1884.88Z" fill="black"/>
<path d="M2025.75 260.094C2025.75 262.26 2025.67 264.094 2025.5 265.594C2025.42 267.01 2025.25 268.219 2025 269.219C2024.83 270.219 2024.58 271.052 2024.25 271.719C2024 272.302 2023.38 273.094 2022.38 274.094C2021.38 275.01 2019.67 276.177 2017.25 277.594C2014.83 278.927 2012.08 280.135 2009 281.219C2005.92 282.302 2002.54 283.177 1998.88 283.844C1995.29 284.51 1991.58 284.844 1987.75 284.844C1979.17 284.844 1971.54 283.51 1964.88 280.844C1958.29 278.177 1952.75 274.26 1948.25 269.094C1943.75 263.844 1940.33 257.469 1938 249.969C1935.75 242.469 1934.62 233.885 1934.62 224.219C1934.62 213.052 1936 203.427 1938.75 195.344C1941.58 187.177 1945.5 180.427 1950.5 175.094C1955.5 169.76 1961.42 165.802 1968.25 163.219C1975.08 160.635 1982.58 159.344 1990.75 159.344C1994.08 159.344 1997.33 159.635 2000.5 160.219C2003.75 160.802 2006.75 161.594 2009.5 162.594C2012.33 163.594 2014.83 164.719 2017 165.969C2019.25 167.219 2020.83 168.302 2021.75 169.219C2022.67 170.135 2023.29 170.927 2023.62 171.594C2024.04 172.177 2024.33 172.969 2024.5 173.969C2024.75 174.969 2024.92 176.219 2025 177.719C2025.17 179.135 2025.25 180.885 2025.25 182.969C2025.25 187.802 2024.83 191.219 2024 193.219C2023.17 195.135 2022.08 196.094 2020.75 196.094C2019.33 196.094 2017.83 195.51 2016.25 194.344C2014.67 193.177 2012.79 191.885 2010.62 190.469C2008.46 189.052 2005.88 187.76 2002.88 186.594C1999.88 185.427 1996.29 184.844 1992.12 184.844C1983.96 184.844 1977.71 188.01 1973.38 194.344C1969.04 200.594 1966.88 209.802 1966.88 221.969C1966.88 227.969 1967.42 233.26 1968.5 237.844C1969.58 242.427 1971.17 246.26 1973.25 249.344C1975.42 252.427 1978.08 254.76 1981.25 256.344C1984.5 257.844 1988.25 258.594 1992.5 258.594C1996.83 258.594 2000.54 257.969 2003.62 256.719C2006.79 255.385 2009.54 253.927 2011.88 252.344C2014.21 250.76 2016.17 249.344 2017.75 248.094C2019.33 246.76 2020.67 246.094 2021.75 246.094C2022.5 246.094 2023.12 246.302 2023.62 246.719C2024.12 247.135 2024.5 247.927 2024.75 249.094C2025.08 250.177 2025.33 251.594 2025.5 253.344C2025.67 255.094 2025.75 257.344 2025.75 260.094Z" fill="black"/>
<path d="M2114.62 266.844C2114.62 270.51 2114.38 273.344 2113.88 275.344C2113.46 277.26 2112.88 278.635 2112.12 279.469C2111.38 280.219 2110.25 280.927 2108.75 281.594C2107.33 282.177 2105.62 282.677 2103.62 283.094C2101.71 283.594 2099.58 283.969 2097.25 284.219C2095 284.469 2092.71 284.594 2090.38 284.594C2084.12 284.594 2078.71 283.802 2074.12 282.219C2069.54 280.635 2065.75 278.219 2062.75 274.969C2059.75 271.635 2057.54 267.469 2056.12 262.469C2054.71 257.469 2054 251.552 2054 244.719V187.594H2040.62C2039.04 187.594 2037.83 186.635 2037 184.719C2036.17 182.719 2035.75 179.427 2035.75 174.844C2035.75 172.427 2035.83 170.385 2036 168.719C2036.25 167.052 2036.58 165.76 2037 164.844C2037.42 163.844 2037.92 163.135 2038.5 162.719C2039.17 162.302 2039.92 162.094 2040.75 162.094H2054V137.219C2054 136.385 2054.21 135.635 2054.62 134.969C2055.12 134.302 2055.96 133.76 2057.12 133.344C2058.38 132.844 2060 132.51 2062 132.344C2064.08 132.094 2066.62 131.969 2069.62 131.969C2072.71 131.969 2075.25 132.094 2077.25 132.344C2079.33 132.51 2080.96 132.844 2082.12 133.344C2083.29 133.76 2084.12 134.302 2084.62 134.969C2085.12 135.635 2085.38 136.385 2085.38 137.219V162.094H2109.62C2110.46 162.094 2111.17 162.302 2111.75 162.719C2112.42 163.135 2112.96 163.844 2113.38 164.844C2113.79 165.76 2114.08 167.052 2114.25 168.719C2114.5 170.385 2114.62 172.427 2114.62 174.844C2114.62 179.427 2114.21 182.719 2113.38 184.719C2112.54 186.635 2111.33 187.594 2109.75 187.594H2085.38V239.969C2085.38 246.052 2086.33 250.635 2088.25 253.719C2090.17 256.719 2093.58 258.219 2098.5 258.219C2100.17 258.219 2101.67 258.094 2103 257.844C2104.33 257.51 2105.5 257.177 2106.5 256.844C2107.58 256.427 2108.46 256.094 2109.12 255.844C2109.88 255.51 2110.54 255.344 2111.12 255.344C2111.62 255.344 2112.08 255.51 2112.5 255.844C2113 256.094 2113.38 256.677 2113.62 257.594C2113.88 258.427 2114.08 259.594 2114.25 261.094C2114.5 262.594 2114.62 264.51 2114.62 266.844Z" fill="black"/>
<path d="M669.344 386.781C669.344 387.115 669.333 387.406 669.312 387.656C669.292 387.906 669.25 388.125 669.188 388.312C669.146 388.5 669.083 388.667 669 388.812C668.917 388.958 668.771 389.135 668.562 389.344C668.354 389.552 667.917 389.875 667.25 390.312C666.583 390.729 665.75 391.146 664.75 391.562C663.771 391.958 662.635 392.292 661.344 392.562C660.073 392.854 658.677 393 657.156 393C654.531 393 652.156 392.562 650.031 391.688C647.927 390.812 646.125 389.521 644.625 387.812C643.146 386.104 642 384 641.188 381.5C640.396 378.979 640 376.083 640 372.812C640 369.458 640.427 366.469 641.281 363.844C642.156 361.219 643.375 359 644.938 357.188C646.5 355.354 648.365 353.958 650.531 353C652.719 352.042 655.135 351.562 657.781 351.562C658.948 351.562 660.083 351.677 661.188 351.906C662.292 352.115 663.312 352.385 664.25 352.719C665.188 353.052 666.021 353.438 666.75 353.875C667.479 354.312 667.979 354.677 668.25 354.969C668.542 355.24 668.729 355.448 668.812 355.594C668.896 355.74 668.958 355.917 669 356.125C669.062 356.312 669.104 356.542 669.125 356.812C669.167 357.083 669.188 357.406 669.188 357.781C669.188 358.198 669.167 358.552 669.125 358.844C669.083 359.135 669.021 359.385 668.938 359.594C668.854 359.781 668.75 359.927 668.625 360.031C668.521 360.115 668.385 360.156 668.219 360.156C667.927 360.156 667.521 359.958 667 359.562C666.479 359.146 665.802 358.698 664.969 358.219C664.156 357.719 663.156 357.271 661.969 356.875C660.802 356.458 659.396 356.25 657.75 356.25C655.958 356.25 654.323 356.615 652.844 357.344C651.385 358.052 650.135 359.104 649.094 360.5C648.052 361.896 647.24 363.604 646.656 365.625C646.094 367.625 645.812 369.917 645.812 372.5C645.812 375.062 646.083 377.333 646.625 379.312C647.188 381.271 647.979 382.917 649 384.25C650.042 385.562 651.312 386.562 652.812 387.25C654.312 387.917 656.01 388.25 657.906 388.25C659.51 388.25 660.906 388.052 662.094 387.656C663.302 387.26 664.323 386.823 665.156 386.344C666.01 385.844 666.708 385.396 667.25 385C667.792 384.604 668.219 384.406 668.531 384.406C668.677 384.406 668.802 384.438 668.906 384.5C669.01 384.562 669.094 384.688 669.156 384.875C669.219 385.042 669.26 385.281 669.281 385.594C669.323 385.906 669.344 386.302 669.344 386.781Z" fill="#EA580C"/>
<path d="M702.031 377.344C702.031 379.635 701.729 381.75 701.125 383.688C700.521 385.604 699.615 387.26 698.406 388.656C697.219 390.052 695.719 391.146 693.906 391.938C692.115 392.708 690.031 393.094 687.656 393.094C685.344 393.094 683.323 392.75 681.594 392.062C679.885 391.375 678.458 390.375 677.312 389.062C676.167 387.75 675.312 386.156 674.75 384.281C674.188 382.406 673.906 380.281 673.906 377.906C673.906 375.615 674.198 373.51 674.781 371.594C675.385 369.656 676.281 367.99 677.469 366.594C678.677 365.198 680.177 364.115 681.969 363.344C683.76 362.573 685.854 362.188 688.25 362.188C690.562 362.188 692.573 362.531 694.281 363.219C696.01 363.906 697.448 364.906 698.594 366.219C699.74 367.531 700.594 369.125 701.156 371C701.74 372.875 702.031 374.99 702.031 377.344ZM696.594 377.688C696.594 376.167 696.448 374.729 696.156 373.375C695.885 372.021 695.427 370.833 694.781 369.812C694.135 368.792 693.26 367.99 692.156 367.406C691.052 366.802 689.677 366.5 688.031 366.5C686.51 366.5 685.198 366.771 684.094 367.312C683.01 367.854 682.115 368.625 681.406 369.625C680.698 370.604 680.167 371.771 679.812 373.125C679.479 374.479 679.312 375.958 679.312 377.562C679.312 379.104 679.448 380.552 679.719 381.906C680.01 383.26 680.479 384.448 681.125 385.469C681.792 386.469 682.677 387.271 683.781 387.875C684.885 388.458 686.26 388.75 687.906 388.75C689.406 388.75 690.708 388.479 691.812 387.938C692.917 387.396 693.823 386.635 694.531 385.656C695.24 384.677 695.76 383.51 696.094 382.156C696.427 380.802 696.594 379.312 696.594 377.688Z" fill="#EA580C"/>
<path d="M733.844 391.719C733.844 391.885 733.802 392.031 733.719 392.156C733.635 392.26 733.5 392.354 733.312 392.438C733.125 392.521 732.865 392.583 732.531 392.625C732.198 392.667 731.781 392.688 731.281 392.688C730.76 392.688 730.333 392.667 730 392.625C729.667 392.583 729.406 392.521 729.219 392.438C729.031 392.354 728.896 392.26 728.812 392.156C728.729 392.031 728.688 391.885 728.688 391.719V375.25C728.688 373.646 728.562 372.354 728.312 371.375C728.062 370.396 727.698 369.552 727.219 368.844C726.74 368.135 726.115 367.594 725.344 367.219C724.594 366.844 723.719 366.656 722.719 366.656C721.427 366.656 720.135 367.115 718.844 368.031C717.552 368.948 716.198 370.292 714.781 372.062V391.719C714.781 391.885 714.74 392.031 714.656 392.156C714.573 392.26 714.438 392.354 714.25 392.438C714.062 392.521 713.802 392.583 713.469 392.625C713.135 392.667 712.708 392.688 712.188 392.688C711.688 392.688 711.271 392.667 710.938 392.625C710.604 392.583 710.333 392.521 710.125 392.438C709.938 392.354 709.802 392.26 709.719 392.156C709.656 392.031 709.625 391.885 709.625 391.719V363.594C709.625 363.427 709.656 363.292 709.719 363.188C709.781 363.062 709.906 362.958 710.094 362.875C710.281 362.771 710.521 362.708 710.812 362.688C711.104 362.646 711.49 362.625 711.969 362.625C712.427 362.625 712.802 362.646 713.094 362.688C713.406 362.708 713.646 362.771 713.812 362.875C713.979 362.958 714.094 363.062 714.156 363.188C714.24 363.292 714.281 363.427 714.281 363.594V367.312C715.865 365.542 717.438 364.25 719 363.438C720.583 362.604 722.177 362.188 723.781 362.188C725.656 362.188 727.229 362.51 728.5 363.156C729.792 363.781 730.833 364.625 731.625 365.688C732.417 366.75 732.979 368 733.312 369.438C733.667 370.854 733.844 372.562 733.844 374.562V391.719Z" fill="#EA580C"/>
<path d="M767.469 391.719C767.469 391.885 767.427 392.031 767.344 392.156C767.26 392.26 767.125 392.354 766.938 392.438C766.75 392.521 766.49 392.583 766.156 392.625C765.823 392.667 765.406 392.688 764.906 392.688C764.385 392.688 763.958 392.667 763.625 392.625C763.292 392.583 763.031 392.521 762.844 392.438C762.656 392.354 762.521 392.26 762.438 392.156C762.354 392.031 762.312 391.885 762.312 391.719V375.25C762.312 373.646 762.188 372.354 761.938 371.375C761.688 370.396 761.323 369.552 760.844 368.844C760.365 368.135 759.74 367.594 758.969 367.219C758.219 366.844 757.344 366.656 756.344 366.656C755.052 366.656 753.76 367.115 752.469 368.031C751.177 368.948 749.823 370.292 748.406 372.062V391.719C748.406 391.885 748.365 392.031 748.281 392.156C748.198 392.26 748.062 392.354 747.875 392.438C747.688 392.521 747.427 392.583 747.094 392.625C746.76 392.667 746.333 392.688 745.812 392.688C745.312 392.688 744.896 392.667 744.562 392.625C744.229 392.583 743.958 392.521 743.75 392.438C743.562 392.354 743.427 392.26 743.344 392.156C743.281 392.031 743.25 391.885 743.25 391.719V363.594C743.25 363.427 743.281 363.292 743.344 363.188C743.406 363.062 743.531 362.958 743.719 362.875C743.906 362.771 744.146 362.708 744.438 362.688C744.729 362.646 745.115 362.625 745.594 362.625C746.052 362.625 746.427 362.646 746.719 362.688C747.031 362.708 747.271 362.771 747.438 362.875C747.604 362.958 747.719 363.062 747.781 363.188C747.865 363.292 747.906 363.427 747.906 363.594V367.312C749.49 365.542 751.062 364.25 752.625 363.438C754.208 362.604 755.802 362.188 757.406 362.188C759.281 362.188 760.854 362.51 762.125 363.156C763.417 363.781 764.458 364.625 765.25 365.688C766.042 366.75 766.604 368 766.938 369.438C767.292 370.854 767.469 372.562 767.469 374.562V391.719Z" fill="#EA580C"/>
<path d="M800.875 376.438C800.875 377.25 800.667 377.833 800.25 378.188C799.854 378.521 799.396 378.688 798.875 378.688H780.438C780.438 380.25 780.594 381.656 780.906 382.906C781.219 384.156 781.74 385.229 782.469 386.125C783.198 387.021 784.146 387.708 785.312 388.188C786.479 388.667 787.906 388.906 789.594 388.906C790.927 388.906 792.115 388.802 793.156 388.594C794.198 388.365 795.094 388.115 795.844 387.844C796.615 387.573 797.24 387.333 797.719 387.125C798.219 386.896 798.594 386.781 798.844 386.781C798.99 386.781 799.115 386.823 799.219 386.906C799.344 386.969 799.438 387.073 799.5 387.219C799.562 387.365 799.604 387.573 799.625 387.844C799.667 388.094 799.688 388.406 799.688 388.781C799.688 389.052 799.677 389.292 799.656 389.5C799.635 389.688 799.604 389.865 799.562 390.031C799.542 390.177 799.49 390.312 799.406 390.438C799.344 390.562 799.25 390.688 799.125 390.812C799.021 390.917 798.688 391.104 798.125 391.375C797.562 391.625 796.833 391.875 795.938 392.125C795.042 392.375 794 392.594 792.812 392.781C791.646 392.99 790.396 393.094 789.062 393.094C786.75 393.094 784.719 392.771 782.969 392.125C781.24 391.479 779.781 390.521 778.594 389.25C777.406 387.979 776.51 386.385 775.906 384.469C775.302 382.552 775 380.323 775 377.781C775 375.365 775.312 373.198 775.938 371.281C776.562 369.344 777.458 367.708 778.625 366.375C779.812 365.021 781.24 363.99 782.906 363.281C784.573 362.552 786.438 362.188 788.5 362.188C790.708 362.188 792.583 362.542 794.125 363.25C795.688 363.958 796.969 364.917 797.969 366.125C798.969 367.312 799.698 368.719 800.156 370.344C800.635 371.948 800.875 373.667 800.875 375.5V376.438ZM795.688 374.906C795.75 372.198 795.146 370.073 793.875 368.531C792.625 366.99 790.76 366.219 788.281 366.219C787.01 366.219 785.896 366.458 784.938 366.938C783.979 367.417 783.177 368.052 782.531 368.844C781.885 369.635 781.385 370.562 781.031 371.625C780.677 372.667 780.479 373.76 780.438 374.906H795.688Z" fill="#EA580C"/>
<path d="M828.969 387.438C828.969 387.792 828.958 388.104 828.938 388.375C828.917 388.625 828.875 388.844 828.812 389.031C828.771 389.198 828.708 389.354 828.625 389.5C828.562 389.625 828.396 389.823 828.125 390.094C827.875 390.344 827.438 390.667 826.812 391.062C826.188 391.438 825.479 391.781 824.688 392.094C823.917 392.385 823.073 392.625 822.156 392.812C821.24 393 820.292 393.094 819.312 393.094C817.292 393.094 815.5 392.76 813.938 392.094C812.375 391.427 811.062 390.458 810 389.188C808.958 387.896 808.156 386.323 807.594 384.469C807.052 382.594 806.781 380.438 806.781 378C806.781 375.229 807.115 372.854 807.781 370.875C808.469 368.875 809.396 367.24 810.562 365.969C811.75 364.698 813.135 363.76 814.719 363.156C816.323 362.531 818.052 362.219 819.906 362.219C820.802 362.219 821.667 362.302 822.5 362.469C823.354 362.635 824.135 362.854 824.844 363.125C825.552 363.396 826.177 363.708 826.719 364.062C827.281 364.417 827.688 364.719 827.938 364.969C828.188 365.219 828.354 365.417 828.438 365.562C828.542 365.708 828.625 365.885 828.688 366.094C828.75 366.281 828.792 366.5 828.812 366.75C828.833 367 828.844 367.312 828.844 367.688C828.844 368.5 828.75 369.073 828.562 369.406C828.375 369.719 828.146 369.875 827.875 369.875C827.562 369.875 827.198 369.708 826.781 369.375C826.385 369.021 825.875 368.635 825.25 368.219C824.625 367.802 823.865 367.427 822.969 367.094C822.094 366.74 821.052 366.562 819.844 366.562C817.365 366.562 815.458 367.521 814.125 369.438C812.812 371.333 812.156 374.094 812.156 377.719C812.156 379.531 812.323 381.125 812.656 382.5C813.01 383.854 813.521 384.99 814.188 385.906C814.854 386.823 815.667 387.51 816.625 387.969C817.604 388.406 818.719 388.625 819.969 388.625C821.156 388.625 822.198 388.438 823.094 388.062C823.99 387.688 824.76 387.281 825.406 386.844C826.073 386.385 826.625 385.979 827.062 385.625C827.521 385.25 827.875 385.062 828.125 385.062C828.271 385.062 828.396 385.104 828.5 385.188C828.604 385.271 828.688 385.417 828.75 385.625C828.833 385.812 828.885 386.062 828.906 386.375C828.948 386.667 828.969 387.021 828.969 387.438Z" fill="#EA580C"/>
<path d="M860.281 362.781C860.906 362.781 861.333 362.927 861.562 363.219C861.792 363.49 861.906 363.896 861.906 364.438V391.719C861.906 391.885 861.865 392.031 861.781 392.156C861.698 392.26 861.552 392.354 861.344 392.438C861.156 392.521 860.896 392.583 860.562 392.625C860.229 392.667 859.823 392.688 859.344 392.688C858.823 392.688 858.396 392.667 858.062 392.625C857.729 392.583 857.458 392.521 857.25 392.438C857.062 392.354 856.927 392.26 856.844 392.156C856.76 392.031 856.719 391.885 856.719 391.719V367.062H842.188V382.75C842.188 384.688 842.469 386.156 843.031 387.156C843.615 388.135 844.646 388.625 846.125 388.625C846.604 388.625 847.031 388.583 847.406 388.5C847.781 388.396 848.115 388.292 848.406 388.188C848.698 388.083 848.948 387.99 849.156 387.906C849.365 387.802 849.552 387.75 849.719 387.75C849.823 387.75 849.917 387.781 850 387.844C850.104 387.885 850.177 387.979 850.219 388.125C850.281 388.271 850.333 388.469 850.375 388.719C850.417 388.969 850.438 389.281 850.438 389.656C850.438 390.26 850.396 390.74 850.312 391.094C850.229 391.427 850.104 391.688 849.938 391.875C849.771 392.042 849.521 392.198 849.188 392.344C848.854 392.49 848.469 392.604 848.031 392.688C847.615 392.792 847.167 392.875 846.688 392.938C846.208 393 845.729 393.031 845.25 393.031C843.792 393.031 842.542 392.844 841.5 392.469C840.458 392.073 839.604 391.49 838.938 390.719C838.271 389.927 837.781 388.938 837.469 387.75C837.177 386.542 837.031 385.125 837.031 383.5V367.062H833.094C832.781 367.062 832.531 366.896 832.344 366.562C832.156 366.229 832.062 365.688 832.062 364.938C832.062 364.542 832.083 364.208 832.125 363.938C832.188 363.667 832.26 363.448 832.344 363.281C832.427 363.094 832.531 362.969 832.656 362.906C832.802 362.823 832.958 362.781 833.125 362.781H837.031V356.094C837.031 355.948 837.062 355.812 837.125 355.688C837.208 355.562 837.344 355.458 837.531 355.375C837.74 355.271 838.01 355.198 838.344 355.156C838.677 355.115 839.094 355.094 839.594 355.094C840.115 355.094 840.542 355.115 840.875 355.156C841.208 355.198 841.469 355.271 841.656 355.375C841.844 355.458 841.979 355.562 842.062 355.688C842.146 355.812 842.188 355.948 842.188 356.094V362.781H860.281ZM862.5 354.094C862.5 355.302 862.271 356.125 861.812 356.562C861.354 357 860.51 357.219 859.281 357.219C858.073 357.219 857.24 357.01 856.781 356.594C856.344 356.156 856.125 355.344 856.125 354.156C856.125 352.948 856.354 352.125 856.812 351.688C857.271 351.25 858.115 351.031 859.344 351.031C860.552 351.031 861.375 351.25 861.812 351.688C862.271 352.104 862.5 352.906 862.5 354.094Z" fill="#EA580C"/>
<path d="M895.719 391.719C895.719 391.885 895.677 392.031 895.594 392.156C895.51 392.26 895.375 392.354 895.188 392.438C895 392.521 894.74 392.583 894.406 392.625C894.073 392.667 893.656 392.688 893.156 392.688C892.635 392.688 892.208 392.667 891.875 392.625C891.542 392.583 891.281 392.521 891.094 392.438C890.906 392.354 890.771 392.26 890.688 392.156C890.604 392.031 890.562 391.885 890.562 391.719V375.25C890.562 373.646 890.438 372.354 890.188 371.375C889.938 370.396 889.573 369.552 889.094 368.844C888.615 368.135 887.99 367.594 887.219 367.219C886.469 366.844 885.594 366.656 884.594 366.656C883.302 366.656 882.01 367.115 880.719 368.031C879.427 368.948 878.073 370.292 876.656 372.062V391.719C876.656 391.885 876.615 392.031 876.531 392.156C876.448 392.26 876.312 392.354 876.125 392.438C875.938 392.521 875.677 392.583 875.344 392.625C875.01 392.667 874.583 392.688 874.062 392.688C873.562 392.688 873.146 392.667 872.812 392.625C872.479 392.583 872.208 392.521 872 392.438C871.812 392.354 871.677 392.26 871.594 392.156C871.531 392.031 871.5 391.885 871.5 391.719V363.594C871.5 363.427 871.531 363.292 871.594 363.188C871.656 363.062 871.781 362.958 871.969 362.875C872.156 362.771 872.396 362.708 872.688 362.688C872.979 362.646 873.365 362.625 873.844 362.625C874.302 362.625 874.677 362.646 874.969 362.688C875.281 362.708 875.521 362.771 875.688 362.875C875.854 362.958 875.969 363.062 876.031 363.188C876.115 363.292 876.156 363.427 876.156 363.594V367.312C877.74 365.542 879.312 364.25 880.875 363.438C882.458 362.604 884.052 362.188 885.656 362.188C887.531 362.188 889.104 362.51 890.375 363.156C891.667 363.781 892.708 364.625 893.5 365.688C894.292 366.75 894.854 368 895.188 369.438C895.542 370.854 895.719 372.562 895.719 374.562V391.719Z" fill="#EA580C"/>
<path d="M928.625 364.875C928.625 365.604 928.521 366.135 928.312 366.469C928.125 366.781 927.875 366.938 927.562 366.938H923.531C924.26 367.688 924.771 368.521 925.062 369.438C925.354 370.333 925.5 371.271 925.5 372.25C925.5 373.875 925.24 375.312 924.719 376.562C924.198 377.812 923.448 378.875 922.469 379.75C921.51 380.604 920.365 381.26 919.031 381.719C917.698 382.177 916.219 382.406 914.594 382.406C913.448 382.406 912.354 382.26 911.312 381.969C910.292 381.656 909.5 381.271 908.938 380.812C908.562 381.188 908.25 381.615 908 382.094C907.771 382.573 907.656 383.125 907.656 383.75C907.656 384.479 907.99 385.083 908.656 385.562C909.344 386.042 910.25 386.302 911.375 386.344L918.719 386.656C920.115 386.698 921.396 386.896 922.562 387.25C923.729 387.583 924.74 388.073 925.594 388.719C926.448 389.344 927.115 390.125 927.594 391.062C928.073 391.979 928.312 393.052 928.312 394.281C928.312 395.573 928.042 396.802 927.5 397.969C926.958 399.135 926.125 400.156 925 401.031C923.896 401.927 922.479 402.625 920.75 403.125C919.021 403.646 916.979 403.906 914.625 403.906C912.354 403.906 910.417 403.708 908.812 403.312C907.229 402.938 905.927 402.417 904.906 401.75C903.885 401.083 903.146 400.281 902.688 399.344C902.229 398.427 902 397.427 902 396.344C902 395.656 902.083 394.99 902.25 394.344C902.417 393.698 902.667 393.083 903 392.5C903.354 391.917 903.781 391.365 904.281 390.844C904.802 390.302 905.396 389.771 906.062 389.25C905.042 388.729 904.281 388.073 903.781 387.281C903.302 386.49 903.062 385.635 903.062 384.719C903.062 383.448 903.323 382.312 903.844 381.312C904.365 380.312 905.01 379.417 905.781 378.625C905.135 377.854 904.625 376.99 904.25 376.031C903.875 375.052 903.688 373.875 903.688 372.5C903.688 370.896 903.958 369.458 904.5 368.188C905.042 366.917 905.792 365.844 906.75 364.969C907.708 364.094 908.854 363.427 910.188 362.969C911.542 362.49 913.01 362.25 914.594 362.25C915.448 362.25 916.24 362.302 916.969 362.406C917.719 362.49 918.417 362.615 919.062 362.781H927.562C927.917 362.781 928.177 362.958 928.344 363.312C928.531 363.646 928.625 364.167 928.625 364.875ZM920.562 372.281C920.562 370.365 920.031 368.875 918.969 367.812C917.927 366.729 916.438 366.188 914.5 366.188C913.5 366.188 912.625 366.354 911.875 366.688C911.146 367.021 910.531 367.479 910.031 368.062C909.552 368.646 909.188 369.323 908.938 370.094C908.708 370.844 908.594 371.635 908.594 372.469C908.594 374.323 909.115 375.781 910.156 376.844C911.219 377.906 912.698 378.438 914.594 378.438C915.615 378.438 916.5 378.281 917.25 377.969C918 377.635 918.615 377.188 919.094 376.625C919.594 376.042 919.958 375.375 920.188 374.625C920.438 373.875 920.562 373.094 920.562 372.281ZM923.156 394.562C923.156 393.354 922.656 392.427 921.656 391.781C920.677 391.115 919.344 390.76 917.656 390.719L910.375 390.469C909.708 390.99 909.156 391.49 908.719 391.969C908.302 392.427 907.969 392.865 907.719 393.281C907.469 393.719 907.292 394.146 907.188 394.562C907.104 394.979 907.062 395.406 907.062 395.844C907.062 397.198 907.75 398.219 909.125 398.906C910.5 399.615 912.417 399.969 914.875 399.969C916.438 399.969 917.74 399.812 918.781 399.5C919.844 399.208 920.698 398.812 921.344 398.312C921.99 397.812 922.448 397.24 922.719 396.594C923.01 395.948 923.156 395.271 923.156 394.562Z" fill="#EA580C"/>
<path d="M994.312 391.688C994.312 391.854 994.271 392 994.188 392.125C994.104 392.25 993.958 392.354 993.75 392.438C993.542 392.5 993.271 392.552 992.938 392.594C992.625 392.656 992.208 392.688 991.688 392.688C991.208 392.688 990.792 392.656 990.438 392.594C990.104 392.552 989.833 392.5 989.625 392.438C989.438 392.354 989.302 392.25 989.219 392.125C989.135 392 989.094 391.854 989.094 391.688V356.469H989.031L974.625 391.844C974.562 391.99 974.469 392.115 974.344 392.219C974.24 392.323 974.073 392.417 973.844 392.5C973.635 392.562 973.375 392.604 973.062 392.625C972.771 392.667 972.417 392.688 972 392.688C971.562 392.688 971.188 392.667 970.875 392.625C970.562 392.583 970.302 392.531 970.094 392.469C969.885 392.385 969.719 392.292 969.594 392.188C969.49 392.083 969.417 391.969 969.375 391.844L955.594 356.469H955.562V391.688C955.562 391.854 955.521 392 955.438 392.125C955.354 392.25 955.208 392.354 955 392.438C954.792 392.5 954.521 392.552 954.188 392.594C953.854 392.656 953.427 392.688 952.906 392.688C952.406 392.688 951.99 392.656 951.656 392.594C951.323 392.552 951.052 392.5 950.844 392.438C950.656 392.354 950.521 392.25 950.438 392.125C950.375 392 950.344 391.854 950.344 391.688V354.5C950.344 353.625 950.573 353 951.031 352.625C951.49 352.25 952 352.062 952.562 352.062H955.812C956.479 352.062 957.062 352.125 957.562 352.25C958.062 352.375 958.5 352.573 958.875 352.844C959.25 353.115 959.562 353.458 959.812 353.875C960.062 354.292 960.281 354.781 960.469 355.344L972.188 384.625H972.344L984.531 355.438C984.76 354.812 985.01 354.281 985.281 353.844C985.552 353.406 985.844 353.062 986.156 352.812C986.49 352.542 986.854 352.354 987.25 352.25C987.646 352.125 988.104 352.062 988.625 352.062H992.031C992.344 352.062 992.635 352.115 992.906 352.219C993.198 352.302 993.438 352.448 993.625 352.656C993.833 352.844 994 353.094 994.125 353.406C994.25 353.698 994.312 354.062 994.312 354.5V391.688Z" fill="#EA580C"/>
<path d="M1009.66 391.719C1009.66 391.885 1009.61 392.031 1009.53 392.156C1009.45 392.26 1009.31 392.354 1009.12 392.438C1008.94 392.521 1008.68 392.583 1008.34 392.625C1008.01 392.667 1007.58 392.688 1007.06 392.688C1006.56 392.688 1006.15 392.667 1005.81 392.625C1005.48 392.583 1005.21 392.521 1005 392.438C1004.81 392.354 1004.68 392.26 1004.59 392.156C1004.53 392.031 1004.5 391.885 1004.5 391.719V363.594C1004.5 363.448 1004.53 363.312 1004.59 363.188C1004.68 363.062 1004.81 362.958 1005 362.875C1005.21 362.792 1005.48 362.729 1005.81 362.688C1006.15 362.646 1006.56 362.625 1007.06 362.625C1007.58 362.625 1008.01 362.646 1008.34 362.688C1008.68 362.729 1008.94 362.792 1009.12 362.875C1009.31 362.958 1009.45 363.062 1009.53 363.188C1009.61 363.312 1009.66 363.448 1009.66 363.594V391.719ZM1010.25 354.094C1010.25 355.302 1010.02 356.125 1009.56 356.562C1009.1 357 1008.26 357.219 1007.03 357.219C1005.82 357.219 1004.99 357.01 1004.53 356.594C1004.09 356.156 1003.88 355.344 1003.88 354.156C1003.88 352.948 1004.1 352.125 1004.56 351.688C1005.02 351.25 1005.86 351.031 1007.09 351.031C1008.3 351.031 1009.12 351.25 1009.56 351.688C1010.02 352.104 1010.25 352.906 1010.25 354.094Z" fill="#EA580C"/>
<path d="M1043.41 391.719C1043.41 391.885 1043.36 392.031 1043.28 392.156C1043.2 392.26 1043.06 392.354 1042.88 392.438C1042.69 392.521 1042.43 392.583 1042.09 392.625C1041.76 392.667 1041.34 392.688 1040.84 392.688C1040.32 392.688 1039.9 392.667 1039.56 392.625C1039.23 392.583 1038.97 392.521 1038.78 392.438C1038.59 392.354 1038.46 392.26 1038.38 392.156C1038.29 392.031 1038.25 391.885 1038.25 391.719V375.25C1038.25 373.646 1038.12 372.354 1037.88 371.375C1037.62 370.396 1037.26 369.552 1036.78 368.844C1036.3 368.135 1035.68 367.594 1034.91 367.219C1034.16 366.844 1033.28 366.656 1032.28 366.656C1030.99 366.656 1029.7 367.115 1028.41 368.031C1027.11 368.948 1025.76 370.292 1024.34 372.062V391.719C1024.34 391.885 1024.3 392.031 1024.22 392.156C1024.14 392.26 1024 392.354 1023.81 392.438C1023.62 392.521 1023.36 392.583 1023.03 392.625C1022.7 392.667 1022.27 392.688 1021.75 392.688C1021.25 392.688 1020.83 392.667 1020.5 392.625C1020.17 392.583 1019.9 392.521 1019.69 392.438C1019.5 392.354 1019.36 392.26 1019.28 392.156C1019.22 392.031 1019.19 391.885 1019.19 391.719V363.594C1019.19 363.427 1019.22 363.292 1019.28 363.188C1019.34 363.062 1019.47 362.958 1019.66 362.875C1019.84 362.771 1020.08 362.708 1020.38 362.688C1020.67 362.646 1021.05 362.625 1021.53 362.625C1021.99 362.625 1022.36 362.646 1022.66 362.688C1022.97 362.708 1023.21 362.771 1023.38 362.875C1023.54 362.958 1023.66 363.062 1023.72 363.188C1023.8 363.292 1023.84 363.427 1023.84 363.594V367.312C1025.43 365.542 1027 364.25 1028.56 363.438C1030.15 362.604 1031.74 362.188 1033.34 362.188C1035.22 362.188 1036.79 362.51 1038.06 363.156C1039.35 363.781 1040.4 364.625 1041.19 365.688C1041.98 366.75 1042.54 368 1042.88 369.438C1043.23 370.854 1043.41 372.562 1043.41 374.562V391.719Z" fill="#EA580C"/>
<path d="M1076.91 391.719C1076.91 391.885 1076.86 392.031 1076.78 392.156C1076.72 392.281 1076.59 392.385 1076.41 392.469C1076.24 392.531 1076.01 392.583 1075.72 392.625C1075.43 392.667 1075.07 392.688 1074.66 392.688C1074.22 392.688 1073.85 392.667 1073.56 392.625C1073.27 392.583 1073.03 392.531 1072.84 392.469C1072.66 392.385 1072.52 392.281 1072.44 392.156C1072.35 392.031 1072.31 391.885 1072.31 391.719V388C1070.83 389.604 1069.29 390.854 1067.69 391.75C1066.1 392.646 1064.36 393.094 1062.47 393.094C1060.41 393.094 1058.65 392.698 1057.19 391.906C1055.73 391.094 1054.54 390.01 1053.62 388.656C1052.73 387.281 1052.07 385.677 1051.66 383.844C1051.24 381.99 1051.03 380.042 1051.03 378C1051.03 375.583 1051.29 373.406 1051.81 371.469C1052.33 369.51 1053.1 367.844 1054.12 366.469C1055.15 365.094 1056.41 364.042 1057.91 363.312C1059.43 362.562 1061.18 362.188 1063.16 362.188C1064.8 362.188 1066.3 362.552 1067.66 363.281C1069.03 363.99 1070.39 365.042 1071.72 366.438V350.094C1071.72 349.948 1071.75 349.812 1071.81 349.688C1071.9 349.542 1072.04 349.438 1072.25 349.375C1072.46 349.292 1072.72 349.229 1073.03 349.188C1073.36 349.125 1073.78 349.094 1074.28 349.094C1074.8 349.094 1075.23 349.125 1075.56 349.188C1075.9 349.229 1076.16 349.292 1076.34 349.375C1076.53 349.438 1076.67 349.542 1076.75 349.688C1076.85 349.812 1076.91 349.948 1076.91 350.094V391.719ZM1071.72 371.938C1070.32 370.208 1068.97 368.896 1067.66 368C1066.36 367.083 1065.01 366.625 1063.59 366.625C1062.28 366.625 1061.17 366.938 1060.25 367.562C1059.33 368.188 1058.58 369.01 1058 370.031C1057.44 371.052 1057.02 372.208 1056.75 373.5C1056.5 374.792 1056.38 376.104 1056.38 377.438C1056.38 378.854 1056.48 380.24 1056.69 381.594C1056.92 382.948 1057.3 384.156 1057.84 385.219C1058.39 386.26 1059.1 387.104 1060 387.75C1060.9 388.375 1062.02 388.688 1063.38 388.688C1064.06 388.688 1064.72 388.594 1065.34 388.406C1065.99 388.219 1066.65 387.906 1067.31 387.469C1067.98 387.031 1068.68 386.469 1069.41 385.781C1070.14 385.073 1070.91 384.208 1071.72 383.188V371.938Z" fill="#EA580C"/>
<path d="M1104.09 384.062C1104.09 385.5 1103.82 386.781 1103.28 387.906C1102.76 389.031 1102.01 389.979 1101.03 390.75C1100.05 391.521 1098.89 392.104 1097.53 392.5C1096.18 392.896 1094.69 393.094 1093.06 393.094C1092.06 393.094 1091.1 393.01 1090.19 392.844C1089.29 392.698 1088.48 392.51 1087.75 392.281C1087.04 392.031 1086.44 391.781 1085.94 391.531C1085.44 391.26 1085.07 391.021 1084.84 390.812C1084.61 390.604 1084.45 390.312 1084.34 389.938C1084.24 389.562 1084.19 389.052 1084.19 388.406C1084.19 388.01 1084.21 387.677 1084.25 387.406C1084.29 387.135 1084.34 386.917 1084.41 386.75C1084.47 386.583 1084.55 386.469 1084.66 386.406C1084.78 386.323 1084.92 386.281 1085.06 386.281C1085.29 386.281 1085.62 386.427 1086.06 386.719C1086.52 386.99 1087.07 387.292 1087.72 387.625C1088.39 387.958 1089.17 388.271 1090.06 388.562C1090.96 388.833 1091.99 388.969 1093.16 388.969C1094.03 388.969 1094.82 388.875 1095.53 388.688C1096.24 388.5 1096.85 388.229 1097.38 387.875C1097.9 387.5 1098.29 387.031 1098.56 386.469C1098.85 385.906 1099 385.24 1099 384.469C1099 383.677 1098.79 383.01 1098.38 382.469C1097.98 381.927 1097.45 381.448 1096.78 381.031C1096.11 380.615 1095.36 380.25 1094.53 379.938C1093.7 379.604 1092.83 379.26 1091.94 378.906C1091.06 378.552 1090.2 378.156 1089.34 377.719C1088.51 377.26 1087.76 376.708 1087.09 376.062C1086.43 375.417 1085.89 374.646 1085.47 373.75C1085.07 372.854 1084.88 371.781 1084.88 370.531C1084.88 369.427 1085.08 368.375 1085.5 367.375C1085.94 366.354 1086.58 365.469 1087.44 364.719C1088.29 363.948 1089.35 363.333 1090.62 362.875C1091.92 362.417 1093.42 362.188 1095.12 362.188C1095.88 362.188 1096.62 362.25 1097.38 362.375C1098.12 362.5 1098.8 362.656 1099.41 362.844C1100.01 363.031 1100.52 363.24 1100.94 363.469C1101.38 363.677 1101.7 363.865 1101.91 364.031C1102.14 364.198 1102.28 364.344 1102.34 364.469C1102.43 364.594 1102.48 364.74 1102.5 364.906C1102.54 365.052 1102.57 365.24 1102.59 365.469C1102.64 365.698 1102.66 365.979 1102.66 366.312C1102.66 366.667 1102.64 366.979 1102.59 367.25C1102.57 367.5 1102.52 367.708 1102.44 367.875C1102.38 368.042 1102.29 368.167 1102.19 368.25C1102.08 368.312 1101.97 368.344 1101.84 368.344C1101.66 368.344 1101.39 368.229 1101.03 368C1100.68 367.771 1100.22 367.531 1099.66 367.281C1099.09 367.01 1098.43 366.76 1097.66 366.531C1096.91 366.302 1096.04 366.188 1095.06 366.188C1094.19 366.188 1093.42 366.292 1092.75 366.5C1092.08 366.688 1091.53 366.969 1091.09 367.344C1090.68 367.698 1090.35 368.125 1090.12 368.625C1089.92 369.125 1089.81 369.667 1089.81 370.25C1089.81 371.062 1090.02 371.75 1090.44 372.312C1090.85 372.854 1091.4 373.333 1092.06 373.75C1092.73 374.167 1093.49 374.542 1094.34 374.875C1095.2 375.208 1096.06 375.552 1096.94 375.906C1097.83 376.26 1098.71 376.656 1099.56 377.094C1100.44 377.531 1101.21 378.062 1101.88 378.688C1102.54 379.312 1103.07 380.062 1103.47 380.938C1103.89 381.812 1104.09 382.854 1104.09 384.062Z" fill="#EA580C"/>
<path d="M1118.31 388.031C1118.31 388.677 1118.28 389.271 1118.22 389.812C1118.16 390.354 1118.05 390.865 1117.91 391.344C1117.76 391.823 1117.56 392.292 1117.31 392.75C1117.08 393.229 1116.79 393.729 1116.44 394.25L1112.16 400.688C1112.05 400.833 1111.93 400.958 1111.78 401.062C1111.66 401.167 1111.49 401.26 1111.28 401.344C1111.09 401.427 1110.86 401.479 1110.59 401.5C1110.34 401.542 1110.02 401.562 1109.62 401.562C1109.27 401.562 1108.97 401.542 1108.72 401.5C1108.49 401.479 1108.32 401.427 1108.22 401.344C1108.11 401.281 1108.05 401.188 1108.03 401.062C1108.03 400.938 1108.07 400.792 1108.16 400.625L1112.31 392.031V388.031C1112.31 387.469 1112.36 387.021 1112.47 386.688C1112.59 386.354 1112.78 386.104 1113.03 385.938C1113.28 385.771 1113.59 385.656 1113.97 385.594C1114.34 385.531 1114.8 385.5 1115.34 385.5C1115.86 385.5 1116.31 385.531 1116.69 385.594C1117.06 385.656 1117.36 385.771 1117.59 385.938C1117.84 386.104 1118.02 386.354 1118.12 386.688C1118.25 387.021 1118.31 387.469 1118.31 388.031Z" fill="black"/>
<path d="M1169.25 380.906C1169.25 382.177 1169.08 383.354 1168.75 384.438C1168.44 385.5 1167.99 386.458 1167.41 387.312C1166.82 388.167 1166.11 388.917 1165.28 389.562C1164.47 390.208 1163.54 390.75 1162.5 391.188C1161.48 391.625 1160.38 391.958 1159.19 392.188C1158.02 392.396 1156.68 392.5 1155.16 392.5H1144.59C1144.11 392.5 1143.66 392.344 1143.22 392.031C1142.8 391.698 1142.59 391.125 1142.59 390.312V354.25C1142.59 353.438 1142.8 352.875 1143.22 352.562C1143.66 352.229 1144.11 352.062 1144.59 352.062H1153.78C1156.2 352.062 1158.18 352.292 1159.72 352.75C1161.26 353.208 1162.54 353.875 1163.56 354.75C1164.6 355.625 1165.39 356.698 1165.91 357.969C1166.43 359.24 1166.69 360.677 1166.69 362.281C1166.69 363.24 1166.57 364.156 1166.34 365.031C1166.11 365.906 1165.77 366.719 1165.31 367.469C1164.88 368.198 1164.31 368.854 1163.62 369.438C1162.96 370.021 1162.19 370.5 1161.31 370.875C1162.42 371.083 1163.45 371.469 1164.41 372.031C1165.36 372.573 1166.2 373.271 1166.91 374.125C1167.64 374.979 1168.21 375.979 1168.62 377.125C1169.04 378.271 1169.25 379.531 1169.25 380.906ZM1161.16 362.812C1161.16 361.833 1161.02 360.948 1160.75 360.156C1160.48 359.365 1160.05 358.698 1159.47 358.156C1158.89 357.594 1158.12 357.167 1157.19 356.875C1156.25 356.583 1155.01 356.438 1153.47 356.438H1147.91V369.531H1154.03C1155.43 369.531 1156.55 369.354 1157.41 369C1158.26 368.625 1158.97 368.135 1159.53 367.531C1160.09 366.906 1160.5 366.188 1160.75 365.375C1161.02 364.542 1161.16 363.688 1161.16 362.812ZM1163.59 381.219C1163.59 380.01 1163.4 378.948 1163 378.031C1162.62 377.115 1162.06 376.344 1161.31 375.719C1160.58 375.094 1159.66 374.625 1158.53 374.312C1157.43 373.979 1156.03 373.812 1154.34 373.812H1147.91V388.062H1155.72C1156.95 388.062 1158.02 387.917 1158.94 387.625C1159.85 387.333 1160.66 386.906 1161.34 386.344C1162.05 385.76 1162.6 385.042 1163 384.188C1163.4 383.333 1163.59 382.344 1163.59 381.219Z" fill="black"/>
<path d="M1200.91 391.719C1200.91 391.885 1200.86 392.031 1200.78 392.156C1200.72 392.26 1200.59 392.354 1200.41 392.438C1200.22 392.521 1199.97 392.583 1199.66 392.625C1199.36 392.667 1199 392.688 1198.56 392.688C1198.08 392.688 1197.69 392.667 1197.38 392.625C1197.08 392.583 1196.84 392.521 1196.66 392.438C1196.49 392.354 1196.38 392.26 1196.31 392.156C1196.25 392.031 1196.22 391.885 1196.22 391.719V388C1194.61 389.771 1193.03 391.062 1191.47 391.875C1189.91 392.688 1188.32 393.094 1186.72 393.094C1184.84 393.094 1183.26 392.781 1181.97 392.156C1180.7 391.531 1179.67 390.688 1178.88 389.625C1178.08 388.542 1177.51 387.292 1177.16 385.875C1176.82 384.438 1176.66 382.698 1176.66 380.656V363.594C1176.66 363.427 1176.69 363.292 1176.75 363.188C1176.83 363.062 1176.98 362.958 1177.19 362.875C1177.4 362.771 1177.67 362.708 1178 362.688C1178.33 362.646 1178.75 362.625 1179.25 362.625C1179.75 362.625 1180.17 362.646 1180.5 362.688C1180.83 362.708 1181.09 362.771 1181.28 362.875C1181.49 362.958 1181.64 363.062 1181.72 363.188C1181.8 363.292 1181.84 363.427 1181.84 363.594V379.969C1181.84 381.615 1181.96 382.938 1182.19 383.938C1182.44 384.917 1182.8 385.76 1183.28 386.469C1183.78 387.156 1184.41 387.698 1185.16 388.094C1185.91 388.469 1186.78 388.656 1187.78 388.656C1189.07 388.656 1190.35 388.198 1191.62 387.281C1192.92 386.365 1194.28 385.021 1195.72 383.25V363.594C1195.72 363.427 1195.75 363.292 1195.81 363.188C1195.9 363.062 1196.04 362.958 1196.25 362.875C1196.46 362.771 1196.72 362.708 1197.03 362.688C1197.36 362.646 1197.79 362.625 1198.31 362.625C1198.81 362.625 1199.23 362.646 1199.56 362.688C1199.9 362.708 1200.16 362.771 1200.34 362.875C1200.53 362.958 1200.67 363.062 1200.75 363.188C1200.85 363.292 1200.91 363.427 1200.91 363.594V391.719Z" fill="black"/>
<path d="M1215.59 391.719C1215.59 391.885 1215.55 392.031 1215.47 392.156C1215.39 392.26 1215.25 392.354 1215.06 392.438C1214.88 392.521 1214.61 392.583 1214.28 392.625C1213.95 392.667 1213.52 392.688 1213 392.688C1212.5 392.688 1212.08 392.667 1211.75 392.625C1211.42 392.583 1211.15 392.521 1210.94 392.438C1210.75 392.354 1210.61 392.26 1210.53 392.156C1210.47 392.031 1210.44 391.885 1210.44 391.719V363.594C1210.44 363.448 1210.47 363.312 1210.53 363.188C1210.61 363.062 1210.75 362.958 1210.94 362.875C1211.15 362.792 1211.42 362.729 1211.75 362.688C1212.08 362.646 1212.5 362.625 1213 362.625C1213.52 362.625 1213.95 362.646 1214.28 362.688C1214.61 362.729 1214.88 362.792 1215.06 362.875C1215.25 362.958 1215.39 363.062 1215.47 363.188C1215.55 363.312 1215.59 363.448 1215.59 363.594V391.719ZM1216.19 354.094C1216.19 355.302 1215.96 356.125 1215.5 356.562C1215.04 357 1214.2 357.219 1212.97 357.219C1211.76 357.219 1210.93 357.01 1210.47 356.594C1210.03 356.156 1209.81 355.344 1209.81 354.156C1209.81 352.948 1210.04 352.125 1210.5 351.688C1210.96 351.25 1211.8 351.031 1213.03 351.031C1214.24 351.031 1215.06 351.25 1215.5 351.688C1215.96 352.104 1216.19 352.906 1216.19 354.094Z" fill="black"/>
<path d="M1230.28 391.719C1230.28 391.885 1230.24 392.031 1230.16 392.156C1230.07 392.26 1229.94 392.354 1229.75 392.438C1229.56 392.521 1229.3 392.583 1228.97 392.625C1228.64 392.667 1228.21 392.688 1227.69 392.688C1227.19 392.688 1226.77 392.667 1226.44 392.625C1226.1 392.583 1225.83 392.521 1225.62 392.438C1225.44 392.354 1225.3 392.26 1225.22 392.156C1225.16 392.031 1225.12 391.885 1225.12 391.719V349.969C1225.12 349.802 1225.16 349.656 1225.22 349.531C1225.3 349.406 1225.44 349.302 1225.62 349.219C1225.83 349.135 1226.1 349.073 1226.44 349.031C1226.77 348.99 1227.19 348.969 1227.69 348.969C1228.21 348.969 1228.64 348.99 1228.97 349.031C1229.3 349.073 1229.56 349.135 1229.75 349.219C1229.94 349.302 1230.07 349.406 1230.16 349.531C1230.24 349.656 1230.28 349.802 1230.28 349.969V391.719Z" fill="black"/>
<path d="M1263.91 391.719C1263.91 391.885 1263.86 392.031 1263.78 392.156C1263.72 392.281 1263.59 392.385 1263.41 392.469C1263.24 392.531 1263.01 392.583 1262.72 392.625C1262.43 392.667 1262.07 392.688 1261.66 392.688C1261.22 392.688 1260.85 392.667 1260.56 392.625C1260.27 392.583 1260.03 392.531 1259.84 392.469C1259.66 392.385 1259.52 392.281 1259.44 392.156C1259.35 392.031 1259.31 391.885 1259.31 391.719V388C1257.83 389.604 1256.29 390.854 1254.69 391.75C1253.1 392.646 1251.36 393.094 1249.47 393.094C1247.41 393.094 1245.65 392.698 1244.19 391.906C1242.73 391.094 1241.54 390.01 1240.62 388.656C1239.73 387.281 1239.07 385.677 1238.66 383.844C1238.24 381.99 1238.03 380.042 1238.03 378C1238.03 375.583 1238.29 373.406 1238.81 371.469C1239.33 369.51 1240.1 367.844 1241.12 366.469C1242.15 365.094 1243.41 364.042 1244.91 363.312C1246.43 362.562 1248.18 362.188 1250.16 362.188C1251.8 362.188 1253.3 362.552 1254.66 363.281C1256.03 363.99 1257.39 365.042 1258.72 366.438V350.094C1258.72 349.948 1258.75 349.812 1258.81 349.688C1258.9 349.542 1259.04 349.438 1259.25 349.375C1259.46 349.292 1259.72 349.229 1260.03 349.188C1260.36 349.125 1260.78 349.094 1261.28 349.094C1261.8 349.094 1262.23 349.125 1262.56 349.188C1262.9 349.229 1263.16 349.292 1263.34 349.375C1263.53 349.438 1263.67 349.542 1263.75 349.688C1263.85 349.812 1263.91 349.948 1263.91 350.094V391.719ZM1258.72 371.938C1257.32 370.208 1255.97 368.896 1254.66 368C1253.36 367.083 1252.01 366.625 1250.59 366.625C1249.28 366.625 1248.17 366.938 1247.25 367.562C1246.33 368.188 1245.58 369.01 1245 370.031C1244.44 371.052 1244.02 372.208 1243.75 373.5C1243.5 374.792 1243.38 376.104 1243.38 377.438C1243.38 378.854 1243.48 380.24 1243.69 381.594C1243.92 382.948 1244.3 384.156 1244.84 385.219C1245.39 386.26 1246.1 387.104 1247 387.75C1247.9 388.375 1249.02 388.688 1250.38 388.688C1251.06 388.688 1251.72 388.594 1252.34 388.406C1252.99 388.219 1253.65 387.906 1254.31 387.469C1254.98 387.031 1255.68 386.469 1256.41 385.781C1257.14 385.073 1257.91 384.208 1258.72 383.188V371.938Z" fill="black"/>
<path d="M1278.59 391.719C1278.59 391.885 1278.55 392.031 1278.47 392.156C1278.39 392.26 1278.25 392.354 1278.06 392.438C1277.88 392.521 1277.61 392.583 1277.28 392.625C1276.95 392.667 1276.52 392.688 1276 392.688C1275.5 392.688 1275.08 392.667 1274.75 392.625C1274.42 392.583 1274.15 392.521 1273.94 392.438C1273.75 392.354 1273.61 392.26 1273.53 392.156C1273.47 392.031 1273.44 391.885 1273.44 391.719V363.594C1273.44 363.448 1273.47 363.312 1273.53 363.188C1273.61 363.062 1273.75 362.958 1273.94 362.875C1274.15 362.792 1274.42 362.729 1274.75 362.688C1275.08 362.646 1275.5 362.625 1276 362.625C1276.52 362.625 1276.95 362.646 1277.28 362.688C1277.61 362.729 1277.88 362.792 1278.06 362.875C1278.25 362.958 1278.39 363.062 1278.47 363.188C1278.55 363.312 1278.59 363.448 1278.59 363.594V391.719ZM1279.19 354.094C1279.19 355.302 1278.96 356.125 1278.5 356.562C1278.04 357 1277.2 357.219 1275.97 357.219C1274.76 357.219 1273.93 357.01 1273.47 356.594C1273.03 356.156 1272.81 355.344 1272.81 354.156C1272.81 352.948 1273.04 352.125 1273.5 351.688C1273.96 351.25 1274.8 351.031 1276.03 351.031C1277.24 351.031 1278.06 351.25 1278.5 351.688C1278.96 352.104 1279.19 352.906 1279.19 354.094Z" fill="black"/>
<path d="M1312.34 391.719C1312.34 391.885 1312.3 392.031 1312.22 392.156C1312.14 392.26 1312 392.354 1311.81 392.438C1311.62 392.521 1311.36 392.583 1311.03 392.625C1310.7 392.667 1310.28 392.688 1309.78 392.688C1309.26 392.688 1308.83 392.667 1308.5 392.625C1308.17 392.583 1307.91 392.521 1307.72 392.438C1307.53 392.354 1307.4 392.26 1307.31 392.156C1307.23 392.031 1307.19 391.885 1307.19 391.719V375.25C1307.19 373.646 1307.06 372.354 1306.81 371.375C1306.56 370.396 1306.2 369.552 1305.72 368.844C1305.24 368.135 1304.61 367.594 1303.84 367.219C1303.09 366.844 1302.22 366.656 1301.22 366.656C1299.93 366.656 1298.64 367.115 1297.34 368.031C1296.05 368.948 1294.7 370.292 1293.28 372.062V391.719C1293.28 391.885 1293.24 392.031 1293.16 392.156C1293.07 392.26 1292.94 392.354 1292.75 392.438C1292.56 392.521 1292.3 392.583 1291.97 392.625C1291.64 392.667 1291.21 392.688 1290.69 392.688C1290.19 392.688 1289.77 392.667 1289.44 392.625C1289.1 392.583 1288.83 392.521 1288.62 392.438C1288.44 392.354 1288.3 392.26 1288.22 392.156C1288.16 392.031 1288.12 391.885 1288.12 391.719V363.594C1288.12 363.427 1288.16 363.292 1288.22 363.188C1288.28 363.062 1288.41 362.958 1288.59 362.875C1288.78 362.771 1289.02 362.708 1289.31 362.688C1289.6 362.646 1289.99 362.625 1290.47 362.625C1290.93 362.625 1291.3 362.646 1291.59 362.688C1291.91 362.708 1292.15 362.771 1292.31 362.875C1292.48 362.958 1292.59 363.062 1292.66 363.188C1292.74 363.292 1292.78 363.427 1292.78 363.594V367.312C1294.36 365.542 1295.94 364.25 1297.5 363.438C1299.08 362.604 1300.68 362.188 1302.28 362.188C1304.16 362.188 1305.73 362.51 1307 363.156C1308.29 363.781 1309.33 364.625 1310.12 365.688C1310.92 366.75 1311.48 368 1311.81 369.438C1312.17 370.854 1312.34 372.562 1312.34 374.562V391.719Z" fill="black"/>
<path d="M1345.25 364.875C1345.25 365.604 1345.15 366.135 1344.94 366.469C1344.75 366.781 1344.5 366.938 1344.19 366.938H1340.16C1340.89 367.688 1341.4 368.521 1341.69 369.438C1341.98 370.333 1342.12 371.271 1342.12 372.25C1342.12 373.875 1341.86 375.312 1341.34 376.562C1340.82 377.812 1340.07 378.875 1339.09 379.75C1338.14 380.604 1336.99 381.26 1335.66 381.719C1334.32 382.177 1332.84 382.406 1331.22 382.406C1330.07 382.406 1328.98 382.26 1327.94 381.969C1326.92 381.656 1326.12 381.271 1325.56 380.812C1325.19 381.188 1324.88 381.615 1324.62 382.094C1324.4 382.573 1324.28 383.125 1324.28 383.75C1324.28 384.479 1324.61 385.083 1325.28 385.562C1325.97 386.042 1326.88 386.302 1328 386.344L1335.34 386.656C1336.74 386.698 1338.02 386.896 1339.19 387.25C1340.35 387.583 1341.36 388.073 1342.22 388.719C1343.07 389.344 1343.74 390.125 1344.22 391.062C1344.7 391.979 1344.94 393.052 1344.94 394.281C1344.94 395.573 1344.67 396.802 1344.12 397.969C1343.58 399.135 1342.75 400.156 1341.62 401.031C1340.52 401.927 1339.1 402.625 1337.38 403.125C1335.65 403.646 1333.6 403.906 1331.25 403.906C1328.98 403.906 1327.04 403.708 1325.44 403.312C1323.85 402.938 1322.55 402.417 1321.53 401.75C1320.51 401.083 1319.77 400.281 1319.31 399.344C1318.85 398.427 1318.62 397.427 1318.62 396.344C1318.62 395.656 1318.71 394.99 1318.88 394.344C1319.04 393.698 1319.29 393.083 1319.62 392.5C1319.98 391.917 1320.41 391.365 1320.91 390.844C1321.43 390.302 1322.02 389.771 1322.69 389.25C1321.67 388.729 1320.91 388.073 1320.41 387.281C1319.93 386.49 1319.69 385.635 1319.69 384.719C1319.69 383.448 1319.95 382.312 1320.47 381.312C1320.99 380.312 1321.64 379.417 1322.41 378.625C1321.76 377.854 1321.25 376.99 1320.88 376.031C1320.5 375.052 1320.31 373.875 1320.31 372.5C1320.31 370.896 1320.58 369.458 1321.12 368.188C1321.67 366.917 1322.42 365.844 1323.38 364.969C1324.33 364.094 1325.48 363.427 1326.81 362.969C1328.17 362.49 1329.64 362.25 1331.22 362.25C1332.07 362.25 1332.86 362.302 1333.59 362.406C1334.34 362.49 1335.04 362.615 1335.69 362.781H1344.19C1344.54 362.781 1344.8 362.958 1344.97 363.312C1345.16 363.646 1345.25 364.167 1345.25 364.875ZM1337.19 372.281C1337.19 370.365 1336.66 368.875 1335.59 367.812C1334.55 366.729 1333.06 366.188 1331.12 366.188C1330.12 366.188 1329.25 366.354 1328.5 366.688C1327.77 367.021 1327.16 367.479 1326.66 368.062C1326.18 368.646 1325.81 369.323 1325.56 370.094C1325.33 370.844 1325.22 371.635 1325.22 372.469C1325.22 374.323 1325.74 375.781 1326.78 376.844C1327.84 377.906 1329.32 378.438 1331.22 378.438C1332.24 378.438 1333.12 378.281 1333.88 377.969C1334.62 377.635 1335.24 377.188 1335.72 376.625C1336.22 376.042 1336.58 375.375 1336.81 374.625C1337.06 373.875 1337.19 373.094 1337.19 372.281ZM1339.78 394.562C1339.78 393.354 1339.28 392.427 1338.28 391.781C1337.3 391.115 1335.97 390.76 1334.28 390.719L1327 390.469C1326.33 390.99 1325.78 391.49 1325.34 391.969C1324.93 392.427 1324.59 392.865 1324.34 393.281C1324.09 393.719 1323.92 394.146 1323.81 394.562C1323.73 394.979 1323.69 395.406 1323.69 395.844C1323.69 397.198 1324.38 398.219 1325.75 398.906C1327.12 399.615 1329.04 399.969 1331.5 399.969C1333.06 399.969 1334.36 399.812 1335.41 399.5C1336.47 399.208 1337.32 398.812 1337.97 398.312C1338.61 397.812 1339.07 397.24 1339.34 396.594C1339.64 395.948 1339.78 395.271 1339.78 394.562Z" fill="black"/>
<path d="M1393.62 380.906C1393.62 382.177 1393.46 383.354 1393.12 384.438C1392.81 385.5 1392.36 386.458 1391.78 387.312C1391.2 388.167 1390.49 388.917 1389.66 389.562C1388.84 390.208 1387.92 390.75 1386.88 391.188C1385.85 391.625 1384.75 391.958 1383.56 392.188C1382.4 392.396 1381.05 392.5 1379.53 392.5H1368.97C1368.49 392.5 1368.03 392.344 1367.59 392.031C1367.18 391.698 1366.97 391.125 1366.97 390.312V354.25C1366.97 353.438 1367.18 352.875 1367.59 352.562C1368.03 352.229 1368.49 352.062 1368.97 352.062H1378.16C1380.57 352.062 1382.55 352.292 1384.09 352.75C1385.64 353.208 1386.92 353.875 1387.94 354.75C1388.98 355.625 1389.76 356.698 1390.28 357.969C1390.8 359.24 1391.06 360.677 1391.06 362.281C1391.06 363.24 1390.95 364.156 1390.72 365.031C1390.49 365.906 1390.15 366.719 1389.69 367.469C1389.25 368.198 1388.69 368.854 1388 369.438C1387.33 370.021 1386.56 370.5 1385.69 370.875C1386.79 371.083 1387.82 371.469 1388.78 372.031C1389.74 372.573 1390.57 373.271 1391.28 374.125C1392.01 374.979 1392.58 375.979 1393 377.125C1393.42 378.271 1393.62 379.531 1393.62 380.906ZM1385.53 362.812C1385.53 361.833 1385.4 360.948 1385.12 360.156C1384.85 359.365 1384.43 358.698 1383.84 358.156C1383.26 357.594 1382.5 357.167 1381.56 356.875C1380.62 356.583 1379.39 356.438 1377.84 356.438H1372.28V369.531H1378.41C1379.8 369.531 1380.93 369.354 1381.78 369C1382.64 368.625 1383.34 368.135 1383.91 367.531C1384.47 366.906 1384.88 366.188 1385.12 365.375C1385.4 364.542 1385.53 363.688 1385.53 362.812ZM1387.97 381.219C1387.97 380.01 1387.77 378.948 1387.38 378.031C1387 377.115 1386.44 376.344 1385.69 375.719C1384.96 375.094 1384.03 374.625 1382.91 374.312C1381.8 373.979 1380.41 373.812 1378.72 373.812H1372.28V388.062H1380.09C1381.32 388.062 1382.4 387.917 1383.31 387.625C1384.23 387.333 1385.03 386.906 1385.72 386.344C1386.43 385.76 1386.98 385.042 1387.38 384.188C1387.77 383.333 1387.97 382.344 1387.97 381.219Z" fill="black"/>
<path d="M1417.62 365.438C1417.62 365.896 1417.61 366.281 1417.59 366.594C1417.57 366.906 1417.53 367.156 1417.47 367.344C1417.41 367.51 1417.32 367.646 1417.22 367.75C1417.14 367.833 1417.01 367.875 1416.84 367.875C1416.68 367.875 1416.47 367.833 1416.22 367.75C1415.99 367.646 1415.72 367.552 1415.41 367.469C1415.11 367.365 1414.78 367.271 1414.41 367.188C1414.03 367.104 1413.62 367.062 1413.19 367.062C1412.67 367.062 1412.16 367.167 1411.66 367.375C1411.16 367.583 1410.62 367.927 1410.06 368.406C1409.52 368.885 1408.95 369.521 1408.34 370.312C1407.74 371.104 1407.07 372.073 1406.34 373.219V391.719C1406.34 391.885 1406.3 392.031 1406.22 392.156C1406.14 392.26 1406 392.354 1405.81 392.438C1405.62 392.521 1405.36 392.583 1405.03 392.625C1404.7 392.667 1404.27 392.688 1403.75 392.688C1403.25 392.688 1402.83 392.667 1402.5 392.625C1402.17 392.583 1401.9 392.521 1401.69 392.438C1401.5 392.354 1401.36 392.26 1401.28 392.156C1401.22 392.031 1401.19 391.885 1401.19 391.719V363.594C1401.19 363.427 1401.22 363.292 1401.28 363.188C1401.34 363.062 1401.47 362.958 1401.66 362.875C1401.84 362.771 1402.08 362.708 1402.38 362.688C1402.67 362.646 1403.05 362.625 1403.53 362.625C1403.99 362.625 1404.36 362.646 1404.66 362.688C1404.97 362.708 1405.21 362.771 1405.38 362.875C1405.54 362.958 1405.66 363.062 1405.72 363.188C1405.8 363.292 1405.84 363.427 1405.84 363.594V367.688C1406.61 366.562 1407.33 365.646 1408 364.938C1408.69 364.229 1409.33 363.677 1409.94 363.281C1410.54 362.865 1411.14 362.583 1411.72 362.438C1412.32 362.271 1412.93 362.188 1413.53 362.188C1413.8 362.188 1414.1 362.208 1414.44 362.25C1414.79 362.271 1415.16 362.323 1415.53 362.406C1415.91 362.49 1416.24 362.583 1416.53 362.688C1416.84 362.792 1417.06 362.896 1417.19 363C1417.31 363.104 1417.4 363.208 1417.44 363.312C1417.48 363.396 1417.51 363.51 1417.53 363.656C1417.57 363.802 1417.59 364.021 1417.59 364.312C1417.61 364.583 1417.62 364.958 1417.62 365.438Z" fill="black"/>
<path d="M1428.66 391.719C1428.66 391.885 1428.61 392.031 1428.53 392.156C1428.45 392.26 1428.31 392.354 1428.12 392.438C1427.94 392.521 1427.68 392.583 1427.34 392.625C1427.01 392.667 1426.58 392.688 1426.06 392.688C1425.56 392.688 1425.15 392.667 1424.81 392.625C1424.48 392.583 1424.21 392.521 1424 392.438C1423.81 392.354 1423.68 392.26 1423.59 392.156C1423.53 392.031 1423.5 391.885 1423.5 391.719V363.594C1423.5 363.448 1423.53 363.312 1423.59 363.188C1423.68 363.062 1423.81 362.958 1424 362.875C1424.21 362.792 1424.48 362.729 1424.81 362.688C1425.15 362.646 1425.56 362.625 1426.06 362.625C1426.58 362.625 1427.01 362.646 1427.34 362.688C1427.68 362.729 1427.94 362.792 1428.12 362.875C1428.31 362.958 1428.45 363.062 1428.53 363.188C1428.61 363.312 1428.66 363.448 1428.66 363.594V391.719ZM1429.25 354.094C1429.25 355.302 1429.02 356.125 1428.56 356.562C1428.1 357 1427.26 357.219 1426.03 357.219C1424.82 357.219 1423.99 357.01 1423.53 356.594C1423.09 356.156 1422.88 355.344 1422.88 354.156C1422.88 352.948 1423.1 352.125 1423.56 351.688C1424.02 351.25 1424.86 351.031 1426.09 351.031C1427.3 351.031 1428.12 351.25 1428.56 351.688C1429.02 352.104 1429.25 352.906 1429.25 354.094Z" fill="black"/>
<path d="M1462.28 391.719C1462.28 391.885 1462.24 392.031 1462.16 392.156C1462.09 392.281 1461.97 392.385 1461.78 392.469C1461.61 392.531 1461.39 392.583 1461.09 392.625C1460.8 392.667 1460.45 392.688 1460.03 392.688C1459.59 392.688 1459.23 392.667 1458.94 392.625C1458.65 392.583 1458.41 392.531 1458.22 392.469C1458.03 392.385 1457.9 392.281 1457.81 392.156C1457.73 392.031 1457.69 391.885 1457.69 391.719V388C1456.21 389.604 1454.67 390.854 1453.06 391.75C1451.48 392.646 1449.74 393.094 1447.84 393.094C1445.78 393.094 1444.02 392.698 1442.56 391.906C1441.1 391.094 1439.92 390.01 1439 388.656C1438.1 387.281 1437.45 385.677 1437.03 383.844C1436.61 381.99 1436.41 380.042 1436.41 378C1436.41 375.583 1436.67 373.406 1437.19 371.469C1437.71 369.51 1438.48 367.844 1439.5 366.469C1440.52 365.094 1441.78 364.042 1443.28 363.312C1444.8 362.562 1446.55 362.188 1448.53 362.188C1450.18 362.188 1451.68 362.552 1453.03 363.281C1454.41 363.99 1455.76 365.042 1457.09 366.438V350.094C1457.09 349.948 1457.12 349.812 1457.19 349.688C1457.27 349.542 1457.42 349.438 1457.62 349.375C1457.83 349.292 1458.09 349.229 1458.41 349.188C1458.74 349.125 1459.16 349.094 1459.66 349.094C1460.18 349.094 1460.6 349.125 1460.94 349.188C1461.27 349.229 1461.53 349.292 1461.72 349.375C1461.91 349.438 1462.04 349.542 1462.12 349.688C1462.23 349.812 1462.28 349.948 1462.28 350.094V391.719ZM1457.09 371.938C1455.7 370.208 1454.34 368.896 1453.03 368C1451.74 367.083 1450.39 366.625 1448.97 366.625C1447.66 366.625 1446.54 366.938 1445.62 367.562C1444.71 368.188 1443.96 369.01 1443.38 370.031C1442.81 371.052 1442.4 372.208 1442.12 373.5C1441.88 374.792 1441.75 376.104 1441.75 377.438C1441.75 378.854 1441.85 380.24 1442.06 381.594C1442.29 382.948 1442.68 384.156 1443.22 385.219C1443.76 386.26 1444.48 387.104 1445.38 387.75C1446.27 388.375 1447.4 388.688 1448.75 388.688C1449.44 388.688 1450.09 388.594 1450.72 388.406C1451.36 388.219 1452.02 387.906 1452.69 387.469C1453.35 387.031 1454.05 386.469 1454.78 385.781C1455.51 385.073 1456.28 384.208 1457.09 383.188V371.938Z" fill="black"/>
<path d="M1495.31 364.875C1495.31 365.604 1495.21 366.135 1495 366.469C1494.81 366.781 1494.56 366.938 1494.25 366.938H1490.22C1490.95 367.688 1491.46 368.521 1491.75 369.438C1492.04 370.333 1492.19 371.271 1492.19 372.25C1492.19 373.875 1491.93 375.312 1491.41 376.562C1490.89 377.812 1490.14 378.875 1489.16 379.75C1488.2 380.604 1487.05 381.26 1485.72 381.719C1484.39 382.177 1482.91 382.406 1481.28 382.406C1480.14 382.406 1479.04 382.26 1478 381.969C1476.98 381.656 1476.19 381.271 1475.62 380.812C1475.25 381.188 1474.94 381.615 1474.69 382.094C1474.46 382.573 1474.34 383.125 1474.34 383.75C1474.34 384.479 1474.68 385.083 1475.34 385.562C1476.03 386.042 1476.94 386.302 1478.06 386.344L1485.41 386.656C1486.8 386.698 1488.08 386.896 1489.25 387.25C1490.42 387.583 1491.43 388.073 1492.28 388.719C1493.14 389.344 1493.8 390.125 1494.28 391.062C1494.76 391.979 1495 393.052 1495 394.281C1495 395.573 1494.73 396.802 1494.19 397.969C1493.65 399.135 1492.81 400.156 1491.69 401.031C1490.58 401.927 1489.17 402.625 1487.44 403.125C1485.71 403.646 1483.67 403.906 1481.31 403.906C1479.04 403.906 1477.1 403.708 1475.5 403.312C1473.92 402.938 1472.61 402.417 1471.59 401.75C1470.57 401.083 1469.83 400.281 1469.38 399.344C1468.92 398.427 1468.69 397.427 1468.69 396.344C1468.69 395.656 1468.77 394.99 1468.94 394.344C1469.1 393.698 1469.35 393.083 1469.69 392.5C1470.04 391.917 1470.47 391.365 1470.97 390.844C1471.49 390.302 1472.08 389.771 1472.75 389.25C1471.73 388.729 1470.97 388.073 1470.47 387.281C1469.99 386.49 1469.75 385.635 1469.75 384.719C1469.75 383.448 1470.01 382.312 1470.53 381.312C1471.05 380.312 1471.7 379.417 1472.47 378.625C1471.82 377.854 1471.31 376.99 1470.94 376.031C1470.56 375.052 1470.38 373.875 1470.38 372.5C1470.38 370.896 1470.65 369.458 1471.19 368.188C1471.73 366.917 1472.48 365.844 1473.44 364.969C1474.4 364.094 1475.54 363.427 1476.88 362.969C1478.23 362.49 1479.7 362.25 1481.28 362.25C1482.14 362.25 1482.93 362.302 1483.66 362.406C1484.41 362.49 1485.1 362.615 1485.75 362.781H1494.25C1494.6 362.781 1494.86 362.958 1495.03 363.312C1495.22 363.646 1495.31 364.167 1495.31 364.875ZM1487.25 372.281C1487.25 370.365 1486.72 368.875 1485.66 367.812C1484.61 366.729 1483.12 366.188 1481.19 366.188C1480.19 366.188 1479.31 366.354 1478.56 366.688C1477.83 367.021 1477.22 367.479 1476.72 368.062C1476.24 368.646 1475.88 369.323 1475.62 370.094C1475.4 370.844 1475.28 371.635 1475.28 372.469C1475.28 374.323 1475.8 375.781 1476.84 376.844C1477.91 377.906 1479.39 378.438 1481.28 378.438C1482.3 378.438 1483.19 378.281 1483.94 377.969C1484.69 377.635 1485.3 377.188 1485.78 376.625C1486.28 376.042 1486.65 375.375 1486.88 374.625C1487.12 373.875 1487.25 373.094 1487.25 372.281ZM1489.84 394.562C1489.84 393.354 1489.34 392.427 1488.34 391.781C1487.36 391.115 1486.03 390.76 1484.34 390.719L1477.06 390.469C1476.4 390.99 1475.84 391.49 1475.41 391.969C1474.99 392.427 1474.66 392.865 1474.41 393.281C1474.16 393.719 1473.98 394.146 1473.88 394.562C1473.79 394.979 1473.75 395.406 1473.75 395.844C1473.75 397.198 1474.44 398.219 1475.81 398.906C1477.19 399.615 1479.1 399.969 1481.56 399.969C1483.12 399.969 1484.43 399.812 1485.47 399.5C1486.53 399.208 1487.39 398.812 1488.03 398.312C1488.68 397.812 1489.14 397.24 1489.41 396.594C1489.7 395.948 1489.84 395.271 1489.84 394.562Z" fill="black"/>
<path d="M1525.38 376.438C1525.38 377.25 1525.17 377.833 1524.75 378.188C1524.35 378.521 1523.9 378.688 1523.38 378.688H1504.94C1504.94 380.25 1505.09 381.656 1505.41 382.906C1505.72 384.156 1506.24 385.229 1506.97 386.125C1507.7 387.021 1508.65 387.708 1509.81 388.188C1510.98 388.667 1512.41 388.906 1514.09 388.906C1515.43 388.906 1516.61 388.802 1517.66 388.594C1518.7 388.365 1519.59 388.115 1520.34 387.844C1521.11 387.573 1521.74 387.333 1522.22 387.125C1522.72 386.896 1523.09 386.781 1523.34 386.781C1523.49 386.781 1523.61 386.823 1523.72 386.906C1523.84 386.969 1523.94 387.073 1524 387.219C1524.06 387.365 1524.1 387.573 1524.12 387.844C1524.17 388.094 1524.19 388.406 1524.19 388.781C1524.19 389.052 1524.18 389.292 1524.16 389.5C1524.14 389.688 1524.1 389.865 1524.06 390.031C1524.04 390.177 1523.99 390.312 1523.91 390.438C1523.84 390.562 1523.75 390.688 1523.62 390.812C1523.52 390.917 1523.19 391.104 1522.62 391.375C1522.06 391.625 1521.33 391.875 1520.44 392.125C1519.54 392.375 1518.5 392.594 1517.31 392.781C1516.15 392.99 1514.9 393.094 1513.56 393.094C1511.25 393.094 1509.22 392.771 1507.47 392.125C1505.74 391.479 1504.28 390.521 1503.09 389.25C1501.91 387.979 1501.01 386.385 1500.41 384.469C1499.8 382.552 1499.5 380.323 1499.5 377.781C1499.5 375.365 1499.81 373.198 1500.44 371.281C1501.06 369.344 1501.96 367.708 1503.12 366.375C1504.31 365.021 1505.74 363.99 1507.41 363.281C1509.07 362.552 1510.94 362.188 1513 362.188C1515.21 362.188 1517.08 362.542 1518.62 363.25C1520.19 363.958 1521.47 364.917 1522.47 366.125C1523.47 367.312 1524.2 368.719 1524.66 370.344C1525.14 371.948 1525.38 373.667 1525.38 375.5V376.438ZM1520.19 374.906C1520.25 372.198 1519.65 370.073 1518.38 368.531C1517.12 366.99 1515.26 366.219 1512.78 366.219C1511.51 366.219 1510.4 366.458 1509.44 366.938C1508.48 367.417 1507.68 368.052 1507.03 368.844C1506.39 369.635 1505.89 370.562 1505.53 371.625C1505.18 372.667 1504.98 373.76 1504.94 374.906H1520.19Z" fill="black"/>
<path d="M1550.91 384.062C1550.91 385.5 1550.64 386.781 1550.09 387.906C1549.57 389.031 1548.82 389.979 1547.84 390.75C1546.86 391.521 1545.7 392.104 1544.34 392.5C1542.99 392.896 1541.5 393.094 1539.88 393.094C1538.88 393.094 1537.92 393.01 1537 392.844C1536.1 392.698 1535.29 392.51 1534.56 392.281C1533.85 392.031 1533.25 391.781 1532.75 391.531C1532.25 391.26 1531.89 391.021 1531.66 390.812C1531.43 390.604 1531.26 390.312 1531.16 389.938C1531.05 389.562 1531 389.052 1531 388.406C1531 388.01 1531.02 387.677 1531.06 387.406C1531.1 387.135 1531.16 386.917 1531.22 386.75C1531.28 386.583 1531.36 386.469 1531.47 386.406C1531.59 386.323 1531.73 386.281 1531.88 386.281C1532.1 386.281 1532.44 386.427 1532.88 386.719C1533.33 386.99 1533.89 387.292 1534.53 387.625C1535.2 387.958 1535.98 388.271 1536.88 388.562C1537.77 388.833 1538.8 388.969 1539.97 388.969C1540.84 388.969 1541.64 388.875 1542.34 388.688C1543.05 388.5 1543.67 388.229 1544.19 387.875C1544.71 387.5 1545.1 387.031 1545.38 386.469C1545.67 385.906 1545.81 385.24 1545.81 384.469C1545.81 383.677 1545.6 383.01 1545.19 382.469C1544.79 381.927 1544.26 381.448 1543.59 381.031C1542.93 380.615 1542.18 380.25 1541.34 379.938C1540.51 379.604 1539.65 379.26 1538.75 378.906C1537.88 378.552 1537.01 378.156 1536.16 377.719C1535.32 377.26 1534.57 376.708 1533.91 376.062C1533.24 375.417 1532.7 374.646 1532.28 373.75C1531.89 372.854 1531.69 371.781 1531.69 370.531C1531.69 369.427 1531.9 368.375 1532.31 367.375C1532.75 366.354 1533.4 365.469 1534.25 364.719C1535.1 363.948 1536.17 363.333 1537.44 362.875C1538.73 362.417 1540.23 362.188 1541.94 362.188C1542.69 362.188 1543.44 362.25 1544.19 362.375C1544.94 362.5 1545.61 362.656 1546.22 362.844C1546.82 363.031 1547.33 363.24 1547.75 363.469C1548.19 363.677 1548.51 363.865 1548.72 364.031C1548.95 364.198 1549.09 364.344 1549.16 364.469C1549.24 364.594 1549.29 364.74 1549.31 364.906C1549.35 365.052 1549.39 365.24 1549.41 365.469C1549.45 365.698 1549.47 365.979 1549.47 366.312C1549.47 366.667 1549.45 366.979 1549.41 367.25C1549.39 367.5 1549.33 367.708 1549.25 367.875C1549.19 368.042 1549.1 368.167 1549 368.25C1548.9 368.312 1548.78 368.344 1548.66 368.344C1548.47 368.344 1548.2 368.229 1547.84 368C1547.49 367.771 1547.03 367.531 1546.47 367.281C1545.91 367.01 1545.24 366.76 1544.47 366.531C1543.72 366.302 1542.85 366.188 1541.88 366.188C1541 366.188 1540.23 366.292 1539.56 366.5C1538.9 366.688 1538.34 366.969 1537.91 367.344C1537.49 367.698 1537.17 368.125 1536.94 368.625C1536.73 369.125 1536.62 369.667 1536.62 370.25C1536.62 371.062 1536.83 371.75 1537.25 372.312C1537.67 372.854 1538.21 373.333 1538.88 373.75C1539.54 374.167 1540.3 374.542 1541.16 374.875C1542.01 375.208 1542.88 375.552 1543.75 375.906C1544.65 376.26 1545.52 376.656 1546.38 377.094C1547.25 377.531 1548.02 378.062 1548.69 378.688C1549.35 379.312 1549.89 380.062 1550.28 380.938C1550.7 381.812 1550.91 382.854 1550.91 384.062Z" fill="black"/>
</svg>
