<svg width="315" height="32" viewBox="0 0 315 32" fill="none" xmlns="http://www.w3.org/2000/svg">
<path d="M26.0246 28.3876C29.5954 25.4533 31.8744 20.9938 31.8744 16C31.8744 7.16353 24.7389 0 15.9376 0C7.13631 0 0 7.16353 0 16C0 24.8365 7.13543 32 15.9367 32H32L26.0246 28.3876ZM19.2289 13.1927L15.2637 24.0208L11.2453 16.1503L10.8452 17.1029L4.0475 16.3008L9.48553 15.4988L10.9271 11.6971L14.9238 19.4078L19.1155 7.97923L22.2877 15.5992L27.9525 16.3011L21.0416 17.2033L19.2289 13.1927Z" fill="#EA580C"/>
<path d="M68.0368 11.1039C68.0368 12.7472 67.7804 14.2021 67.2678 15.4686C66.7552 16.735 66.009 17.8054 65.029 18.6799C64.049 19.5392 62.8429 20.1951 61.4106 20.6473C59.9934 21.0996 58.3199 21.3258 56.3901 21.3258H53.9477V30.6657C53.9477 30.8165 53.8949 30.9522 53.7894 31.0728C53.6989 31.1934 53.5406 31.2914 53.3145 31.3668C53.0883 31.4422 52.7868 31.5025 52.4099 31.5477C52.033 31.5929 51.5505 31.6155 50.9625 31.6155C50.3896 31.6155 49.9072 31.5929 49.5152 31.5477C49.1383 31.5025 48.8367 31.4422 48.6106 31.3668C48.3845 31.2914 48.2261 31.1934 48.1357 31.0728C48.0452 30.9522 48 30.8165 48 30.6657V4.34205C48 3.63345 48.1809 3.10577 48.5428 2.75901C48.9197 2.39717 49.4097 2.21625 50.0127 2.21625H56.9102C57.6038 2.21625 58.2596 2.24641 58.8777 2.30671C59.511 2.35194 60.2648 2.46502 61.1392 2.64594C62.0137 2.81178 62.8956 3.12839 63.7852 3.59576C64.6898 4.06313 65.4587 4.65866 66.0919 5.38233C66.7251 6.09093 67.2075 6.92768 67.5392 7.89258C67.8709 8.8424 68.0368 9.91284 68.0368 11.1039ZM61.8177 11.5336C61.8177 10.5084 61.6367 9.66408 61.2749 9.00071C60.9131 8.33734 60.4683 7.84735 59.9406 7.53074C59.413 7.21413 58.8551 7.01814 58.2671 6.94276C57.6942 6.8523 57.0987 6.80707 56.4806 6.80707H53.9477V16.735H56.6163C57.5661 16.735 58.3576 16.6068 58.9908 16.3505C59.6391 16.0942 60.1668 15.7399 60.5739 15.2876C60.9809 14.8203 61.29 14.27 61.5011 13.6367C61.7121 12.9885 61.8177 12.2874 61.8177 11.5336Z" fill="#EA580C"/>
<path d="M91.4431 30.711C91.4431 30.8617 91.4054 30.9974 91.33 31.118C91.2547 31.2236 91.119 31.314 90.923 31.3894C90.7421 31.4648 90.4933 31.5175 90.1767 31.5477C89.8751 31.5929 89.4907 31.6155 89.0233 31.6155C88.5258 31.6155 88.1187 31.5929 87.8021 31.5477C87.5006 31.5175 87.2594 31.4648 87.0784 31.3894C86.8975 31.314 86.7694 31.2236 86.694 31.118C86.6186 30.9974 86.5809 30.8617 86.5809 30.711V28.3816C85.4653 29.5877 84.327 30.4923 83.1661 31.0954C82.0203 31.6985 80.8292 32 79.5929 32C78.2059 32 77.0375 31.7739 76.0876 31.3216C75.1529 30.8693 74.3915 30.2511 73.8035 29.4671C73.2306 28.6832 72.816 27.7786 72.5597 26.7534C72.3185 25.7131 72.1979 24.424 72.1979 22.8862V10.5385C72.1979 10.3878 72.2356 10.2596 72.311 10.1541C72.4014 10.0335 72.5522 9.93545 72.7633 9.86007C72.9894 9.78469 73.2834 9.73192 73.6452 9.70177C74.0221 9.65654 74.482 9.63392 75.0247 9.63392C75.5826 9.63392 76.0424 9.65654 76.4042 9.70177C76.7661 9.73192 77.0525 9.78469 77.2636 9.86007C77.4898 9.93545 77.6481 10.0335 77.7385 10.1541C77.829 10.2596 77.8742 10.3878 77.8742 10.5385V21.9364C77.8742 22.9918 77.9421 23.7984 78.0777 24.3562C78.2134 24.914 78.417 25.3965 78.6883 25.8035C78.9748 26.1955 79.3291 26.5046 79.7512 26.7307C80.1885 26.9418 80.6935 27.0473 81.2664 27.0473C81.9901 27.0473 82.7138 26.7835 83.4375 26.2558C84.1762 25.7282 84.9602 24.9592 85.7894 23.9491V10.5385C85.7894 10.3878 85.8271 10.2596 85.9025 10.1541C85.9929 10.0335 86.1437 9.93545 86.3548 9.86007C86.5809 9.78469 86.8749 9.73192 87.2368 9.70177C87.5986 9.65654 88.0584 9.63392 88.6163 9.63392C89.1741 9.63392 89.6339 9.65654 89.9958 9.70177C90.3576 9.73192 90.6441 9.78469 90.8551 9.86007C91.0662 9.93545 91.217 10.0335 91.3074 10.1541C91.3979 10.2596 91.4431 10.3878 91.4431 10.5385V30.711Z" fill="#EA580C"/>
<path d="M102.886 30.711C102.886 30.8617 102.841 30.9974 102.751 31.118C102.66 31.2236 102.502 31.314 102.276 31.3894C102.065 31.4648 101.778 31.5175 101.416 31.5477C101.054 31.5929 100.595 31.6155 100.037 31.6155C99.4789 31.6155 99.0191 31.5929 98.6572 31.5477C98.2954 31.5175 98.0014 31.4648 97.7753 31.3894C97.5642 31.314 97.4134 31.2236 97.323 31.118C97.2325 30.9974 97.1873 30.8617 97.1873 30.711V0.972438C97.1873 0.821673 97.2325 0.685983 97.323 0.565371C97.4134 0.444759 97.5642 0.346761 97.7753 0.271378C98.0014 0.180919 98.2954 0.113074 98.6572 0.0678445C99.0191 0.0226148 99.4789 0 100.037 0C100.595 0 101.054 0.0226148 101.416 0.0678445C101.778 0.113074 102.065 0.180919 102.276 0.271378C102.502 0.346761 102.66 0.444759 102.751 0.565371C102.841 0.685983 102.886 0.821673 102.886 0.972438V30.711Z" fill="#EA580C"/>
<path d="M122.787 25.012C122.787 26.1578 122.569 27.168 122.131 28.0424C121.709 28.9168 121.106 29.6481 120.322 30.236C119.538 30.824 118.611 31.2612 117.541 31.5477C116.47 31.8492 115.309 32 114.058 32C113.304 32 112.58 31.9397 111.887 31.8191C111.208 31.7135 110.598 31.5779 110.055 31.412C109.512 31.2311 109.06 31.0502 108.698 30.8693C108.336 30.6883 108.073 30.5225 107.907 30.3717C107.741 30.2059 107.613 29.9571 107.522 29.6254C107.432 29.2787 107.387 28.7736 107.387 28.1102C107.387 27.673 107.402 27.3263 107.432 27.07C107.462 26.7986 107.507 26.5875 107.567 26.4367C107.628 26.2709 107.703 26.1654 107.794 26.1201C107.884 26.0598 107.997 26.0297 108.133 26.0297C108.299 26.0297 108.54 26.1277 108.857 26.3237C109.188 26.5046 109.595 26.7081 110.078 26.9343C110.56 27.1604 111.118 27.3715 111.751 27.5675C112.4 27.7635 113.131 27.8615 113.945 27.8615C114.457 27.8615 114.91 27.8087 115.302 27.7032C115.709 27.5976 116.056 27.4469 116.342 27.2509C116.644 27.0549 116.87 26.8061 117.02 26.5046C117.171 26.2031 117.247 25.8563 117.247 25.4643C117.247 25.012 117.103 24.6276 116.817 24.311C116.546 23.9793 116.176 23.6928 115.709 23.4516C115.257 23.2104 114.736 22.9842 114.148 22.7731C113.576 22.5621 112.98 22.3284 112.362 22.0721C111.759 21.8158 111.163 21.5218 110.575 21.1901C110.002 20.8584 109.482 20.4514 109.015 19.9689C108.563 19.4865 108.193 18.906 107.907 18.2276C107.635 17.5491 107.5 16.735 107.5 15.7852C107.5 14.8203 107.688 13.9383 108.065 13.1392C108.442 12.3251 108.985 11.6316 109.693 11.0587C110.402 10.4857 111.261 10.041 112.271 9.72438C113.297 9.40777 114.442 9.24947 115.709 9.24947C116.342 9.24947 116.953 9.2947 117.541 9.38516C118.144 9.47562 118.686 9.58869 119.169 9.72438C119.651 9.86007 120.058 10.0108 120.39 10.1767C120.722 10.3274 120.955 10.4631 121.091 10.5837C121.242 10.6893 121.347 10.8024 121.408 10.923C121.468 11.0285 121.513 11.1642 121.543 11.33C121.574 11.4808 121.596 11.6768 121.611 11.918C121.641 12.1442 121.657 12.4306 121.657 12.7774C121.657 13.1845 121.641 13.5161 121.611 13.7724C121.596 14.0287 121.559 14.2323 121.498 14.383C121.453 14.5338 121.385 14.6393 121.295 14.6996C121.204 14.7449 121.099 14.7675 120.978 14.7675C120.842 14.7675 120.631 14.6921 120.345 14.5413C120.058 14.3755 119.697 14.2021 119.259 14.0212C118.837 13.8403 118.34 13.6744 117.767 13.5237C117.209 13.3578 116.568 13.2749 115.845 13.2749C115.332 13.2749 114.887 13.3277 114.51 13.4332C114.133 13.5388 113.824 13.6895 113.583 13.8855C113.342 14.0815 113.161 14.3152 113.04 14.5866C112.92 14.8429 112.859 15.1218 112.859 15.4233C112.859 15.8907 113.003 16.2827 113.289 16.5993C113.576 16.9159 113.952 17.1948 114.42 17.436C114.887 17.6773 115.415 17.9034 116.003 18.1145C116.606 18.3256 117.209 18.5592 117.812 18.8155C118.43 19.0568 119.033 19.3432 119.621 19.6749C120.224 20.0066 120.759 20.4137 121.227 20.8961C121.694 21.3786 122.071 21.959 122.358 22.6375C122.644 23.3008 122.787 24.0923 122.787 25.012Z" fill="#EA580C"/>
<path d="M145.719 20.0367C145.719 20.7303 145.56 21.2429 145.244 21.5746C144.942 21.9062 144.52 22.0721 143.977 22.0721H131.698C131.698 22.9314 131.796 23.7154 131.992 24.424C132.203 25.1175 132.527 25.7131 132.964 26.2106C133.416 26.693 133.989 27.0624 134.683 27.3187C135.391 27.575 136.236 27.7032 137.216 27.7032C138.211 27.7032 139.085 27.6353 139.839 27.4996C140.593 27.3489 141.241 27.1906 141.784 27.0247C142.342 26.8438 142.801 26.6855 143.163 26.5498C143.525 26.3991 143.819 26.3237 144.045 26.3237C144.181 26.3237 144.294 26.3538 144.384 26.4141C144.475 26.4594 144.55 26.5498 144.611 26.6855C144.671 26.8212 144.709 27.0172 144.724 27.2735C144.754 27.5147 144.769 27.8238 144.769 28.2007C144.769 28.5324 144.761 28.8188 144.746 29.0601C144.731 29.2862 144.709 29.4822 144.678 29.6481C144.648 29.8139 144.603 29.9571 144.543 30.0777C144.482 30.1833 144.4 30.2888 144.294 30.3943C144.204 30.4999 143.94 30.6431 143.502 30.824C143.065 31.0049 142.507 31.1859 141.829 31.3668C141.151 31.5326 140.374 31.6759 139.5 31.7965C138.625 31.9322 137.69 32 136.695 32C134.901 32 133.326 31.7739 131.969 31.3216C130.627 30.8693 129.504 30.1833 128.599 29.2636C127.695 28.3439 127.016 27.183 126.564 25.7809C126.127 24.3788 125.908 22.7355 125.908 20.8509C125.908 19.0568 126.142 17.4436 126.609 16.0113C127.077 14.564 127.755 13.3428 128.645 12.3477C129.534 11.3376 130.612 10.5687 131.878 10.041C133.16 9.51331 134.6 9.24947 136.198 9.24947C137.886 9.24947 139.326 9.49823 140.517 9.99576C141.723 10.4933 142.711 11.1868 143.48 12.0763C144.249 12.9508 144.814 13.991 145.176 15.1972C145.538 16.4033 145.719 17.715 145.719 19.1322V20.0367ZM140.201 18.4085C140.246 16.8104 139.922 15.559 139.228 14.6544C138.55 13.7347 137.494 13.2749 136.062 13.2749C135.339 13.2749 134.705 13.4106 134.163 13.682C133.635 13.9534 133.19 14.3227 132.828 14.7901C132.482 15.2424 132.21 15.7852 132.014 16.4184C131.833 17.0365 131.728 17.6999 131.698 18.4085H140.201Z" fill="#EA580C"/>
<path d="M181.495 27.0473C181.495 27.4243 181.48 27.7484 181.45 28.0198C181.435 28.2761 181.405 28.5022 181.36 28.6982C181.314 28.8792 181.254 29.0375 181.179 29.1731C181.103 29.3088 180.983 29.4671 180.817 29.6481C180.651 29.8139 180.327 30.0325 179.845 30.3039C179.377 30.5753 178.797 30.8391 178.103 31.0954C177.425 31.3366 176.641 31.5402 175.751 31.706C174.877 31.8718 173.927 31.9548 172.902 31.9548C170.897 31.9548 169.087 31.6457 167.474 31.0276C165.861 30.4094 164.489 29.4898 163.358 28.2686C162.228 27.0323 161.361 25.4945 160.758 23.6551C160.155 21.8158 159.853 19.6749 159.853 17.2325C159.853 14.7449 160.185 12.5362 160.848 10.6064C161.511 8.67656 162.439 7.05583 163.63 5.74417C164.821 4.43251 166.245 3.43746 167.904 2.75901C169.577 2.08057 171.417 1.74134 173.422 1.74134C174.236 1.74134 175.02 1.80919 175.774 1.94488C176.528 2.08057 177.221 2.26148 177.854 2.48763C178.503 2.6987 179.083 2.94747 179.596 3.23392C180.108 3.52038 180.463 3.76914 180.659 3.98021C180.87 4.17621 181.013 4.34205 181.088 4.47774C181.164 4.61343 181.224 4.78681 181.269 4.99788C181.314 5.20895 181.345 5.45771 181.36 5.74417C181.39 6.03062 181.405 6.38492 181.405 6.80707C181.405 7.25936 181.39 7.64382 181.36 7.96042C181.33 8.27703 181.277 8.53333 181.201 8.72933C181.126 8.92532 181.036 9.06855 180.93 9.15901C180.825 9.24947 180.704 9.2947 180.568 9.2947C180.342 9.2947 180.056 9.16655 179.709 8.91025C179.362 8.63887 178.91 8.34488 178.352 8.02827C177.809 7.69658 177.153 7.40259 176.384 7.14629C175.631 6.87491 174.726 6.73922 173.671 6.73922C172.51 6.73922 171.47 6.98045 170.55 7.4629C169.645 7.93027 168.869 8.60872 168.221 9.49823C167.587 10.3727 167.105 11.4356 166.773 12.6869C166.441 13.9383 166.276 15.3479 166.276 16.9159C166.276 18.6346 166.449 20.1272 166.796 21.3936C167.158 22.645 167.663 23.6777 168.311 24.4919C168.974 25.306 169.766 25.9166 170.686 26.3237C171.62 26.7157 172.668 26.9117 173.829 26.9117C174.884 26.9117 175.796 26.791 176.565 26.5498C177.334 26.2935 177.99 26.0146 178.533 25.7131C179.091 25.4115 179.543 25.1402 179.89 24.8989C180.252 24.6577 180.531 24.5371 180.727 24.5371C180.877 24.5371 180.998 24.5673 181.088 24.6276C181.179 24.6879 181.254 24.8085 181.314 24.9894C181.375 25.1703 181.42 25.4266 181.45 25.7583C181.48 26.0749 181.495 26.5046 181.495 27.0473Z" fill="black"/>
<path d="M205.829 20.4212C205.829 22.1399 205.603 23.7079 205.151 25.1251C204.698 26.5423 204.012 27.7635 203.093 28.7887C202.173 29.8139 201.02 30.6054 199.633 31.1633C198.245 31.7211 196.625 32 194.77 32C192.976 32 191.416 31.7512 190.089 31.2537C188.762 30.7562 187.662 30.0325 186.787 29.0827C185.913 28.1329 185.265 26.9644 184.842 25.5774C184.42 24.1903 184.209 22.6073 184.209 20.8283C184.209 19.1095 184.435 17.5416 184.888 16.1244C185.355 14.6921 186.049 13.4709 186.968 12.4608C187.888 11.4356 189.034 10.6441 190.406 10.0862C191.793 9.52839 193.413 9.24947 195.268 9.24947C197.077 9.24947 198.645 9.49823 199.972 9.99576C201.298 10.4782 202.392 11.1943 203.251 12.1442C204.125 13.094 204.774 14.2624 205.196 15.6495C205.618 17.0365 205.829 18.6271 205.829 20.4212ZM199.972 20.6473C199.972 19.6523 199.889 18.7402 199.723 17.911C199.572 17.0667 199.308 16.3355 198.931 15.7173C198.555 15.0992 198.049 14.6167 197.416 14.27C196.798 13.9232 196.014 13.7498 195.064 13.7498C194.22 13.7498 193.481 13.9081 192.848 14.2247C192.215 14.5263 191.695 14.9786 191.288 15.5816C190.881 16.1696 190.572 16.8857 190.36 17.73C190.164 18.5592 190.066 19.5091 190.066 20.5795C190.066 21.5746 190.149 22.4942 190.315 23.3385C190.481 24.1677 190.745 24.8914 191.107 25.5095C191.484 26.1277 191.989 26.6101 192.622 26.9569C193.255 27.2886 194.039 27.4544 194.974 27.4544C195.833 27.4544 196.58 27.3037 197.213 27.0021C197.846 26.6855 198.366 26.2332 198.773 25.6452C199.18 25.0572 199.482 24.3486 199.678 23.5194C199.874 22.6751 199.972 21.7178 199.972 20.6473Z" fill="black"/>
<path d="M229.62 30.711C229.62 30.8617 229.575 30.9974 229.484 31.118C229.394 31.2236 229.243 31.314 229.032 31.3894C228.821 31.4648 228.527 31.5175 228.15 31.5477C227.788 31.5929 227.336 31.6155 226.793 31.6155C226.235 31.6155 225.768 31.5929 225.391 31.5477C225.029 31.5175 224.743 31.4648 224.531 31.3894C224.32 31.314 224.17 31.2236 224.079 31.118C223.989 30.9974 223.943 30.8617 223.943 30.711V19.2C223.943 18.22 223.868 17.4511 223.717 16.8933C223.582 16.3355 223.378 15.8605 223.107 15.4686C222.835 15.0615 222.481 14.7524 222.044 14.5413C221.622 14.3152 221.124 14.2021 220.551 14.2021C219.828 14.2021 219.096 14.466 218.358 14.9936C217.619 15.5213 216.85 16.2902 216.051 17.3004V30.711C216.051 30.8617 216.006 30.9974 215.915 31.118C215.825 31.2236 215.666 31.314 215.44 31.3894C215.229 31.4648 214.943 31.5175 214.581 31.5477C214.219 31.5929 213.759 31.6155 213.201 31.6155C212.644 31.6155 212.184 31.5929 211.822 31.5477C211.46 31.5175 211.166 31.4648 210.94 31.3894C210.729 31.314 210.578 31.2236 210.488 31.118C210.397 30.9974 210.352 30.8617 210.352 30.711V10.5385C210.352 10.3878 210.39 10.2596 210.465 10.1541C210.54 10.0335 210.676 9.93545 210.872 9.86007C211.068 9.78469 211.317 9.73192 211.618 9.70177C211.935 9.65654 212.327 9.63392 212.794 9.63392C213.277 9.63392 213.676 9.65654 213.993 9.70177C214.31 9.73192 214.551 9.78469 214.717 9.86007C214.898 9.93545 215.026 10.0335 215.101 10.1541C215.176 10.2596 215.214 10.3878 215.214 10.5385V12.8678C216.33 11.6617 217.461 10.7571 218.606 10.1541C219.767 9.551 220.973 9.24947 222.225 9.24947C223.597 9.24947 224.75 9.47562 225.685 9.92791C226.635 10.3802 227.396 10.9984 227.969 11.7823C228.557 12.5512 228.979 13.4558 229.235 14.4961C229.492 15.5364 229.62 16.7877 229.62 18.2502V30.711Z" fill="black"/>
<path d="M254.496 30.711C254.496 30.8617 254.451 30.9974 254.36 31.118C254.27 31.2236 254.119 31.314 253.908 31.3894C253.697 31.4648 253.403 31.5175 253.026 31.5477C252.664 31.5929 252.212 31.6155 251.669 31.6155C251.111 31.6155 250.644 31.5929 250.267 31.5477C249.905 31.5175 249.619 31.4648 249.408 31.3894C249.197 31.314 249.046 31.2236 248.955 31.118C248.865 30.9974 248.82 30.8617 248.82 30.711V19.2C248.82 18.22 248.744 17.4511 248.594 16.8933C248.458 16.3355 248.254 15.8605 247.983 15.4686C247.712 15.0615 247.357 14.7524 246.92 14.5413C246.498 14.3152 246 14.2021 245.428 14.2021C244.704 14.2021 243.973 14.466 243.234 14.9936C242.495 15.5213 241.726 16.2902 240.927 17.3004V30.711C240.927 30.8617 240.882 30.9974 240.792 31.118C240.701 31.2236 240.543 31.314 240.317 31.3894C240.106 31.4648 239.819 31.5175 239.457 31.5477C239.095 31.5929 238.636 31.6155 238.078 31.6155C237.52 31.6155 237.06 31.5929 236.698 31.5477C236.336 31.5175 236.042 31.4648 235.816 31.3894C235.605 31.314 235.454 31.2236 235.364 31.118C235.274 30.9974 235.228 30.8617 235.228 30.711V10.5385C235.228 10.3878 235.266 10.2596 235.341 10.1541C235.417 10.0335 235.552 9.93545 235.748 9.86007C235.944 9.78469 236.193 9.73192 236.495 9.70177C236.811 9.65654 237.203 9.63392 237.671 9.63392C238.153 9.63392 238.553 9.65654 238.869 9.70177C239.186 9.73192 239.427 9.78469 239.593 9.86007C239.774 9.93545 239.902 10.0335 239.977 10.1541C240.053 10.2596 240.09 10.3878 240.09 10.5385V12.8678C241.206 11.6617 242.337 10.7571 243.483 10.1541C244.644 9.551 245.85 9.24947 247.101 9.24947C248.473 9.24947 249.626 9.47562 250.561 9.92791C251.511 10.3802 252.272 10.9984 252.845 11.7823C253.433 12.5512 253.855 13.4558 254.112 14.4961C254.368 15.5364 254.496 16.7877 254.496 18.2502V30.711Z" fill="black"/>
<path d="M278.739 20.0367C278.739 20.7303 278.581 21.2429 278.264 21.5746C277.963 21.9062 277.541 22.0721 276.998 22.0721H264.718C264.718 22.9314 264.816 23.7154 265.012 24.424C265.223 25.1175 265.547 25.7131 265.984 26.2106C266.437 26.693 267.01 27.0624 267.703 27.3187C268.412 27.575 269.256 27.7032 270.236 27.7032C271.231 27.7032 272.106 27.6353 272.859 27.4996C273.613 27.3489 274.261 27.1906 274.804 27.0247C275.362 26.8438 275.822 26.6855 276.184 26.5498C276.546 26.3991 276.84 26.3237 277.066 26.3237C277.201 26.3237 277.315 26.3538 277.405 26.4141C277.495 26.4594 277.571 26.5498 277.631 26.6855C277.691 26.8212 277.729 27.0172 277.744 27.2735C277.774 27.5147 277.789 27.8238 277.789 28.2007C277.789 28.5324 277.782 28.8188 277.767 29.0601C277.752 29.2862 277.729 29.4822 277.699 29.6481C277.669 29.8139 277.624 29.9571 277.563 30.0777C277.503 30.1833 277.42 30.2888 277.315 30.3943C277.224 30.4999 276.96 30.6431 276.523 30.824C276.086 31.0049 275.528 31.1859 274.849 31.3668C274.171 31.5326 273.395 31.6759 272.52 31.7965C271.646 31.9322 270.711 32 269.716 32C267.922 32 266.346 31.7739 264.989 31.3216C263.648 30.8693 262.524 30.1833 261.62 29.2636C260.715 28.3439 260.037 27.183 259.584 25.7809C259.147 24.3788 258.929 22.7355 258.929 20.8509C258.929 19.0568 259.162 17.4436 259.63 16.0113C260.097 14.564 260.776 13.3428 261.665 12.3477C262.555 11.3376 263.633 10.5687 264.899 10.041C266.18 9.51331 267.62 9.24947 269.218 9.24947C270.907 9.24947 272.347 9.49823 273.538 9.99576C274.744 10.4933 275.731 11.1868 276.5 12.0763C277.269 12.9508 277.835 13.991 278.196 15.1972C278.558 16.4033 278.739 17.715 278.739 19.1322V20.0367ZM273.221 18.4085C273.266 16.8104 272.942 15.559 272.249 14.6544C271.57 13.7347 270.515 13.2749 269.083 13.2749C268.359 13.2749 267.726 13.4106 267.183 13.682C266.655 13.9534 266.211 14.3227 265.849 14.7901C265.502 15.2424 265.231 15.7852 265.035 16.4184C264.854 17.0365 264.748 17.6999 264.718 18.4085H273.221Z" fill="black"/>
<path d="M298.708 27.4996C298.708 27.8916 298.693 28.2233 298.663 28.4947C298.648 28.751 298.618 28.9696 298.572 29.1505C298.542 29.3314 298.497 29.4822 298.437 29.6028C298.392 29.7084 298.278 29.8516 298.098 30.0325C297.917 30.1984 297.608 30.4094 297.17 30.6657C296.733 30.9069 296.236 31.1256 295.678 31.3216C295.12 31.5175 294.509 31.6759 293.846 31.7965C293.198 31.9171 292.527 31.9774 291.833 31.9774C290.28 31.9774 288.901 31.7362 287.695 31.2537C286.504 30.7713 285.501 30.0627 284.687 29.1279C283.873 28.1781 283.255 27.0247 282.833 25.6678C282.425 24.311 282.222 22.7581 282.222 21.0092C282.222 18.9889 282.471 17.2476 282.968 15.7852C283.481 14.3077 284.189 13.0865 285.094 12.1216C285.999 11.1567 287.069 10.4405 288.305 9.97314C289.542 9.50577 290.898 9.27208 292.376 9.27208C292.979 9.27208 293.567 9.32485 294.14 9.43039C294.728 9.53592 295.271 9.67915 295.768 9.86007C296.281 10.041 296.733 10.2445 297.125 10.4707C297.532 10.6968 297.819 10.8928 297.984 11.0587C298.15 11.2245 298.263 11.3677 298.324 11.4883C298.399 11.5939 298.452 11.7371 298.482 11.918C298.527 12.0989 298.557 12.3251 298.572 12.5965C298.603 12.8528 298.618 13.1694 298.618 13.5463C298.618 14.4207 298.542 15.0389 298.392 15.4007C298.241 15.7475 298.045 15.9208 297.804 15.9208C297.547 15.9208 297.276 15.8153 296.989 15.6042C296.703 15.3932 296.364 15.1595 295.972 14.9032C295.58 14.6469 295.112 14.4132 294.57 14.2021C294.027 13.991 293.379 13.8855 292.625 13.8855C291.147 13.8855 290.017 14.4584 289.233 15.6042C288.449 16.735 288.057 18.4009 288.057 20.6021C288.057 21.6876 288.155 22.645 288.351 23.4742C288.547 24.3034 288.833 24.9969 289.21 25.5548C289.602 26.1126 290.084 26.5347 290.657 26.8212C291.245 27.0926 291.924 27.2283 292.693 27.2283C293.477 27.2283 294.147 27.1152 294.705 26.889C295.278 26.6478 295.776 26.384 296.198 26.0975C296.62 25.8111 296.974 25.5548 297.261 25.3286C297.547 25.0874 297.788 24.9668 297.984 24.9668C298.12 24.9668 298.233 25.0045 298.324 25.0799C298.414 25.1552 298.482 25.2985 298.527 25.5095C298.588 25.7055 298.633 25.9618 298.663 26.2784C298.693 26.5951 298.708 27.0021 298.708 27.4996Z" fill="black"/>
<path d="M314.787 28.7208C314.787 29.3842 314.742 29.8968 314.652 30.2587C314.576 30.6054 314.471 30.8542 314.335 31.0049C314.199 31.1406 313.996 31.2688 313.724 31.3894C313.468 31.4949 313.159 31.5854 312.797 31.6608C312.45 31.7512 312.066 31.8191 311.644 31.8643C311.237 31.9095 310.822 31.9322 310.4 31.9322C309.269 31.9322 308.289 31.7889 307.46 31.5025C306.631 31.216 305.945 30.7788 305.402 30.1908C304.859 29.5877 304.46 28.8339 304.204 27.9293C303.947 27.0247 303.819 25.9543 303.819 24.718V14.383H301.399C301.113 14.383 300.894 14.2097 300.743 13.8629C300.593 13.5011 300.517 12.9055 300.517 12.0763C300.517 11.6391 300.532 11.2697 300.563 10.9682C300.608 10.6667 300.668 10.433 300.743 10.2671C300.819 10.0862 300.909 9.95807 301.015 9.88269C301.135 9.8073 301.271 9.76961 301.422 9.76961H303.819V5.26926C303.819 5.11849 303.857 4.9828 303.932 4.86219C304.023 4.74158 304.173 4.64358 304.384 4.5682C304.611 4.47774 304.905 4.41743 305.266 4.38728C305.643 4.34205 306.103 4.31943 306.646 4.31943C307.204 4.31943 307.664 4.34205 308.025 4.38728C308.402 4.41743 308.696 4.47774 308.907 4.5682C309.119 4.64358 309.269 4.74158 309.36 4.86219C309.45 4.9828 309.495 5.11849 309.495 5.26926V9.76961H313.883C314.033 9.76961 314.162 9.8073 314.267 9.88269C314.388 9.95807 314.486 10.0862 314.561 10.2671C314.637 10.433 314.689 10.6667 314.719 10.9682C314.765 11.2697 314.787 11.6391 314.787 12.0763C314.787 12.9055 314.712 13.5011 314.561 13.8629C314.41 14.2097 314.192 14.383 313.905 14.383H309.495V23.8587C309.495 24.9592 309.669 25.7885 310.016 26.3463C310.362 26.889 310.98 27.1604 311.87 27.1604C312.172 27.1604 312.443 27.1378 312.684 27.0926C312.925 27.0323 313.136 26.972 313.317 26.9117C313.513 26.8363 313.672 26.776 313.792 26.7307C313.928 26.6704 314.049 26.6403 314.154 26.6403C314.245 26.6403 314.327 26.6704 314.403 26.7307C314.493 26.776 314.561 26.8815 314.606 27.0473C314.652 27.1981 314.689 27.4092 314.719 27.6806C314.765 27.9519 314.787 28.2987 314.787 28.7208Z" fill="black"/>
</svg>
