<?xml version="1.0" standalone="no"?>
<!DOCTYPE svg PUBLIC "-//W3C//DTD SVG 20010904//EN"
 "http://www.w3.org/TR/2001/REC-SVG-20010904/DTD/svg10.dtd">
<svg version="1.0" xmlns="http://www.w3.org/2000/svg"
 width="512.000000pt" height="512.000000pt" viewBox="0 0 512.000000 512.000000"
 preserveAspectRatio="xMidYMid meet">
<metadata>
Created by potrace 1.14, written by Peter Selinger 2001-2017
</metadata>
<g transform="translate(0.000000,512.000000) scale(0.100000,-0.100000)"
fill="#000000" stroke="none">
<path d="M2369 5116 c-2 -2 -38 -6 -79 -10 -95 -8 -231 -31 -355 -60 -136 -32
-339 -107 -500 -186 -257 -125 -473 -279 -674 -479 -328 -328 -541 -690 -667
-1133 -18 -65 -35 -130 -38 -145 -2 -15 -9 -53 -15 -83 -29 -160 -36 -240 -35
-470 0 -113 3 -232 8 -265 4 -33 10 -76 12 -95 8 -61 20 -123 41 -210 8 -36
16 -69 17 -75 49 -227 235 -623 390 -831 17 -23 40 -55 51 -70 69 -97 236
-275 349 -372 43 -37 84 -72 90 -77 6 -6 27 -22 46 -35 19 -13 37 -27 40 -30
3 -3 25 -19 50 -35 25 -16 47 -32 50 -35 6 -6 101 -65 150 -93 61 -34 228
-117 237 -117 5 0 29 -9 53 -21 78 -38 306 -109 435 -135 33 -7 186 -32 240
-40 60 -9 2867 -15 2845 -7 -8 3 -33 17 -55 31 -53 34 -744 452 -770 466 -22
13 -108 67 -114 72 -3 2 15 21 40 41 59 49 223 215 279 282 25 29 50 59 55 65
15 16 104 142 146 206 164 252 299 580 355 865 8 44 17 89 19 100 28 141 40
498 23 675 -9 84 -26 207 -33 230 -2 8 -6 26 -9 40 -16 98 -99 373 -118 398
-6 6 -8 12 -5 12 13 0 -119 276 -181 379 -116 190 -229 337 -377 485 -133 134
-171 167 -295 258 -58 43 -109 82 -115 86 -26 20 -189 114 -263 151 -217 109
-511 205 -712 235 -19 2 -55 7 -80 11 -25 3 -58 9 -75 11 -34 6 -451 14 -456
10z m706 -1308 c4 -13 18 -48 31 -78 13 -30 85 -203 160 -385 75 -181 142
-343 150 -360 7 -16 43 -102 79 -190 36 -88 69 -163 73 -167 4 -3 39 -10 77
-13 39 -4 79 -9 90 -11 11 -2 49 -7 85 -10 36 -3 68 -8 71 -10 4 -2 37 -6 74
-10 37 -3 75 -7 84 -9 16 -3 49 -7 146 -19 17 -2 62 -8 100 -12 39 -4 73 -9
78 -10 4 -1 22 -2 40 -3 51 -3 12 -18 -66 -26 -37 -3 -76 -8 -86 -10 -10 -2
-42 -6 -72 -10 -30 -3 -65 -8 -79 -10 -24 -5 -48 -8 -155 -20 -27 -3 -61 -8
-75 -10 -34 -5 -243 -33 -305 -40 -27 -4 -77 -11 -110 -16 -96 -14 -99 -14
-120 34 -10 23 -34 76 -53 117 -19 41 -52 116 -74 165 -22 50 -50 113 -63 140
-13 28 -35 77 -49 109 -15 33 -28 57 -30 55 -4 -4 -373 -1008 -554 -1506 -42
-117 -80 -209 -83 -205 -4 4 -61 113 -126 242 -263 515 -418 819 -464 909
l-48 94 -35 -77 c-22 -48 -40 -74 -48 -72 -7 3 -38 7 -68 10 -30 3 -91 10
-135 16 -44 5 -102 12 -130 15 -27 3 -66 8 -85 10 -32 4 -216 26 -335 40 -27
3 -70 8 -95 10 -25 3 -61 7 -80 10 -19 2 -55 7 -80 11 -54 7 -65 14 -24 15 32
1 54 4 156 20 37 6 78 12 90 14 56 7 259 36 276 40 10 1 45 7 77 11 33 4 62 8
65 9 8 2 112 18 135 21 11 1 23 3 26 3 3 1 25 52 48 114 24 61 62 162 86 222
23 61 50 130 58 155 9 25 22 60 30 78 15 36 21 33 49 -23 18 -36 147 -285 425
-820 40 -77 96 -186 125 -242 29 -57 55 -99 58 -95 4 4 26 61 50 127 23 66 55
154 70 195 16 41 109 298 209 570 99 272 185 502 190 510 4 9 12 31 16 50 4
19 11 40 15 45 3 6 31 76 60 158 29 81 57 147 61 147 4 0 11 -10 14 -22z"/>
</g>
</svg>
